<?xml version="1.0" encoding="UTF-8" standalone="no"?>
<svg width="300px" height="200px" viewBox="0 0 300 200" version="1.1" xmlns="http://www.w3.org/2000/svg" xmlns:xlink="http://www.w3.org/1999/xlink" xmlns:sketch="http://www.bohemiancoding.com/sketch/ns">
    <!-- Generator: Sketch 3.0.3 (7891) - http://www.bohemiancoding.com/sketch -->
    <title>awesomegifs</title>
    <desc>Created with Sketch.</desc>
    <defs></defs>
    <g id="Logo-page" stroke="none" stroke-width="1" fill="none" fill-rule="evenodd" sketch:type="MSPage">
        <g id="Artboard-1" sketch:type="MSArtboardGroup" transform="translate(-66.000000, -29.000000)" fill="#FFFFFF">
            <g id="awesomegifs" sketch:type="MSLayerGroup" transform="translate(66.000000, 105.000000)">
                <g id="Artboard-3" sketch:type="MSShapeGroup">
                    <g id="awesomegifs">
                        <path d="M42.571777,8.79645455 L53.2682927,8.82154545 L53.784669,17.6399545 L54.8362369,35.6165455 L45.4348432,35.6165455 L44.915331,26.7521364 L40.7592334,35.6165455 L29.9874564,35.6165455 L42.571777,8.79645455 L42.571777,8.79645455 Z" id="Shape_2_"></path>
                        <path d="M87.3533101,15.7184091 L87.3930314,15.8041364 L77.4198606,36.4821818 L59.5264808,36.4821818 L59.5191638,36.3535909 L62.7898955,29.6051818 L62.7114983,29.5696364 L59.0947735,29.5696364 L58.2637631,15.7184091 L65.6968641,15.7184091 L66.1097561,22.5870455 L69.5017422,15.7184091 L77.9216028,15.7184091 L77.9675958,15.8041364 L71.3519164,29.5257273 L72.2414634,29.5685909 L78.9250871,15.7173636 L87.3533101,15.7184091 L87.3533101,15.7184091 Z" id="Shape_3_"></path>
                        <path d="M108.839373,15.7184091 L101.767944,22.5703182 L109.249129,22.5703182 L102.188153,29.6051818 L109.670383,29.6051818 L106.356794,36.4821818 L90.3512195,36.4821818 L89.9393728,29.6187727 L93.3313589,22.5703182 L89.5170732,22.5703182 L89.1073171,15.7184091 L108.839373,15.7184091 L108.839373,15.7184091 Z" id="Shape_4_"></path>
                        <path d="M130.726829,15.7184091 L131.134495,22.6560455 L123.818467,22.6999545 L131.94669,36.4832273 L112.620209,36.4832273 L111.808014,22.6560455 L115.449826,22.6069091 L111.383624,15.7184091 L130.726829,15.7184091 L130.726829,15.7184091 Z" id="Shape_5_"></path>
                        <path d="M137.15122,15.7184091 L153.377352,15.7184091 L154.224042,29.5267727 L150.835192,36.4821818 L134.508711,36.4821818 L133.65993,22.655 C133.678746,22.655 134.264111,21.5123182 135.409756,19.2133636 C136.480139,17.1067727 137.06446,15.9400455 137.15122,15.7184091 L137.15122,15.7184091 L137.15122,15.7184091 Z M146.512892,27.8310455 L146.096864,21.7747273 L141.372125,21.7747273 L141.770383,27.8310455 L146.512892,27.8310455 L146.512892,27.8310455 Z" id="Shape_6_"></path>
                        <path d="M174.504878,15.7184091 L186.780836,36.6442273 L179.675958,36.6442273 L171.436934,22.6957727 L169.334843,22.6957727 L180.24669,40.8093182 L171.835192,40.8093182 L164.848432,27.0093182 L165.397213,36.6442273 L158.039373,36.6442273 L156.794425,15.7184091 L174.504878,15.7184091 L174.504878,15.7184091 Z" id="Shape_7_"></path>
                        <path d="M206.512892,15.7184091 L199.438328,22.5703182 L206.921603,22.5703182 L199.859582,29.6051818 L207.342857,29.6051818 L204.027178,36.4821818 L188.022648,36.4821818 L187.609756,29.6187727 L190.996516,22.5703182 L187.186411,22.5703182 L186.77561,15.7184091 L206.512892,15.7184091 L206.512892,15.7184091 Z" id="Shape_8_"></path>
                        <path d="M234.028223,8.79645455 L234.561324,17.7549545 L225.038676,17.7549545 L220.834495,26.7270455 L225.571777,26.7270455 L225.113937,18.9948636 L234.636585,18.9948636 L235.6223,35.6165455 L210.445296,35.6165455 L209.917422,26.726 L218.329965,8.79645455 L234.028223,8.79645455 L234.028223,8.79645455 Z" id="Shape_9_"></path>
                        <path d="M236.767944,35.4367273 L242.933101,22.4584545 L251.332056,22.4584545 L245.190941,35.4367273 L236.767944,35.4367273 L236.767944,35.4367273 Z" id="Shape_10_"></path>
                        <path d="M246.792334,14.6729545 L254.760627,14.6729545 L251.637282,21.5949091 L243.624042,21.5949091 L246.792334,14.6729545 L246.792334,14.6729545 Z" id="Shape_11_"></path>
                        <path d="M257.142857,14.6729545 L277.28676,14.6907273 L273.932404,21.5112727 L277.703833,21.5112727 L274.365157,28.566 L266.54216,28.566 L266.962369,35.4367273 L258.411847,35.4367273 L257.991638,28.566 L261.413937,21.5112727 L257.560976,21.5112727 L257.142857,14.6729545 L257.142857,14.6729545 Z" id="Shape_12_"></path>
                        <path d="M298.762369,14.6729545 L299.170035,21.6032727 L291.851916,21.6461364 L299.981185,35.4367273 L280.656794,35.4367273 L279.843554,21.6032727 L283.481185,21.5666818 L279.418118,14.6729545 L298.762369,14.6729545 L298.762369,14.6729545 Z" id="Shape_13_"></path>
                        <path d="M1.73623693,0.144272727 L5.57665505,14.8214091 L14.5662021,11.6212727 L6.28432056,46 L6.38885017,20.3570909 L0,23.3261818 L1.73623693,0.144272727 L1.73623693,0.144272727 Z" id="Shape_14_"></path>
                    </g>
                </g>
            </g>
        </g>
    </g>
</svg>