<?xml version="1.0" encoding="UTF-8" standalone="no"?>
<svg width="300px" height="200px" viewBox="0 0 300 200" version="1.1" xmlns="http://www.w3.org/2000/svg" xmlns:xlink="http://www.w3.org/1999/xlink" xmlns:sketch="http://www.bohemiancoding.com/sketch/ns">
    <!-- Generator: Sketch 3.0.3 (7891) - http://www.bohemiancoding.com/sketch -->
    <title>bizjournals</title>
    <desc>Created with Sketch.</desc>
    <defs></defs>
    <g id="Logo-page" stroke="none" stroke-width="1" fill="none" fill-rule="evenodd" sketch:type="MSPage">
        <g id="Artboard-1" sketch:type="MSArtboardGroup" transform="translate(-926.000000, -263.000000)" fill="#FFFFFF">
            <g id="bizjournals" sketch:type="MSLayerGroup" transform="translate(927.000000, 323.000000)">
                <path d="M16.7269663,16.2140845 C16.0235955,16.1892958 14.441573,16.1385915 12.4348315,16.1385915 C10.3269663,16.1385915 9.04606742,16.1892958 8.44382022,16.2140845 C8.31797753,16.0878873 8.34382022,15.3329577 8.44382022,15.2078873 C9.22134831,15.1064789 9.9247191,15.0321127 10.3516854,14.9307042 C11.2044944,14.7549296 11.3303371,14.2512676 11.3808989,13.0929577 C11.4550562,10.3492958 11.4808989,6.39887324 11.4808989,2.09352113 C11.4808989,1.99323944 11.3808989,1.86704225 11.305618,1.86704225 L8.31797753,1.86704225 C7.91685393,1.86704225 7.54044944,2.01690141 7.21348315,2.59605634 C6.91235955,3.09971831 6.58651685,3.95605634 6.18426966,5.08957746 C6.03370787,5.16394366 5.15617978,4.93746479 5.10561798,4.78760563 C5.30561798,3.67887324 5.58202247,1.51549296 5.65730337,0.331267606 C5.65730337,0.256901408 5.98314607,0.155492958 6.05955056,0.206197183 C6.48539326,0.432676056 7.01235955,0.557746479 8.14269663,0.557746479 L17.4539326,0.557746479 C18.8101124,0.557746479 19.4123596,0.507042254 20.0898876,0.155492958 C20.2157303,0.130704225 20.4168539,0.256901408 20.4662921,0.307605634 C20.2157303,1.33859155 19.9898876,3.60338028 19.8640449,5.01183099 C19.7382022,5.16394366 18.8348315,5.14028169 18.7348315,5.01183099 C18.658427,3.98197183 18.5089888,3.07492958 18.3337079,2.59605634 C18.1067416,2.09352113 17.8067416,1.89183099 17.3292135,1.89183099 C15.9494382,1.86704225 14.6179775,1.86704225 14.0157303,1.89183099 C13.9404494,1.91774648 13.8898876,2.01690141 13.8898876,2.06760563 C13.8898876,5.86816901 13.8651685,12.5892958 13.9662921,13.8478873 C14.0157303,14.3008451 14.1662921,14.7042254 14.7696629,14.88 C15.1955056,15.0050704 15.747191,15.0557746 16.8516854,15.2078873 C16.952809,15.3577465 16.8764045,16.1126761 16.7269663,16.2140845" id="Fill-1" sketch:type="MSShapeGroup"></path>
                <path d="M28.4719101,0.483380282 C28.9730337,0.483380282 30.152809,0.557746479 31.8595506,0.557746479 C33.7921348,0.557746479 34.6719101,0.483380282 35.3483146,0.483380282 C35.4741573,0.633239437 35.4494382,1.36338028 35.3224719,1.46478873 C34.7460674,1.56619718 34.2696629,1.66535211 33.9674157,1.74197183 C33.4662921,1.89183099 33.3157303,2.14422535 33.2910112,2.87323944 C33.2404494,3.72957746 33.2662921,4.60957746 33.2662921,7.15380282 C33.2662921,7.25295775 33.3404494,7.40394366 33.441573,7.45464789 C33.6674157,7.47943662 34.2438202,7.47943662 37.5078652,7.47943662 C40.6955056,7.45464789 41.247191,7.45464789 41.4730337,7.42873239 C41.5730337,7.42873239 41.6483146,7.32957746 41.6483146,7.22816901 C41.6483146,5.91887324 41.6483146,3.52901408 41.6235955,2.57126761 C41.5988764,2.19267606 41.4730337,1.91774648 41.1213483,1.79042254 C40.7955056,1.64056338 40.2685393,1.56619718 39.4651685,1.46478873 C39.2898876,1.33859155 39.3393258,0.608450704 39.4910112,0.483380282 C40.1179775,0.483380282 41.5235955,0.557746479 42.8786517,0.557746479 C44.2089888,0.557746479 45.8910112,0.483380282 46.2674157,0.483380282 C46.4179775,0.633239437 46.4179775,1.33859155 46.2674157,1.46478873 C45.6640449,1.53915493 45.1876404,1.61464789 44.8359551,1.74197183 C44.2595506,1.94253521 44.2089888,2.29408451 44.158427,3.09971831 C44.1089888,3.98197183 44.1089888,5.11323944 44.1089888,8.00901408 C44.1089888,10.2478873 44.1089888,12.9171831 44.1831461,13.7971831 C44.2325843,14.4777465 44.4348315,14.7549296 44.9370787,14.9047887 C45.3134831,15.0050704 45.8910112,15.1312676 46.7191011,15.2078873 C46.8179775,15.3577465 46.7685393,16.1385915 46.5674157,16.2140845 C45.9651685,16.2140845 44.158427,16.1385915 42.7775281,16.1385915 C41.3977528,16.1385915 40.0921348,16.1892958 39.3898876,16.2140845 C39.2640449,16.1126761 39.2640449,15.383662 39.3898876,15.2078873 C40.2179775,15.1312676 40.6449438,15.0321127 40.9955056,14.9307042 C41.4224719,14.7785915 41.5730337,14.5014085 41.6235955,13.8726761 C41.6741573,13.0929577 41.6483146,10.7008451 41.6483146,9.11661972 C41.6483146,9.06591549 41.5730337,8.94084507 41.4483146,8.94084507 C40.8955056,8.91380282 38.9134831,8.91380282 37.4820225,8.91380282 C35.5235955,8.91380282 33.5921348,8.91380282 33.3651685,8.96450704 C33.3157303,8.96450704 33.2662921,9.06591549 33.2662921,9.08957746 C33.2662921,10.5002817 33.2662921,13.0929577 33.2910112,13.5966197 C33.3404494,14.4529577 33.5157303,14.7042254 34.1932584,14.88 C34.5707865,14.9814085 35.0977528,15.1064789 35.8505618,15.2078873 C35.9764045,15.3577465 35.8258427,16.1385915 35.7011236,16.2140845 C35.4235955,16.2140845 34.094382,16.1385915 32.0865169,16.1385915 C30.2539326,16.1385915 28.9483146,16.2140845 28.4719101,16.2140845 C28.3449438,16.0878873 28.3449438,15.3577465 28.4460674,15.2078873 C29.0977528,15.1064789 29.5247191,15.0557746 29.9011236,14.955493 C30.6044944,14.7549296 30.7550562,14.376338 30.805618,13.2180282 C30.8314607,12.3628169 30.8314607,10.4743662 30.8314607,8.28507042 C30.8314607,5.84450704 30.8314607,3.37690141 30.805618,2.92394366 C30.7550562,2.21971831 30.6550562,1.94253521 30.0786517,1.7656338 C29.6764045,1.64056338 29.1483146,1.56619718 28.4213483,1.46478873 C28.294382,1.31267606 28.3449438,0.608450704 28.4719101,0.483380282" id="Fill-2" sketch:type="MSShapeGroup"></path>
                <path d="M54.9741573,0.483380282 C55.6516854,0.483380282 57.3078652,0.557746479 58.7382022,0.557746479 L63.8089888,0.557746479 C64.7876404,0.557746479 66.1179775,0.534084507 66.7202247,0.483380282 C66.7707865,0.507042254 66.8460674,0.582535211 66.8460674,0.633239437 C66.6707865,1.33859155 66.4438202,3.15042254 66.4179775,4.23323944 C66.2685393,4.40901408 65.4157303,4.38535211 65.2898876,4.28394366 C65.2640449,3.57971831 65.1382022,3.22478873 65.0134831,2.79774648 C64.8101124,2.16901408 64.5617978,1.94253521 63.8595506,1.89183099 C63.4820225,1.86704225 60.194382,1.86704225 59.9685393,1.89183099 C59.7674157,1.94253521 59.6179775,2.29408451 59.6179775,2.44619718 C59.6179775,4.18253521 59.5921348,5.66760563 59.5921348,7.35323944 C59.5921348,7.40394366 59.6685393,7.53014085 59.7426966,7.53014085 C61.0483146,7.53014085 62.5044944,7.55605634 63.5089888,7.45464789 C63.8831461,7.40394366 64.0853933,7.17746479 64.2101124,6.80112676 C64.311236,6.49802817 64.4101124,6.09464789 64.4876404,5.69239437 C64.7359551,5.59323944 65.5168539,5.64169014 65.641573,5.79380282 C65.5910112,6.37183099 65.4662921,7.32957746 65.4662921,8.28507042 C65.4662921,9.14028169 65.4898876,9.97295775 65.5168539,10.7515493 C65.3651685,10.8766197 64.4876404,10.903662 64.3359551,10.7515493 C64.2101124,10.1487324 64.2101124,9.92225352 64.0853933,9.5943662 C63.9842697,9.21802817 63.7337079,9.04 63.3820225,8.99042254 C62.5539326,8.89014085 60.8977528,8.91380282 59.7426966,8.91380282 C59.6685393,8.91380282 59.5921348,9.01521127 59.5921348,9.11661972 C59.5921348,10.7515493 59.5921348,12.7143662 59.6426966,13.7228169 C59.6426966,14.1250704 59.894382,14.6028169 60.2202247,14.7278873 C60.7213483,14.88 63.9101124,14.856338 64.4606742,14.856338 C65.1382022,14.856338 65.5168539,14.6535211 66.0426966,13.8985915 C66.4438202,13.3701408 66.9213483,12.3380282 67.1977528,11.7329577 C67.3977528,11.7092958 68.1258427,11.9357746 68.2505618,12.1115493 C68.1258427,12.9408451 67.5988764,14.8292958 67.147191,15.736338 C67.0213483,16.0371831 66.8202247,16.24 65.5404494,16.24 C62.8808989,16.24 60.4460674,16.1385915 58.6134831,16.1385915 C56.9303371,16.1385915 55.2247191,16.2140845 54.1707865,16.2140845 C54.0460674,16.1126761 54.0202247,15.3577465 54.1449438,15.2078873 C55.0247191,15.1064789 55.8269663,15.0321127 56.3033708,14.9047887 C56.905618,14.7549296 57.0831461,14.4270423 57.1314607,13.6214085 C57.1820225,13.1943662 57.1573034,10.5509859 57.1573034,7.75661972 C57.1573034,5.54253521 57.1573034,3.40169014 57.1314607,2.94985915 C57.0831461,2.11830986 56.9820225,1.89183099 56.4033708,1.71605634 C56.052809,1.61464789 55.5764045,1.53915493 54.8988764,1.43774648 C54.7730337,1.28901408 54.8235955,0.608450704 54.9741573,0.483380282" id="Fill-3" sketch:type="MSShapeGroup"></path>
                <path d="M79.4348315,0.481126761 C79.6606742,0.481126761 80.6898876,0.555492958 82.3977528,0.555492958 C84.0044944,0.555492958 85.3101124,0.504788732 86.8651685,0.504788732 C88.7988764,0.504788732 91.458427,1.21126761 91.458427,4.12957746 C91.458427,5.56394366 90.4561798,6.72225352 89.1505618,7.27661972 C89.0752809,7.30253521 89.0752809,7.35098592 89.1505618,7.37802817 C91.0067416,7.85577465 92.6393258,9.01295775 92.6393258,11.2292958 C92.6393258,13.3926761 91.3101124,14.7526761 89.3764045,15.6090141 C88.1955056,16.136338 86.7404494,16.3132394 85.2595506,16.3132394 C84.1314607,16.3132394 80.7404494,16.1870423 79.0595506,16.211831 C78.8842697,16.136338 78.8573034,15.3307042 79.0089888,15.2056338 C79.411236,15.1797183 80.3146067,15.1042254 80.7404494,14.9791549 C81.3438202,14.8270423 81.5438202,14.6771831 81.6191011,13.7712676 C81.6696629,12.9892958 81.6696629,10.1971831 81.6696629,8.20732394 C81.6696629,5.48957746 81.6955056,3.65183099 81.6696629,2.74591549 C81.6449438,2.04169014 81.394382,1.81408451 80.9168539,1.68901408 C80.541573,1.61464789 79.9134831,1.53690141 79.411236,1.46253521 C79.2865169,1.33746479 79.3101124,0.582535211 79.4348315,0.481126761 L79.4348315,0.481126761 Z M90.0280899,11.7814085 C90.0280899,9.56732394 88.4213483,8.30873239 85.4853933,8.30873239 C85.3606742,8.30873239 84.4325843,8.28507042 84.205618,8.33352113 C84.1314607,8.35943662 84.0550562,8.41014085 84.0550562,8.46084507 C84.0550562,10.0450704 84.0303371,12.5870423 84.105618,13.5943662 C84.1561798,14.0214085 84.4561798,14.6264789 84.8337079,14.8033803 C85.2359551,15.0298592 86.1393258,15.0805634 86.7651685,15.0805634 C88.4977528,15.0805634 90.0280899,14.0991549 90.0280899,11.7814085 L90.0280899,11.7814085 Z M84.3314607,1.71380282 C84.2303371,1.73971831 84.105618,1.99098592 84.105618,2.11605634 C84.0808989,3.02309859 84.0550562,5.38816901 84.0550562,7.02535211 C84.0550562,7.07605634 84.1314607,7.1515493 84.1797753,7.1515493 C84.5067416,7.17521127 85.3101124,7.20225352 85.9876404,7.20225352 C86.9426966,7.20225352 87.4932584,7.07605634 87.794382,6.92507042 C88.5977528,6.52169014 88.9752809,5.64169014 88.9752809,4.68394366 C88.9752809,2.49464789 87.4685393,1.66535211 85.2359551,1.66535211 C85.0842697,1.66535211 84.658427,1.66535211 84.3314607,1.71380282 L84.3314607,1.71380282 Z" id="Fill-4" sketch:type="MSShapeGroup"></path>
                <path d="M100.669663,0.504788732 C101.169663,0.504788732 102.977528,0.555492958 104.131461,0.555492958 C105.259551,0.555492958 106.692135,0.481126761 107.370787,0.481126761 C107.519101,0.582535211 107.519101,1.33746479 107.394382,1.46253521 C106.816854,1.56394366 106.365169,1.61464789 106.065169,1.68901408 C105.386517,1.88957746 105.259551,2.21746479 105.237079,2.97239437 C105.211236,5.84225352 105.237079,8.33352113 105.259551,9.66873239 C105.285393,10.1701408 105.361798,11.2022535 105.437079,11.6056338 C105.662921,13.2428169 107.069663,14.8270423 110.05618,14.8270423 C111.964045,14.8270423 114.073034,14.4 114.349438,10.3729577 C114.473034,8.43380282 114.5,5.86816901 114.375281,3.37464789 C114.349438,2.31887324 114.196629,1.91549296 113.242697,1.71380282 C112.866292,1.61464789 112.388764,1.56394366 111.761798,1.46253521 C111.61236,1.33746479 111.662921,0.606197183 111.78764,0.481126761 C112.314607,0.481126761 113.64382,0.555492958 115.12809,0.555492958 C116.305618,0.555492958 117.737079,0.481126761 118.139326,0.481126761 C118.289888,0.582535211 118.314607,1.38704225 118.139326,1.46253521 L116.983146,1.76338028 C116.205618,1.96619718 116.079775,2.49464789 116.02809,3.52676056 C115.879775,8.20732394 116.005618,10.4484507 115.42809,12.3357746 C114.598876,15.5819718 111.78764,16.5904225 109.176404,16.5904225 C104.934831,16.5904225 103.278652,14.6005634 102.977528,12.0349296 C102.776404,10.3977465 102.776404,3.72732394 102.751685,2.87323944 C102.72809,2.26816901 102.502247,1.88957746 101.998876,1.73971831 C101.722472,1.61464789 101.146067,1.53690141 100.619101,1.46253521 C100.467416,1.36112676 100.517978,0.582535211 100.669663,0.504788732" id="Fill-5" sketch:type="MSShapeGroup"></path>
                <path d="M128.803371,14.6771831 C129.430337,15.1797183 130.334831,15.4061972 131.238202,15.4061972 C132.316854,15.4061972 133.848315,14.8033803 133.848315,12.8901408 C133.848315,11.3307042 132.895506,10.6501408 130.560674,9.34084507 C128.151685,8.00676056 126.647191,6.82366197 126.647191,4.45746479 C126.647191,1.66535211 128.904494,0.102535211 131.739326,0.102535211 C133.648315,0.102535211 134.725843,0.456338028 135.831461,0.582535211 C135.65618,1.41183099 135.504494,3.04901408 135.404494,4.28169014 C135.329213,4.45746479 134.550562,4.45746479 134.424719,4.30535211 C134.276404,2.97239437 134.074157,2.16676056 133.497753,1.73971831 C132.895506,1.31042254 132.092135,1.18535211 131.388764,1.18535211 C129.683146,1.18535211 128.853933,2.51830986 128.853933,3.60112676 C128.853933,5.03661972 129.480899,5.64169014 130.585393,6.34591549 C131.614607,6.99943662 133.021348,7.60450704 133.922472,8.13295775 C135.329213,8.96225352 136.28427,10.0214085 136.28427,11.8321127 C136.28427,14.2490141 134.225843,16.5904225 130.486517,16.5904225 C128.879775,16.5904225 127.322472,16.0349296 126.67191,15.7847887 C126.444944,15.4828169 125.916854,12.6884507 125.84382,11.7577465 C125.892135,11.5301408 126.746067,11.3307042 126.897753,11.4298592 C127.373034,12.9408451 127.898876,14.0214085 128.803371,14.6771831" id="Fill-6" sketch:type="MSShapeGroup"></path>
                <path d="M144.688764,0.481126761 C145.192135,0.481126761 146.824719,0.555492958 148.153933,0.555492958 C149.507865,0.555492958 151.066292,0.481126761 151.742697,0.481126761 C151.842697,0.633239437 151.869663,1.28676056 151.742697,1.46253521 C151.066292,1.53690141 150.614607,1.58760563 150.262921,1.68901408 C149.659551,1.84112676 149.558427,2.14197183 149.507865,2.89690141 C149.433708,3.97971831 149.459551,5.7915493 149.459551,8.00676056 C149.459551,10.3470423 149.48427,12.7143662 149.534831,13.5943662 C149.558427,14.3740845 149.685393,14.7278873 150.488764,14.9284507 C150.865169,15.0028169 151.441573,15.1042254 152.170787,15.2056338 C152.295506,15.3070423 152.221348,16.1126761 152.095506,16.211831 C151.542697,16.211831 149.734831,16.136338 148.404494,16.136338 C146.923596,16.136338 145.067416,16.211831 144.614607,16.211831 C144.465169,16.136338 144.465169,15.3070423 144.589888,15.2056338 C145.268539,15.1312676 145.620225,15.0805634 145.994382,15.0028169 C146.797753,14.8033803 146.898876,14.4507042 146.973034,13.9470423 C147.074157,13.2157746 147.050562,11.7329577 147.050562,7.60450704 C147.050562,5.48957746 147.074157,4.05521127 147,2.87323944 C146.949438,2.19267606 146.875281,1.91549296 146.346067,1.76338028 C145.893258,1.63830986 145.417978,1.56394366 144.665169,1.46253521 C144.540449,1.33746479 144.589888,0.606197183 144.688764,0.481126761" id="Fill-7" sketch:type="MSShapeGroup"></path>
                <path d="M159.750562,0.481126761 C160.526966,0.481126761 161.832584,0.555492958 163.439326,0.555492958 L164.593258,0.555492958 C164.692135,0.883380282 164.793258,1.08394366 165.447191,1.91549296 C167.880899,5.03661972 172.625843,10.8 173.955056,12.3864789 C174.005618,12.4112676 174.05618,12.3864789 174.05618,12.3357746 C174.05618,8.78647887 174.080899,5.06253521 173.979775,3.12338028 C173.929213,2.34253521 173.779775,2.01690141 172.976404,1.81408451 C172.474157,1.68901408 171.873034,1.56394366 171.14382,1.46253521 C171.019101,1.33746479 171.019101,0.606197183 171.14382,0.481126761 C171.77191,0.481126761 172.976404,0.555492958 174.832584,0.555492958 C175.761798,0.555492958 177.417978,0.481126761 177.769663,0.481126761 C177.921348,0.606197183 177.896629,1.31042254 177.769663,1.46253521 C177.293258,1.56394366 176.867416,1.66535211 176.591011,1.76338028 C175.888764,1.99098592 175.737079,2.39323944 175.662921,3.12338028 C175.511236,5.08732394 175.535955,6.79887324 175.460674,12.7391549 C175.460674,13.9222535 175.48764,15.4061972 175.511236,16.2625352 C175.234831,16.211831 173.779775,16.2377465 173.526966,16.2884507 C172.096629,14.2749296 165.897753,6.42028169 164.064045,4.12957746 C164.040449,4.08112676 163.939326,4.10591549 163.939326,4.12957746 C163.91573,6.79887324 163.888764,12.1092958 163.989888,13.5684507 C164.040449,14.3740845 164.316854,14.7526761 165.046067,14.9284507 C165.420225,15.0535211 165.974157,15.1042254 166.676404,15.2056338 C166.801124,15.3814085 166.750562,16.0619718 166.625843,16.211831 C165.923596,16.211831 164.769663,16.136338 163.237079,16.136338 C161.431461,16.136338 160.375281,16.211831 159.824719,16.211831 C159.7,16.136338 159.723596,15.3307042 159.824719,15.2056338 C160.425843,15.1312676 160.955056,15.0535211 161.355056,14.9284507 C161.931461,14.7278873 162.233708,14.3740845 162.283146,13.6191549 C162.410112,12.1847887 162.458427,8.5115493 162.534831,3.17408451 C162.534831,2.74591549 162.410112,2.16676056 161.75618,1.88957746 C161.279775,1.73971831 160.702247,1.56394366 159.750562,1.46253521 C159.598876,1.33746479 159.622472,0.606197183 159.750562,0.481126761" id="Fill-8" sketch:type="MSShapeGroup"></path>
                <path d="M185.924719,0.481126761 C186.602247,0.481126761 188.259551,0.555492958 189.689888,0.555492958 L194.759551,0.555492958 C195.740449,0.555492958 197.070787,0.531830986 197.674157,0.481126761 C197.722472,0.504788732 197.798876,0.582535211 197.798876,0.633239437 C197.623596,1.33746479 197.397753,3.14816901 197.370787,4.23098592 C197.221348,4.40676056 196.368539,4.38309859 196.242697,4.28169014 C196.216854,3.57746479 196.092135,3.22478873 195.966292,2.79549296 C195.764045,2.16676056 195.514607,1.94028169 194.810112,1.88957746 C194.434831,1.86478873 191.144944,1.86478873 190.921348,1.88957746 C190.719101,1.94028169 190.567416,2.29183099 190.567416,2.44394366 C190.567416,4.18028169 190.54382,5.66535211 190.54382,7.35098592 C190.54382,7.40169014 190.617978,7.52788732 190.695506,7.52788732 C191.998876,7.52788732 193.45618,7.55380282 194.458427,7.45239437 C194.835955,7.40169014 195.038202,7.17521127 195.162921,6.79887324 C195.264045,6.49802817 195.362921,6.09464789 195.439326,5.69239437 C195.689888,5.59098592 196.468539,5.64169014 196.594382,5.7915493 C196.54382,6.36957746 196.419101,7.32732394 196.419101,8.28507042 C196.419101,9.13802817 196.442697,9.97070423 196.468539,10.7492958 C196.317978,10.8766197 195.439326,10.9014085 195.288764,10.7492958 C195.162921,10.1464789 195.162921,9.92 195.038202,9.59211268 C194.937079,9.21577465 194.685393,9.04 194.333708,8.98929577 C193.505618,8.88788732 191.849438,8.91380282 190.695506,8.91380282 C190.617978,8.91380282 190.54382,9.01295775 190.54382,9.1143662 C190.54382,10.7492958 190.54382,12.7143662 190.594382,13.7205634 C190.594382,14.1228169 190.84382,14.6005634 191.17191,14.7278873 C191.674157,14.8777465 194.860674,14.8540845 195.413483,14.8540845 C196.092135,14.8540845 196.468539,14.6512676 196.995506,13.896338 C197.397753,13.3678873 197.873034,12.3357746 198.149438,11.7329577 C198.349438,11.7070423 199.078652,11.9335211 199.203371,12.1092958 C199.078652,12.9408451 198.551685,14.8270423 198.098876,15.7340845 C197.974157,16.0349296 197.77191,16.2377465 196.493258,16.2377465 C193.831461,16.2377465 191.397753,16.136338 189.565169,16.136338 C187.88427,16.136338 186.176404,16.211831 185.121348,16.211831 C184.995506,16.1126761 184.97191,15.3577465 185.096629,15.2056338 C185.974157,15.1042254 186.777528,15.0298592 187.25618,14.9047887 C187.857303,14.7526761 188.033708,14.4247887 188.08427,13.6191549 C188.133708,13.1921127 188.110112,10.5487324 188.110112,7.7543662 C188.110112,5.54028169 188.110112,3.40169014 188.08427,2.94760563 C188.033708,2.11605634 187.932584,1.88957746 187.355056,1.71380282 C187.004494,1.61464789 186.52809,1.53690141 185.849438,1.43774648 C185.724719,1.28676056 185.775281,0.606197183 185.924719,0.481126761" id="Fill-9" sketch:type="MSShapeGroup"></path>
                <path d="M210.344944,14.6771831 C210.973034,15.1797183 211.876404,15.4061972 212.780899,15.4061972 C213.858427,15.4061972 215.389888,14.8033803 215.389888,12.8901408 C215.389888,11.3307042 214.438202,10.6501408 212.103371,9.34084507 C209.693258,8.00676056 208.18764,6.82366197 208.18764,4.45746479 C208.18764,1.66535211 210.446067,0.102535211 213.280899,0.102535211 C215.189888,0.102535211 216.267416,0.456338028 217.374157,0.582535211 C217.198876,1.41183099 217.047191,3.04901408 216.946067,4.28169014 C216.87191,4.45746479 216.092135,4.45746479 215.967416,4.30535211 C215.817978,2.97239437 215.616854,2.16676056 215.039326,1.73971831 C214.438202,1.31042254 213.634831,1.18535211 212.930337,1.18535211 C211.224719,1.18535211 210.395506,2.51830986 210.395506,3.60112676 C210.395506,5.03661972 211.023596,5.64169014 212.126966,6.34591549 C213.15618,6.99943662 214.562921,7.60450704 215.465169,8.13295775 C216.87191,8.96225352 217.825843,10.0214085 217.825843,11.8321127 C217.825843,14.2490141 215.767416,16.5904225 212.02809,16.5904225 C210.421348,16.5904225 208.864045,16.0349296 208.211236,15.7847887 C207.985393,15.4828169 207.459551,12.6884507 207.38427,11.7577465 C207.432584,11.5301408 208.286517,11.3307042 208.438202,11.4298592 C208.914607,12.9408451 209.440449,14.0214085 210.344944,14.6771831" id="Fill-10" sketch:type="MSShapeGroup"></path>
                <path d="M229.544944,14.6771831 C230.17191,15.1797183 231.076404,15.4061972 231.980899,15.4061972 C233.058427,15.4061972 234.589888,14.8033803 234.589888,12.8901408 C234.589888,11.3307042 233.637079,10.6501408 231.302247,9.34084507 C228.893258,8.00676056 227.38764,6.82366197 227.38764,4.45746479 C227.38764,1.66535211 229.646067,0.102535211 232.480899,0.102535211 C234.389888,0.102535211 235.467416,0.456338028 236.574157,0.582535211 C236.398876,1.41183099 236.247191,3.04901408 236.146067,4.28169014 C236.070787,4.45746479 235.292135,4.45746479 235.167416,4.30535211 C235.017978,2.97239437 234.81573,2.16676056 234.239326,1.73971831 C233.637079,1.31042254 232.834831,1.18535211 232.130337,1.18535211 C230.424719,1.18535211 229.595506,2.51830986 229.595506,3.60112676 C229.595506,5.03661972 230.222472,5.64169014 231.326966,6.34591549 C232.35618,6.99943662 233.762921,7.60450704 234.664045,8.13295775 C236.070787,8.96225352 237.025843,10.0214085 237.025843,11.8321127 C237.025843,14.2490141 234.967416,16.5904225 231.22809,16.5904225 C229.621348,16.5904225 228.064045,16.0349296 227.411236,15.7847887 C227.185393,15.4828169 226.658427,12.6884507 226.58427,11.7577465 C226.632584,11.5301408 227.486517,11.3307042 227.638202,11.4298592 C228.114607,12.9408451 228.640449,14.0214085 229.544944,14.6771831" id="Fill-11" sketch:type="MSShapeGroup"></path>
                <path d="M6.09550562,27.4197183 C7.41235955,27.4197183 9.1988764,27.5628169 13.3348315,27.5628169 C16.2033708,27.5628169 17.9898876,27.4197183 19.4,27.4197183 C19.6348315,27.6090141 19.6348315,29.0704225 19.352809,29.2597183 C18.2719101,29.4490141 17.4247191,29.6360563 16.8146067,29.7791549 C16.0146067,30.0146479 15.7325843,30.4371831 15.6853933,31.5707042 C15.5921348,33.5966197 15.5921348,48.1171831 15.4505618,52.3605634 C15.2629213,56.0833803 14.8393258,58.724507 13.4764045,61.1278873 C10.9853933,65.5605634 6.98876404,67.9628169 3.83932584,67.9628169 C2.05280899,67.9628169 0.406741573,67.256338 -0.0617977528,66.315493 C-0.11011236,66.1712676 -0.251685393,65.6552113 -0.251685393,65.5605634 C-0.11011236,64.6647887 0.548314607,62.6839437 0.876404494,61.9774648 C2.28764045,62.9194366 4.96741573,64.0991549 6.47191011,64.0991549 C7.6,64.0991549 8.63483146,63.8152113 9.43370787,62.8247887 C10.7022472,61.176338 10.8898876,59.6202817 10.9370787,55.5188732 C10.9853933,49.4839437 10.9853933,34.6794366 10.8426966,32.3233803 C10.7494382,31.0974648 10.6078652,30.2501408 9.29213483,29.8715493 C8.3988764,29.6360563 7.55280899,29.4952113 6.0011236,29.2597183 C5.76629213,28.9757746 5.86067416,27.6090141 6.09550562,27.4197183" id="Fill-12" sketch:type="MSShapeGroup"></path>
                <path d="M27.6707865,53.3971831 C24.7561798,50.2388732 23.5337079,46.371831 23.5337079,41.8940845 C23.5337079,38.3109859 24.6146067,35.2450704 26.7303371,32.5588732 C29.3168539,29.1188732 34.4404494,26.7132394 39.4235955,26.7132394 C49.1550562,26.7132394 54.0898876,33.783662 54.0898876,41.4230986 C54.0898876,45.8061972 53.1033708,48.7774648 51.1292135,51.4647887 C48.0269663,55.5188732 43.2325843,57.5909859 38.5303371,57.5909859 C33.7348315,57.5909859 30.2101124,56.0833803 27.6707865,53.3971831 L27.6707865,53.3971831 Z M45.158427,53.491831 C48.0269663,51.275493 49.0134831,47.5030986 49.0134831,43.2146479 C49.0134831,37.9346479 47.2741573,33.2180282 43.6550562,30.7673239 C42.0101124,29.684507 40.0820225,29.0704225 37.6842697,29.0704225 C36.1797753,29.0704225 34.8629213,29.4490141 33.7348315,30.0608451 C30.3977528,31.9008451 28.752809,36.0484507 28.752809,40.8090141 C28.752809,45.9470423 30.6797753,51.0861972 34.7224719,53.5864789 C36.3674157,54.5746479 38.0606742,54.9994366 40.3168539,54.9994366 C42.1977528,54.9994366 43.9842697,54.4822535 45.158427,53.491831 L45.158427,53.491831 Z" id="Fill-13" sketch:type="MSShapeGroup"></path>
                <path d="M58.1764045,27.468169 C59.1157303,27.468169 62.5011236,27.5628169 64.6617978,27.5628169 C66.7786517,27.5628169 69.4573034,27.4197183 70.7269663,27.4197183 C71.0089888,27.6090141 71.0089888,29.0242254 70.7741573,29.2597183 C69.6921348,29.4490141 68.8460674,29.5414085 68.2820225,29.684507 C67.0134831,30.0608451 66.7786517,30.6749296 66.7303371,32.0878873 C66.6842697,37.4614085 66.7303371,42.1295775 66.7786517,44.6264789 C66.8247191,45.5707042 66.9662921,47.5030986 67.1078652,48.2580282 C67.5314607,51.3216901 70.1629213,54.2929577 75.7573034,54.2929577 C79.3292135,54.2929577 83.2797753,53.491831 83.7977528,45.9470423 C84.0325843,42.3188732 84.0786517,37.5098592 83.8438202,32.8428169 C83.7977528,30.8619718 83.5146067,30.1092958 81.7280899,29.7307042 C81.0224719,29.5414085 80.1292135,29.4490141 78.9550562,29.2597183 C78.6719101,29.0242254 78.7651685,27.6574648 79,27.4197183 C79.9876404,27.4197183 82.4808989,27.5628169 85.2550562,27.5628169 C87.4651685,27.5628169 90.1438202,27.4197183 90.894382,27.4197183 C91.1775281,27.6090141 91.2235955,29.1188732 90.894382,29.2597183 L88.7325843,29.8253521 C87.2764045,30.2016901 87.041573,31.1921127 86.947191,33.1256338 C86.6640449,41.8940845 86.8988764,46.0901408 85.8191011,49.6247887 C84.2674157,55.7070423 79,57.5909859 74.111236,57.5909859 C66.1662921,57.5909859 63.0651685,53.868169 62.5011236,49.0591549 C62.1247191,45.995493 62.1247191,33.5019718 62.0775281,31.9008451 C62.0303371,30.7673239 61.6078652,30.0608451 60.6674157,29.7791549 C60.1494382,29.5414085 59.0685393,29.4005634 58.0808989,29.2597183 C57.7988764,29.0704225 57.8932584,27.6090141 58.1764045,27.468169" id="Fill-14" sketch:type="MSShapeGroup"></path>
                <path d="M93.241573,27.4197183 C94.2741573,27.4197183 97.5640449,27.5628169 99.1640449,27.5628169 C103.016854,27.5628169 105.697753,27.5143662 107.435955,27.5143662 C113.030337,27.5143662 116.230337,30.9104225 116.230337,34.9633803 C116.230337,38.8304225 113.876404,41.2338028 110.914607,42.6005634 C110.822472,42.6490141 110.774157,42.884507 110.822472,42.9791549 C112.466292,45.5707042 115.946067,50.0495775 118.250562,52.5476056 C120.037079,54.3876056 120.601124,54.5746479 123.939326,55.1425352 C124.173034,55.2833803 123.939326,56.884507 123.564045,56.9791549 C121.353933,56.9791549 117.35618,56.9791549 115.430337,55.9887324 C114.723596,55.5650704 113.970787,54.9994366 113.030337,53.9166197 C111.24382,51.7002817 108.658427,47.6923944 106.870787,45.0512676 C106.591011,44.6749296 106.073034,44.4856338 105.697753,44.4394366 C105.085393,44.3447887 102.876404,44.3447887 102.173034,44.3447887 C102.123596,44.3447887 101.98427,44.5340845 101.98427,44.6264789 C101.98427,47.2214085 101.98427,51.3216901 102.078652,52.5476056 C102.173034,53.8219718 102.547191,54.3391549 103.769663,54.5746479 C104.521348,54.7639437 105.368539,54.8585915 106.637079,54.9994366 C106.870787,55.2349296 106.776404,56.6952113 106.496629,56.884507 C105.414607,56.884507 103.395506,56.743662 99.5853933,56.743662 C96.4842697,56.743662 94.2258427,56.884507 93.1460674,56.884507 C92.8629213,56.5543662 92.8629213,55.2833803 93.1460674,54.9994366 C94.2258427,54.9047887 94.9786517,54.7639437 95.6831461,54.6230986 C96.8134831,54.3876056 97.2831461,53.9166197 97.3775281,52.0766197 C97.4696629,51.1346479 97.5179775,45.1459155 97.5179775,42.5059155 C97.5179775,36.1892958 97.5179775,33.0309859 97.4696629,31.9470423 C97.4235955,30.531831 97.1404494,30.0608451 95.8719101,29.7307042 C95.0730337,29.5414085 94.1797753,29.4005634 93.0977528,29.2597183 C92.8629213,28.9757746 92.9573034,27.6090141 93.241573,27.4197183 L93.241573,27.4197183 Z M102.452809,29.8253521 C102.313483,29.92 102.078652,30.3447887 102.078652,30.5802817 C101.98427,32.3233803 101.98427,38.5926761 101.98427,41.8478873 C101.98427,41.9402817 102.078652,42.0833803 102.217978,42.0833803 C106.682022,42.0833803 108,41.8478873 108.61236,41.5177465 C110.164045,40.7143662 111.385393,38.9228169 111.385393,36.5194366 C111.385393,32.0878873 109.270787,29.5414085 104.238202,29.5414085 C103.958427,29.5414085 102.97191,29.6360563 102.452809,29.8253521 L102.452809,29.8253521 Z" id="Fill-15" sketch:type="MSShapeGroup"></path>
                <path d="M123.368539,27.4197183 C124.825843,27.4197183 127.269663,27.5628169 130.277528,27.5628169 L132.441573,27.5628169 C132.630337,28.1746479 132.816854,28.5532394 134.039326,30.1092958 C138.598876,35.9538028 147.485393,46.748169 149.975281,49.7194366 C150.070787,49.7656338 150.165169,49.7194366 150.165169,49.6247887 C150.165169,42.9791549 150.210112,36 150.023596,32.371831 C149.930337,30.9104225 149.646067,30.296338 148.14382,29.92 C147.202247,29.684507 146.074157,29.4490141 144.711236,29.2597183 C144.476404,29.0242254 144.476404,27.6574648 144.711236,27.4197183 C145.885393,27.4197183 148.14382,27.5628169 151.621348,27.5628169 C153.361798,27.5628169 156.465169,27.4197183 157.123596,27.4197183 C157.404494,27.6574648 157.358427,28.9757746 157.123596,29.2597183 C156.230337,29.4490141 155.429213,29.6360563 154.913483,29.8253521 C153.596629,30.2501408 153.313483,31.0050704 153.173034,32.371831 C152.889888,36.0484507 152.938202,39.2529577 152.795506,50.3797183 C152.795506,52.5960563 152.84382,55.3780282 152.889888,56.9791549 C152.374157,56.884507 149.646067,56.9329577 149.177528,57.0253521 C146.497753,53.256338 134.886517,38.5464789 131.453933,34.2569014 C131.407865,34.1622535 131.219101,34.2084507 131.219101,34.2569014 C131.170787,39.2529577 131.124719,49.2 131.313483,51.9357746 C131.407865,53.4433803 131.923596,54.1521127 133.286517,54.4822535 C133.993258,54.7177465 135.026966,54.8123944 136.34382,54.9994366 C136.578652,55.3284507 136.48427,56.6028169 136.249438,56.884507 C134.932584,56.884507 132.770787,56.743662 129.902247,56.743662 C126.519101,56.743662 124.544944,56.884507 123.511236,56.884507 C123.276404,56.743662 123.322472,55.2349296 123.511236,54.9994366 C124.639326,54.8585915 125.625843,54.7177465 126.376404,54.4822535 C127.458427,54.103662 128.021348,53.4433803 128.11573,52.0304225 C128.350562,49.3430986 128.444944,42.4597183 128.585393,32.4664789 C128.585393,31.6630986 128.350562,30.5802817 127.129213,30.0608451 C126.234831,29.7791549 125.153933,29.4490141 123.368539,29.2597183 C123.08764,29.0242254 123.133708,27.6574648 123.368539,27.4197183" id="Fill-16" sketch:type="MSShapeGroup"></path>
                <path d="M163.274157,50.4259155 C165.34382,45.4760563 169.904494,33.6428169 170.938202,30.5802817 C171.313483,29.4952113 171.737079,28.2692958 171.877528,27.5143662 C172.11236,27.5628169 172.724719,27.5628169 173.617978,27.5628169 C174.746067,27.5628169 175.262921,27.5628169 175.497753,27.5143662 C175.732584,28.4585915 176.013483,29.3543662 176.342697,30.296338 C177.28427,32.936338 182.503371,46.7019718 184.335955,50.8991549 C185.840449,54.2467606 186.21573,54.5284507 189.788764,54.9994366 C190.069663,55.1887324 189.883146,56.6490141 189.694382,56.884507 C188.47191,56.8383099 186.21573,56.743662 183.537079,56.743662 C180.716854,56.743662 177.659551,56.884507 176.720225,56.884507 C176.531461,56.6490141 176.485393,55.2349296 176.720225,54.9994366 C177.753933,54.8585915 178.741573,54.7177465 179.446067,54.4822535 C180.010112,54.2467606 180.104494,53.6326761 180.010112,53.3025352 C179.4,51.3216901 178.177528,48.1171831 177.424719,46.2771831 C177.330337,46.0416901 177.049438,45.9470423 176.955056,45.9470423 C176.107865,45.9008451 173.947191,45.9008451 172.206742,45.9008451 C169.197753,45.9008451 168.916854,45.9008451 168.398876,45.9470423 C168.164045,45.9470423 167.834831,46.2771831 167.834831,46.371831 C166.847191,49.0591549 165.624719,52.1250704 165.624719,53.0670423 C165.624719,53.9628169 165.813483,54.2929577 167.176404,54.6230986 C167.788764,54.7639437 168.822472,54.9047887 169.667416,54.9994366 C169.85618,55.2349296 169.761798,56.6490141 169.526966,56.884507 C168.58764,56.884507 166.142697,56.743662 162.992135,56.743662 C159.937079,56.743662 158.385393,56.884507 157.492135,56.884507 C157.305618,56.6490141 157.305618,55.2349296 157.492135,54.9994366 C160.973034,54.5284507 161.62809,54.2467606 163.274157,50.4259155 L163.274157,50.4259155 Z M172.395506,33.171831 C171.595506,35.6698592 169.904494,40.0078873 169.008989,42.8360563 C169.008989,42.9791549 169.057303,43.12 169.197753,43.1661972 C169.71573,43.2146479 171.548315,43.2146479 172.91236,43.2146479 C174.08764,43.2146479 175.404494,43.2146479 176.013483,43.1661972 C176.15618,43.1661972 176.296629,42.9307042 176.248315,42.6952113 C175.355056,40.2433803 173.476404,35.0095775 172.675281,33.1256338 C172.630337,33.1256338 172.488764,33.0771831 172.395506,33.171831 L172.395506,33.171831 Z" id="Fill-17" sketch:type="MSShapeGroup"></path>
                <path d="M191.28764,27.4197183 C192.885393,27.4197183 194.485393,27.5628169 197.869663,27.5628169 C201.535955,27.5628169 203.22809,27.468169 204.264045,27.4197183 C204.544944,27.703662 204.498876,28.9295775 204.264045,29.2597183 C202.947191,29.4005634 202.148315,29.6360563 201.489888,29.7307042 C200.361798,30.0146479 200.219101,30.6749296 200.173034,31.5222535 C200.078652,33.3611268 200.032584,36.3785915 200.032584,41.2338028 C200.032584,48.4473239 200.032584,50.8991549 200.173034,52.7369014 C200.219101,53.491831 200.97191,53.9628169 201.160674,54.0574648 C202.57191,54.4338028 206.614607,54.3876056 208.822472,54.3876056 C209.857303,54.3876056 210.750562,54.103662 211.78427,52.4529577 C212.677528,51.0861972 213.759551,48.9183099 214.558427,47.0783099 C215.02809,47.0321127 216.204494,47.5030986 216.485393,47.8816901 C216.15618,49.8140845 214.747191,54.8123944 213.805618,56.3650704 C213.665169,56.7898592 213.147191,56.9791549 211.738202,56.9791549 C208.401124,56.9791549 200.407865,56.743662 197.916854,56.743662 C195.473034,56.743662 191.147191,56.884507 190.3,56.884507 C190.019101,56.6952113 189.970787,55.1887324 190.253933,54.9994366 C191.992135,54.8123944 192.885393,54.7639437 193.921348,54.4822535 C195.049438,54.1521127 195.238202,53.491831 195.332584,52.7369014 C195.424719,51.416338 195.473034,44.2039437 195.473034,41.4692958 C195.473034,36.5194366 195.519101,33.5966197 195.424719,32.2771831 C195.378652,30.531831 195.14382,29.9661972 193.967416,29.7307042 C193.357303,29.5898592 192.229213,29.4005634 191.147191,29.2597183 C190.91236,28.9295775 191.006742,27.6574648 191.28764,27.4197183" id="Fill-18" sketch:type="MSShapeGroup"></path>
                <path d="M224.942697,54.0090141 C226.116854,54.9532394 227.811236,55.3780282 229.503371,55.3780282 C231.524719,55.3780282 234.393258,54.2467606 234.393258,50.6614085 C234.393258,47.7385915 232.606742,46.4664789 228.232584,44.0157746 C223.720225,41.5177465 220.901124,39.3014085 220.901124,34.8687324 C220.901124,29.6360563 225.131461,26.7132394 230.442697,26.7132394 C234.014607,26.7132394 236.035955,27.3735211 238.105618,27.6090141 C237.776404,29.1650704 237.495506,32.2287324 237.306742,34.5385915 C237.166292,34.8687324 235.708989,34.8687324 235.47191,34.5870423 C235.191011,32.0878873 234.814607,30.5802817 233.734831,29.7791549 C232.606742,28.9757746 231.101124,28.7402817 229.78427,28.7402817 C226.588764,28.7402817 225.037079,31.2405634 225.037079,33.2664789 C225.037079,35.9538028 226.211236,37.0850704 228.280899,38.4056338 C230.207865,39.6315493 232.841573,40.7628169 234.532584,41.7532394 C237.166292,43.3092958 238.952809,45.2867606 238.952809,48.6828169 C238.952809,53.2078873 235.096629,57.5909859 228.092135,57.5909859 C225.083146,57.5909859 222.168539,56.5543662 220.946067,56.0833803 C220.522472,55.5188732 219.535955,50.2850704 219.395506,48.5397183 C219.489888,48.1171831 221.08764,47.7385915 221.370787,47.9278873 C222.262921,50.7560563 223.250562,52.7830986 224.942697,54.0090141" id="Fill-19" sketch:type="MSShapeGroup"></path>
                <path d="M118.342697,73.2180282 C119.192135,71.2067606 120.447191,67.6135211 120.755056,66.7752113 C120.851685,66.4957746 120.921348,66.2580282 120.949438,66.0777465 C120.962921,66.0777465 121.075281,66.0901408 121.269663,66.0901408 C121.477528,66.0901408 121.574157,66.0777465 121.591011,66.0777465 C121.616854,66.2028169 121.674157,66.4247887 121.757303,66.691831 C122.007865,67.3915493 123.624719,72.4788732 124.042697,73.5132394 C124.406742,74.3369014 124.461798,74.3785915 125.395506,74.4901408 C125.422472,74.5329577 125.408989,74.6738028 125.367416,74.6997183 C125.017978,74.6861972 124.224719,74.6580282 123.903371,74.6580282 C123.570787,74.6580282 122.648315,74.6738028 122.35618,74.6997183 C122.342697,74.6738028 122.32809,74.5194366 122.35618,74.4901408 C122.634831,74.4484507 122.859551,74.4202817 123.053933,74.3515493 C123.276404,74.2523944 123.276404,74.1566197 123.221348,73.9605634 C123.067416,73.3588732 122.539326,71.8625352 122.273034,71.0952113 C122.273034,71.0952113 122.189888,71.0242254 122.173034,71.0242254 C122.037079,71.011831 121.742697,71.011831 120.879775,71.011831 C119.944944,71.011831 119.874157,71.011831 119.735955,71.0242254 C119.694382,71.0242254 119.637079,71.0794366 119.623596,71.1211268 C119.344944,71.8501408 118.775281,73.3859155 118.717978,73.7926761 C118.676404,74.0439437 118.662921,74.268169 119.121348,74.3785915 C119.289888,74.4202817 119.41573,74.4484507 119.707865,74.4901408 C119.735955,74.5194366 119.723596,74.6738028 119.694382,74.6997183 C119.444944,74.6997183 118.717978,74.6580282 118.105618,74.6580282 C117.423596,74.6580282 117.003371,74.6997183 116.794382,74.6997183 C116.753933,74.6861972 116.753933,74.5194366 116.794382,74.4901408 C117.768539,74.3650704 117.910112,74.2523944 118.342697,73.2180282 L118.342697,73.2180282 Z M120.991011,67.1797183 C120.766292,67.7678873 120.069663,69.8490141 119.861798,70.4653521 C119.861798,70.5205634 119.874157,70.5487324 119.919101,70.5622535 C120.04382,70.5780282 120.391011,70.5780282 121.142697,70.5780282 C121.450562,70.5780282 121.994382,70.5780282 122.065169,70.5622535 C122.078652,70.5622535 122.106742,70.5205634 122.091011,70.4653521 C121.757303,69.4028169 121.255056,67.7802817 121.044944,67.1661972 C121.033708,67.1661972 120.991011,67.1661972 120.991011,67.1797183 L120.991011,67.1797183 Z" id="Fill-20" sketch:type="MSShapeGroup"></path>
                <path d="M127.668539,66.0484507 C128.017978,66.0619718 128.81236,66.0901408 129.174157,66.0901408 C130.093258,66.0901408 130.694382,66.0338028 131.780899,66.0338028 C132.994382,66.0338028 134.039326,66.3571831 134.778652,67.0129577 C135.65618,67.7960563 136.047191,68.8856338 136.047191,70.1723944 C136.047191,72.268169 134.946067,73.4140845 134.025843,73.9729577 C133.174157,74.4901408 132.241573,74.7571831 131.083146,74.7571831 C130.288764,74.7571831 129.9,74.715493 128.71573,74.6997183 C128.561798,74.6997183 127.850562,74.6861972 127.530337,74.6997183 C127.488764,74.6861972 127.488764,74.4901408 127.530337,74.4901408 C127.808989,74.4484507 128.059551,74.4202817 128.267416,74.3650704 C128.504494,74.2940845 128.686517,74.24 128.72809,73.651831 C128.769663,72.7166197 128.769663,71.3588732 128.769663,70.1994366 C128.769663,69.5019718 128.769663,67.6833803 128.741573,67.195493 C128.71573,66.6208451 128.674157,66.4540845 128.308989,66.3695775 C128.142697,66.3278873 127.947191,66.2861972 127.641573,66.2580282 C127.613483,66.2287324 127.641573,66.0619718 127.668539,66.0484507 L127.668539,66.0484507 Z M129.968539,74.0991549 C130.233708,74.2523944 130.846067,74.3515493 131.697753,74.3515493 C132.450562,74.3515493 133.258427,74.1983099 133.914607,73.5819718 C134.596629,72.9385915 135.041573,72.0304225 135.041573,70.4078873 C135.041573,68.9971831 134.608989,67.8219718 133.468539,67.0129577 C132.81236,66.5509859 131.851685,66.3695775 130.638202,66.3695775 C130.346067,66.3695775 129.983146,66.3988732 129.842697,66.4405634 C129.773034,66.4664789 129.676404,66.5239437 129.662921,66.7459155 C129.634831,67.0828169 129.634831,69.0523944 129.634831,70.2692958 C129.634831,71.5414085 129.634831,73.1222535 129.662921,73.5684507 C129.676404,73.7769014 129.747191,73.9729577 129.968539,74.0991549 L129.968539,74.0991549 Z" id="Fill-21" sketch:type="MSShapeGroup"></path>
                <path d="M137.135955,66.0484507 C137.38764,66.0484507 138.11236,66.0901408 138.752809,66.0901408 C139.339326,66.0901408 139.758427,66.0484507 140.092135,66.0484507 C140.120225,66.0901408 140.133708,66.216338 140.104494,66.2580282 C139.896629,66.2861972 139.659551,66.3132394 139.533708,66.3414085 C139.226966,66.4247887 139.17191,66.6366197 139.14382,67.068169 C139.11573,67.6552113 139.102247,69.0523944 139.102247,70.2692958 C139.102247,71.5830986 139.11573,73.1346479 139.130337,73.5966197 C139.157303,74.0304225 139.198876,74.268169 139.547191,74.3650704 C139.742697,74.4202817 139.994382,74.4619718 140.258427,74.4901408 C140.3,74.5329577 140.274157,74.6738028 140.244944,74.6997183 C139.951685,74.6997183 139.450562,74.6580282 138.835955,74.6580282 C138.153933,74.6580282 137.875281,74.6997183 137.150562,74.6997183 C137.108989,74.6580282 137.122472,74.5194366 137.150562,74.4901408 C137.346067,74.4777465 137.610112,74.4360563 137.778652,74.3932394 C138.124719,74.3233803 138.182022,74.1138028 138.211236,73.7926761 C138.237079,73.4557746 138.252809,71.0377465 138.252809,69.8783099 C138.252809,68.8304225 138.252809,67.7385915 138.224719,67.096338 C138.182022,66.7616901 138.195506,66.4664789 137.875281,66.3830986 C137.721348,66.3414085 137.458427,66.2997183 137.122472,66.2580282 C137.080899,66.2287324 137.108989,66.0777465 137.135955,66.0484507" id="Fill-22" sketch:type="MSShapeGroup"></path>
                <path d="M140.31573,66.0484507 C140.580899,66.0484507 141.234831,66.0901408 141.807865,66.0901408 C142.614607,66.0901408 142.977528,66.0619718 143.27191,66.0484507 C143.313483,66.0777465 143.313483,66.2287324 143.27191,66.2580282 L142.657303,66.3830986 C142.448315,66.4247887 142.378652,66.5656338 142.448315,66.7616901 C142.922472,68.0890141 144.678652,72.7301408 144.930337,73.3171831 C144.957303,73.3025352 144.957303,73.3307042 144.985393,73.3171831 C145.167416,72.9385915 146.993258,68.3684507 147.425843,67.1538028 C147.577528,66.7042254 147.564045,66.4540845 147.147191,66.3695775 C146.923596,66.3278873 146.783146,66.2997183 146.491011,66.2580282 C146.477528,66.2287324 146.491011,66.0777465 146.519101,66.0484507 C146.852809,66.0484507 147.326966,66.0901408 147.913483,66.0901408 C148.51236,66.0901408 148.973034,66.0484507 149.222472,66.0484507 C149.235955,66.0901408 149.235955,66.2287324 149.222472,66.2580282 C149.05618,66.2704225 148.832584,66.3132394 148.665169,66.3571831 C148.261798,66.4540845 148.134831,66.691831 147.717978,67.6833803 C147.313483,68.6343662 146.141573,71.4861972 145.459551,73.1898592 C145.222472,73.8061972 145.05618,74.3098592 144.930337,74.7571831 C144.777528,74.7278873 144.511236,74.7278873 144.4,74.7571831 C144.246067,74.2107042 144.050562,73.5684507 143.77191,72.8428169 C143.076404,70.9543662 142.058427,68.2422535 141.61236,67.1661972 C141.361798,66.5509859 141.208989,66.3988732 140.873034,66.3414085 L140.288764,66.2580282 C140.260674,66.216338 140.274157,66.0619718 140.31573,66.0484507" id="Fill-23" sketch:type="MSShapeGroup"></path>
                <path d="M149.170787,66.0484507 C149.420225,66.0484507 150.144944,66.0901408 150.785393,66.0901408 C151.370787,66.0901408 151.791011,66.0484507 152.124719,66.0484507 C152.152809,66.0901408 152.166292,66.216338 152.139326,66.2580282 C151.929213,66.2861972 151.692135,66.3132394 151.566292,66.3414085 C151.259551,66.4247887 151.204494,66.6366197 151.176404,67.068169 C151.150562,67.6552113 151.134831,69.0523944 151.134831,70.2692958 C151.134831,71.5830986 151.150562,73.1346479 151.162921,73.5966197 C151.192135,74.0304225 151.233708,74.268169 151.582022,74.3650704 C151.775281,74.4202817 152.02809,74.4619718 152.291011,74.4901408 C152.334831,74.5329577 152.306742,74.6738028 152.277528,74.6997183 C151.986517,74.6997183 151.483146,74.6580282 150.870787,74.6580282 C150.186517,74.6580282 149.907865,74.6997183 149.183146,74.6997183 C149.141573,74.6580282 149.155056,74.5194366 149.183146,74.4901408 C149.378652,74.4777465 149.64382,74.4360563 149.811236,74.3932394 C150.159551,74.3233803 150.21573,74.1138028 150.24382,73.7926761 C150.269663,73.4557746 150.285393,71.0377465 150.285393,69.8783099 C150.285393,68.8304225 150.285393,67.7385915 150.257303,67.096338 C150.21573,66.7616901 150.22809,66.4664789 149.907865,66.3830986 C149.753933,66.3414085 149.491011,66.2997183 149.155056,66.2580282 C149.113483,66.2287324 149.141573,66.0777465 149.170787,66.0484507" id="Fill-24" sketch:type="MSShapeGroup"></path>
                <path d="M154.298876,74.2242254 C154.649438,74.4777465 155.079775,74.5746479 155.694382,74.5746479 C156.559551,74.5746479 157.296629,74.0439437 157.296629,72.9261972 C157.296629,71.9335211 156.62809,71.416338 155.4,70.6614085 C154.35618,70.0191549 153.491011,69.2901408 153.491011,68.1171831 C153.491011,66.72 154.621348,65.84 156.069663,65.84 C156.879775,65.84 157.408989,65.9909859 157.966292,66.0484507 C157.883146,66.4957746 157.786517,67.1538028 157.729213,67.8095775 C157.7,67.8512676 157.520225,67.8512676 157.492135,67.8219718 C157.437079,66.8585915 157.283146,66.5509859 156.949438,66.3571831 C156.65618,66.1870423 156.334831,66.1194366 155.874157,66.1194366 C154.842697,66.1194366 154.298876,66.8585915 154.286517,67.6833803 C154.273034,68.4935211 154.692135,68.9847887 155.233708,69.3892958 C155.765169,69.7656338 156.419101,70.1025352 156.822472,70.3661972 C157.421348,70.7729577 158.174157,71.3453521 158.174157,72.4214085 C158.174157,73.7769014 157.088764,74.9104225 155.291011,74.9104225 C154.538202,74.9104225 153.741573,74.6861972 153.449438,74.4901408 C153.308989,74.2940845 153.170787,73.0095775 153.142697,72.6039437 C153.170787,72.5476056 153.338202,72.5205634 153.366292,72.5476056 C153.589888,73.4016901 153.868539,73.9447887 154.298876,74.2242254" id="Fill-25" sketch:type="MSShapeGroup"></path>
                <path d="M158.97191,66.0484507 C159.223596,66.0484507 159.948315,66.0901408 160.588764,66.0901408 C161.174157,66.0901408 161.592135,66.0484507 161.926966,66.0484507 C161.953933,66.0901408 161.968539,66.216338 161.940449,66.2580282 C161.731461,66.2861972 161.494382,66.3132394 161.369663,66.3414085 C161.061798,66.4247887 161.007865,66.6366197 160.978652,67.068169 C160.950562,67.6552113 160.937079,69.0523944 160.937079,70.2692958 C160.937079,71.5830986 160.950562,73.1346479 160.966292,73.5966197 C160.992135,74.0304225 161.035955,74.268169 161.383146,74.3650704 C161.578652,74.4202817 161.82809,74.4619718 162.094382,74.4901408 C162.135955,74.5329577 162.106742,74.6738028 162.080899,74.6997183 C161.786517,74.6997183 161.286517,74.6580282 160.67191,74.6580282 C159.989888,74.6580282 159.711236,74.6997183 158.986517,74.6997183 C158.944944,74.6580282 158.958427,74.5194366 158.986517,74.4901408 C159.182022,74.4777465 159.444944,74.4360563 159.613483,74.3932394 C159.960674,74.3233803 160.017978,74.1138028 160.046067,73.7926761 C160.073034,73.4557746 160.08764,71.0377465 160.08764,69.8783099 C160.08764,68.8304225 160.08764,67.7385915 160.059551,67.096338 C160.017978,66.7616901 160.031461,66.4664789 159.711236,66.3830986 C159.557303,66.3414085 159.293258,66.2997183 158.958427,66.2580282 C158.91573,66.2287324 158.944944,66.0777465 158.97191,66.0484507" id="Fill-26" sketch:type="MSShapeGroup"></path>
                <path d="M164.325843,73.5966197 C163.51573,72.6884507 163.140449,71.4861972 163.140449,70.2828169 C163.140449,69.2901408 163.432584,68.4247887 163.906742,67.6969014 C164.673034,66.5656338 166.234831,65.84 167.586517,65.84 C170.331461,65.84 171.725843,67.9346479 171.725843,70.2140845 C171.725843,71.3870423 171.447191,72.2546479 170.904494,73.0512676 C170.107865,74.268169 168.702247,74.9104225 167.337079,74.9104225 C166.135955,74.9104225 165.021348,74.3650704 164.325843,73.5966197 L164.325843,73.5966197 Z M169.524719,73.9312676 C170.473034,73.1639437 170.805618,72.0033803 170.805618,70.6614085 C170.805618,69.2067606 170.289888,67.6969014 169.105618,66.8743662 C168.576404,66.4822535 167.920225,66.244507 167.11236,66.244507 C166.568539,66.244507 166.110112,66.3695775 165.719101,66.5791549 C164.617978,67.2090141 164.14382,68.5509859 164.14382,70.0033803 C164.14382,71.416338 164.68764,73.0794366 165.983146,73.9312676 C166.485393,74.268169 167.11236,74.4619718 167.878652,74.4619718 C168.534831,74.4619718 169.120225,74.268169 169.524719,73.9312676 L169.524719,73.9312676 Z" id="Fill-27" sketch:type="MSShapeGroup"></path>
                <path d="M172.566292,66.0484507 C172.761798,66.0484507 173.402247,66.0901408 173.834831,66.0901408 C174.113483,66.0901408 174.293258,66.0901408 174.420225,66.0777465 C174.461798,66.1611268 174.58764,66.3695775 174.962921,66.8304225 C176.579775,68.8146479 179.883146,72.8270423 180.385393,73.4016901 L180.426966,73.3723944 C180.426966,71.4861972 180.455056,68.1307042 180.37191,67.1538028 C180.34382,66.7752113 180.288764,66.5239437 179.897753,66.3988732 C179.660674,66.3278873 179.367416,66.2861972 179.046067,66.2580282 C179.004494,66.2287324 179.033708,66.0777465 179.061798,66.0484507 C179.411236,66.0484507 179.994382,66.0901408 180.650562,66.0901408 C181.041573,66.0901408 181.766292,66.0484507 181.919101,66.0484507 C181.944944,66.0777465 181.944944,66.2287324 181.919101,66.2580282 C181.666292,66.2997183 181.557303,66.3132394 181.375281,66.3695775 C181.025843,66.4664789 180.942697,66.7616901 180.929213,67.0828169 C180.859551,68.1171831 180.873034,71.011831 180.846067,72.884507 C180.846067,73.5132394 180.859551,74.2940845 180.873034,74.7278873 C180.747191,74.715493 180.31573,74.715493 180.176404,74.7278873 C179.478652,73.6811268 175.061798,68.2839437 174.433708,67.5166197 C174.420225,67.5008451 174.378652,67.5166197 174.378652,67.5301408 C174.364045,68.9138028 174.364045,72.6174648 174.392135,73.4276056 C174.420225,74.1273239 174.629213,74.2816901 174.921348,74.3650704 C175.116854,74.4360563 175.410112,74.4619718 175.660674,74.4901408 C175.702247,74.5059155 175.674157,74.6861972 175.647191,74.6997183 C175.382022,74.6997183 174.782022,74.6580282 174.07191,74.6580282 C173.44382,74.6580282 172.998876,74.6997183 172.720225,74.6997183 C172.691011,74.6738028 172.691011,74.5059155 172.720225,74.4901408 C172.983146,74.4619718 173.110112,74.4484507 173.289888,74.3932394 C173.610112,74.3098592 173.834831,74.1566197 173.862921,73.4276056 C173.889888,72.7853521 173.947191,70.2140845 173.973034,67.2788732 C173.973034,67.1538028 173.904494,66.8867606 173.722472,66.691831 C173.431461,66.3571831 173.110112,66.3278873 172.538202,66.2580282 C172.524719,66.2287324 172.538202,66.0777465 172.566292,66.0484507" id="Fill-28" sketch:type="MSShapeGroup"></path>
                <path d="M186.258427,73.5966197 C185.448315,72.6884507 185.073034,71.4861972 185.073034,70.2828169 C185.073034,69.2901408 185.365169,68.4247887 185.838202,67.6969014 C186.606742,66.5656338 188.167416,65.84 189.519101,65.84 C192.264045,65.84 193.659551,67.9346479 193.659551,70.2140845 C193.659551,71.3870423 193.378652,72.2546479 192.837079,73.0512676 C192.042697,74.268169 190.633708,74.9104225 189.268539,74.9104225 C188.070787,74.9104225 186.953933,74.3650704 186.258427,73.5966197 L186.258427,73.5966197 Z M191.457303,73.9312676 C192.404494,73.1639437 192.738202,72.0033803 192.738202,70.6614085 C192.738202,69.2067606 192.222472,67.6969014 191.037079,66.8743662 C190.508989,66.4822535 189.855056,66.244507 189.044944,66.244507 C188.5,66.244507 188.041573,66.3695775 187.651685,66.5791549 C186.549438,67.2090141 186.075281,68.5509859 186.075281,70.0033803 C186.075281,71.416338 186.620225,73.0794366 187.916854,73.9312676 C188.416854,74.268169 189.044944,74.4619718 189.811236,74.4619718 C190.467416,74.4619718 191.052809,74.268169 191.457303,73.9312676 L191.457303,73.9312676 Z" id="Fill-29" sketch:type="MSShapeGroup"></path>
                <path d="M194.764045,66.0484507 C195.001124,66.0484507 195.544944,66.0901408 196.240449,66.0901408 L199.293258,66.0901408 C199.878652,66.0901408 200.213483,66.0619718 200.478652,65.9909859 C200.506742,65.9909859 200.506742,66.0202817 200.520225,66.0484507 C200.395506,66.3830986 200.338202,67.1797183 200.296629,67.8929577 C200.283146,67.9211268 200.08764,67.9346479 200.059551,67.9087324 C200.032584,67.4174648 199.934831,67.068169 199.892135,66.9419718 C199.808989,66.6625352 199.585393,66.4957746 199.293258,66.4822535 C198.832584,66.4540845 197.147191,66.4540845 196.923596,66.4822535 C196.813483,66.4957746 196.75618,66.6208451 196.75618,66.7335211 C196.72809,67.3047887 196.72809,69.2642254 196.72809,70.1577465 C196.72809,70.1859155 196.769663,70.1994366 196.797753,70.1994366 C197.105618,70.2140845 198.639326,70.1994366 199.02809,70.1859155 C199.54382,70.1723944 199.670787,69.9774648 199.739326,69.8073239 C199.822472,69.6112676 199.878652,69.3611268 199.921348,69.1808451 C199.949438,69.1515493 200.129213,69.1808451 200.144944,69.2067606 C200.101124,69.4726761 200.046067,69.9774648 200.046067,70.5070423 C200.046067,70.9825352 200.074157,71.3453521 200.074157,71.6123944 C200.059551,71.6540845 199.878652,71.6676056 199.850562,71.6540845 C199.808989,71.3453521 199.767416,71.2202817 199.71236,71.0659155 C199.629213,70.828169 199.460674,70.6749296 199.265169,70.6614085 C198.735955,70.6197183 197.006742,70.6039437 196.78427,70.6332394 C196.75618,70.6332394 196.72809,70.6895775 196.72809,70.7030986 C196.72809,71.5414085 196.72809,73.0095775 196.75618,73.5684507 C196.78427,74.0022535 196.797753,74.2816901 197.202247,74.3785915 C197.397753,74.4202817 197.607865,74.4484507 197.996629,74.4901408 C198.01236,74.5329577 198.024719,74.644507 197.996629,74.6997183 C197.634831,74.6997183 197.006742,74.6580282 196.295506,74.6580282 C195.61236,74.6580282 195.125843,74.6997183 194.722472,74.6997183 C194.693258,74.6738028 194.706742,74.5194366 194.722472,74.4901408 C195.042697,74.4619718 195.238202,74.4360563 195.392135,74.3932394 C195.753933,74.3098592 195.823596,74.1273239 195.837079,73.5684507 C195.849438,73.0512676 195.865169,72.0721127 195.865169,70.2985915 C195.865169,68.8146479 195.865169,67.5583099 195.837079,67.1661972 C195.807865,66.7335211 195.837079,66.5374648 195.529213,66.3830986 C195.362921,66.3132394 195.155056,66.2997183 194.764045,66.244507 C194.735955,66.244507 194.735955,66.0619718 194.764045,66.0484507" id="Fill-30" sketch:type="MSShapeGroup"></path>
                <path d="M205.525843,72.7853521 C206.140449,71.3171831 207.492135,67.8095775 207.798876,66.9002817 C207.908989,66.5791549 208.035955,66.216338 208.077528,65.9909859 C208.146067,66.0067606 208.32809,66.0067606 208.593258,66.0067606 C208.926966,66.0067606 209.080899,66.0067606 209.151685,65.9909859 C209.219101,66.2704225 209.304494,66.5374648 209.401124,66.8169014 C209.679775,67.6 211.226966,71.68 211.77191,72.9261972 C212.216854,73.9177465 212.329213,74.0022535 213.388764,74.1408451 C213.47191,74.1983099 213.414607,74.6309859 213.359551,74.6997183 C212.997753,74.6861972 212.329213,74.6580282 211.534831,74.6580282 C210.697753,74.6580282 209.792135,74.6997183 209.513483,74.6997183 C209.45618,74.6309859 209.442697,74.2107042 209.513483,74.1408451 C209.820225,74.0991549 210.11236,74.0574648 210.320225,73.9864789 C210.48764,73.9177465 210.51573,73.7352113 210.48764,73.6394366 C210.307865,73.0512676 209.946067,72.1002817 209.721348,71.5549296 C209.693258,71.4861972 209.610112,71.4580282 209.583146,71.4580282 C209.331461,71.444507 208.691011,71.444507 208.174157,71.444507 C207.283146,71.444507 207.197753,71.444507 207.047191,71.4580282 C206.976404,71.4580282 206.877528,71.5549296 206.877528,71.5830986 C206.585393,72.3797183 206.223596,73.2890141 206.223596,73.5684507 C206.223596,73.8343662 206.278652,73.9312676 206.682022,74.0304225 C206.864045,74.0721127 207.17191,74.1138028 207.421348,74.1408451 C207.478652,74.2107042 207.450562,74.6309859 207.379775,74.6997183 C207.101124,74.6997183 206.377528,74.6580282 205.442697,74.6580282 C204.538202,74.6580282 204.077528,74.6997183 203.81236,74.6997183 C203.757303,74.6309859 203.757303,74.2107042 203.81236,74.1408451 C204.842697,74.0022535 205.038202,73.9177465 205.525843,72.7853521 L205.525843,72.7853521 Z M208.229213,67.6709859 C207.994382,68.4101408 207.492135,69.6969014 207.225843,70.536338 C207.225843,70.5780282 207.241573,70.6197183 207.283146,70.6332394 C207.434831,70.6456338 207.979775,70.6456338 208.383146,70.6456338 C208.732584,70.6456338 209.122472,70.6456338 209.304494,70.6332394 C209.346067,70.6332394 209.388764,70.5622535 209.373034,70.4946479 C209.108989,69.7656338 208.551685,68.2140845 208.314607,67.6552113 C208.3,67.6552113 208.258427,67.6416901 208.229213,67.6709859 L208.229213,67.6709859 Z" id="Fill-31" sketch:type="MSShapeGroup"></path>
                <path d="M220.082022,66.691831 C219.649438,66.4957746 219.022472,66.4112676 218.382022,66.4112676 C216.402247,66.4112676 215.357303,67.8929577 215.357303,70.1723944 C215.357303,72.0721127 216.430337,74.1408451 218.980899,74.1408451 C219.746067,74.1408451 220.220225,73.8895775 220.430337,73.7509859 C220.751685,73.5132394 221.155056,72.9521127 221.559551,72.296338 C221.670787,72.2828169 221.978652,72.4630986 222.020225,72.5892958 C221.907865,73.1222535 221.267416,74.2816901 220.931461,74.5194366 C220.540449,74.6738028 219.550562,74.9104225 218.702247,74.9104225 C215.508989,74.9104225 213.780899,73.1639437 213.780899,70.2985915 C213.780899,68.7729577 214.492135,67.2371831 216.024719,66.3988732 C216.777528,65.9909859 217.683146,65.7532394 218.839326,65.7532394 C220.165169,65.7532394 221.113483,66.0067606 221.753933,66.0484507 C221.670787,66.6073239 221.559551,67.6552113 221.546067,68.3132394 C221.475281,68.3966197 220.988764,68.451831 220.973034,68.3549296 C220.819101,67.2214085 220.652809,66.9701408 220.082022,66.691831" id="Fill-32" sketch:type="MSShapeGroup"></path>
                <path d="M223.110112,65.9650704 C223.235955,65.9650704 223.806742,66.0067606 224.753933,66.0067606 C225.647191,66.0067606 226.370787,65.9785915 227.235955,65.9785915 C228.308989,65.9785915 229.786517,66.3695775 229.786517,67.9921127 C229.786517,68.7887324 229.22809,69.4309859 228.504494,69.7397183 C228.462921,69.7521127 228.462921,69.7814085 228.504494,69.7938028 C229.535955,70.0608451 230.442697,70.7030986 230.442697,71.9335211 C230.442697,73.1346479 229.702247,73.8895775 228.629213,74.3650704 C227.973034,74.6580282 227.166292,74.7571831 226.342697,74.7571831 C225.71573,74.7571831 223.834831,74.6861972 222.9,74.6997183 C222.803371,74.6580282 222.78764,74.2107042 222.874157,74.1408451 C223.095506,74.1273239 223.597753,74.0856338 223.834831,74.0157746 C224.168539,73.9312676 224.280899,73.8478873 224.322472,73.3442254 C224.350562,72.9104225 224.350562,71.3588732 224.350562,70.2569014 C224.350562,68.7470423 224.364045,67.7250704 224.350562,67.2214085 C224.337079,66.8304225 224.196629,66.7042254 223.931461,66.6366197 C223.722472,66.5938028 223.374157,66.5509859 223.095506,66.508169 C223.024719,66.4405634 223.040449,66.0202817 223.110112,65.9650704 L223.110112,65.9650704 Z M228.992135,72.2411268 C228.992135,71.011831 228.098876,70.3109859 226.468539,70.3109859 C226.4,70.3109859 225.88427,70.2985915 225.757303,70.324507 C225.71573,70.3402817 225.673034,70.3661972 225.673034,70.395493 C225.673034,71.275493 225.660674,72.6884507 225.702247,73.2473239 C225.730337,73.4850704 225.897753,73.8197183 226.105618,73.9177465 C226.329213,74.0439437 226.830337,74.0721127 227.179775,74.0721127 C228.140449,74.0721127 228.992135,73.5267606 228.992135,72.2411268 L228.992135,72.2411268 Z M225.826966,66.6490141 C225.77191,66.6625352 225.702247,66.8033803 225.702247,66.8743662 C225.688764,67.3757746 225.673034,68.6895775 225.673034,69.5988732 C225.673034,69.6270423 225.71573,69.6687324 225.74382,69.6687324 C225.925843,69.6822535 226.370787,69.6969014 226.747191,69.6969014 C227.277528,69.6969014 227.583146,69.6270423 227.751685,69.543662 C228.197753,69.3194366 228.405618,68.8304225 228.405618,68.2974648 C228.405618,67.0828169 227.569663,66.6208451 226.329213,66.6208451 C226.246067,66.6208451 226.008989,66.6208451 225.826966,66.6490141 L225.826966,66.6490141 Z" id="Fill-33" sketch:type="MSShapeGroup"></path>
                <path d="M231.739326,65.9650704 C232.130337,65.9650704 232.658427,66.0067606 233.885393,66.0067606 C234.737079,66.0067606 235.266292,65.9650704 235.685393,65.9650704 C235.755056,66.0202817 235.755056,66.4540845 235.669663,66.508169 C235.349438,66.5656338 235.098876,66.6208451 234.916854,66.6625352 C234.679775,66.7335211 234.596629,66.8585915 234.583146,67.195493 C234.555056,67.7960563 234.555056,72.1002817 234.513483,73.3588732 C234.458427,74.4619718 234.333708,75.2450704 233.926966,75.9583099 C233.189888,77.2721127 232.004494,77.9853521 231.069663,77.9853521 C230.541573,77.9853521 230.053933,77.7757746 229.913483,77.4940845 C229.9,77.4523944 229.858427,77.3014085 229.858427,77.2721127 C229.9,77.0061972 230.095506,76.4202817 230.192135,76.2095775 C230.611236,76.4890141 231.405618,76.8383099 231.851685,76.8383099 C232.186517,76.8383099 232.492135,76.7549296 232.729213,76.4619718 C233.106742,75.971831 233.161798,75.5121127 233.174157,74.2940845 C233.189888,72.5059155 233.189888,68.1171831 233.148315,67.4174648 C233.120225,67.0546479 233.078652,66.8033803 232.68764,66.691831 C232.423596,66.6208451 232.17191,66.5791549 231.713483,66.508169 C231.642697,66.4247887 231.670787,66.0202817 231.739326,65.9650704" id="Fill-34" sketch:type="MSShapeGroup"></path>
                <path d="M298.131461,34.3414085 C298.680899,33.9098592 298.78764,33.1177465 298.357303,32.564507 C297.929213,32.0123944 297.135955,31.9121127 296.586517,32.3402817 C296.035955,32.7684507 295.933708,33.5639437 296.365169,34.1149296 C296.78764,34.6692958 297.582022,34.7695775 298.131461,34.3414085" id="Fill-35" sketch:type="MSShapeGroup"></path>
                <path d="M261.44382,7.51549296 C263.404494,5.99098592 263.761798,3.15492958 262.240449,1.18873239 C260.720225,-0.78084507 257.897753,-1.13802817 255.932584,0.386478873 C253.969663,1.9143662 253.610112,4.74591549 255.132584,6.7143662 C256.657303,8.68507042 259.478652,9.04338028 261.44382,7.51549296" id="Fill-36" sketch:type="MSShapeGroup"></path>
                <path d="M269.986517,10.2523944 C271.568539,9.01633803 271.861798,6.72676056 270.629213,5.13126761 C269.398876,3.54140845 267.113483,3.2484507 265.523596,4.4856338 C263.935955,5.71943662 263.646067,8.01239437 264.879775,9.60450704 C266.108989,11.2 268.395506,11.4884507 269.986517,10.2523944" id="Fill-37" sketch:type="MSShapeGroup"></path>
                <path d="M261.473034,17.9594366 C263.433708,16.4326761 263.791011,13.6 262.270787,11.6338028 C260.752809,9.66422535 257.926966,9.30366197 255.960674,10.8315493 C253.997753,12.3526761 253.642697,15.1887324 255.160674,17.1549296 C256.685393,19.124507 259.511236,19.4861972 261.473034,17.9594366" id="Fill-38" sketch:type="MSShapeGroup"></path>
                <path d="M277.596629,13.9222535 C278.883146,12.9239437 279.114607,11.0692958 278.11573,9.78140845 C277.120225,8.49014085 275.275281,8.25690141 273.988764,9.25521127 C272.702247,10.2557746 272.467416,12.1092958 273.465169,13.3960563 C274.460674,14.6884507 276.31236,14.9239437 277.596629,13.9222535" id="Fill-39" sketch:type="MSShapeGroup"></path>
                <path d="M261.503371,28.4022535 C263.462921,26.8766197 263.819101,24.0439437 262.302247,22.0766197 C260.780899,20.108169 257.952809,19.7476056 255.98764,21.2743662 C254.029213,22.7977465 253.669663,25.6326761 255.192135,27.6022535 C256.716854,29.5695775 259.537079,29.9290141 261.503371,28.4022535" id="Fill-40" sketch:type="MSShapeGroup"></path>
                <path d="M284.260674,18.4969014 C285.301124,17.6856338 285.493258,16.188169 284.686517,15.143662 C283.876404,14.0980282 282.379775,13.9098592 281.341573,14.7188732 C280.301124,15.5290141 280.11236,17.0264789 280.919101,18.0709859 C281.725843,19.1132394 283.220225,19.3014085 284.260674,18.4969014" id="Fill-41" sketch:type="MSShapeGroup"></path>
                <path d="M261.531461,38.8484507 C263.493258,37.3216901 263.851685,34.4878873 262.329213,32.5216901 C260.811236,30.5521127 257.985393,30.1915493 256.020225,31.7194366 C254.059551,33.2439437 253.703371,36.0766197 255.220225,38.0461972 C256.746067,40.0146479 259.565169,40.371831 261.531461,38.8484507" id="Fill-42" sketch:type="MSShapeGroup"></path>
                <path d="M290.223596,23.7543662 C291.061798,23.0997183 291.21573,21.8839437 290.566292,21.0411268 C289.911236,20.1960563 288.701124,20.0450704 287.859551,20.6974648 C287.021348,21.3498592 286.866292,22.5667606 287.516854,23.411831 C288.167416,24.2546479 289.380899,24.4090141 290.223596,23.7543662" id="Fill-43" sketch:type="MSShapeGroup"></path>
                <path d="M261.564045,49.2901408 C263.524719,47.764507 263.880899,44.9307042 262.362921,42.9633803 C260.840449,40.9960563 258.014607,40.6366197 256.052809,42.1633803 C254.092135,43.6890141 253.732584,46.5216901 255.253933,48.4901408 C256.773034,50.4597183 259.598876,50.8146479 261.564045,49.2901408" id="Fill-44" sketch:type="MSShapeGroup"></path>
                <path d="M295.465169,29.6822535 C296.146067,29.1526761 296.270787,28.1690141 295.737079,27.4861972 C295.21236,26.804507 294.234831,26.6794366 293.552809,27.2078873 C292.870787,27.7408451 292.750562,28.7188732 293.273034,29.4028169 C293.803371,30.0856338 294.780899,30.211831 295.465169,29.6822535" id="Fill-45" sketch:type="MSShapeGroup"></path>
                <path d="M270.013483,20.6997183 C271.602247,19.4625352 271.889888,17.171831 270.662921,15.5785915 C269.429213,13.9853521 267.144944,13.6957746 265.552809,14.9284507 C263.964045,16.164507 263.677528,18.4552113 264.911236,20.0495775 C266.141573,21.6450704 268.424719,21.9323944 270.013483,20.6997183" id="Fill-46" sketch:type="MSShapeGroup"></path>
                <path d="M277.626966,24.3684507 C278.911236,23.364507 279.144944,21.5098592 278.149438,20.2242254 C277.151685,18.936338 275.306742,18.7008451 274.017978,19.7002817 C272.732584,20.6974648 272.5,22.5532394 273.495506,23.8411268 C274.492135,25.1312676 276.340449,25.364507 277.626966,24.3684507" id="Fill-47" sketch:type="MSShapeGroup"></path>
                <path d="M270.04382,31.143662 C271.630337,29.9053521 271.922472,27.6146479 270.688764,26.0225352 C269.458427,24.4292958 267.175281,24.136338 265.585393,25.3723944 C263.995506,26.6095775 263.706742,28.9002817 264.938202,30.4935211 C266.17191,32.0867606 268.453933,32.376338 270.04382,31.143662" id="Fill-48" sketch:type="MSShapeGroup"></path>
                <path d="M284.293258,28.9408451 C285.329213,28.1295775 285.522472,26.6298592 284.713483,25.5876056 C283.910112,24.5430986 282.41236,24.3526761 281.373034,25.1616901 C280.330337,25.9695775 280.14382,27.4726761 280.950562,28.5149296 C281.751685,29.5571831 283.249438,29.7498592 284.293258,28.9408451" id="Fill-49" sketch:type="MSShapeGroup"></path>
                <path d="M277.65618,34.8078873 C278.944944,33.8107042 279.174157,31.9571831 278.176404,30.6670423 C277.182022,29.3814085 275.333708,29.1425352 274.048315,30.1442254 C272.766292,31.143662 272.529213,32.9949296 273.526966,34.2861972 C274.523596,35.576338 276.37191,35.8073239 277.65618,34.8078873" id="Fill-50" sketch:type="MSShapeGroup"></path>
                <path d="M270.073034,41.5887324 C271.660674,40.3504225 271.953933,38.0597183 270.71573,36.4664789 C269.489888,34.8766197 267.201124,34.5814085 265.614607,35.8185915 C264.02809,37.0512676 263.739326,39.3453521 264.970787,40.9374648 C266.202247,42.5307042 268.48427,42.8191549 270.073034,41.5887324" id="Fill-51" sketch:type="MSShapeGroup"></path>
                <path d="M290.248315,34.1983099 C291.092135,33.5459155 291.248315,32.3290141 290.596629,31.4861972 C289.942697,30.6433803 288.730337,30.4890141 287.88764,31.143662 C287.048315,31.7983099 286.895506,33.0107042 287.548315,33.8535211 C288.197753,34.6985915 289.410112,34.8552113 290.248315,34.1983099" id="Fill-52" sketch:type="MSShapeGroup"></path>
                <path d="M284.323596,39.3859155 C285.362921,38.5769014 285.551685,37.0760563 284.747191,36.0315493 C283.939326,34.9892958 282.441573,34.7988732 281.403371,35.6056338 C280.362921,36.4191549 280.175281,37.9166197 280.978652,38.96 C281.78427,40.0022535 283.282022,40.1938028 284.323596,39.3859155" id="Fill-53" sketch:type="MSShapeGroup"></path>
                <path d="M277.686517,45.2574648 C278.969663,44.2569014 279.203371,42.4033803 278.207865,41.1143662 C277.21236,39.8242254 275.362921,39.5909859 274.078652,40.5904225 C272.793258,41.5887324 272.559551,43.4433803 273.55618,44.7312676 C274.549438,46.0202817 276.398876,46.2557746 277.686517,45.2574648" id="Fill-54" sketch:type="MSShapeGroup"></path>
                <path d="M270.105618,52.0292958 C271.691011,50.7977465 271.98427,48.503662 270.747191,46.9126761 C269.519101,45.3194366 267.232584,45.0276056 265.64382,46.2625352 C264.05618,47.4974648 263.765169,49.7892958 264.997753,51.3814085 C266.225843,52.9791549 268.514607,53.2676056 270.105618,52.0292958" id="Fill-55" sketch:type="MSShapeGroup"></path>
                <path d="M261.591011,59.736338 C263.553933,58.211831 263.913483,55.3791549 262.394382,53.4095775 C260.874157,51.4433803 258.04382,51.0839437 256.082022,52.6095775 C254.119101,54.1329577 253.762921,56.9701408 255.279775,58.936338 C256.803371,60.903662 259.631461,61.2619718 261.591011,59.736338" id="Fill-56" sketch:type="MSShapeGroup"></path>
                <path d="M295.494382,40.1239437 C296.174157,39.5932394 296.3,38.6129577 295.768539,37.9312676 C295.242697,37.2439437 294.265169,37.1222535 293.580899,37.651831 C292.898876,38.1814085 292.775281,39.1628169 293.302247,39.8433803 C293.835955,40.5273239 294.813483,40.6546479 295.494382,40.1239437" id="Fill-57" sketch:type="MSShapeGroup"></path>
                <path d="M290.280899,44.6433803 C291.123596,43.9876056 291.275281,42.7729577 290.625843,41.9301408 C289.969663,41.0839437 288.761798,40.9307042 287.921348,41.5853521 C287.078652,42.2411268 286.923596,43.4557746 287.576404,44.2985915 C288.230337,45.143662 289.435955,45.2957746 290.280899,44.6433803" id="Fill-58" sketch:type="MSShapeGroup"></path>
                <path d="M284.349438,49.8264789 C285.391011,49.0197183 285.582022,47.5177465 284.776404,46.4766197 C283.970787,45.4332394 282.474157,45.2428169 281.432584,46.0529577 C280.392135,46.8585915 280.203371,48.3605634 281.006742,49.4050704 C281.816854,50.4461972 283.31236,50.6388732 284.349438,49.8264789" id="Fill-59" sketch:type="MSShapeGroup"></path>
                <path d="M277.714607,55.6980282 C279.004494,54.7008451 279.234831,52.8461972 278.239326,51.5560563 C277.242697,50.2670423 275.395506,50.0315493 274.105618,51.0321127 C272.822472,52.0315493 272.592135,53.8861972 273.583146,55.1752113 C274.579775,56.4619718 276.430337,56.6974648 277.714607,55.6980282" id="Fill-60" sketch:type="MSShapeGroup"></path>
                <path d="M270.131461,62.4743662 C271.722472,61.2371831 272.011236,58.9487324 270.779775,57.355493 C269.544944,55.7622535 267.264045,55.4715493 265.674157,56.7098592 C264.085393,57.9391549 263.794382,60.2332394 265.029213,61.8264789 C266.259551,63.4197183 268.54382,63.7115493 270.131461,62.4743662" id="Fill-61" sketch:type="MSShapeGroup"></path>
                <path d="M261.624719,70.1814085 C263.58764,68.6535211 263.939326,65.8197183 262.421348,63.8523944 C260.902247,61.8816901 258.075281,61.5267606 256.111236,63.0523944 C254.149438,64.5769014 253.793258,67.4073239 255.314607,69.3814085 C256.835955,71.3476056 259.657303,71.703662 261.624719,70.1814085" id="Fill-62" sketch:type="MSShapeGroup"></path>
            </g>
        </g>
    </g>
</svg>