<?xml version="1.0" encoding="UTF-8" standalone="no"?>
<svg width="2100px" height="1434px" viewBox="0 0 2100 1434" version="1.1" xmlns="http://www.w3.org/2000/svg" xmlns:xlink="http://www.w3.org/1999/xlink" xmlns:sketch="http://www.bohemiancoding.com/sketch/ns">
    <!-- Generator: Sketch 3.0.2 (7799) - http://www.bohemiancoding.com/sketch -->
    <title>buzzworthy_dark_max</title>
    <description>Created with Sketch.</description>
    <defs></defs>
    <g id="Buzzworthy-Dark-Max" stroke="none" stroke-width="1" fill="none" fill-rule="evenodd" sketch:type="MSPage">
        <g id="buzzworthy_dark_max" sketch:type="MSArtboardGroup" fill="#FFFFFF">
            <path d="M1,130.5 L-209,232.083333 L-209,488.916667 L1,590.5 L211,488.916667 L211,232.083333 L1,130.5 Z" id="Rectangle-1" opacity="0.23" sketch:type="MSShapeGroup"></path>
            <path d="M211,-228 L1,-126.416667 L1,130.416667 L211,232 L421,130.416667 L421,-126.416667 L211,-228 Z" id="Rectangle-2" opacity="0.07" sketch:type="MSShapeGroup"></path>
            <path d="M421,130.5 L211,232.083333 L211,488.916667 L421,590.5 L631,488.916667 L631,232.083333 L421,130.5 Z" id="Rectangle-4" opacity="0.33" sketch:type="MSShapeGroup"></path>
            <path d="M631,-228 L421,-126.416667 L421,130.416667 L631,232 L841,130.416667 L841,-126.416667 L631,-228 Z" id="Rectangle-3" opacity="0.27" sketch:type="MSShapeGroup"></path>
            <path d="M841,130.5 L631,232.083333 L631,488.916667 L841,590.5 L1051,488.916667 L1051,232.083333 L841,130.5 Z" id="Rectangle-8" opacity="0.13" sketch:type="MSShapeGroup"></path>
            <path d="M1051,-228 L841,-126.416667 L841,130.416667 L1051,232 L1261,130.416667 L1261,-126.416667 L1051,-228 Z" id="Rectangle-5" opacity="0.19" sketch:type="MSShapeGroup"></path>
            <path d="M1261,130.5 L1051,232.083333 L1051,488.916667 L1261,590.5 L1471,488.916667 L1471,232.083333 L1261,130.5 Z" id="Rectangle-6" opacity="0.27" sketch:type="MSShapeGroup"></path>
            <path d="M1471,-228 L1261,-126.416667 L1261,130.416667 L1471,232 L1681,130.416667 L1681,-126.416667 L1471,-228 Z" id="Rectangle-7" opacity="0.39" sketch:type="MSShapeGroup"></path>
            <path d="M1681,130.5 L1471,232.083333 L1471,488.916667 L1681,590.5 L1891,488.916667 L1891,232.083333 L1681,130.5 Z" id="Rectangle-12" opacity="0.33" sketch:type="MSShapeGroup"></path>
            <path d="M1891,-228 L1681,-126.416667 L1681,130.416667 L1891,232 L2101,130.416667 L2101,-126.416667 L1891,-228 Z" id="Rectangle-9" opacity="0.15" sketch:type="MSShapeGroup"></path>
            <path d="M2101,130.5 L1891,232.083333 L1891,488.916667 L2101,590.5 L2311,488.916667 L2311,232.083333 L2101,130.5 Z" id="Rectangle-10" opacity="0.23" sketch:type="MSShapeGroup"></path>
            <path d="M1,847.5 L-209,949.083333 L-209,1205.91667 L1,1307.5 L211,1205.91667 L211,949.083333 L1,847.5 Z" id="Rectangle-24" opacity="0.25" sketch:type="MSShapeGroup"></path>
            <path d="M211,489 L1,590.583333 L1,847.416667 L211,949 L421,847.416667 L421,590.583333 L211,489 Z" id="Rectangle-13" opacity="0.15" sketch:type="MSShapeGroup"></path>
            <path d="M421,847.5 L211,949.083333 L211,1205.91667 L421,1307.5 L631,1205.91667 L631,949.083333 L421,847.5 Z" id="Rectangle-14" opacity="0.35" sketch:type="MSShapeGroup"></path>
            <path d="M631,489 L421,590.583333 L421,847.416667 L631,949 L841,847.416667 L841,590.583333 L631,489 Z" id="Rectangle-15" opacity="0.31" sketch:type="MSShapeGroup"></path>
            <path d="M841,847.5 L631,949.083333 L631,1205.91667 L841,1307.5 L1051,1205.91667 L1051,949.083333 L841,847.5 Z" id="Rectangle-16" opacity="0.07" sketch:type="MSShapeGroup"></path>
            <path d="M1051,489 L841,590.583333 L841,847.416667 L1051,949 L1261,847.416667 L1261,590.583333 L1051,489 Z" id="Rectangle-17" opacity="0.17" sketch:type="MSShapeGroup"></path>
            <path d="M1261,847.5 L1051,949.083333 L1051,1205.91667 L1261,1307.5 L1471,1205.91667 L1471,949.083333 L1261,847.5 Z" id="Rectangle-18" opacity="0.11" sketch:type="MSShapeGroup"></path>
            <path d="M1471,489 L1261,590.583333 L1261,847.416667 L1471,949 L1681,847.416667 L1681,590.583333 L1471,489 Z" id="Rectangle-19" opacity="0.07" sketch:type="MSShapeGroup"></path>
            <path d="M1681,847.5 L1471,949.083333 L1471,1205.91667 L1681,1307.5 L1891,1205.91667 L1891,949.083333 L1681,847.5 Z" id="Rectangle-20" opacity="0.19" sketch:type="MSShapeGroup"></path>
            <path d="M1891,489 L1681,590.583333 L1681,847.416667 L1891,949 L2101,847.416667 L2101,590.583333 L1891,489 Z" id="Rectangle-21" opacity="0.39" sketch:type="MSShapeGroup"></path>
            <path d="M2101,847.5 L1891,949.083333 L1891,1205.91667 L2101,1307.5 L2311,1205.91667 L2311,949.083333 L2101,847.5 Z" id="Rectangle-22" opacity="0.25" sketch:type="MSShapeGroup"></path>
            <path d="M211,1206 L1,1307.58333 L1,1564.41667 L211,1666 L421,1564.41667 L421,1307.58333 L211,1206 Z" id="Rectangle-30" opacity="0.07" sketch:type="MSShapeGroup"></path>
            <path d="M631,1206 L421,1307.58333 L421,1564.41667 L631,1666 L841,1564.41667 L841,1307.58333 L631,1206 Z" id="Rectangle-25" opacity="0.27" sketch:type="MSShapeGroup"></path>
            <path d="M1051,1206 L841,1307.58333 L841,1564.41667 L1051,1666 L1261,1564.41667 L1261,1307.58333 L1051,1206 Z" id="Rectangle-26" opacity="0.19" sketch:type="MSShapeGroup"></path>
            <path d="M1471,1206 L1261,1307.58333 L1261,1564.41667 L1471,1666 L1681,1564.41667 L1681,1307.58333 L1471,1206 Z" id="Rectangle-27" opacity="0.39" sketch:type="MSShapeGroup"></path>
            <path d="M1891,1206 L1681,1307.58333 L1681,1564.41667 L1891,1666 L2101,1564.41667 L2101,1307.58333 L1891,1206 Z" id="Rectangle-28" opacity="0.15" sketch:type="MSShapeGroup"></path>
        </g>
    </g>
</svg>