<?xml version="1.0" encoding="UTF-8" standalone="no"?>
<svg width="164px" height="200px" viewBox="0 0 164 200" version="1.1" xmlns="http://www.w3.org/2000/svg" xmlns:xlink="http://www.w3.org/1999/xlink" xmlns:sketch="http://www.bohemiancoding.com/sketch/ns">
    <!-- Generator: Sketch 3.0.3 (7891) - http://www.bohemiancoding.com/sketch -->
    <title>concussion-manager</title>
    <desc>Created with Sketch.</desc>
    <defs></defs>
    <g id="Logo-page" stroke="none" stroke-width="1" fill="none" fill-rule="evenodd" sketch:type="MSPage">
        <g id="Artboard-1" sketch:type="MSArtboardGroup" transform="translate(-1342.000000, -44.000000)">
            <g id="concussion-manager" sketch:type="MSLayerGroup" transform="translate(1342.000000, 72.000000)">
                <path d="M55.6162063,44.7552491 C55.7167178,46.5072618 54.5435721,46.9767301 54.796769,48.8808567 C56.625925,49.7889074 58.4919096,50.6598947 60.5343649,51.3556036 C60.0226002,53.726882 56.9105797,53.482882 56.025925,55.480439 C59.3873061,57.0733884 57.6601961,61.5426036 60.1246462,63.7293377 C63.342549,66.5847555 68.1049531,63.8482491 72.8297613,63.3162365 C78.5742626,69.3343884 76.2962575,80.3908314 71.1908866,85.1781732 L111.767613,85.1781732 C105.736922,74.3425656 98.1632651,67.4441605 103.570171,54.6550086 C105.090119,51.0583251 108.126181,48.5063631 109.717485,45.1683504 C114.64792,34.8238314 113.907511,17.980882 106.438968,9.2825909 C93.1867946,-6.1504091 59.4801449,-2.45720657 56.8453623,21.243996 C56.1632651,27.3833757 57.7668457,31.6278947 54.796769,36.0940213 C52.6300171,39.3486415 49.396769,42.5399453 55.6162063,44.7552491 Z M93.6632651,33.1374517 C93.6632651,33.5474643 93.3333419,33.8802618 92.925925,33.8802618 L88.4098125,33.8802618 C88.0031628,33.8802618 87.6724723,33.5474643 87.6724723,33.1374517 L87.6724723,10.8763124 C87.6724723,10.4655276 88.0031628,10.1335023 88.4098125,10.1335023 L92.925925,10.1335023 C93.3333419,10.1335023 93.6632651,10.4655276 93.6632651,10.8763124 L93.6632651,33.1374517 Z M85.0491987,33.1374517 C85.0491987,33.5474643 84.7192754,33.8802618 84.3110912,33.8802618 L79.7965132,33.8802618 C79.3883291,33.8802618 79.0591731,33.5474643 79.0591731,33.1374517 L79.0591731,24.4978441 C79.0591731,24.0878314 79.3883291,23.7550339 79.7965132,23.7550339 L84.3110912,23.7550339 C84.7192754,23.7550339 85.0491987,24.0878314 85.0491987,24.4978441 L85.0491987,33.1374517 Z M67.8210657,33.1374517 C67.8210657,33.5474643 67.4911424,33.8802618 67.0837255,33.8802618 L62.5683802,33.8802618 C62.1617306,33.8802618 61.8318073,33.5474643 61.8318073,33.1374517 L61.8318073,31.5151605 C61.8318073,31.1051479 62.1617306,30.7723504 62.5683802,30.7723504 L67.0837255,30.7723504 C67.4911424,30.7723504 67.8210657,31.1051479 67.8210657,31.5151605 L67.8210657,33.1374517 Z M76.4358994,33.1374517 C76.4358994,33.5474643 76.1052089,33.8802618 75.697792,33.8802618 L71.1824467,33.8802618 C70.7750299,33.8802618 70.4451066,33.5474643 70.4451066,33.1374517 L70.4451066,19.5444896 C70.4451066,19.1337048 70.7750299,18.8024517 71.1824467,18.8024517 L75.697792,18.8024517 C76.1052089,18.8024517 76.4358994,19.1337048 76.4358994,19.5444896 L76.4358994,33.1374517 Z" id="Fill-1" fill="#FFFFFE" sketch:type="MSShapeGroup"></path>
                <g id="Group-9" transform="translate(0.000000, 103.000000)" fill="#FFFFFE" sketch:type="MSShapeGroup">
                    <g id="Group">
                        <path d="M13.3005115,6.32932911 C12.3790281,5.07612658 10.8805627,4.40358228 9.33606138,4.40358228 C6.56930946,4.40358228 4.70255754,6.53781013 4.70255754,9.25192405 C4.70255754,12.0131392 6.59309463,14.0083797 9.40511509,14.0083797 C10.8805627,14.0083797 12.3560102,13.2895063 13.3005115,12.1521266 L13.3005115,17.6042911 C11.8028133,18.0683544 10.7194373,18.4150506 9.31304348,18.4150506 C6.89232737,18.4150506 4.58746803,17.4876962 2.78900256,15.8406962 C0.876214834,14.1002658 0,11.8278228 0,9.22953165 C0,6.83894937 0.899232737,4.54256962 2.55882353,2.82607595 C4.26445013,1.06325316 6.73120205,-0.00463291139 9.17493606,-0.00463291139 C10.6273657,-0.00463291139 11.9639386,0.32121519 13.3005115,0.877164557 L13.3005115,6.32932911" id="Fill-7"></path>
                        <path d="M19.916624,8.90368354 C19.916624,11.9197089 22.1294118,14.1249747 24.8263427,14.1249747 C27.5232737,14.1249747 29.7368286,11.9197089 29.7368286,8.90368354 C29.7368286,6.49225316 27.5232737,4.28698734 24.8263427,4.28698734 C22.1294118,4.28698734 19.916624,6.49225316 19.916624,8.90368354 L19.916624,8.90368354 Z M34.4393862,8.88129114 C34.4393862,14.5411646 30.4051151,18.5316456 24.8263427,18.5316456 C19.2475703,18.5316456 15.2140665,14.5411646 15.2140665,8.88129114 C15.2140665,3.59205063 19.8237852,-0.119683544 24.8263427,-0.119683544 C29.8289003,-0.119683544 34.4393862,3.59205063 34.4393862,8.88129114 L34.4393862,8.88129114 Z" id="Fill-8"></path>
                        <path d="M36.5363171,0.45943038 L41.0539642,0.45943038 L49.3304348,11.1552785 L49.3764706,11.1552785 L49.3764706,0.45943038 L53.8941176,0.45943038 L53.8941176,17.9525316 L49.3764706,17.9525316 L41.1,7.23429114 L41.0539642,7.23429114 L41.0539642,17.9525316 L36.5363171,17.9525316 L36.5363171,0.45943038" id="Fill-10"></path>
                        <path d="M69.2693095,6.32932911 C68.3470588,5.07612658 66.8485934,4.40358228 65.3040921,4.40358228 C62.5381074,4.40358228 60.6705882,6.53781013 60.6705882,9.25192405 C60.6705882,12.0131392 62.5611253,14.0083797 65.373913,14.0083797 C66.8485934,14.0083797 68.3240409,13.2895063 69.2693095,12.1521266 L69.2693095,17.6042911 C67.770844,18.0683544 66.687468,18.4150506 65.2810742,18.4150506 C62.8611253,18.4150506 60.5554987,17.4876962 58.7578005,15.8406962 C56.8442455,14.1002658 55.9680307,11.8278228 55.9680307,9.22953165 C55.9680307,6.83894937 56.8672634,4.54256962 58.5268542,2.82607595 C60.2324808,1.06325316 62.6992327,-0.00463291139 65.1429668,-0.00463291139 C66.5953964,-0.00463291139 67.9327366,0.32121519 69.2693095,0.877164557 L69.2693095,6.32932911" id="Fill-11"></path>
                        <path d="M87.1335038,0.45943038 L87.1335038,10.2958734 C87.1335038,12.5474684 87.0414322,14.7735823 85.3127877,16.4669114 C83.8603581,17.9054304 81.5785166,18.4150506 79.5498721,18.4150506 C77.5212276,18.4150506 75.2393862,17.9054304 73.7869565,16.4669114 C72.0575448,14.7735823 71.9654731,12.5474684 71.9654731,10.2958734 L71.9654731,0.45943038 L76.4838875,0.45943038 L76.4838875,9.66965823 C76.4838875,11.9444177 76.6457801,14.4261139 79.5498721,14.4261139 C82.4547315,14.4261139 82.6158568,11.9444177 82.6158568,9.66965823 L82.6158568,0.45943038 L87.1335038,0.45943038" id="Fill-12"></path>
                        <path d="M99.5355499,4.9603038 C98.7053708,4.26459494 97.6450128,3.80053165 96.5386189,3.80053165 C95.7092072,3.80053165 94.602046,4.28698734 94.602046,5.26144304 C94.602046,6.28222785 95.8242967,6.67756962 96.6076726,6.93237975 L97.7608696,7.28062025 C100.180818,8.00026582 102.048338,9.22953165 102.048338,12.0602405 C102.048338,13.7991266 101.633248,15.5858861 100.249872,16.7688228 C98.8902813,17.9285949 97.068798,18.4150506 95.3171355,18.4150506 C93.1265985,18.4150506 90.9836317,17.6730127 89.2081841,16.4198101 L91.144757,12.7551772 C92.2741688,13.7520253 93.6107417,14.5651013 95.1560102,14.5651013 C96.215601,14.5651013 97.3457801,14.0315443 97.3457801,12.8022785 C97.3457801,11.5259114 95.5710997,11.0842405 94.602046,10.807038 C91.7670077,9.99396203 89.8994885,9.25192405 89.8994885,5.86449367 C89.8994885,2.3164557 92.4122762,-0.00463291139 95.8933504,-0.00463291139 C97.6450128,-0.00463291139 99.7895141,0.553632911 101.333248,1.43388608 L99.5355499,4.9603038" id="Fill-13"></path>
                        <path d="M113.735294,4.9603038 C112.905115,4.26459494 111.844757,3.80053165 110.738363,3.80053165 C109.908951,3.80053165 108.80179,4.28698734 108.80179,5.26144304 C108.80179,6.28222785 110.023274,6.67756962 110.807417,6.93237975 L111.959847,7.28062025 C114.380563,8.00026582 116.248082,9.22953165 116.248082,12.0602405 C116.248082,13.7991266 115.832992,15.5858861 114.449616,16.7688228 C113.090026,17.9285949 111.268542,18.4150506 109.51688,18.4150506 C107.326343,18.4150506 105.182609,17.6730127 103.407928,16.4198101 L105.344501,12.7551772 C106.473913,13.7520253 107.810486,14.5651013 109.354987,14.5651013 C110.415345,14.5651013 111.544757,14.0315443 111.544757,12.8022785 C111.544757,11.5259114 109.770077,11.0842405 108.80179,10.807038 C105.966752,9.99396203 104.099233,9.25192405 104.099233,5.86449367 C104.099233,2.3164557 106.61202,-0.00463291139 110.093095,-0.00463291139 C111.844757,-0.00463291139 113.988491,0.553632911 115.532992,1.43388608 L113.735294,4.9603038" id="Fill-14"></path>
                        <path d="M118.391049,0.45943038 L122.909463,0.45943038 L122.909463,17.9525316 L118.391049,17.9525316 L118.391049,0.45943038 Z" id="Fill-15"></path>
                        <path d="M129.685934,8.90368354 C129.685934,11.9197089 131.899488,14.1249747 134.596419,14.1249747 C137.29335,14.1249747 139.506138,11.9197089 139.506138,8.90368354 C139.506138,6.49225316 137.29335,4.28698734 134.596419,4.28698734 C131.899488,4.28698734 129.685934,6.49225316 129.685934,8.90368354 L129.685934,8.90368354 Z M144.209463,8.88129114 C144.209463,14.5411646 140.175192,18.5316456 134.596419,18.5316456 C129.017647,18.5316456 124.984143,14.5411646 124.984143,8.88129114 C124.984143,3.59205063 129.593862,-0.119683544 134.596419,-0.119683544 C139.598977,-0.119683544 144.209463,3.59205063 144.209463,8.88129114 L144.209463,8.88129114 Z" id="Fill-17"></path>
                        <path d="M146.306394,0.45943038 L150.824041,0.45943038 L159.100512,11.1552785 L159.145013,11.1552785 L159.145013,0.45943038 L163.664962,0.45943038 L163.664962,17.9525316 L159.145013,17.9525316 L150.870077,7.23429114 L150.824041,7.23429114 L150.824041,17.9525316 L146.306394,17.9525316 L146.306394,0.45943038" id="Fill-19"></path>
                    </g>
                </g>
                <g id="Group-18" transform="translate(110.158568, 103.468354)"></g>
                <g id="Group-26" transform="translate(71.015345, 125.468354)"></g>
                <g id="Group" transform="translate(18.000000, 125.000000)" fill="#FFFFFE" sketch:type="MSShapeGroup">
                    <path d="M3.43452685,0.92778481 L7.8831202,0.92778481 L11.4094629,10.277 L15.143734,0.92778481 L19.6398977,0.92778481 L22.2685422,18.4208861 L17.7501279,18.4208861 L16.4818414,8.35279747 L16.4358056,8.35279747 L12.2634271,18.4208861 L10.4657289,18.4208861 L6.47749361,8.35279747 L6.4314578,8.35279747 L4.97902813,18.4208861 L0.483631714,18.4208861 L3.43452685,0.92778481" id="Fill-20"></path>
                    <path d="M31.7641944,6.3328481 L31.7181586,6.3328481 L29.8506394,11.9008354 L33.6079284,11.9008354 L31.7641944,6.3328481 L31.7641944,6.3328481 Z M28.6053708,15.3816962 L27.4069054,18.4208861 L22.6130435,18.4208861 L29.2982097,0.92778481 L34.2309463,0.92778481 L40.7772379,18.4208861 L35.9588235,18.4208861 L34.8309463,15.3816962 L28.6053708,15.3816962 L28.6053708,15.3816962 Z" id="Fill-21"></path>
                    <path d="M42.1828645,0.92778481 L46.7005115,0.92778481 L54.9769821,11.6236329 L55.0222506,11.6236329 L55.0222506,0.92778481 L59.5421995,0.92778481 L59.5421995,18.4208861 L55.0222506,18.4208861 L46.7473146,7.70264557 L46.7005115,7.70264557 L46.7005115,18.4208861 L42.1828645,18.4208861 L42.1828645,0.92778481" id="Fill-22"></path>
                    <path d="M70.0751918,6.3328481 L70.029156,6.3328481 L68.1616368,11.9008354 L71.9196931,11.9008354 L70.0751918,6.3328481 L70.0751918,6.3328481 Z M66.9179028,15.3816962 L65.7186701,18.4208861 L60.9232737,18.4208861 L67.6084399,0.92778481 L72.5419437,0.92778481 L79.0890026,18.4208861 L74.2713555,18.4208861 L73.1411765,15.3816962 L66.9179028,15.3816962 L66.9179028,15.3816962 Z" id="Fill-23"></path>
                    <path d="M97.830179,8.65393671 C97.783376,11.2058987 97.5992327,13.3864557 96.0539642,15.5670127 C94.3491049,17.9560506 91.7895141,19 88.885422,19 C83.4217391,19 79.6184143,15.2658734 79.6184143,9.76737975 C79.6184143,4.08279747 83.4455243,0.348670886 89.0473146,0.348670886 C92.6196931,0.348670886 95.3856777,1.97173418 96.8849105,5.24256962 L92.5974425,7.05249367 C91.9736573,5.38310127 90.6608696,4.26888608 88.8386189,4.26888608 C85.8654731,4.26888608 84.3209719,7.12198734 84.3209719,9.78977215 C84.3209719,12.5046582 85.9345269,15.2658734 88.9076726,15.2658734 C90.8680307,15.2658734 92.3664962,14.2450886 92.5506394,12.2266835 L88.8624041,12.2266835 L88.8624041,8.65393671 L97.830179,8.65393671" id="Fill-25"></path>
                    <path d="M104.422506,4.78005063 L104.422506,7.70264557 L109.515601,7.70264557 L109.515601,11.5525949 L104.422506,11.5525949 L104.422506,14.5686203 L109.79335,14.5686203 L109.79335,18.4208861 L99.9040921,18.4208861 L99.9040921,0.92778481 L109.79335,0.92778481 L109.79335,4.78005063 L104.422506,4.78005063" id="Fill-27"></path>
                    <path d="M117.1,8.77053165 L117.53734,8.77053165 C119.013555,8.77053165 120.672379,8.49101266 120.672379,6.58920253 C120.672379,4.68662025 119.013555,4.40864557 117.53734,4.40864557 L117.1,4.40864557 L117.1,8.77053165 L117.1,8.77053165 Z M127.035294,18.4208861 L121.409719,18.4208861 L117.146803,11.6931266 L117.1,11.6931266 L117.1,18.4208861 L112.581586,18.4208861 L112.581586,0.92778481 L119.335806,0.92778481 C122.770844,0.92778481 125.374936,2.57478481 125.374936,6.3104557 C125.374936,8.72343038 124.038363,10.810557 121.571611,11.2514557 L127.035294,18.4208861 L127.035294,18.4208861 Z" id="Fill-28"></path>
                </g>
            </g>
        </g>
    </g>
</svg>