<?xml version="1.0" encoding="UTF-8" standalone="no"?>
<svg width="300px" height="200px" viewBox="0 0 300 200" version="1.1" xmlns="http://www.w3.org/2000/svg" xmlns:xlink="http://www.w3.org/1999/xlink" xmlns:sketch="http://www.bohemiancoding.com/sketch/ns">
    <!-- Generator: Sketch 3.0.4 (8053) - http://www.bohemiancoding.com/sketch -->
    <title>emergency</title>
    <desc>Created with Sketch.</desc>
    <defs></defs>
    <g id="Logo-page" stroke="none" stroke-width="1" fill="none" fill-rule="evenodd" sketch:type="MSPage">
        <g id="logos" sketch:type="MSArtboardGroup" transform="translate(-1285.000000, -624.000000)">
            <path d="M1406.00189,671 C1402.13485,671 1399,674.140047 1399,678.001889 L1399,735.998111 C1399,739.865148 1402.14005,743 1406.00189,743 L1463.99811,743 C1467.86515,743 1471,739.859953 1471,735.998111 L1471,678.001889 C1471,674.134852 1467.85995,671 1463.99811,671 L1406.00189,671 Z M1440.53664,733.364 L1440.53664,713.085226 L1460.14835,713.085226 L1460.14835,702.011948 L1440.53664,702.011948 L1440.53664,682 L1429.46336,682 L1429.46336,702.011948 L1409.85165,702.011948 L1409.85165,713.085226 L1429.46336,713.085226 L1429.46336,733.364 L1440.53664,733.364 Z" id="Rectangle-12" fill="#FFFFFE" sketch:type="MSShapeGroup"></path>
            <path d="M1334.264,768.9 L1342.972,768.9 L1342.972,766.66 L1334.264,766.66 L1334.264,759.968 L1343.532,759.968 L1343.532,757.728 L1331.688,757.728 L1331.688,778 L1343.896,778 L1343.896,775.76 L1334.264,775.76 L1334.264,768.9 Z M1349.916,767.248 C1350.672,766.548 1352.436,765.54 1353.892,765.54 C1355.74,765.54 1356.132,766.632 1356.132,768.564 L1356.132,778 L1358.68,778 L1358.68,768.2 C1358.68,767.836 1358.652,767.472 1358.624,767.136 C1359.464,766.436 1361.116,765.54 1362.488,765.54 C1364.336,765.54 1364.728,766.632 1364.728,768.564 L1364.728,778 L1367.276,778 L1367.276,768.2 C1367.276,764.98 1366.212,763.3 1363.188,763.3 C1361.228,763.3 1359.604,764.168 1358.204,765.288 C1357.644,763.944 1356.496,763.3 1354.592,763.3 C1352.632,763.3 1351.12,764.14 1349.692,765.232 L1349.552,763.608 L1347.368,763.608 L1347.368,778 L1349.916,778 L1349.916,767.248 Z M1377.356,778.336 C1380.24,778.336 1382.48,776.964 1383.068,774.164 L1380.828,773.66 C1380.436,775.284 1379.484,776.208 1377.44,776.208 C1375.144,776.208 1373.52,775.06 1373.408,771.392 L1383.096,771.392 C1383.18,770.72 1383.208,770.076 1383.208,769.516 C1383.208,765.96 1381.528,763.3 1377.496,763.3 C1373.8,763.3 1370.72,765.568 1370.72,770.832 C1370.72,774.78 1372.26,778.336 1377.356,778.336 Z M1373.436,769.376 C1373.576,766.52 1375.424,765.372 1377.328,765.372 C1379.596,765.372 1380.576,766.8 1380.576,769.376 L1373.436,769.376 Z M1394.548,763.328 C1394.38,763.328 1394.184,763.3 1394.016,763.3 C1392,763.3 1390.488,763.972 1389.228,765.68 L1389.032,763.608 L1386.904,763.608 L1386.904,778 L1389.452,778 L1389.452,767.528 C1390.628,766.436 1392.756,765.708 1394.548,765.96 L1394.548,763.328 Z M1401.94,763.3 C1398.216,763.3 1395.836,765.428 1395.836,768.592 C1395.836,770.44 1396.648,771.924 1397.964,772.624 C1396.956,773.408 1396.06,774.22 1396.06,775.452 C1396.06,776.488 1396.648,777.048 1397.628,777.44 L1397.628,777.468 C1396.452,778.028 1395.304,779.148 1395.304,780.772 C1395.304,782.48 1396.396,784.328 1401.772,784.328 C1405.384,784.328 1409.164,783.264 1409.164,779.736 C1409.164,776.908 1407.428,776.18 1404.46,775.984 L1400.456,775.704 C1398.916,775.592 1398.608,775.172 1398.608,774.612 C1398.608,774.024 1399.112,773.632 1399.504,773.268 C1400.232,773.52 1401.128,773.604 1402.08,773.604 C1405.384,773.604 1407.96,771.7 1407.96,768.452 C1407.96,767.276 1407.596,766.128 1406.896,765.316 C1407.624,765.092 1408.772,764.952 1409.64,765.008 L1409.64,762.964 C1409.22,762.824 1408.828,762.74 1408.38,762.74 C1407.316,762.74 1406.56,763.58 1406.112,764.616 C1405.16,763.664 1403.704,763.3 1401.94,763.3 Z M1405.496,768.48 C1405.496,770.412 1404.068,771.504 1401.968,771.504 C1399.42,771.504 1398.384,770.3 1398.384,768.424 C1398.384,766.212 1400.008,765.344 1402.024,765.344 C1404.18,765.344 1405.496,766.324 1405.496,768.48 Z M1406.532,780.044 C1406.532,781.556 1405.048,782.312 1402.08,782.312 C1398.832,782.312 1397.852,781.5 1397.852,780.296 C1397.852,779.344 1398.356,778.756 1399.448,778.028 L1404.124,778.308 C1406.084,778.448 1406.532,779.008 1406.532,780.044 Z M1417.452,778.336 C1420.336,778.336 1422.576,776.964 1423.164,774.164 L1420.924,773.66 C1420.532,775.284 1419.58,776.208 1417.536,776.208 C1415.24,776.208 1413.616,775.06 1413.504,771.392 L1423.192,771.392 C1423.276,770.72 1423.304,770.076 1423.304,769.516 C1423.304,765.96 1421.624,763.3 1417.592,763.3 C1413.896,763.3 1410.816,765.568 1410.816,770.832 C1410.816,774.78 1412.356,778.336 1417.452,778.336 Z M1413.532,769.376 C1413.672,766.52 1415.52,765.372 1417.424,765.372 C1419.692,765.372 1420.672,766.8 1420.672,769.376 L1413.532,769.376 Z M1438.984,768.228 C1438.984,764.98 1437.64,763.3 1434.56,763.3 C1432.572,763.3 1430.78,764.196 1429.38,765.316 L1429.24,763.608 L1427,763.608 L1427,778 L1429.548,778 L1429.548,767.276 C1430.304,766.604 1432.096,765.54 1433.748,765.54 C1435.708,765.54 1436.436,766.632 1436.436,768.62 L1436.436,778 L1438.984,778 L1438.984,768.228 Z M1449.008,778.336 C1451.892,778.336 1454.44,776.936 1454.916,773.604 L1452.676,773.128 C1452.312,775.256 1451.052,776.208 1449.092,776.208 C1446.796,776.208 1445.06,774.92 1445.06,770.636 C1445.06,766.548 1447.104,765.428 1449.176,765.428 C1451.192,765.428 1452.172,766.52 1452.396,768.648 L1454.832,768.312 C1454.636,764.98 1452.508,763.3 1449.288,763.3 C1444.976,763.3 1442.4,765.932 1442.4,770.944 C1442.4,775.256 1444.248,778.336 1449.008,778.336 Z M1461.664,778.168 L1460.992,779.932 C1460.348,781.64 1459.452,782.172 1458.416,782.172 C1457.66,782.172 1456.652,781.92 1456.12,781.724 L1455.812,783.712 C1456.372,783.964 1457.52,784.244 1458.584,784.244 C1460.852,784.244 1462.168,783.152 1463.316,780.1 L1469.532,763.608 L1466.928,763.608 L1462.98,775.032 L1462.952,775.032 L1459.144,763.608 L1456.316,763.608 L1461.664,778.168 Z M1484.736,778 L1484.736,759.968 L1490.812,759.968 L1490.812,757.728 L1476.028,757.728 L1476.028,759.968 L1482.16,759.968 L1482.16,778 L1484.736,778 Z M1496.636,778.336 C1499.52,778.336 1501.76,776.964 1502.348,774.164 L1500.108,773.66 C1499.716,775.284 1498.764,776.208 1496.72,776.208 C1494.424,776.208 1492.8,775.06 1492.688,771.392 L1502.376,771.392 C1502.46,770.72 1502.488,770.076 1502.488,769.516 C1502.488,765.96 1500.808,763.3 1496.776,763.3 C1493.08,763.3 1490,765.568 1490,770.832 C1490,774.78 1491.54,778.336 1496.636,778.336 Z M1492.716,769.376 C1492.856,766.52 1494.704,765.372 1496.608,765.372 C1498.876,765.372 1499.856,766.8 1499.856,769.376 L1492.716,769.376 Z M1516.376,763.608 L1513.772,763.608 L1510.132,768.844 L1506.604,763.608 L1503.804,763.608 L1508.62,770.58 L1503.776,778 L1506.38,778 L1510.02,772.344 L1513.856,778 L1516.628,778 L1511.532,770.524 L1516.376,763.608 Z M1526.932,775.536 C1526.316,775.872 1525.28,776.236 1524.412,776.236 C1522.676,776.236 1522.34,775.396 1522.34,773.884 L1522.34,765.652 L1526.316,765.652 L1526.316,763.608 L1522.34,763.608 L1522.34,759.044 L1519.792,759.436 L1519.792,763.608 L1517.58,763.608 L1517.58,765.652 L1519.792,765.652 L1519.792,774.22 C1519.792,777.104 1521.164,778.336 1523.852,778.336 C1525.196,778.336 1526.68,777.86 1527.38,777.384 L1526.932,775.536 Z M1534.632,763.3 C1531.72,763.3 1529.312,764.728 1529.312,767.64 C1529.312,771 1532.14,771.504 1534.492,771.98 C1536.452,772.372 1537.628,772.652 1537.628,774.248 C1537.628,775.788 1536.368,776.32 1534.632,776.32 C1532.084,776.32 1531.44,775.088 1531.048,773.548 L1528.78,774.164 C1529.228,777.048 1531.216,778.336 1534.52,778.336 C1538.02,778.336 1540.148,776.712 1540.148,773.968 C1540.148,770.748 1537.656,770.216 1535.024,769.656 C1533.008,769.236 1531.832,768.816 1531.832,767.332 C1531.832,766.24 1532.504,765.316 1534.604,765.316 C1536.704,765.316 1537.264,766.324 1537.6,767.976 L1539.896,767.472 C1539.448,764.924 1538.048,763.3 1534.632,763.3 L1534.632,763.3 Z" id="Emergency-Texts" fill="#FFFFFF" sketch:type="MSShapeGroup"></path>
        </g>
    </g>
</svg>