<?xml version="1.0" encoding="UTF-8" standalone="no"?>
<svg width="300px" height="200px" viewBox="0 0 300 200" version="1.1" xmlns="http://www.w3.org/2000/svg" xmlns:xlink="http://www.w3.org/1999/xlink" xmlns:sketch="http://www.bohemiancoding.com/sketch/ns">
    <!-- Generator: Sketch 3.0.3 (7891) - http://www.bohemiancoding.com/sketch -->
    <title>happygifs</title>
    <desc>Created with Sketch.</desc>
    <defs></defs>
    <g id="Logo-page" stroke="none" stroke-width="1" fill="none" fill-rule="evenodd" sketch:type="MSPage">
        <g id="Artboard-1" sketch:type="MSArtboardGroup" transform="translate(-566.000000, -504.000000)" fill="#FFFFFF">
            <g id="happygifs" sketch:type="MSLayerGroup" transform="translate(566.000000, 565.000000)">
                <g id="Page-1" sketch:type="MSShapeGroup">
                    <g id="Artboard-3">
                        <g id="happygifs">
                            <path d="M72.0905455,60.1414 C72.1167273,60.7662 72.2781818,61.1886 72.5672727,61.4053 C73.0767273,61.3998 73.6396364,61.1743 74.2538182,60.7222 C74.9989091,60.6353 75.8454545,60.3702 76.8010909,59.9258 C78.3163636,59.2075 79.1410909,58.8236 79.2741818,58.7807 C78.4669091,53.3038 77.76,49.2481 77.16,46.6092 C77.1621818,46.6422 77.0989091,46.2418 76.9701818,45.4003 C76.8676364,44.9317 76.908,44.5544 77.0923636,44.2717 C77.9312727,44.11 78.8247273,43.9945 79.7738182,43.9252 C80.7218182,43.857 81.6218182,43.8416 82.4781818,43.8823 C82.7858182,43.8933 83.1109091,43.923 83.4556364,43.9637 C83.7970909,44.0077 84.0676364,44.1727 84.2563636,44.4653 C84.5083636,46.9931 84.7265455,49.4912 84.9065455,51.9585 C85.0854545,54.4225 85.2676364,56.9239 85.452,59.4539 L85.6810909,59.7938 C88.9505455,59.7938 90.8094545,59.8301 91.2556364,59.9027 L91.8283636,59.3527 C91.6767273,57.7313 91.5872727,56.518 91.5621818,55.704 C91.5370909,52.415 91.476,49.9741 91.3865455,48.3846 C91.188,42.3918 91.2381818,35.1208 91.5381818,26.5782 C91.5152727,26.2735 91.5403636,25.7983 91.6101818,25.1471 C91.6821818,24.4959 91.7072727,24.0196 91.6843636,23.7149 C91.6472727,23.2089 91.4978182,22.7777 91.2349091,22.4235 L83.436,22.7337 L82.8578182,23.1319 C83.0083636,24.2759 83.1349091,26.2361 83.2341818,29.0125 C83.3127273,31.4853 83.4534545,33.4268 83.6596364,34.837 C83.5974545,34.9437 83.5832727,35.1736 83.6072727,35.5289 C83.6323636,35.8831 83.5134545,36.1218 83.2505455,36.2428 C82.2774545,36.4485 81.0589091,36.5541 79.5949091,36.5574 C78.3709091,36.5794 77.1469091,36.6014 75.9218182,36.6201 C75.6087273,36.5409 75.348,36.2373 75.1396364,35.7093 C74.3258182,31.0838 73.6985455,27.6144 73.2556364,25.3033 L72.8738182,24.9755 L66.1832727,25.7136 C65.9334545,26.037 65.7818182,26.2867 65.7272727,26.4594 L71.9269091,58.96 C72.0076364,59.1195 72.0632727,59.5144 72.0905455,60.1414" id="Fill-1"></path>
                            <path d="M99.1112727,59.0304 C99.2803636,58.9831 99.4287273,58.9039 99.5585455,58.7895 C99.5869091,58.718 99.6534545,58.4375 99.756,57.9436 C99.7789091,57.7709 99.8563636,56.9151 99.9850909,55.3861 C100.042909,54.7239 100.441091,54.3334 101.190545,54.2113 C101.705455,54.1728 102.406909,54.1222 103.299273,54.0562 C103.639636,53.9946 104.425091,53.9033 105.656727,53.779 L106.994182,53.6811 C107.244,53.7999 107.517818,54.2861 107.822182,55.1254 L109.068,58.7686 C109.135636,59.2504 109.341818,59.477 109.685455,59.4495 C109.821818,59.4396 109.957091,59.3956 110.089091,59.3164 L115.589455,57.4629 C115.794545,57.4453 115.922182,57.3144 115.975636,57.0724 C116.025818,56.8249 115.996364,56.6236 115.878545,56.4553 C115.574182,56.0626 114.329455,53.3874 112.145455,48.4264 C110.161091,43.8691 108.940364,41.0355 108.481091,39.9267 C106.433455,34.9591 104.237455,29.3623 101.892,23.1352 C101.754545,22.6622 101.512364,22.4202 101.167636,22.4114 C100.997455,22.4224 100.856727,22.6226 100.745455,23.0109 C100.635273,23.4003 100.584,23.6115 100.586182,23.6456 C100.635273,23.8502 99.3567273,29.5108 96.7472727,40.6252 C95.5134545,46.4233 94.2141818,52.2907 92.8538182,58.2318 C92.7436364,58.6212 92.7981818,58.8962 93.0163636,59.0524 C94.9069091,59.0249 96.9392727,59.015 99.1112727,59.0304 L99.1112727,59.0304 L99.1112727,59.0304 Z M101.598545,47.1064 L102.442909,41.3094 C102.581455,40.8276 102.785455,40.8111 103.058182,41.261 L104.994545,46.8424 C105.085091,47.1647 105.194182,47.4837 105.319636,47.8016 C105.412364,48.158 105.342545,48.3791 105.106909,48.4715 L101.708727,48.7289 C101.468727,48.7179 101.431636,48.1745 101.598545,47.1064 L101.598545,47.1064 L101.598545,47.1064 Z" id="Fill-2"></path>
                            <path d="M117.984,59.4561 C118.119273,59.4462 118.774909,59.4176 119.941091,59.367 C121.418182,59.2933 122.272364,59.1987 122.505818,59.0788 C122.934545,58.8071 123.117818,58.487 123.056727,58.1141 L124.188,45.2892 C128.04,44.2574 131.065091,42.977 133.258909,41.4502 C135.645818,39.6671 136.971273,37.0887 137.241818,33.7117 C137.270182,33.1617 137.266909,32.6315 137.229818,32.12 C137.024727,29.359 135.629455,27.1997 133.034182,25.6399 C131.089091,24.4794 128.443636,23.6434 125.1,23.1297 C122.910545,22.8778 120.739636,22.6402 118.587273,22.418 L117.997091,22.8206 C117.734182,27.2591 117.535636,33.2673 117.401455,40.8474 C117.246545,49.6265 117.103636,55.649 116.962909,58.9149 C117.054545,59.2471 117.394909,59.4275 117.984,59.4561 L117.984,59.4561 L117.984,59.4561 Z M125.174182,29.5031 C125.379273,29.348 125.610545,29.2611 125.868,29.2435 C126.087273,29.2281 126.436364,29.2831 126.924,29.4063 C127.410545,29.5306 127.780364,29.5834 128.037818,29.5658 C128.978182,29.9233 129.663273,30.4909 130.089818,31.2719 C130.632,32.1486 130.630909,33.1177 130.088727,34.1781 C128.540727,36.0129 126.742909,36.9666 124.696364,37.0392 L125.174182,29.5031 L125.174182,29.5031 Z" id="Fill-3"></path>
                            <path d="M137.317091,57.5047 C137.452364,57.4959 138.105818,57.4662 139.274182,57.4167 C140.750182,57.3441 141.605455,57.2484 141.837818,57.1285 C142.267636,56.8557 142.449818,56.5356 142.387636,56.1638 L143.518909,43.34 C147.370909,42.3082 150.397091,41.0256 152.592,39.4999 C154.975636,37.7179 156.302182,35.1384 156.571636,31.7603 C156.6,31.2103 156.596727,30.6801 156.559636,30.1686 C156.358909,27.4076 154.960364,25.2483 152.365091,23.6885 C150.42,22.5269 147.774545,21.6909 144.429818,21.1772 C142.241455,20.9253 140.069455,20.6877 137.917091,20.4655 L137.328,20.8681 C137.065091,25.3066 136.866545,31.3148 136.731273,38.8949 C136.578545,47.6762 136.433455,53.6987 136.292727,56.9613 C136.387636,57.299 136.726909,57.4794 137.317091,57.5047 L137.317091,57.5047 L137.317091,57.5047 Z M144.506182,27.5528 C144.711273,27.3977 144.944727,27.3108 145.201091,27.2932 C145.419273,27.2778 145.771636,27.3328 146.258182,27.456 C146.741455,27.5803 147.114545,27.6331 147.370909,27.6155 C148.314545,27.9719 148.997455,28.5406 149.422909,29.3205 C149.964,30.1983 149.964,31.1663 149.421818,32.2256 C147.872727,34.0604 146.076,35.0152 144.029455,35.0878 L144.506182,27.5528 L144.506182,27.5528 Z" id="Fill-4"></path>
                            <path d="M164.004,37.9005 C163.958182,41.5118 163.822909,46.5223 163.603636,52.9331 C163.562182,53.3137 163.764,53.5051 164.208,53.5062 L171.285818,53.6074 C171.490909,53.5579 171.597818,53.4138 171.615273,53.1718 C171.782182,51.7176 171.735273,48.9324 171.474545,44.8294 C171.225818,40.9299 171.224727,38.2833 171.464727,36.8907 C176.134909,26.3417 178.910182,20.3137 179.793818,18.8056 L179.465455,18.5196 C177.144,18.5526 174.528,18.7264 171.613091,19.0421 C171.185455,19.7615 169.865455,23.2265 167.648727,29.4371 C167.564727,29.6846 167.452364,29.8122 167.318182,29.8221 C167.215636,29.8298 167.104364,29.7187 166.983273,29.4855 C166.525091,28.8321 164.813455,25.6586 161.838545,19.9639 C161.466545,19.5437 160.909091,19.4128 160.171636,19.5712 C158.407636,19.734 156.326182,19.9892 153.924,20.3357 C153.689455,20.4215 153.632727,20.581 153.751636,20.812 C155.436,23.7809 158.854909,29.4767 164.004,37.9005" id="Fill-5"></path>
                            <path d="M243.152727,54.0529 L250.781455,54.5798 C251.228727,54.6293 251.502545,54.3554 251.602909,53.7559 C251.902909,45.9591 252.101455,39.435 252.201818,34.1891 C252.250909,33.539 252.354545,33.1386 252.501818,32.989 C252.650182,32.8394 252.998182,32.7646 253.548,32.7646 L263.418545,33.0638 C263.866909,33.1144 264.065455,32.8889 264.016364,32.3884 C264.016364,30.2896 264.041455,28.215 264.090545,26.1668 C264.041455,25.6663 263.840727,25.3671 263.492727,25.267 C263.390182,25.2175 263.117455,25.168 262.671273,25.1174 C258.135273,24.9172 255.440727,24.7786 254.595273,24.7049 C253.747636,24.6301 253.299273,24.0933 253.250182,23.0934 C253.198909,22.7931 253.198909,21.2938 253.250182,18.5944 C253.348364,15.7454 253.423636,14.2219 253.473818,14.0217 C253.674545,13.3727 254.095636,13.0471 254.744727,13.0471 L266.710909,13.6466 C267.410182,13.5982 267.757091,13.2473 267.757091,12.5972 L267.685091,3.0019 C267.685091,2.4519 267.460364,2.1021 267.012,1.9514 C263.521091,1.8524 255.745091,1.5279 243.680727,0.9768 C243.477818,1.0769 243.381818,1.2771 243.381818,1.5763 C242.784,18.7693 242.209091,35.8622 241.661455,52.855 C241.706182,53.5524 242.204727,53.9517 243.152727,54.0529" id="Fill-6"></path>
                            <path d="M280.781455,38.3009 C281.835273,39.3063 282.892364,40.3095 283.946182,41.3127 C285.050182,42.5183 285.700364,43.747 285.905455,45.0021 C285.554182,46.1582 285.050182,46.9843 284.397818,47.487 C283.741091,47.6399 283.092,47.7125 282.437455,47.7125 C279.725455,47.7125 276.36,45.8557 272.338909,42.1421 C271.936364,41.8902 271.435636,41.2401 270.832364,40.1863 C270.330545,39.3338 269.751273,38.8322 269.098909,38.6804 C266.535273,42.394 264.550909,45.3321 263.144727,47.4892 C262.995273,47.6905 262.92,47.916 262.92,48.1657 C262.92,48.4649 263.044364,48.8411 263.298545,49.2921 C263.697818,49.896 263.902909,50.2238 263.902909,50.2733 C266.061818,53.3335 269.378182,55.8921 273.846545,57.9524 C276.055636,58.9534 278.416364,59.4561 280.929818,59.4561 C285.651273,59.4561 289.468364,57.9524 292.382182,54.9406 C294.996,52.2291 296.301818,48.6409 296.301818,44.176 C296.301818,43.0705 296.228727,41.943 296.074909,40.788 C296.024727,40.6879 295.572,39.7837 294.721091,38.0787 C294.219273,36.9743 293.691273,36.0965 293.139273,35.4431 C292.285091,33.8371 289.897091,31.3533 285.980727,27.9906 C282.715636,25.2318 280.909091,22.5456 280.554545,19.9353 C280.957091,18.9827 281.660727,18.3051 282.665455,17.9025 C284.224364,18.0037 285.804,18.656 287.415273,19.8605 C288.368727,20.5634 289.701818,21.7921 291.409091,23.5499 L292.386545,23.5499 C292.990909,22.9482 293.616,21.9571 294.272727,20.5755 C294.925091,19.1972 295.452,18.2303 295.854545,17.677 C296.153455,16.9235 296.379273,16.3592 296.529818,15.983 C296.684727,15.6057 296.755636,15.268 296.755636,14.9655 C296.755636,14.3143 296.457818,13.5861 295.851273,12.7831 C295.349455,12.1814 294.846545,11.5786 294.344727,10.9769 C290.777455,8.3677 287.512364,6.7111 284.549455,6.0082 C281.384727,5.7563 279.325091,5.8069 278.372727,6.1589 C271.989818,8.5679 268.650545,12.4828 268.349455,17.9025 C268.051636,18.9563 267.896727,20.0112 267.896727,21.065 C267.896727,24.4288 269.329091,27.6903 272.192727,30.8517 C273.547636,32.3532 276.411273,34.837 280.781455,38.3009" id="Fill-7"></path>
                            <path d="M298.116,62.876 C294.932727,66.3861 281.162182,67.2199 273.594545,65.3059 C269.765455,64.1718 265.999636,62.6439 262.198909,61.4361 C252.766909,58.4298 243.221455,56.5532 233.612727,55.4895 C234.531273,48.6299 235.193455,41.6185 235.524,38.1535 C235.572,37.6475 235.676727,36.3264 235.821818,34.1957 C235.872,32.571 236.071636,31.3027 236.420727,30.3897 C236.619273,27.1931 237.067636,23.3101 237.766909,18.7429 C238.314545,14.9369 238.886182,11.1298 239.484,7.3238 C239.832,5.6991 239.784,4.5067 239.334545,3.7466 L229.685455,3.5937 L229.162909,4.1261 C228.015273,10.2674 227.218909,14.8874 226.771636,17.9806 C224.102182,35.8534 222.379636,48.0535 221.598545,54.5919 C221.009455,54.5688 220.419273,54.5457 219.830182,54.5248 C219.837818,54.3785 219.838909,54.2223 219.829091,54.0452 C217.634182,44.7601 215.988,37.8059 214.893818,33.187 C214.893818,33.1375 214.821818,32.7305 214.670182,31.9693 C214.568727,31.4633 214.598182,31.0563 214.744364,30.7516 C215.240727,30.5492 215.740364,30.3457 216.238909,30.1422 C216.737455,29.9398 217.137818,29.6604 217.437818,29.3051 C216.988364,26.4121 216.289091,23.4949 215.342182,20.5513 C215.191636,20.4501 215.017091,20.3973 214.819636,20.3973 C214.668,20.3973 214.445455,20.4622 214.147636,20.5876 C213.848727,20.7152 213.625091,20.7779 213.473455,20.7779 C213.374182,20.7779 213.250909,20.7537 213.100364,20.702 C211.952727,21.2619 209.583273,22.1232 205.994182,23.2903 C202.951636,24.255 200.633455,25.245 199.037455,26.2603 C198.987273,27.1733 199.110545,28.1512 199.411636,29.1907 C199.708364,30.2324 200.010545,31.2356 200.310545,32.1981 C200.359636,32.351 200.481818,32.8581 200.684727,33.7205 C200.782909,34.3816 200.980364,34.8623 201.282545,35.167 C201.732,35.2682 202.278545,35.2176 202.928727,35.0141 C203.775273,34.7611 204.298909,34.6335 204.498545,34.6335 C204.844364,34.7864 205.047273,35.1153 205.097455,35.6235 C205.196727,36.4364 205.248,36.8676 205.248,36.9182 C205.497818,37.3747 205.724727,38.1733 205.92,39.3162 C206.119636,40.4558 206.368364,41.283 206.669455,41.7912 C206.618182,41.9969 206.645455,42.3225 206.742545,42.7779 C206.842909,43.2355 206.894182,43.538 206.894182,43.6931 C206.894182,44.1507 206.670545,44.4532 206.223273,44.6061 C203.428364,44.6556 200.862545,43.9076 198.518182,42.361 C196.177091,40.8122 194.529818,38.7948 193.586182,36.3066 C192.485455,33.5159 191.937818,30.5481 191.937818,27.3999 C191.937818,21.3103 193.733455,16.4131 197.324727,12.7072 C198.571636,11.4906 200.118545,10.8812 201.963273,10.8812 C202.809818,10.8812 203.632364,11.0077 204.430909,11.2618 C206.028,12.2254 207.174545,13.0383 207.872727,13.6972 C208.269818,12.7831 208.569818,12.1253 208.769455,11.7183 C210.015273,8.7241 210.936,6.4658 211.536,4.9423 C211.037455,3.7752 210.486545,2.9898 209.887636,2.5817 C207.538909,0.8635 204.994909,0 202.253455,0 C200.656364,0 199.209818,0.3322 197.914909,0.99 C193.125818,3.5288 189.462545,7.2589 186.919636,12.1803 C184.575273,16.698 183.403636,21.8251 183.403636,27.5572 C183.403636,35.222 185.322545,41.5657 189.160364,46.5916 C191.606182,49.7761 195.220364,52.4656 199.990909,54.6634 C182.331273,55.4532 164.695636,57.8105 147.149455,60.1634 C133.267636,62.0653 119.437091,63.9386 105.485455,64.5546 C91.644,65.1948 77.7556364,65.0452 63.8661818,64.6943 C62.4829091,64.6602 62.4829091,65.7899 63.8661818,65.8306 C76.3658182,66.1837 88.8741818,66.4389 101.34,66.1287 C113.453455,65.8306 125.437091,64.7163 137.466545,63.2742 C160.336364,60.5924 183.450545,56.9536 206.574545,56.6533 C208.676727,56.8788 210.961091,56.8788 213.418909,56.6676 C215.866909,56.7083 218.314909,56.7897 220.759636,56.9228 C234.24,57.6829 247.676727,59.7201 260.864727,64.086 C265.471636,65.5996 270.057818,67.6962 274.734545,68.8061 C278.502545,69.696 295.949455,69.2604 299.198182,65.6832 C300.290182,64.4776 299.222182,61.6495 298.116,62.876" id="Fill-8"></path>
                            <path d="M56.3018182,37.928 C50.9170909,22.7238 34.3276364,14.7994 19.2490909,20.229 C4.17054545,25.6597 -3.68836364,42.3852 1.69636364,57.5894 C7.08109091,72.7947 23.6694545,80.7191 38.7490909,75.2895 C53.8276364,69.8599 61.6854545,53.1333 56.3018182,37.928 L56.3018182,37.928 L56.3018182,37.928 Z M29.0247273,34.8282 C29.5909091,32.1574 31.4552727,29.9035 34.2621818,29.3469 C36.9458182,28.8156 38.4185455,30.3391 39.516,32.5237 C40.14,33.7612 38.0749091,34.4696 37.4574545,33.2431 C36.7669091,31.8714 36.0610909,31.0783 34.3952727,31.5062 C32.6072727,31.966 31.5294545,33.5291 31.1738182,35.2242 C30.888,36.5761 28.7389091,36.1856 29.0247273,34.8282 L29.0247273,34.8282 L29.0247273,34.8282 Z M11.8112727,39.9542 C12.9250909,38.247 13.6123636,36.696 15.6850909,36.2351 C18.0261818,35.7137 19.9396364,36.4078 21.8203636,37.9247 C22.9407273,38.8311 21.5367273,40.6065 20.424,39.7078 C19.0669091,38.6111 17.8603636,38.2096 16.1738182,38.4868 C14.7272727,38.7244 14.2189091,40.3139 13.4716364,41.4546 C12.6676364,42.6877 11.0149091,41.1752 11.8112727,39.9542 L11.8112727,39.9542 L11.8112727,39.9542 Z M36.5236364,71.137 C25.3134545,75.2466 9.17672727,65.7701 6.192,57.1923 C3.20945455,48.6123 17.8669091,53.0211 29.0781818,48.9126 C40.2894545,44.8041 47.4632727,32.3906 50.448,40.9695 C53.4294545,49.5473 47.7349091,67.0274 36.5236364,71.137 L36.5236364,71.137 L36.5236364,71.137 Z" id="Fill-9"></path>
                        </g>
                    </g>
                </g>
            </g>
        </g>
    </g>
</svg>