<?xml version="1.0" encoding="UTF-8" standalone="no"?>
<svg width="300px" height="200px" viewBox="0 0 300 200" version="1.1" xmlns="http://www.w3.org/2000/svg" xmlns:xlink="http://www.w3.org/1999/xlink" xmlns:sketch="http://www.bohemiancoding.com/sketch/ns">
    <!-- Generator: Sketch 3.0.3 (7891) - http://www.bohemiancoding.com/sketch -->
    <title>invisibleinterface</title>
    <desc>Created with Sketch.</desc>
    <defs></defs>
    <g id="Logo-page" stroke="none" stroke-width="1" fill="none" fill-rule="evenodd" sketch:type="MSPage">
        <g id="Artboard-1" sketch:type="MSArtboardGroup" transform="translate(-570.000000, -267.000000)" fill="#FFFFFF">
            <g id="invisibleinterface" sketch:type="MSLayerGroup" transform="translate(572.000000, 333.000000)">
                <g id="Group" sketch:type="MSShapeGroup">
                    <path d="M87.469,8.179 L93.092,8.179 L93.092,28.365 L87.469,28.365 L87.469,8.179 L87.469,8.179 Z" id="Shape"></path>
                    <path d="M102.551,8.179 L107.77,8.179 L116.074,18.847 L116.074,8.179 L121.611,8.179 L121.611,28.365 L116.711,28.365 L108.088,17.292 L108.088,28.365 L102.551,28.365 L102.551,8.179 L102.551,8.179 Z" id="Shape"></path>
                    <path d="M129.341,8.179 L135.598,8.179 L140.182,20.951 L144.768,8.179 L150.91,8.179 L142.721,28.506 L137.53,28.506 L129.341,8.179 L129.341,8.179 Z" id="Shape"></path>
                    <path d="M158.756,8.179 L164.378,8.179 L164.378,28.365 L158.756,28.365 L158.756,8.179 L158.756,8.179 Z" id="Shape"></path>
                    <path d="M172.309,25.363 L175.424,21.644 C177.412,23.228 179.633,24.066 181.971,24.066 C183.468,24.066 184.276,23.545 184.276,22.68 L184.276,22.622 C184.276,21.787 183.615,21.325 180.875,20.689 C176.58,19.71 173.265,18.5 173.265,14.346 L173.265,14.285 C173.265,10.536 176.236,7.827 181.077,7.827 C184.509,7.827 187.188,8.749 189.382,10.509 L186.586,14.459 C184.737,13.161 182.721,12.47 180.937,12.47 C179.581,12.47 178.916,13.047 178.916,13.769 L178.916,13.827 C178.916,14.75 179.607,15.155 182.404,15.788 C187.047,16.797 189.931,18.297 189.931,22.075 L189.931,22.134 C189.931,26.256 186.669,28.707 181.771,28.707 C178.189,28.708 174.787,27.584 172.309,25.363 L172.309,25.363 Z" id="Shape"></path>
                    <path d="M198.521,8.179 L204.144,8.179 L204.144,28.365 L198.521,28.365 L198.521,8.179 L198.521,8.179 Z" id="Shape"></path>
                    <path d="M213.604,8.179 L223.958,8.179 C226.494,8.179 228.281,8.811 229.466,9.994 C230.275,10.801 230.763,11.869 230.763,13.251 L230.763,13.31 C230.763,15.645 229.439,17.031 227.65,17.808 C230.101,18.618 231.658,19.998 231.658,22.74 L231.658,22.799 C231.658,26.257 228.835,28.363 224.017,28.363 L213.607,28.363 L213.607,8.179 L213.604,8.179 L213.604,8.179 Z M222.57,16.224 C224.271,16.224 225.222,15.646 225.222,14.463 L225.222,14.405 C225.222,13.308 224.357,12.674 222.685,12.674 L219.05,12.674 L219.05,16.224 L222.57,16.224 L222.57,16.224 Z M223.378,23.865 C225.08,23.865 226.059,23.202 226.059,22.02 L226.059,21.961 C226.059,20.866 225.194,20.145 223.324,20.145 L219.053,20.145 L219.053,23.866 L223.378,23.865 L223.378,23.865 Z" id="Shape"></path>
                    <path d="M239.988,8.179 L245.584,8.179 L245.584,23.46 L255.359,23.46 L255.359,28.361 L239.99,28.361 L239.988,8.179 L239.988,8.179 Z" id="Shape"></path>
                    <path d="M263.52,8.179 L279.755,8.179 L279.755,12.936 L269.057,12.936 L269.057,15.993 L278.745,15.993 L278.745,20.404 L269.057,20.404 L269.057,23.606 L279.9,23.606 L279.9,28.363 L263.52,28.363 L263.52,8.179 L263.52,8.179 Z" id="Shape"></path>
                    <path d="M87.469,39.57 L93.094,39.57 L93.094,59.755 L87.469,59.755 L87.469,39.57 L87.469,39.57 Z" id="Shape"></path>
                    <path d="M102.553,39.57 L107.771,39.57 L116.075,50.24 L116.075,39.57 L121.613,39.57 L121.613,59.755 L116.712,59.755 L108.09,48.684 L108.09,59.755 L102.554,59.755 L102.553,39.57 L102.553,39.57 Z" id="Shape"></path>
                    <path d="M135.888,44.469 L129.833,44.469 L129.833,39.57 L147.538,39.57 L147.538,44.468 L141.483,44.468 L141.483,59.752 L135.889,59.752 L135.888,44.469 L135.888,44.469 Z" id="Shape"></path>
                    <path d="M155.757,39.57 L171.991,39.57 L171.991,44.328 L161.293,44.328 L161.293,47.384 L170.981,47.384 L170.981,51.796 L161.293,51.796 L161.293,54.997 L172.135,54.997 L172.135,59.755 L155.757,59.755 L155.757,39.57 L155.757,39.57 Z" id="Shape"></path>
                    <path d="M180.759,39.57 L190.303,39.57 C193.389,39.57 195.522,40.378 196.878,41.758 C198.061,42.912 198.666,44.468 198.666,46.459 L198.666,46.518 C198.666,49.603 197.021,51.651 194.514,52.717 L199.328,59.752 L192.868,59.752 L188.802,53.639 L188.745,53.639 L186.349,53.639 L186.349,59.752 L180.754,59.752 L180.754,39.57 L180.759,39.57 L180.759,39.57 Z M190.044,49.257 C191.945,49.257 193.043,48.334 193.043,46.862 L193.043,46.804 C193.043,45.216 191.891,44.41 190.016,44.41 L186.354,44.41 L186.354,49.254 L190.044,49.257 L190.044,49.257 Z" id="Shape"></path>
                    <path d="M207.262,39.57 L223.408,39.57 L223.408,44.468 L212.853,44.468 L212.853,47.902 L222.398,47.902 L222.398,52.546 L212.853,52.546 L212.853,59.755 L207.257,59.755 L207.262,39.57 L207.262,39.57 Z" id="Shape"></path>
                    <path d="M236.387,39.426 L241.781,39.426 L250.373,59.754 L244.377,59.754 L242.906,56.15 L235.12,56.15 L233.679,59.754 L227.796,59.754 L236.387,39.426 L236.387,39.426 Z M241.288,51.795 L239.039,46.058 L236.759,51.795 L241.288,51.795 L241.288,51.795 Z" id="Shape"></path>
                    <path d="M256.109,49.719 L256.109,49.661 C256.109,43.777 260.634,39.166 266.752,39.166 C270.875,39.166 273.529,40.895 275.314,43.376 L271.107,46.634 C269.954,45.193 268.626,44.271 266.693,44.271 C263.869,44.271 261.879,46.666 261.879,49.605 L261.879,49.664 C261.879,52.69 263.87,55.059 266.693,55.059 C268.797,55.059 270.039,54.078 271.251,52.607 L275.461,55.605 C273.559,58.23 270.991,60.165 266.522,60.165 C260.755,60.159 256.109,55.745 256.109,49.719 L256.109,49.719 Z" id="Shape"></path>
                    <path d="M283.62,39.57 L299.853,39.57 L299.853,44.328 L289.157,44.328 L289.157,47.384 L298.845,47.384 L298.845,51.796 L289.157,51.796 L289.157,54.997 L300,54.997 L300,59.755 L283.62,59.755 L283.62,39.57 L283.62,39.57 Z" id="Shape"></path>
                    <path d="M34.721,0 C15.545,0 0,15.545 0,34.719 C0,53.898 15.545,69.442 34.721,69.442 C53.898,69.442 69.442,53.898 69.442,34.719 C69.442,15.545 53.898,0 34.721,0 L34.721,0 Z M14.236,54.115 L27.582,17.146 L37.174,15.619 L23.494,54.115 L14.236,54.115 L14.236,54.115 Z M38.219,54.115 L28.961,54.115 L43.517,13.659 L53.109,12.131 L38.219,54.115 L38.219,54.115 Z" id="Shape"></path>
                </g>
            </g>
        </g>
    </g>
</svg>