<?xml version="1.0" encoding="UTF-8" standalone="no"?>
<svg width="65px" height="65px" viewBox="0 0 65 65" version="1.1" xmlns="http://www.w3.org/2000/svg" xmlns:xlink="http://www.w3.org/1999/xlink" xmlns:sketch="http://www.bohemiancoding.com/sketch/ns">
    <!-- Generator: Sketch 3.0.3 (7891) - http://www.bohemiancoding.com/sketch -->
    <title>jm-logo</title>
    <desc>Created with Sketch.</desc>
    <defs></defs>
    <g id="Page-1" stroke="none" stroke-width="1" fill="none" fill-rule="evenodd" sketch:type="MSPage">
        <path d="M62.515792,27.6728473 L37.2850664,2.44268805 C34.6310487,-0.211896018 30.3271903,-0.211896018 27.6731726,2.44268805 L2.44301327,27.6728473 C-0.211004425,30.3262987 -0.211004425,34.6307235 2.44301327,37.2841748 L27.6737389,62.5149004 C30.3277566,65.1694845 34.6310487,65.1694845 37.2850664,62.5149004 L62.515792,37.2841748 C65.1698097,34.6307235 65.1698097,30.326865 62.515792,27.6728473 L62.515792,27.6728473 Z M30.4772788,16.4739801 C31.9872257,16.4739801 33.1278982,17.983927 33.1278982,18.8567058 C33.1278982,19.7289181 31.9203938,21.7423695 31.0141991,21.7423695 C29.8729602,21.7423695 27.792677,20.6351128 27.792677,19.5946881 C27.792677,18.4205996 29.1683938,16.4739801 30.4772788,16.4739801 L30.4772788,16.4739801 Z M32.8594381,40.9378385 C31.3494912,41.0715022 32.6249602,41.6424049 30.7117566,41.6424049 C30.4432965,41.6424049 30.1080044,41.6424049 29.7053142,41.6084226 C27.0881106,41.4407765 25.0740929,40.803042 22.121031,40.4671836 C20.1415619,44.4946527 17.7588363,45.6019093 15.6445708,45.6019093 C13.2958274,45.6019093 11.2489602,44.2596084 11.2489602,42.3469712 C11.2489602,39.5949712 14.4030841,38.6219447 19.3021991,38.5885288 C21.8525708,33.3869712 25.0740929,26.5078208 26.0811018,23.1854845 C26.3829779,22.4469358 27.0207124,22.4469358 27.5910487,22.4469358 L27.6584469,22.4469358 C28.6648894,22.4469358 30.1754027,23.5547588 30.1754027,24.6954314 C30.1754027,24.9978739 30.0745885,25.29975 29.9403584,25.5013783 C29.5376681,25.9709004 26.3495619,32.0446704 25.4433673,33.8230774 L23.0272257,38.6219447 C25.3091372,38.6893429 26.9538805,38.8904049 31.4837212,39.527573 C31.7187655,39.5615553 34.4707655,39.8634314 34.4707655,40.0316438 C34.4707655,40.1653075 33.799615,40.4003518 32.8594381,40.9378385 L32.8594381,40.9378385 Z M49.001031,32.2123164 C46.9541637,35.5340863 45.0415265,36.8769535 43.6992257,36.8769535 C42.4237566,36.8769535 41.6183761,35.6688827 41.6183761,33.8570597 C41.6183761,32.8500509 41.8534204,31.6419801 42.4237566,30.3330951 L42.3903407,30.2996792 C42.1892788,30.2996792 40.7127478,31.7093783 38.7995442,36.4408473 C38.6653142,36.8095553 38.2626239,36.9772013 37.7931018,36.9772013 C36.8200752,36.9772013 35.5446062,36.3066173 35.5446062,35.4004226 C35.5446062,33.2527412 37.6922876,29.8969889 37.6922876,29.8969889 C37.6248894,29.8295907 37.5246416,29.7967412 37.4238274,29.7967412 C35.9807124,29.7967412 32.188854,35.903927 31.6519336,37.4472898 C31.4842876,37.9173783 31.2158274,38.1184403 30.8465531,38.1184403 C30.0745885,38.1184403 28.4638274,36.8435376 28.4638274,35.3330243 C28.4638274,32.9168827 33.3635088,21.1720332 35.9807124,21.1720332 C36.8200752,21.1720332 38.2960398,22.1450597 38.2960398,23.1854845 C38.2960398,23.5547588 38.1283938,23.9574491 37.6248894,24.3601394 C36.752677,25.0986881 33.4977389,29.2932367 33.4977389,29.863573 C33.4977389,29.9304049 33.5311549,29.9643872 33.5645708,29.9643872 C34.2697035,29.9643872 38.2626239,25.0986881 40.007615,23.7892367 C40.2092434,23.655573 40.3768894,23.5881748 40.5445354,23.5881748 C41.4173142,23.5881748 42.1552965,24.9978739 42.1552965,26.0711482 C42.1552965,26.3735907 42.1218805,26.6414845 41.9876504,26.8431128 C41.4173142,27.8835376 41.1822699,28.2188296 41.1822699,28.3864757 C41.1822699,28.4544403 41.2156858,28.4872898 41.2830841,28.4872898 C41.3838982,28.4872898 41.5515442,28.4544403 41.7865885,28.3536261 C43.5984115,26.1051305 45.8469071,23.3197146 46.7191195,22.9838562 C47.9611726,23.0846704 49.3703053,23.990865 49.3703053,25.1989358 C49.3703053,25.5682102 49.2694912,25.9369181 48.967615,26.3396084 C47.9271903,27.7158916 45.4102345,30.5681394 44.9741283,31.8096261 C44.7056681,32.5481748 44.6054204,33.0176969 44.6054204,33.3535553 C44.6054204,33.7562456 44.7730664,33.9238916 44.9741283,33.9238916 C45.2091726,33.9238916 45.5110487,33.7222633 45.7795088,33.4543695 C46.1153673,33.151927 46.8199336,32.4807765 48.1622345,30.9368473 C49.1352611,29.8295907 52.4241814,25.7692721 53.0279336,24.9304757 C53.1287478,24.7962456 53.196146,24.7288473 53.2963938,24.7288473 C53.5988363,24.7288473 53.7998982,25.3665819 53.7998982,25.3665819 C52.8937035,26.8096969 50.9136681,29.6285288 49.001031,32.2123164 L49.001031,32.2123164 Z M14.1680398,42.111927 C14.1680398,42.9173075 14.7723584,43.588458 15.544323,43.588458 C16.1814912,43.588458 16.9534558,43.1183695 17.6246062,41.8434668 L18.4634027,40.2661217 L18.2623407,40.2661217 C15.8122168,40.2661217 14.1680398,40.7696261 14.1680398,42.111927" id="Fill-2" fill="#FFFFFF" sketch:type="MSShapeGroup"></path>
    </g>
</svg>