<?xml version="1.0" encoding="utf-8"?>
<!-- Generator: Adobe Illustrator 16.0.4, SVG Export Plug-In . SVG Version: 6.00 Build 0)  -->
<!DOCTYPE svg PUBLIC "-//W3C//DTD SVG 1.1//EN" "http://www.w3.org/Graphics/SVG/1.1/DTD/svg11.dtd">
<svg version="1.1" id="Layer_1" xmlns="http://www.w3.org/2000/svg" xmlns:xlink="http://www.w3.org/1999/xlink" x="0px" y="0px"
	 width="72px" height="72px" viewBox="0 0 72 72" enable-background="new 0 0 72 72" xml:space="preserve">
<g>
	<path fill="#FFFFFF" d="M15.417,46.829c0,0.904,0.679,1.659,1.546,1.659c0.717,0,1.584-0.528,2.339-1.962l0.943-1.773H20.02
		C17.266,44.753,15.417,45.319,15.417,46.829z"/>
	<path fill="#FFFFFF" d="M69.763,30.598L41.401,2.238c-2.982-2.983-7.82-2.983-10.803,0l-28.36,28.36
		c-2.983,2.983-2.983,7.821,0,10.804l28.36,28.36c2.983,2.983,7.821,2.983,10.804,0l28.36-28.36
		C72.746,38.419,72.746,33.581,69.763,30.598z M33.75,18.01c1.697,0,2.98,1.697,2.98,2.678c0,0.98-1.358,3.244-2.376,3.244
		c-1.283,0-3.622-1.245-3.622-2.414C30.732,20.198,32.278,18.01,33.75,18.01z M36.427,45.508c-1.697,0.15-0.264,0.792-2.414,0.792
		c-0.302,0-0.679,0-1.131-0.037c-2.942-0.188-5.206-0.905-8.525-1.283c-2.226,4.527-4.904,5.772-7.28,5.772
		c-2.64,0-4.941-1.51-4.941-3.66c0-3.092,3.546-4.187,9.053-4.224c2.867-5.847,6.488-13.579,7.62-17.314
		c0.34-0.83,1.057-0.83,1.697-0.83h0.075c1.132,0,2.83,1.245,2.83,2.527c0,0.341-0.113,0.68-0.264,0.906
		c-0.453,0.527-4.036,7.355-5.055,9.354l-2.715,5.394c2.565,0.076,4.413,0.303,9.505,1.019c0.264,0.037,3.357,0.377,3.357,0.566
		C38.238,44.641,37.483,44.905,36.427,45.508z M54.572,35.701c-2.302,3.734-4.452,5.242-5.961,5.242
		c-1.433,0-2.338-1.357-2.338-3.395c0-1.131,0.264-2.489,0.905-3.96l-0.038-0.038c-0.227,0-1.886,1.584-4.036,6.902
		c-0.151,0.416-0.604,0.604-1.132,0.604c-1.093,0-2.527-0.754-2.527-1.771c0-2.415,2.415-6.187,2.415-6.187
		c-0.076-0.076-0.188-0.113-0.302-0.113c-1.623,0-5.885,6.865-6.488,8.599c-0.188,0.528-0.491,0.755-0.905,0.755
		c-0.867,0-2.678-1.434-2.678-3.131c0-2.716,5.507-15.918,8.449-15.918c0.944,0,2.604,1.094,2.604,2.263
		c0,0.415-0.188,0.868-0.755,1.32c-0.98,0.831-4.64,5.546-4.64,6.186c0,0.076,0.038,0.113,0.075,0.113
		c0.792,0,5.281-5.469,7.242-6.941c0.228-0.15,0.415-0.226,0.604-0.226c0.98,0,1.81,1.585,1.81,2.792
		c0,0.339-0.037,0.642-0.188,0.868c-0.642,1.169-0.905,1.547-0.905,1.735c0,0.076,0.037,0.113,0.113,0.113
		c0.112,0,0.301-0.037,0.565-0.15c2.036-2.526,4.563-5.657,5.545-6.036c1.396,0.113,2.979,1.132,2.979,2.491
		c0,0.414-0.113,0.83-0.453,1.282c-1.169,1.547-3.997,4.752-4.488,6.148c-0.301,0.83-0.414,1.358-0.414,1.735
		c0,0.452,0.188,0.642,0.414,0.642c0.265,0,0.604-0.227,0.905-0.528c0.378-0.34,1.17-1.095,2.678-2.829
		c1.095-1.245,4.791-5.809,5.47-6.752c0.113-0.15,0.189-0.226,0.303-0.226c0.339,0,0.565,0.716,0.565,0.716
		C58.947,29.628,56.722,32.796,54.572,35.701z"/>
</g>
</svg>
