<?xml version="1.0" encoding="UTF-8" standalone="no"?>
<svg width="1900px" height="1200px" viewBox="0 0 1900 1200" version="1.1" xmlns="http://www.w3.org/2000/svg" xmlns:xlink="http://www.w3.org/1999/xlink" xmlns:sketch="http://www.bohemiancoding.com/sketch/ns">
    <!-- Generator: Sketch 3.0.2 (7799) - http://www.bohemiancoding.com/sketch -->
    <title>lowpoly_light_min</title>
    <description>Created with Sketch.</description>
    <defs></defs>
    <g id="Lowpoly-Light-Min" stroke="none" stroke-width="1" fill="none" fill-rule="evenodd" sketch:type="MSPage">
        <g id="lowpoly_light_min" sketch:type="MSArtboardGroup" fill="#999999">
            <path d="M22.240578,1301.26235 L59.0066458,1209.37111 L20.5693931,1098.26625 L22.240578,1301.26235 Z" id="Shape" opacity="0.27" sketch:type="MSShapeGroup"></path>
            <path d="M20.5619427,1098.25107 L58.9991954,1209.35594 L104.121188,1152.55044 L20.5619427,1098.25107 Z" id="Shape" opacity="0.39" sketch:type="MSShapeGroup"></path>
            <path d="M20.5619427,1098.23451 L104.121188,1152.53388 L89.0805236,1054.79502 L20.5619427,1098.23451 Z" id="Shape" opacity="0.21" sketch:type="MSShapeGroup"></path>
            <path d="M20.5695311,1098.21685 L89.0881119,1054.77736 L-10.3473896,1002.14874 L20.5695311,1098.21685 Z" id="Shape" opacity="0.05" sketch:type="MSShapeGroup"></path>
            <path d="M-10.3473896,1002.12831 L89.0881119,1054.75693 L18.0627537,921.932322 L-10.3473896,1002.12831 Z" id="Shape" opacity="0.15" sketch:type="MSShapeGroup"></path>
            <path d="M-10.3341445,1002.09948 L18.0759988,921.903484 L-19.5256614,799.938745 L-10.3341445,1002.09948 Z" id="Shape" opacity="0.15" sketch:type="MSShapeGroup"></path>
            <path d="M18.0500605,921.929976 L89.0754187,1054.75459 L137.539781,907.728602 L18.0500605,921.929976 Z" id="Shape" opacity="0.27" sketch:type="MSShapeGroup"></path>
            <path d="M18.0474391,921.890928 L137.537159,907.689554 L153.413416,804.103063 L18.0474391,921.890928 Z" id="Shape" opacity="0.07" sketch:type="MSShapeGroup"></path>
            <path d="M18.0536477,921.890238 L153.419625,804.102374 L-19.5480125,799.925499 L18.0536477,921.890238 Z" id="Shape" opacity="0.09" sketch:type="MSShapeGroup"></path>
            <path d="M-19.5480125,799.885485 L153.419625,804.062359 L75.7095267,675.414621 L-19.5480125,799.885485 Z" id="Shape" opacity="0.15" sketch:type="MSShapeGroup"></path>
            <path d="M-19.5351813,799.876378 L75.7223579,675.405515 L-0.316554991,624.447644 L-19.5351813,799.876378 Z" id="Shape" opacity="0.17" sketch:type="MSShapeGroup"></path>
            <path d="M-0.319728297,624.411769 L75.7191846,675.36964 L74.0479997,531.685153 L-0.319728297,624.411769 Z" id="Shape" opacity="0.17" sketch:type="MSShapeGroup"></path>
            <path d="M-0.319452357,624.39328 L74.0482757,531.666664 L24.7483211,470.684294 L-0.319452357,624.39328 Z" id="Shape" opacity="0.31" sketch:type="MSShapeGroup"></path>
            <path d="M24.744182,470.655043 L74.0441366,531.637412 L61.5102498,386.282175 L24.744182,470.655043 Z" id="Shape" opacity="0.29" sketch:type="MSShapeGroup"></path>
            <path d="M24.7599106,470.642762 L61.5259784,386.269895 L-57.9637419,372.903896 L24.7599106,470.642762 Z" id="Shape" opacity="0.07" sketch:type="MSShapeGroup"></path>
            <path d="M-57.9637419,372.87561 L61.5259784,386.241609 L-7.82819494,285.996618 L-57.9637419,372.87561 Z" id="Shape" opacity="0.05" sketch:type="MSShapeGroup"></path>
            <path d="M-7.84309568,285.996618 L61.5110776,386.241609 L101.619515,291.844243 L-7.84309568,285.996618 Z" id="Shape" opacity="0.13" sketch:type="MSShapeGroup"></path>
            <path d="M-7.84309568,285.955362 L101.619515,291.802987 L-47.5136737,129.249993 L-7.84309568,285.955362 Z" id="Shape" opacity="0.25" sketch:type="MSShapeGroup"></path>
            <path d="M-40.0625,137.91016 L101.616066,291.798847 L77.3838849,105.510239 L-40.0625,137.91016 Z" id="Shape" opacity="0.27" sketch:type="MSShapeGroup"></path>
            <path d="M-42.5781234,138.78125 L77.3902315,105.460567 L-1.15545872,-34.0470456 L-42.5781234,138.78125 Z" id="Shape" opacity="0.13" sketch:type="MSShapeGroup"></path>
            <path d="M-1.16318503,-34.051185 L77.3825052,105.456427 L124.175682,45.3094328 L-1.16318503,-34.051185 Z" id="Shape" opacity="0.09" sketch:type="MSShapeGroup"></path>
            <path d="M-1.16318503,-34.0826443 L124.175682,45.2779735 L102.450279,-164.401132 L-1.16318503,-34.0826443 Z" id="Shape" opacity="0.09" sketch:type="MSShapeGroup"></path>
            <path d="M58.9772582,1209.37429 L198.521197,1266.17978 L104.09925,1152.56879 L58.9772582,1209.37429 Z" id="Shape" opacity="0.15" sketch:type="MSShapeGroup"></path>
            <path d="M104.086971,1152.56438 L198.508918,1266.17537 L227.754654,1125.83238 L104.086971,1152.56438 Z" id="Shape" opacity="0.29" sketch:type="MSShapeGroup"></path>
            <path d="M104.089455,1152.53388 L227.757137,1125.80189 L89.0487905,1054.79502 L104.089455,1152.53388 Z" id="Shape" opacity="0.31" sketch:type="MSShapeGroup"></path>
            <path d="M89.0425819,1054.78384 L227.750929,1125.79071 L265.352589,1013.85047 L89.0425819,1054.78384 Z" id="Shape" opacity="0.19" sketch:type="MSShapeGroup"></path>
            <path d="M89.0425819,1054.75459 L265.352589,1013.82122 L137.506944,907.728602 L89.0425819,1054.75459 Z" id="Shape" opacity="0.13" sketch:type="MSShapeGroup"></path>
            <path d="M137.498942,907.712459 L265.344587,1013.80507 L246.961553,850.906964 L137.498942,907.712459 Z" id="Shape" opacity="0.37" sketch:type="MSShapeGroup"></path>
            <path d="M137.501977,907.687208 L246.964588,850.881714 L153.378234,804.100718 L137.501977,907.687208 Z" id="Shape" opacity="0.39" sketch:type="MSShapeGroup"></path>
            <path d="M153.375612,804.088438 L246.961967,850.869433 L220.223008,786.545564 L153.375612,804.088438 Z" id="Shape" opacity="0.09" sketch:type="MSShapeGroup"></path>
            <path d="M153.392858,804.062359 L220.240254,786.519486 L75.6827606,675.414621 L153.392858,804.062359 Z" id="Shape" opacity="0.39" sketch:type="MSShapeGroup"></path>
            <path d="M75.6827606,675.401927 L220.240254,786.506792 L205.19959,616.090307 L75.6827606,675.401927 Z" id="Shape" opacity="0.17" sketch:type="MSShapeGroup"></path>
            <path d="M75.68552,675.36964 L205.20235,616.05802 L74.0143351,531.685153 L75.68552,675.36964 Z" id="Shape" opacity="0.11" sketch:type="MSShapeGroup"></path>
            <path d="M74.0124035,531.671907 L205.200418,616.044774 L216.898712,510.787534 L74.0124035,531.671907 Z" id="Shape" opacity="0.05" sketch:type="MSShapeGroup"></path>
            <path d="M74.0144731,531.637412 L216.900782,510.753039 L61.4805863,386.282175 L74.0144731,531.637412 Z" id="Shape" opacity="0.33" sketch:type="MSShapeGroup"></path>
            <path d="M61.4705145,386.278726 L216.89071,510.749589 L277.888959,387.114101 L61.4705145,386.278726 Z" id="Shape" opacity="0.150000006" sketch:type="MSShapeGroup"></path>
            <path d="M61.4705145,386.242713 L277.888959,387.078088 L101.578952,291.845347 L61.4705145,386.242713 Z" id="Shape" opacity="0.33" sketch:type="MSShapeGroup"></path>
            <path d="M101.57233,291.839413 L277.882336,387.072155 L244.458638,255.918292 L101.57233,291.839413 Z" id="Shape" opacity="0.23" sketch:type="MSShapeGroup"></path>
            <path d="M101.581849,291.798847 L244.468158,255.877726 L77.3496684,105.510239 L101.581849,291.798847 Z" id="Shape" opacity="0.23" sketch:type="MSShapeGroup"></path>
            <path d="M77.3448395,105.504306 L244.463329,255.871793 L273.709065,140.590053 L77.3448395,105.504306 Z" id="Shape" opacity="0.39" sketch:type="MSShapeGroup"></path>
            <path d="M77.3448395,105.475331 L273.709065,140.561077 L124.138017,45.328336 L77.3448395,105.475331 Z" id="Shape" opacity="0.07" sketch:type="MSShapeGroup"></path>
            <path d="M124.13029,45.328198 L273.701339,140.560939 L240.277641,44.4928231 L124.13029,45.328198 Z" id="Shape" opacity="0.35" sketch:type="MSShapeGroup"></path>
            <path d="M124.135809,45.2843206 L240.28316,44.4489456 L195.161167,-125.967539 L124.135809,45.2843206 Z" id="Shape" opacity="0.35" sketch:type="MSShapeGroup"></path>
            <path d="M124.146847,45.2779735 L195.172205,-125.973886 L102.421443,-164.401132 L124.146847,45.2779735 Z" id="Shape" opacity="0.23" sketch:type="MSShapeGroup"></path>
            <path d="M198.465044,1266.18351 L399.007231,1304.61075 L352.214054,1136.70039 L198.465044,1266.18351 Z" id="Shape" opacity="0.35" sketch:type="MSShapeGroup"></path>
            <path d="M198.47277,1266.17537 L352.221781,1136.69225 L227.718506,1125.83238 L198.47277,1266.17537 Z" id="Shape" opacity="0.05" sketch:type="MSShapeGroup"></path>
            <path d="M227.713677,1125.79278 L352.216952,1136.65265 L307.930552,1015.52329 L227.713677,1125.79278 Z" id="Shape" opacity="0.21" sketch:type="MSShapeGroup"></path>
            <path d="M227.720989,1125.79071 L307.937864,1015.52122 L265.322649,1013.85047 L227.720989,1125.79071 Z" id="Shape" opacity="0.23" sketch:type="MSShapeGroup"></path>
            <path d="M265.314233,1013.81046 L307.929448,1015.48121 L321.298927,881.821217 L265.314233,1013.81046 Z" id="Shape" opacity="0.23" sketch:type="MSShapeGroup"></path>
            <path d="M265.317268,1013.80507 L321.301963,881.815836 L246.934235,850.906964 L265.317268,1013.80507 Z" id="Shape" opacity="0.23" sketch:type="MSShapeGroup"></path>
            <path d="M246.924715,850.86626 L321.292443,881.775132 L378.948322,736.419895 L246.924715,850.86626 Z" id="Shape" opacity="0.07" sketch:type="MSShapeGroup"></path>
            <path d="M246.92913,850.861155 L378.952737,736.41479 L220.190171,786.537285 L246.92913,850.861155 Z" id="Shape" opacity="0.13" sketch:type="MSShapeGroup"></path>
            <path d="M220.190171,786.508862 L378.952737,736.386366 L312.940933,628.623001 L220.190171,786.508862 Z" id="Shape" opacity="0.09" sketch:type="MSShapeGroup"></path>
            <path d="M220.203554,786.506792 L312.954316,628.620931 L205.16289,616.090307 L220.203554,786.506792 Z" id="Shape" opacity="0.07" sketch:type="MSShapeGroup"></path>
            <path d="M205.16289,616.046844 L312.954316,628.577468 L216.861185,510.789603 L205.16289,616.046844 Z" id="Shape" opacity="0.25" sketch:type="MSShapeGroup"></path>
            <path d="M216.859253,510.781049 L312.952385,628.568913 L307.93883,458.987803 L216.859253,510.781049 Z" id="Shape" opacity="0.05" sketch:type="MSShapeGroup"></path>
            <path d="M216.860081,510.749727 L307.939658,458.956482 L277.85833,387.114239 L216.860081,510.749727 Z" id="Shape" opacity="0.19" sketch:type="MSShapeGroup"></path>
            <path d="M277.835013,387.105684 L307.916341,458.947927 L388.133216,426.368305 L277.835013,387.105684 Z" id="Shape" opacity="0.25" sketch:type="MSShapeGroup"></path>
            <path d="M277.826321,387.096715 L388.124524,426.359337 L440.766848,365.376967 L277.826321,387.096715 Z" id="Shape" opacity="0.19" sketch:type="MSShapeGroup"></path>
            <path d="M277.826321,387.069947 L440.766848,365.350199 L373.919452,242.550085 L277.826321,387.069947 Z" id="Shape" opacity="0.07" sketch:type="MSShapeGroup"></path>
            <path d="M277.842877,387.069947 L373.936009,242.550085 L244.419179,255.916084 L277.842877,387.069947 Z" id="Shape" opacity="0.17" sketch:type="MSShapeGroup"></path>
            <path d="M244.419179,255.877588 L373.936009,242.511589 L273.664915,140.595848 L244.419179,255.877588 Z" id="Shape" opacity="0.05" sketch:type="MSShapeGroup"></path>
            <path d="M273.660086,140.590743 L373.93118,242.506484 L368.917625,123.04787 L273.660086,140.590743 Z" id="Shape" opacity="0.15" sketch:type="MSShapeGroup"></path>
            <path d="M273.666432,140.560939 L368.923972,123.018066 L240.242734,44.4928231 L273.666432,140.560939 Z" id="Shape" opacity="0.19" sketch:type="MSShapeGroup"></path>
            <path d="M240.239699,44.4841304 L368.920936,123.009373 L387.30397,9.39838359 L240.239699,44.4841304 Z" id="Shape" opacity="0.09" sketch:type="MSShapeGroup"></path>
            <path d="M240.239699,44.4508774 L387.30397,9.36513054 L382.290416,-113.434983 L240.239699,44.4508774 Z" id="Shape" opacity="0.33" sketch:type="MSShapeGroup"></path>
            <path d="M240.247977,44.4488077 L382.298694,-113.437053 L195.125985,-125.967677 L240.247977,44.4488077 Z" id="Shape" opacity="0.11" sketch:type="MSShapeGroup"></path>
            <path d="M398.128592,1304.61075 L505.920018,1247.80526 L352.171008,1136.70039 L398.128592,1304.61075 Z" id="Shape" opacity="0.19" sketch:type="MSShapeGroup"></path>
            <path d="M352.171008,1136.68315 L505.920018,1247.78801 L442.414992,1089.06678 L352.171008,1136.68315 Z" id="Shape" opacity="0.25" sketch:type="MSShapeGroup"></path>
            <path d="M352.188806,1136.65265 L442.43279,1089.03628 L307.902406,1015.52329 L352.188806,1136.65265 Z" id="Shape" opacity="0.29" sketch:type="MSShapeGroup"></path>
            <path d="M307.902406,1015.51542 L442.43279,1089.02842 L439.926013,1023.0338 L307.902406,1015.51542 Z" id="Shape" opacity="0.15" sketch:type="MSShapeGroup"></path>
            <path d="M307.90282,1015.48245 L439.926427,1023.00082 L321.272299,881.822459 L307.90282,1015.48245 Z" id="Shape" opacity="0.19" sketch:type="MSShapeGroup"></path>
            <path d="M321.270092,881.817216 L439.924219,1022.99558 L434.910665,850.072969 L321.270092,881.817216 Z" id="Shape" opacity="0.05" sketch:type="MSShapeGroup"></path>
            <path d="M321.270919,881.775132 L434.911493,850.030885 L378.926798,736.419895 L321.270919,881.775132 Z" id="Shape" opacity="0.31" sketch:type="MSShapeGroup"></path>
            <path d="M378.907207,736.414652 L434.891901,850.025642 L495.89015,770.665024 L378.907207,736.414652 Z" id="Shape" opacity="0.23" sketch:type="MSShapeGroup"></path>
            <path d="M378.90293,736.388712 L495.885873,770.639084 L521.789239,658.698844 L378.90293,736.388712 Z" id="Shape" opacity="0.09" sketch:type="MSShapeGroup"></path>
            <path d="M378.913829,736.378087 L521.800138,658.688219 L312.902026,628.614722 L378.913829,736.378087 Z" id="Shape" opacity="0.23" sketch:type="MSShapeGroup"></path>
            <path d="M312.902026,628.578572 L521.800138,658.652069 L460.801889,487.400209 L312.902026,628.578572 Z" id="Shape" opacity="0.19" sketch:type="MSShapeGroup"></path>
            <path d="M312.912925,628.568913 L460.812789,487.390551 L307.899371,458.987803 L312.912925,628.568913 Z" id="Shape" opacity="0.17" sketch:type="MSShapeGroup"></path>
            <path d="M307.899371,458.959104 L460.812789,487.361851 L388.116246,426.379482 L307.899371,458.959104 Z" id="Shape" opacity="0.15" sketch:type="MSShapeGroup"></path>
            <path d="M388.103001,426.369409 L460.799544,487.351779 L440.745325,365.38704 L388.103001,426.369409 Z" id="Shape" opacity="0.33" sketch:type="MSShapeGroup"></path>
            <path d="M373.893928,242.546498 L440.741324,365.346612 L499.232795,256.747872 L373.893928,242.546498 Z" id="Shape" opacity="0.35" sketch:type="MSShapeGroup"></path>
            <path d="M373.893928,242.512141 L499.232795,256.713515 L475.836207,143.102525 L373.893928,242.512141 Z" id="Shape" opacity="0.35" sketch:type="MSShapeGroup"></path>
            <path d="M373.898619,242.506484 L475.840898,143.096868 L368.885064,123.04787 L373.898619,242.506484 Z" id="Shape" opacity="0.25" sketch:type="MSShapeGroup"></path>
            <path d="M368.885064,123.012685 L475.840898,143.061683 L387.268098,9.4016951 L368.885064,123.012685 Z" id="Shape" opacity="0.31" sketch:type="MSShapeGroup"></path>
            <path d="M387.25844,9.4016951 L475.83124,143.061683 L515.939677,31.1214431 L387.25844,9.4016951 Z" id="Shape" opacity="0.23" sketch:type="MSShapeGroup"></path>
            <path d="M387.25844,9.3600253 L515.939677,31.0797733 L449.092282,-130.982962 L387.25844,9.3600253 Z" id="Shape" opacity="0.19" sketch:type="MSShapeGroup"></path>
            <path d="M387.270306,9.35643783 L449.104147,-130.986549 L382.256751,-113.443676 L387.270306,9.35643783 Z" id="Shape" opacity="0.09" sketch:type="MSShapeGroup"></path>
            <path d="M505.870763,1247.78925 L650.428257,1248.62463 L557.677495,1095.75102 L505.870763,1247.78925 Z" id="Shape" opacity="0.09" sketch:type="MSShapeGroup"></path>
            <path d="M505.896564,1247.78801 L557.703295,1095.74978 L442.391537,1089.06678 L505.896564,1247.78801 Z" id="Shape" opacity="0.31" sketch:type="MSShapeGroup"></path>
            <path d="M442.391951,1089.03076 L557.703709,1095.71376 L439.885174,1023.03614 L442.391951,1089.03076 Z" id="Shape" opacity="0.27" sketch:type="MSShapeGroup"></path>
            <path d="M439.88338,1023.03049 L557.701916,1095.70811 L568.564618,988.780115 L439.88338,1023.03049 Z" id="Shape" opacity="0.17" sketch:type="MSShapeGroup"></path>
            <path d="M439.884208,1022.99558 L568.565445,988.745206 L434.870653,850.072969 L439.884208,1022.99558 Z" id="Shape" opacity="0.07" sketch:type="MSShapeGroup"></path>
            <path d="M434.869136,850.064552 L568.563928,988.736789 L577.755445,833.357053 L434.869136,850.064552 Z" id="Shape" opacity="0.27" sketch:type="MSShapeGroup"></path>
            <path d="M434.869136,850.031299 L577.755445,833.3238 L495.867385,770.670681 L434.869136,850.031299 Z" id="Shape" opacity="0.13" sketch:type="MSShapeGroup"></path>
            <path d="M495.848621,770.664472 L577.736681,833.317591 L630.379005,749.780099 L495.848621,770.664472 Z" id="Shape" opacity="0.19" sketch:type="MSShapeGroup"></path>
            <path d="M495.848621,770.639084 L630.379005,749.754711 L521.751987,658.698844 L495.848621,770.639084 Z" id="Shape" opacity="0.31" sketch:type="MSShapeGroup"></path>
            <path d="M521.74564,658.691669 L629.537066,748.912161 L642.906545,636.971921 L521.74564,658.691669 Z" id="Shape" opacity="0.29" sketch:type="MSShapeGroup"></path>
            <path d="M521.744536,658.65676 L642.905442,636.937012 L649.590181,515.807648 L521.744536,658.65676 Z" id="Shape" opacity="0.05" sketch:type="MSShapeGroup"></path>
            <path d="M521.754608,658.652069 L649.600253,515.802957 L460.756359,487.400209 L521.754608,658.652069 Z" id="Shape" opacity="0.39" sketch:type="MSShapeGroup"></path>
            <path d="M460.756359,487.361989 L649.600253,515.764736 L606.985038,398.812247 L460.756359,487.361989 Z" id="Shape" opacity="0.11" sketch:type="MSShapeGroup"></path>
            <path d="M460.766707,487.351779 L606.995386,398.802037 L440.712488,365.38704 L460.766707,487.351779 Z" id="Shape" opacity="0.17" sketch:type="MSShapeGroup"></path>
            <path d="M440.712488,365.354476 L606.995386,398.769473 L499.20396,256.755736 L440.712488,365.354476 Z" id="Shape" opacity="0.39" sketch:type="MSShapeGroup"></path>
            <path d="M499.192646,256.75546 L606.984072,398.769198 L617.011182,255.084711 L499.192646,256.75546 Z" id="Shape" opacity="0.17" sketch:type="MSShapeGroup"></path>
            <path d="M499.192646,256.706202 L617.011182,255.035452 L582.751891,98.820341 L499.192646,256.706202 Z" id="Shape" opacity="0.05" sketch:type="MSShapeGroup"></path>
            <path d="M499.202166,256.706202 L582.761411,98.820341 L475.805578,143.095212 L499.202166,256.706202 Z" id="Shape" opacity="0.21" sketch:type="MSShapeGroup"></path>
            <path d="M475.805578,143.06527 L582.761411,98.7903995 L515.914015,31.1250306 L475.805578,143.06527 Z" id="Shape" opacity="0.07" sketch:type="MSShapeGroup"></path>
            <path d="M515.907393,31.1061274 L582.754789,98.7714963 L558.522607,-39.0653662 L515.907393,31.1061274 Z" id="Shape" opacity="0.11" sketch:type="MSShapeGroup"></path>
            <path d="M515.922431,31.0797733 L558.537646,-39.0917203 L449.075035,-130.982962 L515.922431,31.0797733 Z" id="Shape" opacity="0.21" sketch:type="MSShapeGroup"></path>
            <path d="M650.384659,1248.63139 L769.874379,1272.02189 L746.47779,1113.30065 L650.384659,1248.63139 Z" id="Shape" opacity="0.27" sketch:type="MSShapeGroup"></path>
            <path d="M650.403836,1248.62463 L746.496968,1113.29389 L557.653074,1095.75102 L650.403836,1248.62463 Z" id="Shape" opacity="0.37" sketch:type="MSShapeGroup"></path>
            <path d="M557.653074,1095.711 L746.496968,1113.25388 L568.515776,988.783012 L557.653074,1095.711 Z" id="Shape" opacity="0.37" sketch:type="MSShapeGroup"></path>
            <path d="M568.513983,988.780529 L746.495174,1113.25139 L738.974842,973.74378 L568.513983,988.780529 Z" id="Shape" opacity="0.07" sketch:type="MSShapeGroup"></path>
            <path d="M568.515224,988.736789 L738.976084,973.700041 L577.706741,833.357053 L568.515224,988.736789 Z" id="Shape" opacity="0.21" sketch:type="MSShapeGroup"></path>
            <path d="M577.702878,833.35457 L738.972221,973.697557 L753.177293,865.934192 L577.702878,833.35457 Z" id="Shape" opacity="0.31" sketch:type="MSShapeGroup"></path>
            <path d="M577.702878,833.322973 L753.177293,865.902595 L630.345203,749.78548 L577.702878,833.322973 Z" id="Shape" opacity="0.15" sketch:type="MSShapeGroup"></path>
            <path d="M630.33651,749.783272 L753.168601,865.900387 L685.485612,736.417274 L630.33651,749.783272 Z" id="Shape" opacity="0.11" sketch:type="MSShapeGroup"></path>
            <path d="M629.512232,749.747674 L685.496926,736.381675 L642.881711,636.972059 L629.512232,749.747674 Z" id="Shape" opacity="0.31" sketch:type="MSShapeGroup"></path>
            <path d="M642.872605,636.969851 L685.48782,736.379467 L727.267442,666.207974 L642.872605,636.969851 Z" id="Shape" opacity="0.27" sketch:type="MSShapeGroup"></path>
            <path d="M642.872605,636.938116 L727.267442,666.176238 L726.43185,514.973389 L642.872605,636.938116 Z" id="Shape" opacity="0.13" sketch:type="MSShapeGroup"></path>
            <path d="M642.872743,636.933149 L726.431988,514.133035 L649.557482,515.803785 L642.872743,636.933149 Z" id="Shape" opacity="0.31" sketch:type="MSShapeGroup"></path>
            <path d="M649.556378,515.757148 L726.430884,514.086398 L707.212258,352.859037 L649.556378,515.757148 Z" id="Shape" opacity="0.29" sketch:type="MSShapeGroup"></path>
            <path d="M649.566588,515.757148 L707.222467,352.859037 L606.951373,398.804658 L649.566588,515.757148 Z" id="Shape" opacity="0.31" sketch:type="MSShapeGroup"></path>
            <path d="M606.951373,398.769198 L707.222467,352.823577 L616.978483,255.084711 L606.951373,398.769198 Z" id="Shape" opacity="0.23" sketch:type="MSShapeGroup"></path>
            <path d="M616.971446,255.077122 L707.215431,352.815988 L739.803536,267.607746 L616.971446,255.077122 Z" id="Shape" opacity="0.11" sketch:type="MSShapeGroup"></path>
            <path d="M616.971446,255.048422 L739.803536,267.579046 L682.147657,166.49868 L616.971446,255.048422 Z" id="Shape" opacity="0.21" sketch:type="MSShapeGroup"></path>
            <path d="M616.986623,255.035176 L682.162834,166.485434 L582.727333,98.8200651 L616.986623,255.035176 Z" id="Shape" opacity="0.05" sketch:type="MSShapeGroup"></path>
            <path d="M582.723607,98.7839144 L682.159109,166.449283 L704.720105,-31.5345738 L582.723607,98.7839144 Z" id="Shape" opacity="0.35" sketch:type="MSShapeGroup"></path>
            <path d="M582.727608,98.7714963 L704.724106,-31.5469919 L558.495427,-39.0653662 L582.727608,98.7714963 Z" id="Shape" opacity="0.27" sketch:type="MSShapeGroup"></path>
            <path d="M769.836437,1272.02037 L880.13464,1256.14825 L814.958429,1104.11001 L769.836437,1272.02037 Z" id="Shape" opacity="0.19" sketch:type="MSShapeGroup"></path>
            <path d="M769.851062,1272.02037 L814.973054,1104.11001 L746.454473,1113.29913 L769.851062,1272.02037 Z" id="Shape" opacity="0.37" sketch:type="MSShapeGroup"></path>
            <path d="M746.455715,1113.25139 L814.974296,1104.06227 L738.935383,973.74378 L746.455715,1113.25139 Z" id="Shape" opacity="0.37" sketch:type="MSShapeGroup"></path>
            <path d="M738.922,973.742262 L814.960913,1104.06075 L896.01338,1019.68788 L738.922,973.742262 Z" id="Shape" opacity="0.35" sketch:type="MSShapeGroup"></path>
            <path d="M738.922,973.710113 L896.01338,1019.65573 L869.274422,863.440623 L738.922,973.710113 Z" id="Shape" opacity="0.15" sketch:type="MSShapeGroup"></path>
            <path d="M738.926415,973.702524 L869.278837,863.433034 L753.131487,865.939159 L738.926415,973.702524 Z" id="Shape" opacity="0.31" sketch:type="MSShapeGroup"></path>
            <path d="M753.129141,865.901353 L869.276492,863.395228 L824.154499,742.265864 L753.129141,865.901353 Z" id="Shape" opacity="0.09" sketch:type="MSShapeGroup"></path>
            <path d="M753.147767,865.900387 L824.173125,742.264898 L685.464779,736.417274 L753.147767,865.900387 Z" id="Shape" opacity="0.27" sketch:type="MSShapeGroup"></path>
            <path d="M685.464779,736.385262 L824.173125,742.232887 L727.244401,666.213769 L685.464779,736.385262 Z" id="Shape" opacity="0.39" sketch:type="MSShapeGroup"></path>
            <path d="M727.231846,666.213769 L824.16057,742.232887 L858.41986,672.061393 L727.231846,666.213769 Z" id="Shape" opacity="0.17" sketch:type="MSShapeGroup"></path>
            <path d="M727.231984,666.177066 L858.419998,672.024691 L726.396391,514.13883 L727.231984,666.177066 Z" id="Shape" opacity="0.17" sketch:type="MSShapeGroup"></path>
            <path d="M726.388803,514.138278 L858.41241,672.024139 L904.369995,510.796778 L726.388803,514.138278 Z" id="Shape" opacity="0.39" sketch:type="MSShapeGroup"></path>
            <path d="M726.388803,514.085432 L904.369995,510.743932 L855.905633,348.681197 L726.388803,514.085432 Z" id="Shape" opacity="0.150000006" sketch:type="MSShapeGroup"></path>
            <path d="M726.399979,514.085432 L855.916808,348.681197 L707.181352,352.858072 L726.399979,514.085432 Z" id="Shape" opacity="0.17" sketch:type="MSShapeGroup"></path>
            <path d="M707.181352,352.818057 L855.916808,348.641183 L739.769458,267.609815 L707.181352,352.818057 Z" id="Shape" opacity="0.17" sketch:type="MSShapeGroup"></path>
            <path d="M739.763387,267.609125 L855.910738,348.640493 L860.0887,278.468999 L739.763387,267.609125 Z" id="Shape" opacity="0.39" sketch:type="MSShapeGroup"></path>
            <path d="M739.763387,267.575458 L860.0887,278.435332 L857.581923,133.91547 L739.763387,267.575458 Z" id="Shape" opacity="0.13" sketch:type="MSShapeGroup"></path>
            <path d="M739.773321,267.573665 L857.591856,133.913677 L682.117442,166.493299 L739.773321,267.573665 Z" id="Shape" opacity="0.31" sketch:type="MSShapeGroup"></path>
            <path d="M682.117442,166.449283 L857.591856,133.869661 L704.678438,-31.5345738 L682.117442,166.449283 Z" id="Shape" opacity="0.35" sketch:type="MSShapeGroup"></path>
            <path d="M704.670436,-31.539955 L857.583854,133.86428 L883.48722,42.8084133 L704.670436,-31.539955 Z" id="Shape" opacity="0.23" sketch:type="MSShapeGroup"></path>
            <path d="M704.667401,-31.5710003 L883.484185,42.7773679 L901.867219,-128.474492 L704.667401,-31.5710003 Z" id="Shape" opacity="0.17" sketch:type="MSShapeGroup"></path>
            <path d="M880.10001,1256.1539 L979.535512,1227.75116 L961.152478,1154.23816 L880.10001,1256.1539 Z" id="Shape" opacity="0.31" sketch:type="MSShapeGroup"></path>
            <path d="M880.113807,1256.14562 L961.166275,1154.22988 L814.937596,1104.10739 L880.113807,1256.14562 Z" id="Shape" opacity="0.33" sketch:type="MSShapeGroup"></path>
            <path d="M814.937596,1104.07662 L961.166275,1154.19911 L895.990064,1019.70375 L814.937596,1104.07662 Z" id="Shape" opacity="0.33" sketch:type="MSShapeGroup"></path>
            <path d="M895.971714,1019.69533 L961.147925,1154.1907 L991.229253,968.737464 L895.971714,1019.69533 Z" id="Shape" opacity="0.25" sketch:type="MSShapeGroup"></path>
            <path d="M895.971714,1019.66277 L991.229253,968.704901 L970.339442,906.051781 L895.971714,1019.66277 Z" id="Shape" opacity="0.09" sketch:type="MSShapeGroup"></path>
            <path d="M895.979578,1019.65573 L970.347306,906.044744 L869.240619,863.440623 L895.979578,1019.65573 Z" id="Shape" opacity="0.25" sketch:type="MSShapeGroup"></path>
            <path d="M869.23855,863.400195 L970.345236,906.004316 L982.879123,732.246332 L869.23855,863.400195 Z" id="Shape" opacity="0.39" sketch:type="MSShapeGroup"></path>
            <path d="M869.246,863.393158 L982.886573,732.239295 L824.124008,742.263794 L869.246,863.393158 Z" id="Shape" opacity="0.27" sketch:type="MSShapeGroup"></path>
            <path d="M824.124008,742.233853 L982.886573,732.209354 L858.383298,672.062359 L824.124008,742.233853 Z" id="Shape" opacity="0.21" sketch:type="MSShapeGroup"></path>
            <path d="M858.377504,672.053666 L982.880779,732.200661 L983.716371,629.449545 L858.377504,672.053666 Z" id="Shape" opacity="0.31" sketch:type="MSShapeGroup"></path>
            <path d="M858.377504,672.024139 L983.716371,629.420018 L904.335088,510.796778 L858.377504,672.024139 Z" id="Shape" opacity="0.11" sketch:type="MSShapeGroup"></path>
            <path d="M904.3275,510.782842 L983.708783,629.406082 L981.202006,469.014096 L904.3275,510.782842 Z" id="Shape" opacity="0.15" sketch:type="MSShapeGroup"></path>
            <path d="M904.335916,510.74338 L981.210422,468.974634 L855.871554,348.680645 L904.335916,510.74338 Z" id="Shape" opacity="0.11" sketch:type="MSShapeGroup"></path>
            <path d="M855.865484,348.671952 L981.039943,468.801316 L1017.97042,336.976703 L855.865484,348.671952 Z" id="Shape" opacity="0.27" sketch:type="MSShapeGroup"></path>
            <path d="M855.865484,348.639665 L1017.97042,336.944416 L983.711128,262.596048 L855.865484,348.639665 Z" id="Shape" opacity="0.33" sketch:type="MSShapeGroup"></path>
            <path d="M855.87114,348.639665 L983.716785,262.596048 L860.049103,278.468171 L855.87114,348.639665 Z" id="Shape" opacity="0.15" sketch:type="MSShapeGroup"></path>
            <path d="M860.048827,278.435332 L983.716509,262.563209 L857.542049,133.91547 L860.048827,278.435332 Z" id="Shape" opacity="0.29" sketch:type="MSShapeGroup"></path>
            <path d="M857.542049,133.911331 L983.716509,262.559069 L956.141958,124.722207 L857.542049,133.911331 Z" id="Shape" opacity="0.11" sketch:type="MSShapeGroup"></path>
            <path d="M857.546602,133.87656 L956.146511,124.687436 L883.449968,42.8206935 L857.546602,133.87656 Z" id="Shape" opacity="0.27" sketch:type="MSShapeGroup"></path>
            <path d="M883.439069,42.8071715 L956.135612,124.673914 L996.244049,-29.8704469 L883.439069,42.8071715 Z" id="Shape" opacity="0.15" sketch:type="MSShapeGroup"></path>
            <path d="M883.439069,42.7802655 L996.244049,-29.8973529 L931.903431,-110.928721 L883.439069,42.7802655 Z" id="Shape" opacity="0.21" sketch:type="MSShapeGroup"></path>
            <path d="M883.449692,42.7773679 L931.914054,-110.931618 L901.832726,-128.474492 L883.449692,42.7773679 Z" id="Shape" opacity="0.25" sketch:type="MSShapeGroup"></path>
            <path d="M1219.16418,1155.46165 L1209.9329,1262.65326 L1251.99375,1178.12716 L1219.16418,1155.46165 Z" id="Shape" opacity="0.07" sketch:type="MSShapeGroup" transform="translate(1230.964242, 1208.872861) rotate(-90.000000) translate(-1230.964242, -1208.872861) "></path>
            <path d="M1249.00459,1149.99436 L1206.94373,1234.52046 L1279.99586,1236.25883 L1249.00459,1149.99436 Z" id="Shape" opacity="0.05" sketch:type="MSShapeGroup" transform="translate(1243.538271, 1193.312113) rotate(-90.000000) translate(-1243.538271, -1193.312113) "></path>
            <path d="M1122.80613,1046.55046 L1153.79741,1132.81494 L1341.25912,1023.82797 L1122.80613,1046.55046 Z" id="Shape" opacity="0.09" sketch:type="MSShapeGroup" transform="translate(1232.169125, 1078.500863) rotate(-90.000000) translate(-1232.169125, -1078.500863) "></path>
            <path d="M1324.14853,1006.72007 L1136.68682,1115.70704 L1328.02488,1101.54016 L1324.14853,1006.72007 Z" id="Shape" opacity="0.05" sketch:type="MSShapeGroup" transform="translate(1232.169125, 1061.392964) rotate(-90.000000) translate(-1232.169125, -1061.392964) "></path>
            <path d="M1201.88399,887.839238 L1205.76034,982.659327 L1259.19729,993.79448 L1201.88399,887.839238 Z" id="Shape" opacity="0.07" sketch:type="MSShapeGroup" transform="translate(1230.486618, 940.829892) rotate(-90.000000) translate(-1230.486618, -940.829892) "></path>
            <path d="M1175.70087,868.597678 L1233.01417,974.552919 L1278.32162,861.764472 L1175.70087,868.597678 Z" id="Shape" opacity="0.11" sketch:type="MSShapeGroup" transform="translate(1227.017352, 918.119612) rotate(-90.000000) translate(-1227.017352, -918.119612) "></path>
            <path d="M1197.03259,780.488224 L1151.72514,893.276671 L1302.3703,790.609841 L1197.03259,780.488224 Z" id="Shape" opacity="0.27" sketch:type="MSShapeGroup" transform="translate(1227.017352, 836.843364) rotate(-90.000000) translate(-1227.017352, -836.843364) "></path>
            <path d="M1289.77965,757.777943 L1139.13449,860.444774 L1335.53363,870.615416 L1289.77965,757.777943 Z" id="Shape" opacity="0.35" sketch:type="MSShapeGroup" transform="translate(1237.140561, 814.133083) rotate(-90.000000) translate(-1237.140561, -814.133083) "></path>
            <path d="M1174.04653,642.063018 L1219.8005,754.900491 L1300.22351,744.062251 L1174.04653,642.063018 Z" id="Shape" opacity="0.11" sketch:type="MSShapeGroup" transform="translate(1237.140561, 698.418158) rotate(-90.000000) translate(-1237.140561, -698.418158) "></path>
            <path d="M1134.39108,643.861758 L1260.56807,745.860991 L1298.21102,613.044326 L1134.39108,643.861758 Z" id="Shape" opacity="0.21" sketch:type="MSShapeGroup" transform="translate(1216.413328, 679.492924) rotate(-90.000000) translate(-1216.413328, -679.492924) "></path>
            <path d="M1180.44657,495.298397 L1142.80362,628.115062 L1290.34709,559.033891 L1180.44657,495.298397 Z" id="Shape" opacity="0.17" sketch:type="MSShapeGroup" transform="translate(1216.413328, 561.746995) rotate(-90.000000) translate(-1216.413328, -561.746995) "></path>
            <path d="M1088.12212,471.960435 L1198.02265,535.695929 L1276.00591,501.623964 L1088.12212,471.960435 Z" id="Shape" opacity="0.39" sketch:type="MSShapeGroup" transform="translate(1181.921922, 503.923052) rotate(-90.000000) translate(-1181.921922, -503.923052) "></path>
            <path d="M1337.68816,511.700266 L1190.14469,580.781437 L1295.14724,611.629263 L1337.68816,511.700266 Z" id="Shape" opacity="0.35" sketch:type="MSShapeGroup" transform="translate(1263.754398, 561.746995) rotate(-90.000000) translate(-1263.754398, -561.746995) "></path>
            <path d="M1217.54304,391.574039 L1175.00212,491.503036 L1352.11164,435.395188 L1217.54304,391.574039 Z" id="Shape" opacity="0.35" sketch:type="MSShapeGroup" transform="translate(1263.754398, 441.620768) rotate(-90.000000) translate(-1263.754398, -441.620768) "></path>
            <path d="M1151.12862,415.407409 L1285.69722,459.228558 L1229.1119,381.335444 L1151.12862,415.407409 Z" id="Shape" opacity="0.13" sketch:type="MSShapeGroup" transform="translate(1218.628625, 420.335444) rotate(-90.000000) translate(-1218.628625, -420.335444) "></path>
            <path d="M1125.94339,291.935718 L1182.52872,369.828833 L1297.23333,278.638906 L1125.94339,291.935718 Z" id="Shape" opacity="0.27" sketch:type="MSShapeGroup" transform="translate(1211.751275, 324.059467) rotate(-90.000000) translate(-1211.751275, -324.059467) "></path>
            <path d="M1270.5125,249.398919 L1155.8079,340.588845 L1240.3757,343.063824 L1270.5125,249.398919 Z" id="Shape" opacity="0.37" sketch:type="MSShapeGroup" transform="translate(1213.013155, 296.081162) rotate(-90.000000) translate(-1213.013155, -296.081162) "></path>
            <path d="M1192.25411,150.965915 L1162.1173,244.63082 L1283.75943,264.581069 L1192.25411,150.965915 Z" id="Shape" opacity="0.19" sketch:type="MSShapeGroup" transform="translate(1223.108201, 207.741616) rotate(-90.000000) translate(-1223.108201, -207.741616) "></path>
            <path d="M1156.61574,117.923331 L1248.12106,231.538485 L1286.66607,115.366558 L1156.61574,117.923331 Z" id="Shape" opacity="0.31" sketch:type="MSShapeGroup" transform="translate(1221.812906, 173.403941) rotate(-90.000000) translate(-1221.812906, -173.403941) "></path>
            <path d="M1185.90696,-22.386055 L1147.36195,93.785872 L1333.39307,130.300732 L1185.90696,-22.386055 Z" id="Shape" opacity="0.13" sketch:type="MSShapeGroup" transform="translate(1240.320489, 54.156001) rotate(-90.000000) translate(-1240.320489, -54.156001) "></path>
            <path d="M1155.78683,-30.6569726 L1303.27295,122.029814 L1298.43639,-52.513789 L1155.78683,-30.6569726 Z" id="Shape" opacity="0.21" sketch:type="MSShapeGroup" transform="translate(1229.396534, 34.962847) rotate(-90.000000) translate(-1229.396534, -34.962847) "></path>
            <path d="M1311.70125,1143.2934 L1298.63379,1256.42958 L1384.75338,1145.03177 L1311.70125,1143.2934 Z" id="Shape" opacity="0.35" sketch:type="MSShapeGroup" transform="translate(1341.537734, 1200.069106) rotate(-90.000000) translate(-1341.537734, -1200.069106) "></path>
            <path d="M1410.04713,1119.742 L1323.92753,1231.13982 L1393.4202,1280.1615 L1410.04713,1119.742 Z" id="Shape" opacity="0.09" sketch:type="MSShapeGroup" transform="translate(1366.831478, 1200.069106) rotate(-90.000000) translate(-1366.831478, -1200.069106) "></path>
            <path d="M1293.86487,1003.57802 L1277.23795,1163.99752 L1456.70865,1128.91925 L1293.86487,1003.57802 Z" id="Shape" opacity="0.11" sketch:type="MSShapeGroup" transform="translate(1366.831478, 1083.905124) rotate(-90.000000) translate(-1366.831478, -1083.905124) "></path>
            <path d="M1246.66439,1005.74676 L1409.50817,1131.08799 L1438.00245,991.57988 L1246.66439,1005.74676 Z" id="Shape" opacity="0.15" sketch:type="MSShapeGroup" transform="translate(1342.146696, 1061.392964) rotate(-90.000000) translate(-1342.146696, -1061.392964) "></path>
            <path d="M1324.79265,878.38788 L1296.29836,1017.89599 L1387.66875,982.323377 L1324.79265,878.38788 Z" id="Shape" opacity="0.13" sketch:type="MSShapeGroup" transform="translate(1342.146696, 948.200964) rotate(-90.000000) translate(-1342.146696, -948.200964) "></path>
            <path d="M1292.93335,881.860693 L1355.80945,985.79619 L1346.3703,892.995845 L1292.93335,881.860693 Z" id="Shape" opacity="0.31" sketch:type="MSShapeGroup" transform="translate(1324.480367, 934.010225) rotate(-90.000000) translate(-1324.480367, -934.010225) "></path>
            <path d="M1231.72243,767.871401 L1241.16158,860.671746 L1428.12156,778.042044 L1231.72243,767.871401 Z" id="Shape" opacity="0.33" sketch:type="MSShapeGroup" transform="translate(1329.728494, 814.133083) rotate(-90.000000) translate(-1329.728494, -814.133083) "></path>
            <path d="M1471.33797,725.209437 L1284.37799,807.839138 L1401.41164,893.793245 L1471.33797,725.209437 Z" id="Shape" opacity="0.33" sketch:type="MSShapeGroup" transform="translate(1377.757157, 809.321586) rotate(-90.000000) translate(-1377.757157, -809.321586) "></path>
            <path d="M1391.74012,645.624099 L1321.81378,814.207907 L1433.37323,738.235686 L1391.74012,645.624099 Z" id="Shape" opacity="0.21" sketch:type="MSShapeGroup" transform="translate(1377.757157, 729.736249) rotate(-90.000000) translate(-1377.757157, -729.736249) "></path>
            <path d="M1294.14876,634.490926 L1335.78187,727.102512 L1374.57177,623.652686 L1294.14876,634.490926 Z" id="Shape" opacity="0.31" sketch:type="MSShapeGroup" transform="translate(1334.528942, 675.381658) rotate(-90.000000) translate(-1334.528942, -675.381658) "></path>
            <path d="M1308.5423,547.540141 L1269.7524,650.989967 L1409.73062,661.091837 L1308.5423,547.540141 Z" id="Shape" opacity="0.31" sketch:type="MSShapeGroup" transform="translate(1339.576464, 604.315842) rotate(-90.000000) translate(-1339.576464, -604.315842) "></path>
            <path d="M1286.9981,525.999332 L1388.18642,639.551028 L1392.00066,556.847158 L1286.9981,525.999332 Z" id="Shape" opacity="0.23" sketch:type="MSShapeGroup" transform="translate(1339.576464, 582.775033) rotate(-90.000000) translate(-1339.576464, -582.775033) "></path>
            <path d="M1333.44257,408.004493 L1329.62833,490.708363 L1440.04089,550.546322 L1333.44257,408.004493 Z" id="Shape" opacity="0.35" sketch:type="MSShapeGroup" transform="translate(1384.730457, 479.079259) rotate(-90.000000) translate(-1384.730457, -479.079259) "></path>
            <path d="M1313.6513,530.373043 L1456.19313,423.774717 L1257.54345,353.263528 L1313.6513,530.373043 L1313.6513,530.373043 Z" id="Shape" opacity="0.23" sketch:type="MSShapeGroup"></path>
            <path d="M1322.9915,220.226121 L1252.48032,418.875797 L1461.52343,372.714458 L1322.9915,220.226121 Z" id="Shape" opacity="0.13" sketch:type="MSShapeGroup" transform="translate(1356.795786, 319.478458) rotate(-90.000000) translate(-1356.795786, -319.478458) "></path>
            <path d="M1264.25787,207.763405 L1402.78979,360.251741 L1348.82567,210.238383 L1264.25787,207.763405 Z" id="Shape" opacity="0.33" sketch:type="MSShapeGroup" transform="translate(1333.661307, 283.884900) rotate(-90.000000) translate(-1333.661307, -283.884900) "></path>
            <path d="M1273.88389,132.881803 L1327.84802,282.895161 L1395.52602,152.832052 L1273.88389,132.881803 Z" id="Shape" opacity="0.31" sketch:type="MSShapeGroup" transform="translate(1334.874794, 207.741616) rotate(-90.000000) translate(-1334.874794, -207.741616) "></path>
            <path d="M1404.41923,90.7018658 L1336.74122,220.764976 L1394.31802,271.278459 L1404.41923,90.7018658 Z" id="Shape" opacity="0.21" sketch:type="MSShapeGroup" transform="translate(1370.391376, 181.122427) rotate(-90.000000) translate(-1370.391376, -181.122427) "></path>
            <path d="M1282.48652,-31.2116696 L1272.38531,149.364924 L1468.51765,5.30319032 L1282.48652,-31.2116696 Z" id="Shape" opacity="0.13" sketch:type="MSShapeGroup" transform="translate(1370.391376, 59.208891) rotate(-90.000000) translate(-1370.391376, -59.208891) "></path>
            <path d="M1491.57819,-17.7537257 L1295.44585,126.308008 L1489.79557,135.896206 L1491.57819,-17.7537257 Z" id="Shape" opacity="0.39" sketch:type="MSShapeGroup" transform="translate(1393.451918, 59.208891) rotate(-90.000000) translate(-1393.451918, -59.208891) "></path>
            <path d="M1496.88271,1142.58058 L1429.03347,1341.59398 L1566.37538,1191.60226 L1496.88271,1142.58058 Z" id="Shape" opacity="0.37" sketch:type="MSShapeGroup" transform="translate(1497.595649, 1242.253476) rotate(-90.000000) translate(-1497.595649, -1242.253476) "></path>
            <path d="M1572.92146,1149.73011 L1435.57954,1299.72183 L1607.68394,1217.26513 L1572.92146,1149.73011 Z" id="Shape" opacity="0.25" sketch:type="MSShapeGroup" transform="translate(1521.808056, 1224.589925) rotate(-90.000000) translate(-1521.808056, -1224.589925) "></path>
            <path d="M1373.57564,1067.67498 L1408.33812,1135.21 L1553.04634,1032.59671 L1373.57564,1067.67498 Z" id="Shape" opacity="0.39" sketch:type="MSShapeGroup" transform="translate(1463.169169, 1083.905124) rotate(-90.000000) translate(-1463.169169, -1083.905124) "></path>
            <path d="M1549.41025,973.447173 L1404.70203,1076.06046 L1576.86348,1131.46573 L1549.41025,973.447173 Z" id="Shape" opacity="0.17" sketch:type="MSShapeGroup" transform="translate(1490.930544, 1052.512593) rotate(-90.000000) translate(-1490.930544, -1052.512593) "></path>
            <path d="M1437.51093,861.56545 L1464.96416,1019.58401 L1544.33532,1005.42453 L1437.51093,861.56545 Z" id="Shape" opacity="0.09" sketch:type="MSShapeGroup" transform="translate(1490.930544, 940.630870) rotate(-90.000000) translate(-1490.930544, -940.630870) "></path>
            <path d="M1412.44839,886.624047 L1519.27278,1030.48313 L1503.81877,851.051431 L1412.44839,886.624047 Z" id="Shape" opacity="0.09" sketch:type="MSShapeGroup" transform="translate(1465.868005, 940.630870) rotate(-90.000000) translate(-1465.868005, -940.630870) "></path>
            <path d="M1407.40087,754.648689 L1422.85487,934.080385 L1524.43452,840.602795 L1407.40087,754.648689 Z" id="Shape" opacity="0.19" sketch:type="MSShapeGroup" transform="translate(1465.868005, 844.228128) rotate(-90.000000) translate(-1465.868005, -844.228128) "></path>
            <path d="M1528.90971,758.963469 L1427.33007,852.441059 L1590.28449,845.2328 L1528.90971,758.963469 Z" id="Shape" opacity="0.15" sketch:type="MSShapeGroup" transform="translate(1508.931687, 805.645712) rotate(-90.000000) translate(-1508.931687, -805.645712) "></path>
            <path d="M1451.72643,688.521295 L1513.10121,774.790626 L1559.12627,745.316195 L1451.72643,688.521295 Z" id="Shape" opacity="0.31" sketch:type="MSShapeGroup" transform="translate(1505.566672, 731.839052) rotate(-90.000000) translate(-1505.566672, -731.839052) "></path>
            <path d="M1396.7736,739.259872 L1504.17344,796.054772 L1508.33305,663.28765 L1396.7736,739.259872 Z" id="Shape" opacity="0.17" sketch:type="MSShapeGroup" transform="translate(1452.716981, 729.736249) rotate(-90.000000) translate(-1452.716981, -729.736249) "></path>
            <path d="M1384.94939,539.923395 L1380.78978,672.690516 L1524.92761,550.025264 L1384.94939,539.923395 Z" id="Shape" opacity="0.05" sketch:type="MSShapeGroup" transform="translate(1452.716981, 606.371993) rotate(-90.000000) translate(-1452.716981, -606.371993) "></path>
            <path d="M1511.47596,487.773862 L1367.33813,610.439114 L1587.05887,648.96706 L1511.47596,487.773862 Z" id="Shape" opacity="0.37" sketch:type="MSShapeGroup" transform="translate(1477.121753, 568.521526) rotate(-90.000000) translate(-1477.121753, -568.521526) "></path>
            <path d="M1422.01963,398.331596 L1497.60253,559.524794 L1532.43219,458.169554 L1422.01963,398.331596 Z" id="Shape" opacity="0.25" sketch:type="MSShapeGroup" transform="translate(1477.121753, 479.079259) rotate(-90.000000) translate(-1477.121753, -479.079259) "></path>
            <path d="M1523.42669,369.022263 L1488.59703,470.377503 L1545.71865,490.821497 L1523.42669,369.022263 Z" id="Shape" opacity="0.39" sketch:type="MSShapeGroup" transform="translate(1517.199659, 430.003572) rotate(-90.000000) translate(-1517.199659, -430.003572) "></path>
            <path d="M1446.95497,292.56257 L1469.24693,414.361804 L1587.06171,350.774953 L1446.95497,292.56257 Z" id="Shape" opacity="0.15" sketch:type="MSShapeGroup" transform="translate(1517.199659, 353.543878) rotate(-90.000000) translate(-1517.199659, -353.543878) "></path>
            <path d="M1357.88242,313.490264 L1497.98917,371.702647 L1566.92554,267.328925 L1357.88242,313.490264 Z" id="Shape" opacity="0.39" sketch:type="MSShapeGroup" transform="translate(1462.197895, 319.478458) rotate(-90.000000) translate(-1462.197895, -319.478458) "></path>
            <path d="M1468.04023,168.459171 L1399.10386,272.832893 L1525.61703,218.972655 L1468.04023,168.459171 Z" id="Shape" opacity="0.29" sketch:type="MSShapeGroup" transform="translate(1462.197895, 220.608704) rotate(-90.000000) translate(-1462.197895, -220.608704) "></path>
            <path d="M1577.40034,149.533937 L1450.88717,203.394175 L1594.89033,274.150326 L1577.40034,149.533937 Z" id="Shape" opacity="0.09" sketch:type="MSShapeGroup" transform="translate(1522.814369, 211.776928) rotate(-90.000000) translate(-1522.814369, -211.776928) "></path>
            <path d="M1462.2441,34.395807 L1479.73409,159.012196 L1583.17123,155.698065 L1462.2441,34.395807 Z" id="Shape" opacity="0.33" sketch:type="MSShapeGroup" transform="translate(1522.814369, 96.638798) rotate(-90.000000) translate(-1522.814369, -96.638798) "></path>
            <path d="M1423.96705,-0.51073506 L1544.89419,120.791523 L1618.31676,9.07746296 L1423.96705,-0.51073506 Z" id="Shape" opacity="0.19" sketch:type="MSShapeGroup" transform="translate(1521.131862, 60.050013) rotate(-90.000000) translate(-1521.131862, -60.050013) "></path>
            <path d="M1631.4849,-124.783341 L1558.06232,-13.069281 L1566.81428,123.988163 L1631.4849,-124.783341 Z" id="Shape" opacity="0.31" sketch:type="MSShapeGroup" transform="translate(1594.656856, -0.297359) rotate(-90.000000) translate(-1594.656856, 0.297359) "></path>
            <path d="M1681.20007,-183.580654 L1616.52945,65.19085 L1675.93979,173.68389 L1681.20007,-183.580654 Z" id="Shape" opacity="0.15" sketch:type="MSShapeGroup" transform="translate(1648.917726, -4.842336) rotate(-90.000000) translate(-1648.917726, 4.842336) "></path>
            <path d="M1551.52407,1140.05721 L1555.09356,1265.71369 L1768.08011,1213.77858 L1551.52407,1140.05721 Z" id="Shape" opacity="0.35" sketch:type="MSShapeGroup" transform="translate(1659.625181, 1202.720766) rotate(-90.000000) translate(-1659.625181, -1202.720766) "></path>
            <path d="M1484.6176,1206.95316 L1701.17364,1280.67452 L1656.722,1124.49647 L1484.6176,1206.95316 Z" id="Shape" opacity="0.17" sketch:type="MSShapeGroup" transform="translate(1592.718715, 1202.720766) rotate(-90.000000) translate(-1592.718715, -1202.720766) "></path>
            <path d="M1506.4902,974.288294 L1550.94184,1130.46635 L1678.65165,1029.69357 L1506.4902,974.288294 Z" id="Shape" opacity="0.39" sketch:type="MSShapeGroup" transform="translate(1592.718715, 1052.512593) rotate(-90.000000) translate(-1592.718715, -1052.512593) "></path>
            <path d="M1684.14585,979.890373 L1556.43604,1080.66316 L1684.70524,1034.9962 L1684.14585,979.890373 Z" id="Shape" opacity="0.23" sketch:type="MSShapeGroup" transform="translate(1620.371327, 1030.357663) rotate(-90.000000) translate(-1620.371327, -1030.357663) "></path>
            <path d="M1550.68687,906.733957 L1551.24626,961.839789 L1630.05803,892.574479 L1550.68687,906.733957 Z" id="Shape" opacity="0.13" sketch:type="MSShapeGroup" transform="translate(1590.225799, 927.060460) rotate(-90.000000) translate(-1590.225799, -927.060460) "></path>
            <path d="M1636.64929,878.136669 L1557.83753,947.401979 L1643.61539,968.489051 L1636.64929,878.136669 Z" id="Shape" opacity="0.39" sketch:type="MSShapeGroup" transform="translate(1600.741472, 923.136669) rotate(-90.000000) translate(-1600.741472, -923.136669) "></path>
            <path d="M1515.7161,764.068925 L1522.68221,854.421307 L1678.67053,756.860666 L1515.7161,764.068925 Z" id="Shape" opacity="0.39" sketch:type="MSShapeGroup" transform="translate(1597.317721, 805.645712) rotate(-90.000000) translate(-1597.317721, -805.645712) "></path>
            <path d="M1678.43446,750.736779 L1522.44613,848.29742 L1675.46199,853.79415 L1678.43446,750.736779 Z" id="Shape" opacity="0.05" sketch:type="MSShapeGroup" transform="translate(1600.262109, 802.465751) rotate(-90.000000) translate(-1600.262109, -802.465751) "></path>
            <path d="M1596.08391,637.277693 L1593.11145,740.335063 L1638.17718,772.092912 L1596.08391,637.277693 Z" id="Shape" opacity="0.23" sketch:type="MSShapeGroup" transform="translate(1615.825304, 704.567412) rotate(-90.000000) translate(-1615.825304, -704.567412) "></path>
            <path d="M1577.9337,648.639942 L1620.02697,783.455162 L1623.95876,619.165512 L1577.9337,648.639942 Z" id="Shape" opacity="0.39" sketch:type="MSShapeGroup" transform="translate(1601.068179, 701.174858) rotate(-90.000000) translate(-1601.068179, -701.174858) "></path>
            <path d="M1521.71584,516.938674 L1517.78405,681.228325 L1684.61567,666.600716 L1521.71584,516.938674 Z" id="Shape" opacity="0.11" sketch:type="MSShapeGroup" transform="translate(1601.068179, 598.948020) rotate(-90.000000) translate(-1601.068179, -598.948020) "></path>
            <path d="M1484.1339,493.661713 L1647.03373,643.323754 L1703.85463,532.189659 L1484.1339,493.661713 Z" id="Shape" opacity="0.37" sketch:type="MSShapeGroup" transform="translate(1593.917522, 568.521526) rotate(-90.000000) translate(-1593.917522, -568.521526) "></path>
            <path d="M1614.82147,404.806194 L1558.00057,515.940289 L1668.37017,487.42217 L1614.82147,404.806194 Z" id="Shape" opacity="0.27" sketch:type="MSShapeGroup" transform="translate(1613.102691, 460.320213) rotate(-90.000000) translate(-1613.102691, -460.320213) "></path>
            <path d="M1570.19875,388.788618 L1623.74745,471.404594 L1627.32036,409.232612 L1570.19875,388.788618 Z" id="Shape" opacity="0.17" sketch:type="MSShapeGroup" transform="translate(1598.801377, 430.003572) rotate(-90.000000) translate(-1598.801377, -430.003572) "></path>
            <path d="M1520.52698,345.003415 L1516.95406,407.175396 L1638.34176,281.416564 L1520.52698,345.003415 Z" id="Shape" opacity="0.37" sketch:type="MSShapeGroup" transform="translate(1577.524333, 344.500676) rotate(-90.000000) translate(-1577.524333, -344.500676) "></path>
            <path d="M1675.35692,241.883854 L1553.96923,367.642686 L1677.63705,444.896882 L1675.35692,241.883854 Z" id="Shape" opacity="0.219999999" sketch:type="MSShapeGroup" transform="translate(1615.801380, 343.238994) rotate(-90.000000) translate(-1615.801380, -343.238994) "></path>
            <path d="M1547.65982,114.206834 L1549.93995,317.219863 L1683.83119,249.863389 L1547.65982,114.206834 Z" id="Shape" opacity="0.15" sketch:type="MSShapeGroup" transform="translate(1615.801380, 215.561975) rotate(-90.000000) translate(-1615.801380, -215.561975) "></path>
            <path d="M1510.22403,144.066647 L1646.3954,279.723202 L1654.22719,214.822798 L1510.22403,144.066647 Z" id="Shape" opacity="0.33" sketch:type="MSShapeGroup" transform="translate(1582.151229, 211.776928) rotate(-90.000000) translate(-1582.151229, -211.776928) "></path>
            <path d="M1568.26275,61.277554 L1560.43095,126.177958 L1671.69989,57.9634225 L1568.26275,61.277554 Z" id="Shape" opacity="0.31" sketch:type="MSShapeGroup" transform="translate(1615.953704, 92.028843) rotate(-90.000000) translate(-1615.953704, -92.028843) "></path>
            <path d="M1701.5644,18.851273 L1590.29546,87.0658083 L1710.31636,155.908717 L1701.5644,18.851273 Z" id="Shape" opacity="0.15" sketch:type="MSShapeGroup" transform="translate(1650.445110, 87.402675) rotate(-90.000000) translate(-1650.445110, -87.402675) "></path>
            <path d="M1698.65228,1170.5537 L1729.82573,1283.3184 L1859.35884,1212.63237 L1698.65228,1170.5537 Z" id="Shape" opacity="0.27" sketch:type="MSShapeGroup" transform="translate(1778.992019, 1226.908842) rotate(-90.000000) translate(-1778.992019, -1226.908842) "></path>
            <path d="M1611.37634,1205.66638 L1772.0829,1247.74506 L1824.36288,1153.73127 L1611.37634,1205.66638 Z" id="Shape" opacity="0.37" sketch:type="MSShapeGroup" transform="translate(1717.794946, 1200.834076) rotate(-90.000000) translate(-1717.794946, -1200.834076) "></path>
            <path d="M1729.27412,1003.14345 L1676.99414,1097.15723 L1814.25705,1152.49162 L1729.27412,1003.14345 Z" id="Shape" opacity="0.35" sketch:type="MSShapeGroup" transform="translate(1745.556321, 1078.003260) rotate(-90.000000) translate(-1745.556321, -1078.003260) "></path>
            <path d="M1658.66075,978.454523 L1743.64368,1127.80269 L1786.92995,932.787569 L1658.66075,978.454523 Z" id="Shape" opacity="0.29" sketch:type="MSShapeGroup" transform="translate(1722.596038, 1030.357663) rotate(-90.000000) translate(-1722.596038, -1030.357663) "></path>
            <path d="M1708.25643,854.126419 L1664.97015,1049.14154 L1780.33375,1034.77452 L1708.25643,854.126419 Z" id="Shape" opacity="0.07" sketch:type="MSShapeGroup" transform="translate(1722.596038, 951.696513) rotate(-90.000000) translate(-1722.596038, -951.696513) "></path>
            <path d="M1672.54144,832.716108 L1744.61876,1013.36421 L1758.3193,853.803181 L1672.54144,832.716108 Z" id="Shape" opacity="0.21" sketch:type="MSShapeGroup" transform="translate(1715.445380, 923.136669) rotate(-90.000000) translate(-1715.445380, -923.136669) "></path>
            <path d="M1685.45977,759.809002 L1671.75923,919.370029 L1780.01699,863.922503 L1685.45977,759.809002 Z" id="Shape" opacity="0.39" sketch:type="MSShapeGroup" transform="translate(1726.020097, 839.715544) rotate(-90.000000) translate(-1726.020097, -839.715544) "></path>
            <path d="M1621.70463,751.577901 L1716.26185,855.691403 L1774.72049,757.074631 L1621.70463,751.577901 Z" id="Shape" opacity="0.07" sketch:type="MSShapeGroup" transform="translate(1698.258722, 803.727434) rotate(-90.000000) translate(-1698.258722, -803.727434) "></path>
            <path d="M1707.53346,684.792561 L1649.07482,783.409333 L1752.59919,716.55041 L1707.53346,684.792561 Z" id="Shape" opacity="0.21" sketch:type="MSShapeGroup" transform="translate(1700.811928, 733.998168) rotate(-90.000000) translate(-1700.811928, -733.998168) "></path>
            <path d="M1799.08398,645.680411 L1695.55961,712.539334 L1823.05798,798.043161 L1799.08398,645.680411 Z" id="Shape" opacity="0.13" sketch:type="MSShapeGroup" transform="translate(1759.494893, 721.801907) rotate(-90.000000) translate(-1759.494893, -721.801907) "></path>
            <path d="M1674.94889,521.564843 L1698.92289,673.927592 L1844.14985,623.359198 L1674.94889,521.564843 Z" id="Shape" opacity="0.15" sketch:type="MSShapeGroup" transform="translate(1759.494893, 597.686338) rotate(-90.000000) translate(-1759.494893, -597.686338) "></path>
            <path d="M1642.23202,554.276563 L1811.43298,656.070919 L1809.06363,539.648955 L1642.23202,554.276563 Z" id="Shape" opacity="0.25" sketch:type="MSShapeGroup" transform="translate(1726.778028, 597.686338) rotate(-90.000000) translate(-1726.778028, -597.686338) "></path>
            <path d="M1657.45461,416.501884 L1659.82396,532.923848 L1767.82422,387.983764 L1657.45461,416.501884 Z" id="Shape" opacity="0.17" sketch:type="MSShapeGroup" transform="translate(1712.556737, 460.320213) rotate(-90.000000) translate(-1712.556737, -460.320213) "></path>
            <path d="M1736.01099,356.17554 L1628.01073,501.115623 L1797.5113,483.89563 L1736.01099,356.17554 Z" id="Shape" opacity="0.21" sketch:type="MSShapeGroup" transform="translate(1712.556737, 428.511988) rotate(-90.000000) translate(-1712.556737, -428.511988) "></path>
            <path d="M1642.31205,279.31376 L1703.81236,407.03385 L1765.97987,356.567957 L1642.31205,279.31376 Z" id="Shape" opacity="0.37" sketch:type="MSShapeGroup" transform="translate(1704.144199, 343.238994) rotate(-90.000000) translate(-1704.144199, -343.238994) "></path>
            <path d="M1785.95217,252.309099 L1723.78466,302.774992 L1808.59672,349.703012 L1785.95217,252.309099 Z" id="Shape" opacity="0.39" sketch:type="MSShapeGroup" transform="translate(1766.267978, 301.094145) rotate(-90.000000) translate(-1766.267978, -301.094145) "></path>
            <path d="M1716.634,168.702765 L1739.27855,266.096678 L1829.9815,280.567755 L1716.634,168.702765 Z" id="Shape" opacity="0.27" sketch:type="MSShapeGroup" transform="translate(1773.418635, 224.637344) rotate(-90.000000) translate(-1773.418635, -224.637344) "></path>
            <path d="M1672.82204,192.320921 L1786.16954,304.185911 L1806.71328,124.964447 L1672.82204,192.320921 Z" id="Shape" opacity="0.19" sketch:type="MSShapeGroup" transform="translate(1739.701719, 214.543886) rotate(-90.000000) translate(-1739.701719, -214.543886) "></path>
            <path d="M1690.00077,8.27029226 L1669.45703,187.491757 L1810.02167,77.1132013 L1690.00077,8.27029226 Z" id="Shape" opacity="0.23" sketch:type="MSShapeGroup" transform="translate(1739.701719, 97.849732) rotate(-90.000000) translate(-1739.701719, -97.849732) "></path>
            <path d="M1881.39917,5.74692777 L1740.83453,116.125483 L1827.76116,190.007135 L1881.39917,5.74692777 Z" id="Shape" opacity="0.25" sketch:type="MSShapeGroup" transform="translate(1811.079217, 97.849732) rotate(-90.000000) translate(-1811.079217, -97.849732) "></path>
            <path d="M1808.35321,-67.2875362 L1754.71521,116.972671 L1867.76355,41.2055036 L1808.35321,-67.2875362 Z" id="Shape" opacity="0.29" sketch:type="MSShapeGroup" transform="translate(1811.079217, 24.815268) rotate(-90.000000) translate(-1811.079217, -24.815268) "></path>
            <path d="M1758.82453,1223.10857 L1797.34387,1270.59035 L1888.35764,1152.42254 L1758.82453,1223.10857 Z" id="Shape" opacity="0.13" sketch:type="MSShapeGroup" transform="translate(1823.601071, 1211.301047) rotate(-90.000000) translate(-1823.601071, -1211.301047) "></path>
            <path d="M1901.15478,1101.29244 L1810.14101,1219.46024 L1900.72724,1282.81648 L1901.15478,1101.29244 Z" id="Shape" opacity="0.17" sketch:type="MSShapeGroup" transform="translate(1855.568715, 1192.133557) rotate(-90.000000) translate(-1855.568715, -1192.133557) "></path>
            <path d="M1813.09231,1013.24381 L1812.66477,1194.76786 L1898.4387,1161.82245 L1813.09231,1013.24381 Z" id="Shape" opacity="0.33" sketch:type="MSShapeGroup" transform="translate(1855.568715, 1104.084936) rotate(-90.000000) translate(-1855.568715, -1104.084936) "></path>
            <path d="M1770.60208,1003.56401 L1855.94847,1152.14264 L1907.86499,1058.89839 L1770.60208,1003.56401 Z" id="Shape" opacity="0.15" sketch:type="MSShapeGroup" transform="translate(1839.164266, 1078.003260) rotate(-90.000000) translate(-1839.164266, -1078.003260) "></path>
            <path d="M1833.69587,916.128234 L1781.77935,1009.37248 L1965.24095,1023.24778 L1833.69587,916.128234 Z" id="Shape" opacity="0.17" sketch:type="MSShapeGroup" transform="translate(1873.476009, 969.539449) rotate(-90.000000) translate(-1873.476009, -969.539449) "></path>
            <path d="M1800.63959,897.512133 L1932.18468,1004.63168 L1916.00318,883.145111 L1800.63959,897.512133 Z" id="Shape" opacity="0.13" sketch:type="MSShapeGroup" transform="translate(1866.257383, 943.705858) rotate(-90.000000) translate(-1866.257383, -943.705858) "></path>
            <path d="M1784.30164,806.845312 L1800.48313,928.331878 L1892.55941,751.397787 L1784.30164,806.845312 Z" id="Shape" opacity="0.11" sketch:type="MSShapeGroup" transform="translate(1838.562512, 839.715544) rotate(-90.000000) translate(-1838.562512, -839.715544) "></path>
            <path d="M1828.84708,687.695476 L1736.7708,864.629567 L1940.17349,816.06852 L1828.84708,687.695476 Z" id="Shape" opacity="0.23" sketch:type="MSShapeGroup" transform="translate(1838.562512, 776.013233) rotate(-90.000000) translate(-1838.562512, -776.013233) "></path>
            <path d="M1750.65149,657.456112 L1861.9779,785.829156 L1878.14987,742.959939 L1750.65149,657.456112 Z" id="Shape" opacity="0.19" sketch:type="MSShapeGroup" transform="translate(1814.586779, 721.801907) rotate(-90.000000) translate(-1814.586779, -721.801907) "></path>
            <path d="M1842.24569,546.147208 L1826.07372,589.016425 L1963.97951,664.879056 L1842.24569,546.147208 Z" id="Shape" opacity="0.05" sketch:type="MSShapeGroup" transform="translate(1895.056532, 605.446274) rotate(-90.000000) translate(-1895.056532, -605.446274) "></path>
            <path d="M1796.94934,551.527489 L1918.68317,670.259336 L1942.1763,500.959094 L1796.94934,551.527489 Z" id="Shape" opacity="0.33" sketch:type="MSShapeGroup" transform="translate(1869.717797, 585.491805) rotate(-90.000000) translate(-1869.717797, -585.491805) "></path>
            <path d="M1827.1725,385.973387 L1803.67937,555.273628 L1935.8097,518.246467 L1827.1725,385.973387 Z" id="Shape" opacity="0.37" sketch:type="MSShapeGroup" transform="translate(1869.717797, 470.506097) rotate(-90.000000) translate(-1869.717797, -470.506097) "></path>
            <path d="M1758.27467,370.872169 L1866.91187,503.145249 L1927.77524,353.652175 L1758.27467,370.872169 Z" id="Shape" opacity="0.27" sketch:type="MSShapeGroup" transform="translate(1842.820677, 428.511988) rotate(-90.000000) translate(-1842.820677, -428.511988) "></path>
            <path d="M1850.26443,276.153555 L1789.40106,425.64663 L1896.62864,411.003118 L1850.26443,276.153555 Z" id="Shape" opacity="0.07" sketch:type="MSShapeGroup" transform="translate(1842.820677, 351.013368) rotate(-90.000000) translate(-1842.820677, -351.013368) "></path>
            <path d="M1792.76608,233.804426 L1839.13029,368.653988 L1877.57813,280.732445 L1792.76608,233.804426 Z" id="Shape" opacity="0.21" sketch:type="MSShapeGroup" transform="translate(1835.249393, 301.094145) rotate(-90.000000) translate(-1835.249393, -301.094145) "></path>
            <path d="M1832.72162,188.288629 L1794.27377,276.210172 L1923.42457,202.759707 L1832.72162,188.288629 Z" id="Shape" opacity="0.15" sketch:type="MSShapeGroup" transform="translate(1859.050314, 232.447508) rotate(-90.000000) translate(-1859.050314, -232.447508) "></path>
            <path d="M1887.4227,152.120405 L1758.2719,225.570871 L1974.34933,226.002057 L1887.4227,152.120405 Z" id="Shape" opacity="0.15" sketch:type="MSShapeGroup" transform="translate(1866.373010, 189.129751) rotate(-90.000000) translate(-1866.373010, -189.129751) "></path>
            <path d="M1945.02837,-36.3207285 L1831.98004,39.446439 L1929.41758,85.306067 L1945.02837,-36.3207285 Z" id="Shape" opacity="0.21" sketch:type="MSShapeGroup" transform="translate(1888.480035, 24.679272) rotate(-90.000000) translate(-1888.480035, -24.679272) "></path>
            <path d="M1824.36323,777.050916 L1958.8569,823.132031 L2027.76592,728.489869 L1824.36323,777.050916 Z" id="Shape" opacity="0.19" sketch:type="MSShapeGroup" transform="translate(1926.154938, 776.013233) rotate(-90.000000) translate(-1926.154938, -776.013233) "></path>
            <path d="M1822.68072,686.977267 L2029.49553,668.197735 L1891.58974,592.335105 L1822.68072,686.977267 Z" id="Shape" opacity="0.23" sketch:type="MSShapeGroup" transform="translate(1926.154938, 639.858469) rotate(-90.000000) translate(-1926.154938, -639.858469) "></path>
            <path d="M991.200012,968.700012 L1083.29744,1065.26136 L961.200012,1154.19995 L991.200012,968.700012 Z" id="Shape" opacity="0.35" sketch:type="MSShapeGroup"></path>
            <path d="M970.5,906.099976 L1089.45898,914.652344 L991.200012,968.599976 L970.5,906.099976 Z" id="Shape" opacity="0.19" sketch:type="MSShapeGroup"></path>
            <path d="M1089.80005,914.5 L1170.69995,867.238281 L1177.5,969.200012 L1089.80005,914.5 Z" id="Shape" opacity="0.21" sketch:type="MSShapeGroup"></path>
            <path d="M991.299988,968.599976 L1089.85938,914.649414 L1177.59998,969.299988 L991.299988,968.599976 Z" id="Shape" opacity="0.31" sketch:type="MSShapeGroup"></path>
            <path d="M1083.30005,1065.30005 L991.099976,968.599976 L1177.59033,969.341797 L1083.30005,1065.30005 Z" id="Shape" opacity="0.25" sketch:type="MSShapeGroup"></path>
            <path d="M1083.30005,1065.30005 L1200.30078,1187.92676 L961.200012,1154.19995 L1083.30005,1065.30005 Z" id="Shape" opacity="0.25" sketch:type="MSShapeGroup"></path>
            <path d="M1083.30005,1065.30005 L1177.5,969.5 L1199.94629,1187.71875 L1083.30005,1065.30005 Z" id="Shape" opacity="0.21" sketch:type="MSShapeGroup"></path>
            <path d="M961.400024,1154.19995 L1032.25195,1445.83398 L1199.91406,1187.85156 L961.400024,1154.19995 Z" id="Shape" opacity="0.15" sketch:type="MSShapeGroup"></path>
            <path d="M982.900024,732.400024 L970.299988,906 L1089.90002,914.599976 L982.900024,732.400024 Z" id="Shape" opacity="0.13" sketch:type="MSShapeGroup"></path>
            <path d="M982.799988,732.400024 L1180.61816,761.794922 L1170.79688,866.833984 L982.799988,732.400024 Z" id="Shape" opacity="0.19" sketch:type="MSShapeGroup"></path>
            <path d="M983.161133,732.837891 L1089.90002,914.299988 L1170.97363,866.995117 L983.161133,732.837891 Z" id="Shape" opacity="0.25" sketch:type="MSShapeGroup"></path>
            <path d="M983.012695,732.47168 L1149.80005,597.599976 L1180.69995,761.700012 L983.012695,732.47168 Z" id="Shape" opacity="0.37" sketch:type="MSShapeGroup"></path>
            <path d="M983.799988,629.724609 L983.050781,732.013672 L1150.04395,597.308594 L983.799988,629.724609 Z" id="Shape" opacity="0.25" sketch:type="MSShapeGroup"></path>
            <path d="M981.200012,469 L1127.45508,526.345703 L983.799988,629.369141 L981.200012,469 Z" id="Shape" opacity="0.19" sketch:type="MSShapeGroup"></path>
            <path d="M1127.80005,526.400024 L1179.69995,410.066406 L1149.90002,597.200012 L1127.80005,526.400024 Z" id="Shape" opacity="0.25" sketch:type="MSShapeGroup"></path>
            <path d="M984.140625,629.367188 L1127.51465,526.412109 L1149.69922,597.091797 L984.140625,629.367188 Z" id="Shape" opacity="0.07" sketch:type="MSShapeGroup"></path>
            <path d="M983.700012,629.599976 L1127.69995,526.099976 L1149.90002,597.5 L983.700012,629.599976 Z" id="Shape" opacity="0.27" sketch:type="MSShapeGroup"></path>
            <path d="M981.200012,469 L1179.80005,409.751953 L1127.69995,526.299988 L981.200012,469 Z" id="Shape" opacity="0.23" sketch:type="MSShapeGroup"></path>
            <path d="M1018,337.100006 L1179.68262,409.80957 L981.099976,468.973633 L1018,337.100006 Z" id="Shape" opacity="0.31" sketch:type="MSShapeGroup"></path>
            <path d="M956.099976,124.748047 L994.268555,-23.1503906 L1163.7207,108.394531 L956.099976,124.748047 Z" id="Shape" opacity="0.19" sketch:type="MSShapeGroup"></path>
            <path d="M1163.59998,108.199997 L1141.9502,-32.5615234 L1001.80176,-17.2802734 L1163.59998,108.199997 Z" id="Shape" opacity="0.27" sketch:type="MSShapeGroup"></path>
            <path d="M1017.90002,336.899994 L1166.30005,238.598633 L1179.40002,409.799988 L1017.90002,336.899994 Z" id="Shape" opacity="0.21" sketch:type="MSShapeGroup"></path>
            <path d="M983.754395,262.693848 L1017.90002,336.799988 L1166.37549,238.507812 L983.754395,262.693848 Z" id="Shape" opacity="0.23" sketch:type="MSShapeGroup"></path>
            <path d="M956.299988,125.021484 L1003.83594,185.305664 L983.799988,262.700012 L956.299988,125.021484 Z" id="Shape" opacity="0.19" sketch:type="MSShapeGroup"></path>
            <path d="M956.200012,124.800003 L1163.57129,108.487305 L1003.87598,185.399994 L956.200012,124.800003 Z" id="Shape" opacity="0.29" sketch:type="MSShapeGroup"></path>
            <path d="M983.956055,262.525391 L1003.9541,185.302734 L1166.30005,238.5 L983.956055,262.525391 Z" id="Shape" opacity="0.29" sketch:type="MSShapeGroup"></path>
            <path d="M1004,185.350586 L1163.5127,108.688477 L1166.30005,238.5 L1004,185.350586 Z" id="Shape" opacity="0.13" sketch:type="MSShapeGroup"></path>
            <path d="M20.265625,1098.56445 L21.3789062,1303.19141 L-45.0351562,1136.49609 L-82.3535156,784.523438 L20.265625,1098.56445 Z" id="Shape" opacity="0.23" sketch:type="MSShapeGroup"></path>
            <path d="M24.6999969,471.099976 L-21.5429688,753.208984 L-71.0058594,358 L24.6999969,471.099976 Z" id="Shape" opacity="0.07" sketch:type="MSShapeGroup"></path>
        </g>
    </g>
</svg>