<?xml version="1.0" encoding="UTF-8" standalone="no"?>
<svg width="300px" height="200px" viewBox="0 0 300 200" version="1.1" xmlns="http://www.w3.org/2000/svg" xmlns:xlink="http://www.w3.org/1999/xlink" xmlns:sketch="http://www.bohemiancoding.com/sketch/ns">
    <!-- Generator: Sketch 3.0.4 (8053) - http://www.bohemiancoding.com/sketch -->
    <title>my-hotel</title>
    <desc>Created with Sketch.</desc>
    <defs></defs>
    <g id="Logo-page" stroke="none" stroke-width="1" fill="none" fill-rule="evenodd" sketch:type="MSPage">
        <g id="logos" sketch:type="MSArtboardGroup" transform="translate(-963.000000, -624.000000)">
            <path d="M1142.14286,713.307692 C1142.14286,703.578692 1129.74136,695.667026 1114.21429,695.269333 L1114.21429,690.410256 L1119.07143,690.410256 C1119.74293,690.410256 1120.28571,689.871564 1120.28571,689.205128 C1120.28571,688.538692 1119.74293,688 1119.07143,688 L1106.92857,688 C1106.25707,688 1105.71429,688.538692 1105.71429,689.205128 C1105.71429,689.871564 1106.25707,690.410256 1106.92857,690.410256 L1111.78571,690.410256 L1111.78571,695.269333 C1096.25864,695.667026 1083.85714,703.578692 1083.85714,713.307692 L1083.85714,721.74359 L1142.14286,721.74359 L1142.14286,713.307692 L1142.14286,713.307692 Z M1145.78571,731.384615 L1144.57143,731.384615 C1144.57143,731.384615 1142.14286,731.384615 1142.14286,728.974359 L1142.14286,724.153846 L1083.85714,724.153846 L1083.85714,728.974359 C1083.85714,731.384615 1081.42857,731.384615 1081.42857,731.384615 L1080.21429,731.384615 C1079.54279,731.384615 1079,731.924513 1079,732.589744 C1079,733.256179 1079.54279,733.794872 1080.21429,733.794872 L1145.78571,733.794872 C1146.45721,733.794872 1147,733.256179 1147,732.589744 C1147,731.924513 1146.45721,731.384615 1145.78571,731.384615 L1145.78571,731.384615 Z" id="Imported-Layers" fill="#FFFFFE" sketch:type="MSShapeGroup"></path>
            <path d="M1068.116,775.584 L1068.144,775.584 L1074.78,759.176 L1077.86,759.176 L1077.86,779 L1075.844,779 L1075.844,761.78 L1075.788,761.78 L1068.62,779 L1067.556,779 L1060.388,761.78 L1060.332,761.78 L1060.332,779 L1058.316,779 L1058.316,759.176 L1061.396,759.176 L1068.116,775.584 Z M1087.52,776.956 L1087.576,776.956 L1091.636,765.896 L1093.708,765.896 L1087.184,782.388 C1086.792,783.396005 1086.29267,784.20333 1085.686,784.81 C1085.07933,785.41667 1084.20667,785.72 1083.068,785.72 C1082.48933,785.72 1081.92,785.664001 1081.36,785.552 L1081.556,783.816 C1082.004,783.965334 1082.47066,784.04 1082.956,784.04 C1083.60934,784.04 1084.12266,783.839335 1084.496,783.438 C1084.86934,783.036665 1085.196,782.46267 1085.476,781.716 L1086.54,778.972 L1080.94,765.896 L1083.068,765.896 L1087.52,776.956 Z M1103.788,759.176 L1105.804,759.176 L1105.804,767.772 L1116.612,767.772 L1116.612,759.176 L1118.628,759.176 L1118.628,779 L1116.612,779 L1116.612,769.62 L1105.804,769.62 L1105.804,779 L1103.788,779 L1103.788,759.176 Z M1136.8,772.448 C1136.8,773.437338 1136.62734,774.351996 1136.282,775.192 C1135.93666,776.032004 1135.456,776.759997 1134.84,777.376 C1134.224,777.992003 1133.48667,778.472665 1132.628,778.818 C1131.76933,779.163335 1130.82667,779.336 1129.8,779.336 C1128.79199,779.336 1127.85867,779.163335 1127,778.818 C1126.14133,778.472665 1125.404,777.992003 1124.788,777.376 C1124.172,776.759997 1123.69134,776.032004 1123.346,775.192 C1123.00066,774.351996 1122.828,773.437338 1122.828,772.448 C1122.828,771.458662 1123.00066,770.544004 1123.346,769.704 C1123.69134,768.863996 1124.172,768.136003 1124.788,767.52 C1125.404,766.903997 1126.14133,766.423335 1127,766.078 C1127.85867,765.732665 1128.79199,765.56 1129.8,765.56 C1130.82667,765.56 1131.76933,765.732665 1132.628,766.078 C1133.48667,766.423335 1134.224,766.903997 1134.84,767.52 C1135.456,768.136003 1135.93666,768.863996 1136.282,769.704 C1136.62734,770.544004 1136.8,771.458662 1136.8,772.448 Z M1134.784,772.448 C1134.784,771.719996 1134.66733,771.034003 1134.434,770.39 C1134.20067,769.745997 1133.86934,769.186002 1133.44,768.71 C1133.01066,768.233998 1132.488,767.856001 1131.872,767.576 C1131.256,767.295999 1130.56534,767.156 1129.8,767.156 C1129.03466,767.156 1128.34867,767.295999 1127.742,767.576 C1127.13533,767.856001 1126.61734,768.233998 1126.188,768.71 C1125.75866,769.186002 1125.42733,769.745997 1125.194,770.39 C1124.96067,771.034003 1124.844,771.719996 1124.844,772.448 C1124.844,773.176004 1124.96067,773.861997 1125.194,774.506 C1125.42733,775.150003 1125.75866,775.709998 1126.188,776.186 C1126.61734,776.662002 1127.13533,777.035332 1127.742,777.306 C1128.34867,777.576668 1129.03466,777.712 1129.8,777.712 C1130.56534,777.712 1131.256,777.576668 1131.872,777.306 C1132.488,777.035332 1133.01066,776.662002 1133.44,776.186 C1133.86934,775.709998 1134.20067,775.150003 1134.434,774.506 C1134.66733,773.861997 1134.784,773.176004 1134.784,772.448 Z M1146.796,767.492 L1143.1,767.492 L1143.1,775.136 C1143.1,775.621336 1143.14667,776.022665 1143.24,776.34 C1143.33333,776.657335 1143.46867,776.904666 1143.646,777.082 C1143.82333,777.259334 1144.03333,777.380666 1144.276,777.446 C1144.51867,777.511334 1144.78,777.544 1145.06,777.544 C1145.32133,777.544 1145.59667,777.506667 1145.886,777.432 C1146.17533,777.357333 1146.45067,777.254667 1146.712,777.124 L1146.796,778.776 C1146.46,778.906667 1146.11,779.004666 1145.746,779.07 C1145.382,779.135334 1144.98534,779.168 1144.556,779.168 C1144.20133,779.168 1143.828,779.121334 1143.436,779.028 C1143.044,778.934666 1142.68,778.757335 1142.344,778.496 C1142.008,778.234665 1141.73267,777.880002 1141.518,777.432 C1141.30333,776.983998 1141.196,776.396004 1141.196,775.668 L1141.196,767.492 L1138.48,767.492 L1138.48,765.896 L1141.196,765.896 L1141.196,762.2 L1143.1,762.2 L1143.1,765.896 L1146.796,765.896 L1146.796,767.492 Z M1161.692,772.056 L1161.692,772.476 C1161.692,772.625334 1161.68267,772.783999 1161.664,772.952 L1150.8,772.952 C1150.81867,773.605337 1150.94933,774.22133 1151.192,774.8 C1151.43467,775.37867 1151.77066,775.882665 1152.2,776.312 C1152.62934,776.741335 1153.13333,777.081999 1153.712,777.334 C1154.29067,777.586001 1154.916,777.712 1155.588,777.712 C1156.57734,777.712 1157.43133,777.483336 1158.15,777.026 C1158.86867,776.568664 1159.41466,776.041336 1159.788,775.444 L1161.216,776.564 C1160.432,777.553338 1159.56867,778.262665 1158.626,778.692 C1157.68333,779.121335 1156.67067,779.336 1155.588,779.336 C1154.61733,779.336 1153.71667,779.163335 1152.886,778.818 C1152.05533,778.472665 1151.34134,777.992003 1150.744,777.376 C1150.14666,776.759997 1149.67534,776.032004 1149.33,775.192 C1148.98466,774.351996 1148.812,773.437338 1148.812,772.448 C1148.812,771.458662 1148.98,770.544004 1149.316,769.704 C1149.652,768.863996 1150.11866,768.136003 1150.716,767.52 C1151.31334,766.903997 1152.01333,766.423335 1152.816,766.078 C1153.61867,765.732665 1154.48666,765.56 1155.42,765.56 C1156.44667,765.56 1157.352,765.732665 1158.136,766.078 C1158.92,766.423335 1159.57333,766.889997 1160.096,767.478 C1160.61867,768.066003 1161.01533,768.751996 1161.286,769.536 C1161.55667,770.320004 1161.692,771.159996 1161.692,772.056 Z M1159.76,771.44 C1159.704,770.207994 1159.30734,769.186004 1158.57,768.374 C1157.83266,767.561996 1156.78267,767.156 1155.42,767.156 C1154.78533,767.156 1154.19734,767.272666 1153.656,767.506 C1153.11466,767.739335 1152.63867,768.056665 1152.228,768.458 C1151.81733,768.859335 1151.49067,769.316664 1151.248,769.83 C1151.00533,770.343336 1150.86533,770.879997 1150.828,771.44 L1159.76,771.44 Z M1167.74,779 L1165.836,779 L1165.836,757.832 L1167.74,757.832 L1167.74,779 Z" id="My-Hotel" fill="#FFFFFF" sketch:type="MSShapeGroup"></path>
        </g>
    </g>
</svg>