<?xml version="1.0" encoding="UTF-8" standalone="no"?>
<svg width="302px" height="201px" viewBox="0 0 302 201" version="1.1" xmlns="http://www.w3.org/2000/svg" xmlns:xlink="http://www.w3.org/1999/xlink" xmlns:sketch="http://www.bohemiancoding.com/sketch/ns">
    <!-- Generator: Sketch 3.0.3 (7891) - http://www.bohemiancoding.com/sketch -->
    <title>nascar-illustrated</title>
    <desc>Created with Sketch.</desc>
    <defs></defs>
    <g id="Logo-page" stroke="none" stroke-width="1" fill="none" fill-rule="evenodd" sketch:type="MSPage">
        <g id="Artboard-1" sketch:type="MSArtboardGroup" transform="translate(-70.000000, -556.000000)">
            <g id="nascar-illustrated" sketch:type="MSLayerGroup" transform="translate(71.000000, 629.000000)">
                <path id="Stroke-1" stroke="#1A1918" sketch:type="MSShapeGroup" d="M28.6177874,21.8200296 L28.6125813,21.8200296"></path>
                <path d="M89.6645336,37.9089941 C89.6645336,37.2828402 90.1744035,36.7696154 90.8066161,36.7696154 C91.4329718,36.7696154 91.9460954,37.2828402 91.9460954,37.9089941 C91.9460954,38.5384024 91.4329718,39.0513018 90.8066161,39.0513018 C90.1744035,39.0513018 89.6645336,38.5384024 89.6645336,37.9089941 L89.6645336,37.9089941 Z M91.7310195,37.9089941 C91.7310195,37.3960947 91.3197397,36.9844083 90.8066161,36.9844083 C90.2908894,36.9844083 89.8792842,37.3960947 89.8792842,37.9089941 C89.8792842,38.4248225 90.2908894,38.8368343 90.8066161,38.8368343 C91.3197397,38.8368343 91.7310195,38.4248225 91.7310195,37.9089941 L91.7310195,37.9089941 Z M91.3734273,38.5296154 L91.0929501,38.5296154 L90.8186551,38.0105325 L90.576898,38.0105325 L90.576898,38.5296154 L90.3354664,38.5296154 L90.3354664,37.3004142 L90.9318872,37.3004142 C91.0363341,37.3004142 91.1733189,37.3036686 91.2660521,37.3570414 C91.3763557,37.4289645 91.4092191,37.5480769 91.4092191,37.6763018 C91.4092191,37.9031361 91.2927332,37.9955621 91.0750542,38.0105325 L91.3734273,38.5296154 L91.3734273,38.5296154 Z M90.9380694,37.825355 C91.0750542,37.828284 91.1707158,37.7957396 91.1707158,37.640503 C91.1707158,37.4764793 90.9946855,37.4764793 90.8752711,37.4764793 L90.576898,37.4764793 L90.576898,37.825355 L90.9380694,37.825355 L90.9380694,37.825355 Z" id="Fill-2" fill="#FFFFFF" sketch:type="MSShapeGroup"></path>
                <path d="M3.58015184,22.8334615 L-0.0654013015,39.3536391 L1.11247289,39.3536391 L4.75835141,22.8334615 L3.58015184,22.8334615" id="Fill-3" fill="#FFFFFF" sketch:type="MSShapeGroup"></path>
                <path d="M7.57744035,22.8334615 L3.93156182,39.3536391 L5.3983731,39.3536391 L9.04392625,22.8334615 L7.57744035,22.8334615" id="Fill-4" fill="#FFFFFF" sketch:type="MSShapeGroup"></path>
                <path d="M11.5021692,22.8334615 L7.85629067,39.3536391 L9.61203905,39.3536391 L13.2579176,22.8334615 L11.5021692,22.8334615" id="Fill-5" fill="#FFFFFF" sketch:type="MSShapeGroup"></path>
                <path d="M15.4747289,22.8334615 L11.8291757,39.3536391 L14.3313449,39.3536391 L17.976898,22.8334615 L15.4747289,22.8334615" id="Fill-6" fill="#FFFFFF" sketch:type="MSShapeGroup"></path>
                <path d="M19.3513015,22.8334615 L15.7057484,39.3536391 L18.7135575,39.3536391 L22.3591106,22.8334615 L19.3513015,22.8334615" id="Fill-7" fill="#FFFFFF" sketch:type="MSShapeGroup"></path>
                <path d="M23.3723427,22.8334615 L19.7267896,39.3536391 L22.8790672,39.3536391 L26.5246204,22.8334615 L23.3723427,22.8334615" id="Fill-8" fill="#FFFFFF" sketch:type="MSShapeGroup"></path>
                <path d="M44.237961,33.3810947 L44.4549892,28.2517751 L42.2876356,33.3810947 L44.237961,33.3810947" id="Fill-9" fill="#FFFFFF" sketch:type="MSShapeGroup"></path>
                <path d="M72.794577,33.3810947 L73.0112798,28.2517751 L70.844577,33.3810947 L72.794577,33.3810947" id="Fill-10" fill="#FFFFFF" sketch:type="MSShapeGroup"></path>
                <path d="M62.3287419,22.8334615 L27.417462,22.8334615 L23.7719089,39.3536391 L58.6828633,39.3536391 L88.2344902,39.3516864 L92.0170282,22.8334615 L62.3287419,22.8334615 L62.3287419,22.8334615 Z M44.0121475,39.0457692 L44.1722343,36.2622485 L40.9893709,36.2645266 L39.7308026,39.0454438 L33.3888286,39.0330769 L32.709436,29.8200888 L30.4848156,39.0457692 L27.9182213,39.0311243 L31.5767896,23.1423077 L35.189154,23.1429586 L35.8548807,32.227071 L37.9438178,23.1481657 L40.8035792,23.1416568 L37.4821041,37.3612722 L43.5468547,23.152071 L47.7673536,23.1527219 L46.9109544,39.038284 L44.0121475,39.0457692 L44.0121475,39.0457692 Z M53.9612798,39.0399112 L48.9527115,39.0496746 L47.3863341,36.8395858 L47.79859,34.6086686 L50.5965293,34.6233136 L50.3863341,35.9625148 L53.786551,35.9517751 L54.623102,32.6423373 L50.2997831,32.617929 L48.8482646,30.4514497 L50.0710412,25.4109763 L52.5588937,23.1559763 L57.7304772,23.1429586 C57.7304772,23.1429586 58.7049892,24.6894675 59.1637744,25.3084615 L58.5966377,27.615858 L55.7557484,27.6018639 L55.9841649,26.2968343 L52.7629067,26.3124556 L51.935141,29.584142 L55.9034707,29.5672189 L57.6810195,31.5804142 L56.3619306,36.9681361 L53.9612798,39.0399112 L53.9612798,39.0399112 Z M58.3675705,39.0506509 L56.9440347,36.9671598 L59.7409978,25.427574 L62.2766811,23.1390533 L66.9195228,23.1468639 L68.716269,25.632929 L67.8885033,28.9420414 L65.0759219,28.964497 L65.6147505,26.3807988 L62.2880694,26.3674556 L60.1187636,36.0985503 L63.3595445,36.1066864 L64.2074837,32.5238757 L67.0779826,32.5202959 L65.8942516,37.0970118 L63.539154,39.0464201 L58.3675705,39.0506509 L58.3675705,39.0506509 Z M86.3723427,30.3961243 L85.0164859,31.6598225 L85.8097614,33.060858 L84.4356833,39.05 L81.6240781,39.0483728 L82.8387202,33.558787 L79.4277657,33.5591124 L78.2368764,39.0477219 L72.583731,39.0405621 L72.724295,36.1031065 L69.6816703,36.0998521 L68.3502169,39.0447929 L65.4803688,39.0623669 L72.1539046,23.152071 L76.3197397,23.1377515 L75.7796095,36.8089941 L79.040564,23.1387278 L85.9513015,23.1494675 L87.5947939,25.4321302 L86.3723427,30.3961243 L86.3723427,30.3961243 Z" id="Fill-11" fill="#FFFFFF" sketch:type="MSShapeGroup"></path>
                <path d="M80.3388286,30.3808284 L83.4442516,30.3782249 L84.4161605,26.2424852 L81.3491323,26.2444379 L80.3388286,30.3808284" id="Fill-12" fill="#FFFFFF" sketch:type="MSShapeGroup"></path>
                <path d="M216.757809,39.4974852 L220.699458,23.7268047 L227.348265,23.7268047 L229.52538,15.0156509 L222.876898,15.0156509 L225.448698,4.72707101 L213.187419,4.72707101 L210.615944,15.0156509 L206.730586,15.0156509 L204.55282,23.7268047 L208.438503,23.7268047 L202.581996,47.1571302 C201.568113,51.2124852 203.175163,53.7659172 207.751302,53.7659172 L219.839805,53.7659172 L222.204989,44.3036391 L218.83731,44.3036391 C216.074187,44.3036391 215.706508,43.7028698 216.757809,39.4974852" id="Fill-13" fill="#FFFFFF" sketch:type="MSShapeGroup"></path>
                <path d="M20.2399132,12.4654734 C23.6319957,12.4316272 26.8213666,9.6539645 27.3640998,6.26121302 C27.906833,2.86878698 25.5972885,0.14612426 22.2052061,0.179970414 C18.8131236,0.213816568 15.6237527,2.99147929 15.0810195,6.38423077 C14.5382863,9.7766568 16.8481562,12.4993195 20.2399132,12.4654734" id="Fill-14" fill="#FFFFFF" sketch:type="MSShapeGroup"></path>
                <path d="M25.8709328,15.0156509 L13.6099783,15.0156509 L11.9124729,21.8184024 L24.1548807,21.8184024 L25.8709328,15.0156509" id="Fill-15" fill="#FFFFFF" sketch:type="MSShapeGroup"></path>
                <path d="M46.2911063,0.146449704 L34.0301518,0.146449704 L28.6125813,21.8200296 L40.891757,21.8184024 L46.2911063,0.146449704" id="Fill-16" fill="#FFFFFF" sketch:type="MSShapeGroup"></path>
                <path d="M57.567462,21.8184024 L62.9944685,0.146449704 L50.7335141,0.146449704 L45.3149675,21.8252367 L57.567462,21.8184024" id="Fill-17" fill="#FFFFFF" sketch:type="MSShapeGroup"></path>
                <path d="M3.92440347,53.7659172 L16.1853579,53.7659172 L19.5533623,40.2922189 L7.3164859,40.2873373 L3.92440347,53.7659172" id="Fill-18" fill="#FFFFFF" sketch:type="MSShapeGroup"></path>
                <path d="M20.6277657,53.7659172 L32.8890456,53.7659172 L36.2550976,40.3078402 L23.9720174,40.2873373 L20.6277657,53.7659172" id="Fill-19" fill="#FFFFFF" sketch:type="MSShapeGroup"></path>
                <path d="M37.331128,53.7659172 L49.5924078,53.7659172 L52.9519523,40.2971006 L40.708243,40.3010059 L37.331128,53.7659172" id="Fill-20" fill="#FFFFFF" sketch:type="MSShapeGroup"></path>
                <path d="M74.8942516,41.9005621 C74.0306941,45.3548225 72.8180043,46.4063314 70.6597614,46.4063314 C68.8464208,46.4063314 68.1592191,45.3548225 68.8350325,42.6516864 L69.5453362,40.3078402 L57.1809111,40.3078402 L55.860846,45.5051775 C54.2277657,52.0384615 57.4187636,54.8171006 62.7722343,54.8171006 C67.1755965,54.8171006 71.2864425,52.1888166 73.4001085,49.2598225 L73.572885,49.2598225 L72.4464208,53.7659172 L84.1896963,53.7659172 L87.6039046,40.2873373 L75.2801518,40.2873373 L74.8942516,41.9005621" id="Fill-21" fill="#FFFFFF" sketch:type="MSShapeGroup"></path>
                <path d="M93.8547722,15.0156509 L81.5938178,15.0156509 L79.8966377,21.8590828 L92.179718,21.8590828 L93.8547722,15.0156509" id="Fill-22" fill="#FFFFFF" sketch:type="MSShapeGroup"></path>
                <path d="M73.9991323,21.8385799 L75.7223427,15.0358284 L63.4613883,15.0358284 L61.7567245,21.8385799 L73.9991323,21.8385799" id="Fill-23" fill="#FFFFFF" sketch:type="MSShapeGroup"></path>
                <path d="M105.947831,24.7031361 C106.304447,23.2763905 107.479718,22.3752367 109.379284,22.3752367 C111.019848,22.3752367 112.157375,23.3512426 111.763015,24.9286686 L111.16269,27.3314201 L122.38731,27.3314201 L123.288286,23.7268047 C124.921367,17.1935207 120.893167,13.964142 111.82679,13.964142 C101.638178,13.964142 95.8190889,18.2447041 94.2611714,24.477929 C90.5821041,39.1967751 109.116703,35.5173077 107.164425,43.3273077 C106.620065,45.5051775 105.61757,46.4063314 103.718004,46.4063314 C101.818438,46.4063314 100.767137,45.4303254 101.611822,42.0509172 L102.063124,40.2873373 L90.3087852,40.3280178 L89.531128,43.4024852 C87.7665944,50.4616864 91.1681128,54.8171006 101.615727,54.8171006 C112.322668,54.8171006 118.073753,50.4616864 119.781996,41.9005621 C122.804121,29.81 104.352495,31.086716 105.947831,24.7031361" id="Fill-24" fill="#FFFFFF" sketch:type="MSShapeGroup"></path>
                <path d="M138.681345,44.3036391 C135.918221,44.3036391 135.550217,43.7028698 136.601518,39.4974852 L140.543167,23.7268047 L147.191974,23.7268047 L149.369414,15.0156509 L142.720607,15.0156509 L145.292082,4.72707101 L133.031128,4.72707101 L130.459653,15.0156509 L126.57397,15.0156509 L124.396855,23.7268047 L128.282213,23.7268047 L122.425705,47.1571302 C121.412148,51.2124852 123.018872,53.7659172 127.595336,53.7659172 L139.683514,53.7659172 L142.048698,44.3036391 L138.681345,44.3036391" id="Fill-25" fill="#FFFFFF" sketch:type="MSShapeGroup"></path>
                <path d="M170.534056,27.4065976 L170.706833,27.4065976 L173.954121,14.4148817 C169.055206,15.0156509 166.682538,16.2171893 161.700651,22.6756213 L161.527874,22.6756213 L163.442733,15.0156509 L151.613232,15.0156509 L141.927657,53.7659172 L154.188612,53.7659172 L159.050434,34.3154438 C160.213991,29.659645 164.114642,27.1813905 168.259002,27.1813905 C169.036334,27.1813905 169.794469,27.256568 170.534056,27.4065976" id="Fill-26" fill="#FFFFFF" sketch:type="MSShapeGroup"></path>
                <path d="M202.383189,23.7268047 C203.92256,17.5690828 199.642516,13.964142 190.403688,13.964142 C181.164534,13.964142 175.082863,17.5690828 173.543492,23.7268047 L172.62397,27.4065976 L183.330911,27.4065976 C184.382213,23.201213 185.294252,21.6241124 188.402603,21.6241124 C190.38872,21.6241124 190.771692,23.201213 190.415076,24.6279586 C188.406508,32.6634911 171.520282,25.6042899 167.559761,41.4498225 L166.996529,43.7028698 C164.988286,51.7380769 167.499566,54.8171006 174.407375,54.8171006 C178.292733,54.8171006 181.844252,53.390355 184.528308,49.5605325 L184.701085,49.5605325 C184.344469,50.9872781 184.142082,52.4892012 184.427115,53.7659172 L196.256291,53.7659172 C196.121258,51.888432 195.850868,49.8609172 196.714425,46.4063314 L202.383189,23.7268047 L202.383189,23.7268047 Z M185.072668,43.9280769 C184.641215,45.6552071 183.071909,46.4063314 182.122126,46.4063314 C179.877007,46.4063314 178.807158,45.5051775 179.388937,43.1772781 L179.632972,42.2009467 C180.721692,37.8452071 182.974295,37.4699704 187.250108,35.2169231 L185.072668,43.9280769 L185.072668,43.9280769 Z" id="Fill-27" fill="#FFFFFF" sketch:type="MSShapeGroup"></path>
                <path d="M287.30564,0.146449704 L282.575271,19.0710059 L282.40282,19.0710059 C282.215076,16.3672189 279.707375,13.964142 274.613232,13.964142 C269.432213,13.964142 264.912364,17.1935207 263.598156,22.4500888 L257.629067,46.3311538 C256.315184,51.5883728 259.22115,54.8171006 264.401844,54.8171006 C269.203471,54.8171006 273.461063,52.2252663 275.586117,48.6593787 L275.525271,48.6593787 L275.630369,48.5842012 L275.586117,48.6593787 L275.698048,48.6593787 L274.421584,53.7659172 L286.164534,53.7659172 L299.56692,0.146449704 L287.30564,0.146449704 L287.30564,0.146449704 Z M280.923644,25.6794675 L276.568764,43.1017751 C276.005857,45.3548225 274.016161,46.4063314 272.461822,46.4063314 C270.735033,46.4063314 270.11551,45.4303254 270.697289,43.1017751 L275.052169,25.6794675 C275.633948,23.3512426 276.741866,22.3752367 278.46833,22.3752367 C280.022668,22.3752367 281.486876,23.4264201 280.923644,25.6794675 L280.923644,25.6794675 Z" id="Fill-28" fill="#FFFFFF" sketch:type="MSShapeGroup"></path>
                <path d="M238.816594,36.9440533 L256.603796,36.9440533 L259.100108,26.9561834 C261.314967,18.0946746 258.547939,13.964142 247.323319,13.964142 C236.098373,13.964142 231.266811,18.0946746 229.051952,26.9561834 L224.715944,44.3036391 C222.988829,51.2124852 226.664317,54.8171006 237.112256,54.8171006 C247.55987,54.8171006 253.03731,51.2124852 254.7641,44.3036391 L255.627657,40.8493787 L244.402711,40.8493787 L243.877223,42.9517456 C243.238829,45.5051775 241.71833,46.4063314 239.732213,46.4063314 C237.832646,46.4063314 236.676573,45.5051775 237.314967,42.9517456 L238.816594,36.9440533 L238.816594,36.9440533 Z M241.538069,26.0550296 C242.157592,23.5767751 243.753254,22.3752367 245.739046,22.3752367 C247.725163,22.3752367 248.719848,23.5767751 248.100325,26.0550296 L247.218221,29.5844675 L240.655965,29.5844675 L241.538069,26.0550296 L241.538069,26.0550296 Z" id="Fill-29" fill="#FFFFFF" sketch:type="MSShapeGroup"></path>
            </g>
        </g>
    </g>
</svg>