<?xml version="1.0" encoding="UTF-8" standalone="no"?>
<svg width="300px" height="200px" viewBox="0 0 300 200" version="1.1" xmlns="http://www.w3.org/2000/svg" xmlns:xlink="http://www.w3.org/1999/xlink" xmlns:sketch="http://www.bohemiancoding.com/sketch/ns">
    <!-- Generator: Sketch 3.0.3 (7891) - http://www.bohemiancoding.com/sketch -->
    <title>neuedist</title>
    <desc>Created with Sketch.</desc>
    <defs></defs>
    <g id="Logo-page" stroke="none" stroke-width="1" fill="none" fill-rule="evenodd" sketch:type="MSPage">
        <g id="Artboard-1" sketch:type="MSArtboardGroup" transform="translate(-66.000000, -298.000000)" fill="#FFFFFF">
            <g id="neuedist" sketch:type="MSLayerGroup" transform="translate(66.000000, 363.000000)">
                <g id="Group" sketch:type="MSShapeGroup">
                    <path d="M27.7016287,43.9569429 L27.7016287,23.1928714 L48.3586319,45.1368429 C48.6732899,45.4719857 49.1100977,45.6622286 49.5644951,45.6622286 L56.3335505,45.6622286 L56.3335505,42.2526429 L50.276873,42.2526429 L27.2355049,17.7744 C26.7635179,17.2726714 26.0364821,17.1139714 25.4042345,17.3732143 C24.7710098,17.6334429 24.3557003,18.2593714 24.3557003,18.9543 L24.3557003,42.2516571 L13.076873,42.2516571 L13.076873,45.6612429 L26.0286645,45.6612429 C26.9530945,45.6622286 27.7016287,44.8983 27.7016287,43.9569429 L27.7016287,43.9569429 Z" id="Shape"></path>
                    <g transform="translate(83.061889, 7.885714)">
                        <path d="M52.6436482,21.2973429 L44.3315961,21.2973429 L44.3315961,16.6398429 L52.2156352,16.6398429 L52.2156352,10.6940143 L44.3315961,10.6940143 L44.3315961,6.17845714 L52.6436482,6.17845714 L52.6436482,0.231642857 L37.3416938,0.231642857 L37.3416938,27.2461286 L52.6436482,27.2461286 L52.6436482,21.2973429 Z" id="Shape"></path>
                        <path d="M19.657329,16.7482714 L19.5869707,16.7482714 L6.81986971,0.231642857 L-0.150488599,0.231642857 L-0.150488599,27.2461286 L6.81986971,27.2461286 L6.81986971,10.6940143 L6.89120521,10.6940143 L19.657329,27.2461286 L26.6296417,27.2461286 L26.6296417,0.231642857 L19.657329,0.231642857 L19.657329,16.7482714 Z" id="Shape"></path>
                        <rect id="Rectangle-path" x="155.374593" y="0" width="6.88631922" height="27.0125143"></rect>
                        <path d="M111.559935,6.17845714 L111.559935,0.231642857 L96.2560261,0.231642857 L96.2560261,27.2461286 L111.559935,27.2461286 L111.559935,21.2973429 L103.247883,21.2973429 L103.247883,16.6398429 L111.130945,16.6398429 L111.130945,10.6940143 L103.247883,10.6940143 L103.247883,6.17845714 L111.559935,6.17845714 Z" id="Shape"></path>
                        <path d="M74.4508143,28.0169571 C77.6218241,28.0169571 81.1915309,27.2264143 83.4644951,25.0006714 C86.1674267,22.3806429 86.3120521,18.9345857 86.3120521,15.4520571 L86.3120521,0.231642857 L79.2469055,0.231642857 L79.2469055,14.4831 C79.2469055,18.0011143 78.9947883,21.8424429 74.4537459,21.8424429 C69.9117264,21.8424429 69.6596091,18.0021 69.6596091,14.4831 L69.6596091,0.231642857 L62.5954397,0.231642857 L62.5954397,15.4520571 C62.5954397,18.9345857 62.7390879,22.3806429 65.4420195,25.0006714 C67.7100977,27.2264143 71.276873,28.0169571 74.4508143,28.0169571 L74.4508143,28.0169571 Z" id="Shape"></path>
                        <path d="M184.488274,11.5249714 L182.703909,10.9857857 C181.490228,10.5895286 179.596417,9.97937143 179.596417,8.39631429 C179.596417,6.88521429 181.310423,6.13015714 182.594463,6.13015714 C184.308469,6.13015714 185.954072,6.84874286 187.238111,7.92908571 L190.025081,2.46132857 C187.633876,1.09512857 184.308469,0.231642857 181.596743,0.231642857 C176.201629,0.231642857 172.311401,3.82752857 172.311401,9.33077143 C172.311401,14.5816714 175.202932,15.732 179.596417,16.9907571 C181.096417,17.4225 183.847231,18.1065857 183.847231,20.0839286 C183.847231,21.9903 182.098046,22.8183 180.45342,22.8183 C178.062215,22.8183 175.989577,21.5585571 174.240391,20.0129571 L171.240391,25.6946143 C173.989251,27.6374571 177.313681,28.7877857 180.707492,28.7877857 C183.421173,28.7877857 186.242345,28.0327286 188.349186,26.2338 C190.490228,24.4003714 191.136156,21.6305143 191.136156,18.9336 C191.132248,14.5461857 188.240717,12.6398143 184.488274,11.5249714 L184.488274,11.5249714 Z" id="Shape"></path>
                        <path d="M198.020521,0.231642857 L198.020521,6.17845714 L203.741042,6.17845714 L203.741042,27.2461286 L210.661564,27.2461286 L210.661564,6.17845714 L216.381107,6.17845714 L216.381107,0.231642857 L198.020521,0.231642857 Z" id="Shape"></path>
                        <path d="M145.989577,13.7388857 C145.989577,6.14297143 139.781433,0.232628571 132.248208,0.232628571 L122.271987,0.232628571 L122.271987,27.2461286 L132.248208,27.2461286 C139.747231,27.2461286 145.989577,21.3348 145.989577,13.7388857 L145.989577,13.7388857 Z M129.156352,21.8424429 L129.156352,6.40615714 L130.774593,6.40615714 C135.206189,6.40615714 138.337134,9.18587143 138.337134,14.1243 C138.337134,19.5013714 134.817264,21.8424429 130.703257,21.8424429 L129.156352,21.8424429 L129.156352,21.8424429 Z" id="Shape"></path>
                        <g transform="translate(0.000000, 30.557143)" id="Shape">
                            <path d="M10.3153094,12.5856 C10.4726384,12.5856 10.6084691,12.4929429 10.7003257,12.2386286 C11.8074919,9.43624286 14.9042345,7.1898 14.9042345,5.35932857 C14.9042345,4.50274286 14.2270358,4.0848 13.9084691,3.4362 C13.4110749,2.18434286 12.870684,1.32972857 11.6941368,1.32972857 C8.48501629,1.32972857 -0.399674267,15.4668429 -0.399674267,20.8863 C-0.399674267,22.5768 0.369381107,23.7123429 2.38045603,23.7123429 C4.25570033,23.7123429 6.56091205,22.4604857 7.78143322,21.7635857 C7.96221498,21.6492429 8.05211726,21.5102571 8.05211726,21.3712714 C8.05211726,21.0479571 7.66612378,20.7453429 7.3504886,20.7453429 C7.19218241,20.7453429 7.01140065,20.7906857 6.87752443,20.8606714 C6.01856678,21.1859571 4.66026059,21.5349 3.62247557,21.5349 C2.85439739,21.5349 2.26612378,21.3239571 2.26612378,20.769 C2.26612378,17.6442857 9.54527687,6.28491429 10.8557003,6.28491429 C10.923127,6.28491429 10.947557,6.33124286 10.947557,6.40024286 C10.9250814,6.60921429 8.98045603,8.6457 8.80065147,10.0128857 C8.80065147,10.8251143 9.70553746,12.5856 10.3153094,12.5856 L10.3153094,12.5856 Z"></path>
                            <path d="M105.96645,10.5924857 C106.617264,10.5924857 107.485993,9.11687143 107.485993,8.47812857 C107.485993,7.83938571 106.667101,6.73242857 105.585342,6.73242857 C104.646254,6.73242857 103.659283,8.15678571 103.659283,9.01731429 C103.658306,9.78124286 105.150489,10.5924857 105.96645,10.5924857 L105.96645,10.5924857 Z"></path>
                            <path d="M50.7009772,18.8902286 C50.7214984,18.5146714 50.7449511,18.1371429 50.7449511,17.7389143 C50.7449511,16.7512286 50.5680782,15.5279571 50.5680782,14.9394857 C50.5680782,14.8221857 50.5680782,14.7275571 50.5885993,14.6565857 C50.7,14.2563857 51.2990228,13.6452429 51.6058632,13.2223714 C51.6723127,13.1257714 51.6957655,13.0341 51.6957655,12.9621429 C51.6957655,12.6812143 51.3625407,12.4466143 51.0996743,12.3036857 C50.7224756,12.1164 49.6397394,11.4569571 49.1550489,11.3623286 L49.0651466,11.3623286 C48.6674267,11.3623286 48.4241042,11.9517857 48.3996743,12.6102429 C48.3811075,12.972 48.2286645,13.4924571 47.9970684,14.0602286 C47.4918567,14.7433286 45.3830619,17.3584286 44.7429967,18.0898286 C43.2166124,19.8532714 41.419544,21.5220857 39.8472313,21.5220857 C39.3459283,21.5220857 39.118241,21.2244 39.118241,20.7216857 C39.118241,20.4230143 39.1407166,20.1056143 39.1856678,19.7823 C41.1449511,18.7542 45.7211726,15.7122857 45.7211726,14.6142 C45.7211726,13.4461286 44.8543974,13.3308 44.4,13.0341 C43.7159609,12.5757429 43.5791531,11.3633143 42.8052117,11.3633143 C40.9026059,11.3633143 38.562215,14.3628429 37.5732899,17.3101286 C37.3827362,17.5358571 37.219544,17.7261 37.1052117,17.8532571 C35.6540717,19.5358714 34.2703583,20.8340571 33.6351792,20.8340571 C33.4084691,20.8340571 33.295114,20.6773286 33.295114,20.3205 C33.295114,18.8389714 36.2872964,16.0375714 37.0592834,15.0311571 C37.2635179,14.7640286 37.3319218,14.5176 37.3319218,14.2918714 C37.3319218,13.3712143 35.9267101,12.834 35.2895765,12.834 C35.1977199,12.834 35.1078176,12.8547 35.0648208,12.8803286 C34.2469055,13.3731857 32.0931596,15.1445143 30.5042345,17.5841571 C30.5042345,17.5841571 30.3918567,17.4737571 30.3918567,17.4047571 C30.3918567,17.2923857 30.4602606,17.1110143 30.5960912,16.8665571 C31.5087948,15.1504286 33.8638436,11.9784 34.9495114,9.36428571 C35.9882736,9.18685714 36.6801303,8.94437143 36.6801303,8.60232857 C36.6801303,8.41898571 36.4543974,8.33027143 36.4543974,8.2386 C36.4543974,8.19227143 36.5218241,8.14791429 36.7710098,8.12524286 C37.4022801,7.76151429 37.8557003,7.60182857 37.8557003,7.51212857 C37.8557003,7.46678571 37.6973941,7.42045714 36.8599349,7.37412857 C36.452443,7.37412857 35.9912052,7.38201429 35.4947883,7.39285714 C35.5035831,7.2933 35.5162866,7.19177143 35.5162866,7.09812857 C35.5162866,5.61955714 34.7228013,5.19274286 33.8833876,5.19274286 C33.270684,5.19274286 32.6130293,5.41748571 32.228013,5.61955714 C32.0462541,5.70827143 31.9788274,5.79698571 31.9788274,5.88668571 C31.9788274,5.97737143 32.0462541,6.06805714 32.1156352,6.2238 C32.3345277,6.60132857 32.4459283,7.03307143 32.4830619,7.47861429 C31.9055375,7.49832857 31.313355,7.51607143 30.7123779,7.5348 C30.9371336,7.17304286 31.1648208,6.85465714 31.3456026,6.57964286 C31.4355049,6.44262857 31.5039088,6.23858571 31.5039088,6.03454286 C31.5039088,5.26075714 30.3947883,4.41895714 29.7185668,4.41895714 C29.3325733,4.41895714 28.8361564,4.53231429 28.6338762,5.05572857 C28.4521173,5.55647143 28.0016287,6.46727143 27.3918567,7.60182857 C26.1918567,7.60182857 25.0407166,7.55747143 24.0693811,7.46678571 C23.9335505,7.46678571 23.7762215,7.82952857 23.7762215,8.28492857 C23.7762215,8.96408571 24.1368078,9.80687143 25.5840391,9.80687143 L26.2162866,9.80687143 C25.013355,12.1045714 23.6462541,14.7462857 22.7540717,16.8468429 C22.1716612,17.3663143 21.585342,17.5900714 21.0840391,17.5900714 L21.0400651,17.5900714 C21.9566775,16.0109571 22.6074919,14.5718143 22.6074919,14.1607714 C22.6074919,13.4057143 21.8003257,12.4446429 20.6570033,12.4446429 C20.0736156,12.0779571 19.7394137,11.3692286 19.2214984,11.3692286 C17.9286645,11.3692286 15.6664495,14.7610714 14.6540717,17.8759286 C14.4684039,18.1056 14.3081433,18.2988 14.1986971,18.4299 C13.1609121,19.8000429 12.1250814,20.6881714 11.8837134,20.8725 C11.8162866,20.9178429 11.7713355,20.9405143 11.7273616,20.9405143 C11.5944625,20.9405143 11.5289902,20.7798429 11.5289902,20.5758 C11.5289902,19.2746571 15.4358306,11.8128 17.8416938,8.89212857 C18.481759,8.1144 18.7250814,7.47565714 18.7250814,6.97688571 C18.7250814,5.69644286 17.2241042,5.19372857 16.4726384,5.19372857 C15.8325733,5.19372857 15.6557003,5.28638571 15.6557003,5.42241429 C15.6557003,5.58111429 15.8775244,5.83345714 15.8775244,6.10551429 C15.8775244,6.19817143 15.8560261,6.28984286 15.7885993,6.37855714 C13.780456,9.87094286 9.54136808,17.8798714 9.54136808,20.2051714 C9.54136808,21.2539714 10.3798046,22.9425 11.3286645,22.9425 C11.5270358,22.9425 11.7693811,22.8498429 11.9687296,22.6694571 C12.6039088,22.1154857 13.4726384,21.0321857 14.1625407,20.1026571 C14.1459283,20.2840286 14.1322476,20.4614571 14.1322476,20.6300143 C14.1322476,22.0050857 14.6921824,22.9425 16.1267101,22.9425 C17.2465798,22.9425 18.8618893,21.0213429 20.2065147,18.9612 C20.3638436,19.0075286 20.5201954,19.0075286 20.7,19.0075286 C21.1289902,19.0075286 21.5921824,18.8981143 22.0553746,18.6822429 C21.8833876,19.2243857 21.7846906,19.6817571 21.7846906,20.0119714 C21.7846906,21.0351429 23.0052117,22.1716714 23.9540717,22.1716714 C24.1807818,22.1716714 24.3615635,22.1036571 24.5442997,21.9666429 C25.2791531,21.3771857 26.419544,20.1292714 27.1983713,19.1494714 C26.9315961,19.6847143 26.6765472,20.2268571 26.4449511,20.7719571 C26.3990228,20.8833429 26.3785016,20.9957143 26.3785016,21.0854143 C26.3785016,21.9597429 27.7612378,22.6300286 28.1013029,22.6300286 C28.3514658,22.6300286 28.5322476,22.494 28.6465798,22.1815286 C29.0335505,21.0834429 31.8674267,15.7507286 33.6136808,15.4599429 C32.6159609,17.4520714 31.4589577,20.0770286 31.4589577,21.5782714 C31.4589577,22.5423 31.8459283,22.9454571 32.4127036,22.9454571 C33.5941368,22.9454571 35.6403909,21.2687571 37.1169381,19.4412429 C37.1042345,19.5950143 37.0925081,19.7507571 37.0925081,19.9015714 C37.0925081,21.6413571 39.2560261,22.9454571 40.1218241,22.9454571 C41.557329,22.9454571 43.7413681,21.1149857 45.3127036,18.9641571 C45.6850163,18.4515857 46.0583062,17.9360571 46.4179153,17.4313714 C46.4638436,17.4501 46.5127036,17.4589714 46.5644951,17.4589714 C46.7648208,17.4589714 46.9631922,17.3889857 46.9631922,17.3889857 C47.228013,17.0597571 47.581759,16.4476286 47.7801303,16.2130286 C47.8915309,16.0474286 48.0029316,15.9547714 48.0693811,15.9547714 C48.2462541,15.9547714 48.2677524,17.1297429 48.2677524,17.6709 C48.2677524,18.1420714 48.2228013,18.5422714 48.1778502,18.9405 C45.5921824,19.1051143 43.976873,19.8345429 43.976873,21.528 C43.976873,22.8449143 45.1934853,23.7172714 46.5869707,23.7172714 C48.8208469,23.7172714 50.0364821,22.2810857 50.5006515,20.1647571 C52.8224756,20.3757 54.2374593,20.8932 56.1400651,21.0105 C56.404886,21.0321857 56.6257329,21.0321857 56.8035831,21.0321857 C58.0641694,21.0321857 57.2247557,20.6329714 58.2185668,20.5383429 C58.8381107,20.1627857 59.2807818,19.9981714 59.2807818,19.9025571 C59.2807818,19.8099 58.1286645,19.6679571 57.9762215,19.6443 C53.9286645,19.0558286 52.9338762,18.9148714 50.7009772,18.8902286 L50.7009772,18.8902286 Z M18.5071661,17.7162429 C17.7429967,19.4225143 16.4120521,21.3978857 15.870684,21.3978857 C15.7485342,21.3978857 15.6684039,21.3081857 15.6684039,21.1061143 C15.6684039,18.5245286 17.8035831,15.2223857 18.6684039,15.2223857 L18.7289902,15.2223857 C18.447557,15.8522571 18.3439739,16.3914429 18.3439739,16.8606429 C18.3449511,17.1770571 18.4065147,17.4698143 18.5071661,17.7162429 L18.5071661,17.7162429 Z M27.0547231,17.7379286 C26.0599349,19.0104857 24.8843648,19.8966429 24.5237785,20.1243429 C24.2286645,20.3057143 24.004886,20.3973857 23.867101,20.3973857 C23.6872964,20.3973857 23.6198697,20.2603714 23.6198697,20.0326714 C23.6198697,18.7374429 26.828013,13.5318857 29.2456026,9.78222857 C30.1983713,9.75758571 31.2087948,9.71717143 32.1693811,9.65507143 C31.7413681,10.9877571 30.9478827,12.4712571 30.0371336,14.0582571 C29.2964169,15.0144 27.6127036,17.0982 27.0547231,17.7379286 L27.0547231,17.7379286 Z M42.9996743,14.4515571 C43.062215,14.4515571 43.1482085,14.4722571 43.2136808,14.4929571 C42.8081433,15.2854714 41.995114,16.5797143 39.3869707,18.3106286 C40.0710098,16.4949429 41.5026059,14.8054286 42.9996743,14.4515571 L42.9996743,14.4515571 Z M46.9143322,22.1697 C46.5205212,22.1697 46.2732899,21.7221857 46.2732899,21.1987714 C46.2732899,20.3520429 47.1625407,19.9538143 48.570684,19.8552429 C48.0742671,21.4974429 47.1869707,22.1697 46.9143322,22.1697 L46.9143322,22.1697 Z"></path>
                            <path d="M111.045928,20.9710714 C111.045928,18.8015143 112.607492,16.2278143 114.058632,14.3943857 C114.28241,14.1272571 114.370358,13.8591429 114.370358,13.6551 C114.370358,13.0281857 113.521173,12.6920571 112.71987,12.627 C109.816612,13.6334143 105.956678,20.5225714 105.465147,20.9474143 C105.465147,19.7625857 107.341368,16.4939571 109.594788,14.2593429 C109.930945,14.0129143 110.062866,13.7457857 110.062866,13.4993571 C110.062866,12.7817571 109.059283,12.1361143 108.501303,12.1361143 C106.758958,12.1361143 103.657329,18.0425143 103.657329,21.1287857 C103.657329,22.1352 104.974593,23.0075571 105.487622,23.0075571 C105.733876,23.0075571 105.911726,22.8725143 106.02215,22.5610286 C106.758958,20.3234571 109.502932,16.3638429 111.867752,15.2687143 C110.35114,17.1031286 108.364495,19.7428714 108.364495,22.0681714 C108.364495,23.8818857 109.525407,24.4841571 110.572964,24.4841571 C111.400651,24.4841571 112.137459,24.1036714 112.137459,23.6561571 C112.137459,23.5911 112.093485,23.4994286 112.003583,23.4107143 C111.335179,22.7177571 111.045928,21.8897571 111.045928,20.9710714 L111.045928,20.9710714 Z"></path>
                            <path d="M123.388925,18.8902286 C123.409446,18.5146714 123.431922,18.1371429 123.431922,17.7389143 C123.431922,16.7512286 123.255049,15.5279571 123.255049,14.9394857 C123.255049,14.8221857 123.255049,14.7275571 123.27557,14.6565857 C123.385993,14.2563857 123.984039,13.6452429 124.291857,13.2223714 C124.358306,13.1257714 124.382736,13.0341 124.382736,12.9621429 C124.382736,12.6812143 124.048534,12.4466143 123.785668,12.3036857 C123.409446,12.1164 122.32671,11.4569571 121.841042,11.3623286 L121.753094,11.3623286 C121.354397,11.3623286 121.111075,11.9517857 121.086645,12.6102429 C121.056352,13.2460286 120.618567,14.3559429 120.037134,15.3840429 C119.294463,16.3086429 118.465798,17.3249143 118.103257,17.7369429 C117.108469,19.0095 115.933876,19.8946714 115.57329,20.1233571 C115.278176,20.3057143 115.05342,20.3954143 114.916612,20.3954143 C114.735831,20.3954143 114.668404,20.2574143 114.668404,20.0316857 C114.668404,18.7364571 117.87557,13.5318857 120.297068,9.78124286 C123.641042,9.69055714 127.731596,9.44018571 127.731596,8.60035714 C127.731596,8.418 127.503909,8.32928571 127.503909,8.23662857 C127.503909,8.1903 127.571336,8.14594286 127.821498,8.12425714 C128.452769,7.76052857 128.905212,7.60084286 128.905212,7.51114286 C128.905212,7.4658 128.746906,7.41848571 127.910423,7.37215714 C126.374267,7.37215714 124.111075,7.4658 121.761889,7.53184286 C121.986645,7.17008571 122.214332,6.85268571 122.39316,6.57767143 C122.485016,6.44065714 122.551466,6.23661429 122.551466,6.03257143 C122.551466,5.25878571 121.443322,4.41797143 120.767101,4.41797143 C120.381107,4.41797143 119.885668,4.53132857 119.68241,5.05474286 C119.501629,5.55548571 119.05114,6.4653 118.440391,7.60084286 C117.240391,7.60084286 116.089251,7.55648571 115.118893,7.4658 C114.984039,7.4658 114.825733,7.82952857 114.825733,8.28394286 C114.825733,8.9631 115.186319,9.80588571 116.63355,9.80588571 L117.264821,9.80588571 C115.276221,13.6018714 112.836156,18.3520286 112.836156,20.0109857 C112.836156,21.0341571 114.056678,22.1706857 115.005537,22.1706857 C115.230293,22.1706857 115.413029,22.1026714 115.595765,21.9656571 C115.929967,21.6985286 116.349186,21.2924143 116.779153,20.838 C116.710749,21.0479571 116.663844,21.2727 116.663844,21.5250429 C116.663844,22.8419571 117.880456,23.7143143 119.272964,23.7143143 C121.507818,23.7143143 122.722476,22.2781286 123.186645,20.1618 C125.509446,20.3727429 126.92443,20.8902429 128.826059,21.0075429 C129.090879,21.0292286 129.312704,21.0292286 129.489577,21.0292286 C130.750163,21.0292286 129.909772,20.6300143 130.90456,20.5353857 C131.524104,20.1598286 131.965798,19.9952143 131.965798,19.8996 C131.965798,19.8069429 130.816612,19.665 130.662215,19.6403571 C126.616612,19.0558286 125.621824,18.9148714 123.388925,18.8902286 L123.388925,18.8902286 Z M118.67101,18.6004286 C118.951466,18.2100857 119.236808,17.8158 119.517264,17.4225 C119.596417,17.4047571 119.65114,17.3870143 119.65114,17.3870143 C119.915961,17.0577857 120.271661,16.4456571 120.470033,16.2090857 C120.578502,16.0454571 120.691857,15.9528 120.758306,15.9528 C120.936156,15.9528 120.9557,17.1277714 120.9557,17.6689286 C120.9557,18.1401 120.910749,18.5403 120.867752,18.9385286 C119.605212,19.0193571 118.579153,19.2372 117.854072,19.6324714 C118.16873,19.2588857 118.455049,18.8991 118.67101,18.6004286 L118.67101,18.6004286 Z M119.60228,22.1697 C119.210423,22.1697 118.963192,21.7221857 118.963192,21.1987714 C118.963192,20.3520429 119.849511,19.9538143 121.258632,19.8552429 C120.763192,21.4974429 119.872964,22.1697 119.60228,22.1697 L119.60228,22.1697 Z"></path>
                            <path d="M102.036156,20.0257714 C102.036156,17.9370429 105.954723,12.6122143 105.954723,11.4875143 C105.954723,10.8211714 105.398697,10.5924857 104.723453,10.5924857 C104.332573,10.5924857 102.500326,10.8448286 102.500326,11.3514857 C102.500326,11.5111714 102.663518,11.6964857 102.663518,11.9034857 C102.663518,12.3470571 101.928664,13.8049286 101.208469,15.3889714 C100.417915,16.3687714 99.4729642,17.5240286 99.0771987,17.9705571 C98.1693811,19.0164 96.9420195,20.2633286 96.7172638,20.4673714 C96.5335505,20.6507143 96.3302932,20.7847714 96.1710098,20.7847714 C96.0322476,20.7847714 95.9208469,20.6714143 95.9208469,20.3973857 C95.9208469,18.8981143 98.2592834,16.1312143 99.0322476,15.1100143 C99.2364821,14.8152857 99.3283388,14.5875857 99.3283388,14.3835429 C99.3283388,13.5210429 97.6710098,13.4076857 97.0338762,12.9306 C97.0778502,12.9306 97.4423453,12.1124571 97.4423453,11.454 C97.4423453,11.0005714 97.2605863,10.5915 96.6693811,10.5915 C94.6944625,10.5915 93.6273616,11.7487286 93.6273616,12.8832857 C93.6273616,13.3603714 93.8110749,13.8147857 94.195114,14.1765429 C93.4680782,16.8320571 92.0169381,19.8986143 90.6527687,21.7813286 C90.6527687,21.7813286 90.7201954,22.1440714 90.9947883,22.1440714 C91.1071661,22.1440714 91.2654723,22.0780286 91.4697068,21.8720143 C93.4915309,19.2401571 94.4931596,16.4022857 94.9915309,14.6772857 C95.2856678,14.8143 95.6042345,14.9030143 96.0127036,14.9473714 C95.1039088,16.6733571 93.7641694,19.7606143 93.7641694,21.5536286 C93.7641694,22.3954286 94.0602606,22.9375714 94.8312704,22.9375714 C96.2628664,22.9375714 98.6257329,20.2367143 99.6469055,18.8271429 C99.7876221,18.6398571 99.9273616,18.4466571 100.068078,18.2554286 C99.9254072,18.7364571 99.8374593,19.1721429 99.8374593,19.5151714 C99.8374593,22.1322429 100.924104,22.9356 101.808469,22.9356 C102.436808,22.9356 102.969381,22.5452571 102.969381,22.1095714 C102.969381,22.0425429 102.920521,21.9479143 102.827687,21.8562429 C102.266775,21.3574714 102.036156,20.7384429 102.036156,20.0257714 L102.036156,20.0257714 Z"></path>
                            <path d="M90.8960912,12.6910714 C90.9635179,12.6910714 91.0114007,12.6684 91.1022801,12.6003857 C94.7618893,10.2189 102.12899,7.43031429 102.12899,3.98228571 C102.12899,3.16611429 101.712704,2.3046 100.723779,1.39675714 C99.8726384,0.264171429 98.9736156,-0.2139 97.7745928,-0.2139 C96.7846906,-0.2139 95.7977199,0.263185714 95.0589577,0.263185714 C94.6456026,0.263185714 94.1618893,0.0788571429 93.7250814,0.0788571429 C93.2882736,0.0788571429 92.8964169,0.263185714 92.6677524,0.985714286 C91.3338762,4.92758571 83.9628664,17.0292 81.4680782,22.1913857 C81.4680782,22.8498429 82.9641694,23.7123429 83.518241,23.7123429 C83.7019544,23.7123429 83.886645,23.6196857 84.0469055,23.2806 C85.2,21.4195714 89.4439739,13.5052714 90.1338762,12.5077286 C90.2276873,12.3480429 90.3644951,12.2810143 90.4798046,12.2810143 C90.5521173,12.282 90.6410423,12.6910714 90.8960912,12.6910714 L90.8960912,12.6910714 Z M95.5563518,3.62742857 C96.3498371,3.17695714 97.2781759,2.87434286 98.2074919,2.87434286 C98.7058632,2.87434286 99.0684039,2.98178571 99.0684039,3.26172857 C99.0684039,4.72452857 93.8579805,8.01582857 92.3628664,9.03012857 C92.3423453,9.05082857 92.2964169,9.05082857 92.271987,9.05082857 C92.2045603,9.05082857 92.1820847,8.98675714 92.1820847,8.87832857 C92.1820847,8.31745714 94.8996743,4.48795714 95.5563518,3.62742857 L95.5563518,3.62742857 Z"></path>
                            <path d="M75.7641694,5.52887143 C75.137785,5.32482857 74.4703583,5.18978571 73.8,5.18978571 C69.4309446,5.18978571 68.3628664,8.13214286 68.3384365,11.6876143 C64.3260586,14.0434714 62.3384365,17.4599571 62.3384365,19.9065 C62.3384365,21.6275571 63.3205212,22.8498429 65.3042345,22.8498429 C66.3752443,22.8498429 67.7345277,22.4880857 69.3840391,21.6482571 C69.7407166,22.5984857 70.5674267,22.9405286 71.3687296,22.9405286 C72.4153094,22.9405286 73.4208469,22.3974 73.4208469,21.8759571 C73.4208469,21.8316 73.4208469,21.7852714 73.4003257,21.7409143 C73.0446254,21.1287857 72.7104235,20.4476571 72.418241,19.7231571 C73.1745928,18.9533143 73.9563518,17.8207286 74.7811075,15.8305714 C74.7811075,15.8305714 74.6472313,15.3988286 74.4469055,15.3988286 C74.3824104,15.3988286 74.3345277,15.4441714 74.2680782,15.5348571 C73.9563518,15.9873 73.0641694,17.5723286 72.014658,18.7275857 C71.1449511,16.3254 70.5859935,13.5880714 70.5859935,11.3238857 C70.5859935,8.67428571 71.3442997,6.70285714 73.2175896,6.70285714 C72.771987,7.26964286 72.5257329,7.97147143 72.5257329,8.58261429 C72.5257329,9.51017143 73.1061889,10.281 74.5084691,10.281 C74.7547231,10.281 74.6667752,9.9636 74.867101,9.44314286 C75.3136808,8.28788571 76.8732899,7.29231429 76.8732899,6.47614286 C76.8781759,6.11832857 76.5879479,5.80092857 75.7641694,5.52887143 L75.7641694,5.52887143 Z M67.4980456,20.6250857 C66.0400651,20.6250857 65.4009772,19.6837286 65.4009772,18.4210286 C65.4009772,16.7206714 66.5394137,14.4012857 68.3609121,12.9069429 C68.5192182,15.4796571 69.0439739,18.1903714 69.2257329,20.3037429 C68.567101,20.5344 67.9749186,20.6250857 67.4980456,20.6250857 L67.4980456,20.6250857 Z"></path>
                        </g>
                    </g>
                    <path d="M34.2019544,69 C53.0618893,69 68.4039088,53.5233 68.4039088,34.5 C68.4039088,15.4767 53.0618893,0 34.2019544,0 C15.3429967,0 0,15.4767 0,34.5 C0,53.5233 15.3429967,69 34.2019544,69 L34.2019544,69 Z M34.2019544,4.05917143 C50.8407166,4.05917143 64.3807818,17.7152571 64.3807818,34.5 C64.3807818,51.2837571 50.8416938,64.9408286 34.2019544,64.9408286 C17.562215,64.9408286 4.02410423,51.2837571 4.02410423,34.5 C4.02410423,17.7152571 17.562215,4.05917143 34.2019544,4.05917143 L34.2019544,4.05917143 Z" id="Shape"></path>
                </g>
            </g>
        </g>
    </g>
</svg>