<?xml version="1.0" encoding="UTF-8" standalone="no"?>
<svg width="301px" height="71px" viewBox="0 0 301 71" version="1.1" xmlns="http://www.w3.org/2000/svg" xmlns:xlink="http://www.w3.org/1999/xlink" xmlns:sketch="http://www.bohemiancoding.com/sketch/ns">
    <!-- Generator: Sketch 3.0.3 (7891) - http://www.bohemiancoding.com/sketch -->
    <title>omgcatgifs</title>
    <desc>Created with Sketch.</desc>
    <defs></defs>
    <g id="Logo-page" stroke="none" stroke-width="1" fill="none" fill-rule="evenodd" sketch:type="MSPage">
        <g id="Artboard-1" sketch:type="MSArtboardGroup" transform="translate(-66.000000, -272.000000)" fill="#FFFFFF">
            <g id="omgcatgifs" sketch:type="MSLayerGroup" transform="translate(66.000000, 272.000000)">
                <g id="Page-1" sketch:type="MSShapeGroup">
                    <g id="Artboard-3">
                        <g id="omgcatgifs">
                            <path d="M0,8.72995714 C103.529392,3.07632857 150.014189,0 150.014189,0 C144.69223,52.7945857 143.194257,65.9295857 143.194257,65.9295857 C30.3516892,68.8385571 7.06925676,71 7.06925676,71 C2.07871622,22.9472 0,8.72995714 0,8.72995714 Z M32.8905405,58.1642143 C22.0307432,58.575 16.2314189,51.2853286 15.8158784,40.4669571 C15.3709459,28.9000429 20.8956081,19.1963714 32.7273649,18.7490714 C42.2361486,18.3900143 48.8442568,25.5955 49.3246622,38.0752714 C49.7543919,49.2679143 44.0209459,57.7432857 32.8905405,58.1642143 Z M33.1611486,53.2408714 C39.1733108,53.0065714 41.7415541,46.1418857 41.4243243,37.6431857 C41.1972973,31.5432714 38.625,25.4251 32.9858108,25.6441857 C26.814527,25.8855857 23.402027,33.0008 23.7040541,41.1181286 C23.964527,48.0893143 26.6168919,53.4954571 33.1611486,53.2408714 Z M53.1537162,58.1165429 C52.6297297,42.9367429 52.3084459,19.0259714 52.3084459,19.0259714 C56.6179054,18.5938857 63.3172297,17.75 63.3172297,17.75 C66.5300676,29.1860714 72.5462838,46.9401286 72.5462838,46.9401286 C74.7841216,35.5618714 77.3472973,20.1041571 77.3472973,20.1041571 C81.9476351,20.2502143 88.9530405,20.4632143 88.9530405,20.4632143 C90.147973,36.4199571 91.7847973,54.1790857 91.7847973,54.1790857 C88.8547297,54.3971571 84.8665541,54.8728571 84.8665541,54.8728571 C84.2361486,43.9236429 82.6033784,26.2720286 82.6033784,26.2720286 C80.7101351,36.8865286 76.8233108,54.0543286 76.8233108,54.0543286 C73.0915541,54.2500857 68.889527,54.7318714 68.889527,54.7318714 C64.4077703,42.2196429 59.2125,26.4160571 59.2125,26.4160571 C58.9672297,35.4168286 60.3131757,58.1642143 60.3131757,58.1642143 C57.4317568,58.22 53.1537162,58.1165429 53.1537162,58.1165429 Z M121.392568,51.0784143 C119.416216,54.2085 115.187838,56.0626143 111.809797,56.1934571 C101.8875,56.5768571 95.1820946,49.6401571 94.7706081,38.6970286 C94.2902027,25.9038429 100.852703,16.1636571 110.507432,15.7904 C118.284122,15.4901714 125.020946,20.4074286 125.370608,29.7165429 C125.394932,30.3697429 125.368581,31.0797429 125.343243,31.8445143 L118.678378,31.7207714 C118.754392,25.1755857 115.302365,21.9288571 111.065878,22.0931714 C105.702365,22.3000857 101.900676,29.7530571 102.194595,37.5914571 C102.4875,45.3771143 105.936486,49.9870429 111.513851,49.771 C115.321622,49.6229143 118.074324,47.1186429 118.744257,43.4946 C114.241216,43.7238286 109.098649,44.0859286 109.098649,44.0859286 C109.090541,42.4519143 108.783446,37.1208286 108.783446,37.1208286 C116.141554,37.1076429 125.90473,36.7840857 125.90473,36.7840857 C126.576689,46.0810286 127.313514,54.2845714 127.313514,54.2845714 C125.335135,54.5249571 121.587162,54.8353286 121.587162,54.8353286 C121.530405,53.3098429 121.392568,51.0784143 121.392568,51.0784143 Z" id="Fill-2"></path>
                            <path d="M177.256419,1.19584286 C178.099662,1.19584286 178.894257,1.23844286 179.641216,1.32161429 C180.386149,1.4058 181.083446,1.64314286 181.731081,2.03567143 C182.433446,2.48297143 183.025338,2.82681429 183.50473,3.06314286 C183.985135,3.30048571 184.391554,3.42017143 184.728041,3.42017143 C185.430405,3.42017143 185.896622,3.14732857 186.123649,2.60265714 C186.347635,2.05697143 186.460135,1.51838571 186.460135,0.9869 L192.454054,0.9869 L192.454054,13.7841429 L186.375,13.7841429 L186.375,12.8205714 C186.375,12.6248143 186.366892,12.3864571 186.353716,12.1065143 C186.340541,11.8265714 186.290878,11.5476429 186.205743,11.2677 C186.122635,11.0709286 186.015203,10.8832857 185.889527,10.7007143 C185.762838,10.5191571 185.614865,10.3720857 185.445608,10.2595 C184.911486,9.8122 184.278041,9.58702857 183.54527,9.58702857 L166.786824,9.58702857 C165.831081,9.58702857 165.183446,9.62962857 164.844932,9.71381429 C164.506419,9.77061429 164.153716,9.90957143 163.789865,10.1337286 C163.423986,10.3589 163.140203,10.6226143 162.946622,10.9309571 C162.522973,11.5740143 162.313176,12.2880714 162.313176,13.0711 L162.313176,18.8190571 C162.313176,19.2673714 162.382095,19.7704571 162.522973,20.3293286 C162.664865,20.8892143 162.918243,21.2949286 163.283108,21.5464714 C163.816216,21.9674 164.523649,22.1773571 165.393243,22.1773571 L182.702027,22.1773571 C183.517905,22.1773571 184.095608,22.1347571 184.434122,22.0505714 C184.996622,21.9095857 185.459797,21.5880571 185.825676,21.0849714 C186.189527,20.5808714 186.373986,20.0919857 186.373986,19.6152714 L186.373986,17.4751286 L192.453041,17.4751286 L192.453041,20.6234714 C192.453041,21.0991714 192.444932,21.5809571 192.431757,22.0708571 C192.416554,22.5597429 192.381081,23.0577571 192.326351,23.5598286 C192.268581,24.0355286 192.148986,24.4899286 191.967568,24.9240429 C191.783108,25.3581571 191.579392,25.7831429 191.355405,26.2040714 C190.790878,27.2954429 190.030743,28.1474429 189.075,28.7631143 C188.595608,29.0714571 188.08277,29.3574857 187.533446,29.6242429 C186.984122,29.8889714 186.426689,30.0918286 185.865203,30.2328143 C185.554054,30.317 185.253041,30.3717714 184.958108,30.4011857 C184.663176,30.4295857 184.358108,30.4579857 184.05,30.4843571 C183.964865,30.5127571 183.769257,30.5269571 183.460135,30.5269571 C183.148986,30.5269571 182.727365,30.5421714 182.193243,30.5695571 L165.559459,30.5695571 C164.151689,30.5695571 162.817905,30.3464143 161.548986,29.8970857 C160.030743,29.4518143 158.749662,28.5967714 157.708784,27.3380429 C157.173649,26.6949857 156.752027,25.9748429 156.441892,25.1766 C156.130743,24.3783571 155.978716,23.5760571 155.978716,22.7636143 C155.978716,22.6246571 155.970608,22.4644 155.957432,22.2808143 C155.943243,22.1002714 155.936149,21.9248 155.936149,21.7564286 C155.963514,19.0716143 155.985811,16.8117857 156,14.9799857 C156.014189,13.1481857 156.005068,11.7423857 155.978716,10.7625857 C155.919932,10.0637429 156,9.301 156.210811,8.47638571 C156.420608,7.65177143 156.667905,6.9154 156.949662,6.27234286 C157.371284,5.37774286 157.957095,4.58862857 158.702027,3.90195714 C159.444932,3.2163 160.214189,2.70712857 161.003716,2.37038571 C161.736486,2.06407143 162.557432,1.79122857 163.474662,1.55287143 C164.386824,1.31451429 165.239189,1.19584286 166.028716,1.19584286 L177.256419,1.19584286" id="Fill-6"></path>
                            <path d="M212.130405,18.8839714 L211.593243,19.8120429 C211.317568,20.2907857 211.165541,20.7472143 211.138176,21.1823429 C211.110811,21.6184857 211.152365,21.9481286 211.262838,22.1743143 C211.453378,22.7088429 211.965203,23.0182 212.793243,23.1023857 L217.839527,23.1023857 L217.839527,31.5361714 L194.428378,31.5361714 L194.428378,23.1023857 L202.163514,23.1023857 C202.771622,23.0739857 203.252027,22.9472 203.610811,22.7220286 C203.969595,22.4978714 204.273649,22.2453143 204.520946,21.9633429 C204.795608,21.6539857 205.085473,21.2391429 205.389527,20.7188143 C205.692568,20.1984857 205.939865,19.7836429 206.132432,19.4742857 C206.323986,19.1649286 206.641216,18.6456143 207.084122,17.9143143 C207.522973,17.1840286 208.055068,16.2904429 208.674324,15.2366 C209.293581,14.1807286 210.004054,12.9798143 210.805743,11.6298 C211.604392,10.2808 212.460811,8.84761429 213.369932,7.32821429 L214.735135,4.96695714 C214.927703,4.6576 215.147635,4.28434286 215.396959,3.84921429 C215.644257,3.41408571 215.920946,2.91607143 216.223986,2.35111429 C216.332432,2.15535714 216.422635,2.04277143 216.491554,2.01437143 C216.560473,1.988 216.691216,1.97177143 216.884797,1.97177143 L223.091554,1.97177143 C223.228378,1.97177143 223.323649,1.98698571 223.380405,2.01437143 C223.435135,2.04277143 223.518243,2.15535714 223.627703,2.35111429 L224.828716,4.63021429 L227.309797,9.35272857 L230.868243,16.1849571 C231.088176,16.6626857 231.322297,17.1333143 231.569595,17.5978571 C231.816892,18.0613857 232.054054,18.5046286 232.271959,18.9265714 C232.658108,19.6578714 233.07973,20.3597571 233.534797,21.0352714 C233.987838,21.7087571 234.382095,22.1733 234.7125,22.4258571 C235.016554,22.6510286 235.373311,22.8204143 235.787838,22.933 C236.202365,23.0455857 236.478041,23.1013714 236.614865,23.1013714 L243.771284,23.1013714 L243.771284,31.5351571 C233.817568,31.5615286 225.596959,31.5615286 219.120608,31.5351571 L219.120608,23.1013714 L224.745608,23.1013714 C225.188514,23.0455857 225.566554,22.8478 225.883784,22.5100429 C226.2,22.1733 226.359122,21.7787429 226.359122,21.3294143 L226.359122,21.0758429 C226.359122,20.8496571 226.296284,20.5981143 226.172635,20.3161429 C226.047973,20.0351857 225.751014,19.5564429 225.28277,18.8829571 L212.130405,18.8839714 L212.130405,18.8839714 Z M224.034122,15.7782286 C223.776689,15.2923857 223.535473,14.8684143 223.304392,14.5053 C223.075338,14.1411714 222.810811,13.7232857 222.510811,13.2526571 C222.210811,12.7810143 221.8875,12.3012571 221.545946,11.8174429 C221.2875,11.4401286 220.951014,11.1845286 220.536486,11.0496286 C220.122973,10.9157429 219.686149,10.8477857 219.227027,10.8477857 C218.741554,10.8477857 218.319932,10.9076286 217.963176,11.0293429 C217.604392,11.1500429 217.225338,11.4127429 216.825,11.8174429 C216.625338,12.0324714 216.376014,12.3570429 216.075,12.7881143 C215.773986,13.2191857 215.481081,13.6624286 215.196284,14.1208857 C214.881081,14.6320857 214.5375,15.1858857 214.166554,15.7782286 L224.034122,15.7782286 L224.034122,15.7782286 L224.034122,15.7782286 Z" id="Fill-7"></path>
                            <path d="M251.242905,10.4126571 C250.116892,10.4126571 249.331419,10.8001143 248.892568,11.5740143 C248.451689,12.3479143 248.23277,13.3114857 248.23277,14.4637143 L248.23277,14.6331 L241.801014,14.6331 L241.801014,1.97177143 L286.213176,1.97177143 L286.171622,14.6310714 L279.737838,14.6310714 L279.737838,14.4616857 C279.737838,13.3094571 279.523986,12.3458857 279.099324,11.5719857 C278.672635,10.7980857 277.89527,10.4106286 276.769257,10.4106286 L270.004054,10.4106286 C269.511486,10.4106286 269.084797,10.4948143 268.727027,10.6642 C268.368243,10.8335857 268.072297,11.0435429 267.840203,11.2961 C267.605068,11.5496714 267.438851,11.8174429 267.345608,12.0984 C267.248311,12.3803714 267.199662,12.6329286 267.199662,12.8591143 L267.199662,20.6660714 C267.199662,20.9764429 267.308108,21.2858 267.530068,21.5941429 C267.751014,21.9045143 267.955743,22.1722857 268.147297,22.3974571 C268.338851,22.6226286 268.587162,22.7920143 268.888176,22.9046 C269.191216,23.0161714 269.480068,23.0739857 269.75473,23.0739857 L276.186486,23.0739857 L276.186486,31.5564571 L250.743243,31.5138571 L250.743243,23.075 L257.918919,23.075 C258.305068,23.075 258.681081,23.0111 259.053041,22.8843143 C259.421959,22.7575286 259.734122,22.5678571 259.979392,22.3153 C260.201351,22.0911429 260.383784,21.8162714 260.537838,21.4917 C260.686824,21.1681429 260.763851,20.8364714 260.763851,20.4997286 L260.763851,14.5073286 C260.763851,13.8886143 260.730405,13.3185857 260.660473,12.7972429 C260.591554,12.2769143 260.365541,11.8204857 259.979392,11.4259286 C259.70473,11.1459857 259.389527,10.9066143 259.02973,10.7088286 C258.671959,10.5120571 258.302027,10.4126571 257.915878,10.4126571 L251.242905,10.4126571" id="Fill-8"></path>
                            <path d="M169.29527,57.5860714 L184.373311,57.5860714 C184.985473,57.5860714 185.406081,57.3761143 185.627027,56.9521429 C185.684797,56.8426 185.712162,56.5180286 185.712162,55.9835 C185.712162,55.7877429 185.668581,55.6031429 185.585473,55.4347714 C185.503378,55.2643714 185.403041,55.1375857 185.293581,55.0544143 C185.068581,54.8860429 184.847635,54.7744714 184.623649,54.7176714 C184.399662,54.6618857 184.148311,54.6324714 183.869595,54.6324714 L175.996622,54.6324714 L175.996622,49.8643143 L201.334459,49.8643143 L201.334459,54.6750714 L194.758784,54.6750714 C193.920608,54.7328857 193.2375,55.0402143 192.708446,55.6031429 C192.483446,55.8567143 192.296959,56.1599857 192.140878,56.5109286 C191.987838,56.8639 191.909797,57.2067286 191.909797,57.5455 L191.909797,66.0695571 L186.715541,66.0695571 C186.660811,65.675 186.549324,65.3382571 186.381081,65.0573 C186.214865,64.7773571 185.978716,64.6089857 185.668581,64.5521857 L185.502365,64.5521857 C185.168919,64.5521857 184.847635,64.6505714 184.539527,64.8473429 C184.314527,64.9893429 184.086486,65.1222143 183.847297,65.249 C183.610135,65.3757857 183.338514,65.4934429 183.031419,65.6080571 C182.556081,65.7764286 182.026014,65.888 181.440203,65.9448 C180.854392,66.0026143 180.363851,66.03 179.974662,66.03 L163.893243,66.03 C163.390541,66.03 162.858446,65.9610286 162.302027,65.8180143 C161.744595,65.6760143 161.197297,65.4893857 160.67027,65.2479857 C160.140203,65.0086143 159.635473,64.7256286 159.162162,64.4041 C158.686824,64.0805429 158.283446,63.7367 157.947973,63.3685143 C157.305405,62.6656143 156.809797,61.7994143 156.461149,60.7719429 C156.111486,59.7444714 155.937162,58.7241 155.937162,57.7118429 L155.937162,44.9257571 C155.937162,44.4480286 156,43.9408857 156.127703,43.4073714 C156.252365,42.8738571 156.418581,42.3454143 156.628378,41.8230571 C156.837162,41.3037429 157.089527,40.8108 157.382432,40.3472714 C157.675338,39.8837429 157.990541,39.4810714 158.325,39.1433143 C159.217905,38.2436429 160.306419,37.5742143 161.591554,37.1370571 C162.877703,36.7009143 164.314865,36.4828429 165.907095,36.4828429 L178.806081,36.4828429 C179.644257,36.4828429 180.292905,36.5599286 180.754054,36.7151143 C181.214189,36.8682714 181.765541,37.1167714 182.409122,37.4535143 C182.518581,37.5377 182.686824,37.6320286 182.912838,37.7283857 C183.135811,37.8288 183.364865,37.9261714 183.603041,38.0235429 C183.839189,38.1239571 184.07027,38.2081429 184.29527,38.2771143 C184.518243,38.3460857 184.699662,38.3826 184.838514,38.3826 C185.230743,38.3826 185.565203,38.2345143 185.843919,37.9383429 C186.121622,37.6442 186.288851,37.1573429 186.346622,36.4818286 L192,36.4818286 L192,47.8327 L186.346622,47.8327 C186.346622,47.3275857 186.241216,46.8975286 186.030405,46.5445571 C185.820608,46.1926 185.571284,45.9065714 185.276351,45.6793714 C184.984459,45.4542 184.664189,45.2858286 184.313514,45.1732429 C183.963851,45.0606571 183.652703,44.9886429 183.371959,44.9602429 C183.231081,44.9338714 182.674662,44.9186571 181.696622,44.9186571 L165.233108,44.9186571 C164.839865,44.9186571 164.428378,45.0241429 163.996622,45.2351143 C163.562838,45.4450714 163.208108,45.7067571 162.928378,46.0171286 C162.648649,46.3275 162.466216,46.6997429 162.383108,47.1369 C162.3,47.5730429 162.24223,47.9868714 162.216892,48.3824429 C162.159122,48.6928143 162.159122,50.9709 162.216892,55.2177143 C162.216892,55.5007 162.27973,55.7745571 162.406419,56.0413143 C162.531081,56.3101 162.69223,56.5545429 162.887838,56.7797143 C163.222297,57.1448571 163.663176,57.3791571 164.209459,57.4765286 C164.751689,57.5769429 165.135811,57.6256286 165.359797,57.6256286 L169.29527,57.5860714" id="Fill-9"></path>
                            <path d="M224.034122,36.4869 L224.034122,44.9379286 L217.545608,44.9379286 C216.754054,44.9379286 216.033446,45.2188857 215.380743,45.7838429 C214.984459,46.1205857 214.730068,46.5739714 214.618581,47.1348714 C214.505068,47.7018571 214.449324,48.2363857 214.449324,48.7415 L214.449324,54.6172571 C214.449324,54.9560286 214.533446,55.3008857 214.703716,55.6528429 C214.871959,56.0058143 215.069595,56.2948857 215.295608,56.5190429 C215.636149,56.8578143 216.053716,57.1255857 216.547297,57.3213429 C217.039865,57.5181143 217.542568,57.6185286 218.051351,57.6185286 L224.032095,57.6185286 L224.032095,66.0695571 L198.372973,66.0695571 L198.372973,57.6185286 L205.02973,57.6185286 C205.481757,57.6185286 205.920608,57.5181143 206.346284,57.3213429 C206.769932,57.1255857 207.135811,56.8720143 207.448986,56.5606286 C207.814865,56.2218571 208.034797,55.7786143 208.105743,55.2298857 C208.174662,54.6801429 208.212162,54.1385143 208.212162,53.6029714 L208.212162,48.7415 C208.212162,48.0933714 208.18277,47.5365286 208.125,47.073 C208.068243,46.6064286 207.871622,46.1773857 207.533108,45.7838429 C207.165203,45.3892857 206.718243,45.1519429 206.197297,45.0647143 C205.672297,44.9795143 205.015541,44.9379286 204.225,44.9379286 L198.372973,44.9379286 L198.372973,36.4869 L224.034122,36.4869" id="Fill-10"></path>
                            <path d="M249.499662,44.9257571 C249,44.9257571 248.565203,45.0109571 248.204392,45.1803429 C247.842568,45.3487143 247.541554,45.5596857 247.303378,45.8122429 C247.065203,46.0648 246.9,46.3346 246.801689,46.6145429 C246.702365,46.8944857 246.653716,47.1480571 246.653716,47.3742429 L246.69527,48.9768143 L257.53277,49.0194143 L257.53277,53.9569571 L246.486486,53.9569571 L246.486486,55.1375857 C246.486486,55.4489714 246.512838,55.7573143 246.569595,56.0666714 C246.627365,56.3780571 246.752027,56.6448143 246.947635,56.8689714 C247.364189,57.3477143 247.866892,57.5860714 248.452703,57.5860714 L255.817905,57.5860714 L255.776351,66.0685429 L229.954054,66.0269571 L229.954054,57.5860714 L237.238176,57.5860714 C237.628378,57.5860714 238.011486,57.5231857 238.388514,57.3953857 C238.764527,57.2686 239.080743,57.0789286 239.332095,56.8253571 C239.556081,56.6012 239.741554,56.3273429 239.896622,56.0027714 C240.050676,55.6782 240.126689,55.3475429 240.126689,55.0097857 L240.126689,49.0173857 C240.126689,48.3986714 240.093243,47.8296571 240.022297,47.3073 C239.951351,46.7859571 239.722297,46.3305429 239.332095,45.9339571 C239.053378,45.6550286 238.730068,45.4146429 238.368243,45.2188857 C238.006419,45.0211 237.629392,44.9217 237.240203,44.9217 L229.957095,44.9217 L229.957095,36.4828429 L299.04223,36.4828429 L299.04223,46.3579286 L293.937162,46.3579286 C293.937162,45.2046857 293.706081,45.6063429 293.245946,44.7746286" id="Fill-11"></path>
                            <path d="M262.525338,44.9379286 C262.549662,44.4602 262.63277,43.9530571 262.770608,43.4185286 C262.907432,42.884 263.07973,42.3545429 263.285473,41.8342143 C263.491216,41.3138857 263.740541,40.8189143 264.026351,40.3543714 C264.313176,39.8898286 264.622297,39.4881714 264.950676,39.1494 C265.829392,38.2477 266.900676,37.5782714 268.163514,37.1421286 C269.424324,36.707 270.839189,36.4869 272.405068,36.4869 L285.782432,36.4869 C286.605405,36.4869 287.243919,36.5639857 287.698986,36.7191714 C288.15,36.8743571 288.691216,37.1208286 289.324662,37.4585857 C289.433108,37.5437857 289.598311,37.6350714 289.818243,37.7334571 C290.038176,37.8338714 290.262162,37.9302286 290.498311,38.0286143 C290.730405,38.1290286 290.957432,38.2132143 291.177365,38.2821857 C291.396284,38.3521714 291.575676,38.3876714 291.711486,38.3876714 C292.096622,38.3876714 292.426014,38.2395857 292.699662,37.9434143 C292.974324,37.6492714 293.139527,37.1614 293.194257,36.4848714 L298.750338,36.4848714 L298.750338,47.854 L293.194257,47.854 C293.194257,47.3488857 293.090878,46.9178143 292.885135,46.5648429 C292.679392,46.2128857 292.432095,45.9258429 292.144257,45.6996571 C291.856419,45.4734714 291.547297,45.298 291.218919,45.1712143 C290.888514,45.0444286 290.585473,44.9673429 290.311824,44.9379286 L272.691892,44.9379286 C272.224662,44.9379286 271.791892,44.9896571 271.395608,45.0860143 C270.996284,45.1854143 270.660811,45.4450714 270.388176,45.8680286 C270.306081,45.9796 270.238176,46.1195714 270.182432,46.2899714 C270.155068,46.3751714 270.140878,46.4309571 270.140878,46.4603714 C270.113514,46.4877571 270.100338,46.5293429 270.100338,46.5871571 L270.100338,46.9239 C270.100338,47.1206714 270.126689,47.3478714 270.182432,47.6014429 C270.237162,47.8529857 270.352703,48.1014857 270.531081,48.3408571 C270.711486,48.5802286 270.970946,48.7780143 271.313514,48.9342143 C271.657095,49.0873714 272.116216,49.1654714 272.691892,49.1654714 L292.491892,49.1654714 C293.233784,49.1654714 293.966554,49.3135571 294.696284,49.6097286 C295.422973,49.9069143 296.109122,50.3075571 296.753716,50.8147 C297.400338,51.3218429 297.968919,51.9202714 298.463514,52.6099857 C298.956081,53.3017286 299.329054,54.0259286 299.574324,54.7866429 C299.877365,55.7157286 300.028378,56.6884286 300.028378,57.7027143 C300.028378,58.4360429 299.952365,59.1470571 299.801351,59.8367714 C299.650338,60.5285143 299.408108,61.1553429 299.080743,61.7182714 C298.339865,63.0439429 297.31723,64.0998143 296.012838,64.8879143 C294.710473,65.675 293.152703,66.0705714 291.341554,66.0705714 L275.491216,66.0705714 C274.778716,66.0705714 274.057095,65.9650857 273.329392,65.7541143 C272.602703,65.5431429 271.937838,65.2408857 271.333784,64.8453143 C271.169595,64.7347571 271.003378,64.6353571 270.839189,64.5521857 C270.675,64.4649571 270.510811,64.3817857 270.346622,64.2965857 C270.155068,64.1850143 269.906757,64.1261857 269.606757,64.1261857 L269.359459,64.1261857 C268.919595,64.1850143 268.561824,64.3959857 268.289189,64.7621429 C268.098649,65.0420857 268.001351,65.4102714 268.001351,65.8596 L268.001351,66.0715857 L262.527365,66.0715857 L262.527365,55.7147143 L268.331757,55.7147143 C268.414865,56.0534857 268.5375,56.3648714 268.701689,56.6458286 C268.838514,56.8720143 269.038176,57.084 269.298649,57.2797571 C269.561149,57.4755143 269.895608,57.5911429 270.308108,57.6185286 L290.149662,57.6185286 C290.423311,57.6185286 290.670608,57.6043286 290.888514,57.5749143 C291.108446,57.5475286 291.369932,57.4917429 291.669932,57.4065429 C291.944595,57.3213429 292.151351,57.1255857 292.287162,56.8142 C292.422973,56.5028143 292.491892,56.1528857 292.491892,55.7583286 C292.491892,55.4469429 292.465541,55.2238 292.411824,55.0807857 C292.354054,54.9408143 292.259797,54.7602714 292.122973,54.5340857 C291.931419,54.2227 291.614189,54.0330286 291.175338,53.9640571 C290.735473,53.8940714 290.310811,53.8575571 289.898311,53.8575571 L289.240541,53.8575571 C289.132095,53.8575571 288.808784,53.8656714 288.272635,53.8788571 C287.739527,53.8940714 287.078716,53.9001571 286.297297,53.9001571 L283.663176,53.9001571 L280.679392,53.9001571 L272.321959,53.9001571 C271.03277,53.9001571 269.756757,53.6526714 268.494932,53.1607429 C267.231081,52.6678 266.092905,52.0257571 265.077365,51.2366429 C264.390203,50.7041429 263.841892,50.0124 263.430405,49.1664857 C263.018919,48.3226 262.743243,47.4624857 262.607432,46.5891857 C262.581081,46.4766 262.565878,46.3356143 262.565878,46.1672429 C262.539527,46.0252429 262.526351,45.8568714 262.526351,45.6601 L262.526351,44.9379286" id="Fill-12"></path>
                            <path d="M286.212162,1.97177143 L285.246284,1.97177143 L285.225,2.65337143 C285.551351,2.71524286 285.87973,2.75987143 286.211149,2.78928571 L286.212162,1.97177143" id="Fill-17"></path>
                            <path d="M264.087162,58.1804429 C264.067905,58.1804429 264.05777,58.1946429 264.049662,58.2250714 C263.509459,59.2129857 262.976351,60.4788143 262.525338,61.8339 L262.525338,66.0695571 L266.472973,66.0695571 C266.116216,62.5286857 264.398311,58.1784143 264.087162,58.1804429" id="Fill-22"></path>
                        </g>
                    </g>
                </g>
            </g>
        </g>
    </g>
</svg>