<?xml version="1.0" encoding="UTF-8" standalone="no"?>
<svg width="400px" height="300px" viewBox="0 0 400 300" version="1.1" xmlns="http://www.w3.org/2000/svg" xmlns:xlink="http://www.w3.org/1999/xlink" xmlns:sketch="http://www.bohemiancoding.com/sketch/ns">
    <!-- Generator: Sketch 3.0.3 (7891) - http://www.bohemiancoding.com/sketch -->
    <title>prototyping</title>
    <desc>Created with Sketch.</desc>
    <defs>
        <rect id="path-1" x="0" y="0" width="400" height="300"></rect>
        <rect id="path-3" x="0" y="0" width="400" height="300"></rect>
    </defs>
    <g id="work" stroke="none" stroke-width="1" fill="none" fill-rule="evenodd" sketch:type="MSPage">
        <g id="prototyping" sketch:type="MSArtboardGroup">
            <mask id="mask-2" sketch:name="Rectangle 2" fill="white">
                <use xlink:href="#path-1"></use>
            </mask>
            <use id="Rectangle-2" fill="#F5A623" sketch:type="MSShapeGroup" xlink:href="#path-1"></use>
            <g id="lowpoly_dark_min-+-Rectangle-1" sketch:type="MSLayerGroup" mask="url(#mask-2)">
                <mask id="mask-4" sketch:name="Rectangle 1" fill="white">
                    <use xlink:href="#path-3"></use>
                </mask>
                <use id="Rectangle-1" sketch:type="MSShapeGroup" xlink:href="#path-3"></use>
                <g id="lowpoly_dark_min" mask="url(#mask-4)">
                    <g transform="translate(-134.000000, -265.000000)" id="Lowpoly-Dark-Min">
                        <g>
                            <g id="lowpoly_dark_min" fill="#FFFFFF" sketch:type="MSShapeGroup">
                                <path d="M60.3065876,365.866816 L116.707452,447.370352 L149.32482,370.621189 L60.3065876,365.866816 L60.3065876,365.866816 Z" id="Shape" opacity="0.13"></path>
                                <path d="M60.3065876,365.833273 L149.32482,370.587646 L28.0453004,238.424994 L60.3065876,365.833273 L60.3065876,365.833273 Z" id="Shape" opacity="0.25"></path>
                                <path d="M34.1048152,245.466087 L149.322015,370.58428 L129.615688,219.123542 L34.1048152,245.466087 L34.1048152,245.466087 Z" id="Shape" opacity="0.27"></path>
                                <path d="M126.8739,565.611507 L233.559873,634.210316 L243.073272,548.631604 L126.8739,565.611507 L126.8739,565.611507 Z" id="Shape" opacity="0.05"></path>
                                <path d="M126.875583,565.583461 L243.074955,548.603558 L116.682656,447.403334 L126.875583,565.583461 L126.875583,565.583461 Z" id="Shape" opacity="0.33"></path>
                                <path d="M116.674465,447.400529 L243.066764,548.600753 L292.672344,448.079726 L116.674465,447.400529 L116.674465,447.400529 Z" id="Shape" opacity="0.05"></path>
                                <path d="M116.674465,447.371249 L292.672344,448.050445 L149.291833,370.622086 L116.674465,447.371249 L116.674465,447.371249 Z" id="Shape" opacity="0.33"></path>
                                <path d="M149.286447,370.617262 L292.666958,448.045622 L265.485818,341.411829 L149.286447,370.617262 L149.286447,370.617262 Z" id="Shape" opacity="0.23"></path>
                                <path d="M149.294188,370.58428 L265.49356,341.378847 L129.587863,219.123542 L149.294188,370.58428 L149.294188,370.58428 Z" id="Shape" opacity="0.23"></path>
                                <path d="M129.583936,219.118718 L265.489633,341.374023 L289.273131,247.644956 L129.583936,219.118718 L129.583936,219.118718 Z" id="Shape" opacity="0.39"></path>
                                <path d="M233.529354,634.211999 L321.188529,644.399941 L243.042754,548.633286 L233.529354,634.211999 L233.529354,634.211999 Z" id="Shape" opacity="0.25"></path>
                                <path d="M243.041182,548.626331 L321.186959,644.392986 L317.109788,506.51617 L243.041182,548.626331 L243.041182,548.626331 Z" id="Shape" opacity="0.05"></path>
                                <path d="M243.041856,548.600865 L317.110461,506.490705 L292.647436,448.079838 L243.041856,548.600865 L243.041856,548.600865 Z" id="Shape" opacity="0.19"></path>
                                <path d="M292.628474,448.072882 L317.091499,506.483749 L382.326234,479.9951 L292.628474,448.072882 L292.628474,448.072882 Z" id="Shape" opacity="0.25"></path>
                                <path d="M292.621405,448.06559 L382.319165,479.987809 L425.12946,430.406491 L292.621405,448.06559 L292.621405,448.06559 Z" id="Shape" opacity="0.19"></path>
                                <path d="M292.621405,448.043826 L425.12946,430.384727 L370.767181,330.542895 L292.621405,448.043826 L292.621405,448.043826 Z" id="Shape" opacity="0.07"></path>
                                <path d="M292.634869,448.043826 L370.780645,330.542895 L265.453729,341.410034 L292.634869,448.043826 L292.634869,448.043826 Z" id="Shape" opacity="0.17"></path>
                                <path d="M265.453729,341.378735 L370.780645,330.511596 L289.237227,247.649668 L265.453729,341.378735 L265.453729,341.378735 Z" id="Shape" opacity="0.05"></path>
                                <path d="M289.2333,247.645517 L370.776718,330.507446 L366.699547,233.382399 L289.2333,247.645517 L289.2333,247.645517 Z" id="Shape" opacity="0.15"></path>
                                <path d="M321.146006,644.400839 L491.028128,668.8519 L441.422548,529.616692 L321.146006,644.400839 L321.146006,644.400839 Z" id="Shape" opacity="0.19"></path>
                                <path d="M321.154869,644.392986 L441.431412,529.608839 L317.077699,506.51617 L321.154869,644.392986 L321.154869,644.392986 Z" id="Shape" opacity="0.17"></path>
                                <path d="M317.077699,506.492837 L441.431412,529.585505 L382.312434,480.004188 L317.077699,506.492837 L317.077699,506.492837 Z" id="Shape" opacity="0.15"></path>
                                <path d="M382.301662,479.995998 L441.420641,529.577316 L425.111957,430.41468 L382.301662,479.995998 L382.301662,479.995998 Z" id="Shape" opacity="0.33"></path>
                                <path d="M370.746424,330.539979 L425.108703,430.381811 L472.675697,342.086313 L370.746424,330.539979 L370.746424,330.539979 Z" id="Shape" opacity="0.35"></path>
                                <path d="M370.746424,330.512045 L472.675697,342.05838 L453.6489,249.687705 L370.746424,330.512045 L370.746424,330.512045 Z" id="Shape" opacity="0.35"></path>
                                <path d="M370.750239,330.507446 L453.652715,249.683106 L366.673068,233.382399 L370.750239,330.507446 L370.750239,330.507446 Z" id="Shape" opacity="0.25"></path>
                                <path d="M490.982911,668.855714 L589.514542,651.196614 L594.95077,552.713175 L490.982911,668.855714 L490.982911,668.855714 Z" id="Shape" opacity="0.05"></path>
                                <path d="M490.991101,668.8519 L594.958961,552.709361 L441.385522,529.616692 L490.991101,668.8519 L490.991101,668.8519 Z" id="Shape" opacity="0.39"></path>
                                <path d="M441.385522,529.585617 L594.958961,552.678285 L560.303008,457.590827 L441.385522,529.585617 L441.385522,529.585617 Z" id="Shape" opacity="0.11"></path>
                                <path d="M441.393937,529.577316 L560.311423,457.582526 L425.085253,430.41468 L441.393937,529.577316 L441.393937,529.577316 Z" id="Shape" opacity="0.17"></path>
                                <path d="M425.085253,430.388204 L560.311423,457.55605 L472.652248,342.092707 L425.085253,430.388204 L425.085253,430.388204 Z" id="Shape" opacity="0.39"></path>
                                <path d="M472.643047,342.092483 L560.302222,457.555826 L568.456564,340.734091 L472.643047,342.092483 L472.643047,342.092483 Z" id="Shape" opacity="0.17"></path>
                                <path d="M472.643047,342.052434 L568.456564,340.694041 L540.595896,213.684364 L472.643047,342.052434 L472.643047,342.052434 Z" id="Shape" opacity="0.05"></path>
                                <path d="M472.650789,342.052434 L540.603638,213.684364 L453.623991,249.681759 L472.650789,342.052434 L472.650789,342.052434 Z" id="Shape" opacity="0.21"></path>
                            </g>
                        </g>
                    </g>
                </g>
            </g>
            <path d="M84.392,160.88 L84.824,160.88 C85.784,160.88 86.264,160.208 86.264,159.392 L86.264,148.592 L92.408,148.592 C100.184,148.592 104.216,145.232 104.216,139.04 C104.216,133.04 100.04,129.632 92.792,129.632 L84.824,129.632 C83.816,129.632 83,130.448 83,131.456 L83,159.392 C83,160.4 83.48,160.88 84.392,160.88 Z M86.264,132.56 L92.84,132.56 C98.12,132.56 100.856,134.816 100.856,139.136 C100.856,143.408 98.12,145.712 92.696,145.712 L86.264,145.712 L86.264,132.56 Z M112.136,140.672 C112.136,138.176 111.176,137.648 110.12,137.648 C109.544,137.648 109.064,137.888 109.064,137.984 L109.064,159.392 C109.064,160.544 109.64,160.88 110.456,160.88 L110.792,160.88 C111.608,160.88 112.184,160.544 112.184,159.392 L112.184,150.416 C112.184,144.56 113.768,140.288 117.848,140.288 C119.144,140.288 119.96,140.672 120.632,141.248 C120.728,141.344 121.496,140.768 121.496,139.616 C121.496,138.128 120.296,137.264 118.184,137.264 C115.112,137.264 113.096,138.896 112.136,142.016 L112.136,140.672 Z M135.32,161.264 C142.136,161.264 147.08,156.224 147.08,149.312 C147.08,142.352 142.136,137.264 135.32,137.264 C128.456,137.264 123.512,142.304 123.512,149.216 C123.512,156.176 128.456,161.264 135.32,161.264 Z M135.32,158.528 C130.376,158.528 126.68,154.544 126.68,149.216 C126.68,143.888 130.376,140 135.32,140 C140.264,140 143.912,143.984 143.912,149.312 C143.912,154.64 140.216,158.528 135.32,158.528 Z M151.352,140.624 L153.464,140.624 L153.464,153.968 C153.464,158.72 155.384,161.264 159.848,161.264 C162.872,161.264 164.552,159.728 164.552,158.432 C164.552,157.232 163.592,156.8 163.496,156.896 C162.68,157.904 161.528,158.576 159.944,158.576 C157.4,158.576 156.536,156.992 156.536,153.632 L156.536,140.624 L162.632,140.624 C163.784,140.624 164.12,140.192 164.12,139.376 L164.12,139.088 C164.12,138.272 163.784,137.84 162.632,137.84 L156.536,137.84 L156.536,133.856 C156.536,132.704 156.008,132.368 155.192,132.368 L154.856,132.368 C154.04,132.368 153.464,132.704 153.464,133.856 L153.464,137.84 L151.352,137.84 C150.2,137.84 149.864,138.272 149.864,139.088 L149.864,139.376 C149.864,140.192 150.2,140.624 151.352,140.624 Z M178.664,161.264 C185.48,161.264 190.424,156.224 190.424,149.312 C190.424,142.352 185.48,137.264 178.664,137.264 C171.8,137.264 166.856,142.304 166.856,149.216 C166.856,156.176 171.8,161.264 178.664,161.264 Z M178.664,158.528 C173.72,158.528 170.024,154.544 170.024,149.216 C170.024,143.888 173.72,140 178.664,140 C183.608,140 187.256,143.984 187.256,149.312 C187.256,154.64 183.56,158.528 178.664,158.528 Z M194.696,140.624 L196.808,140.624 L196.808,153.968 C196.808,158.72 198.728,161.264 203.192,161.264 C206.216,161.264 207.896,159.728 207.896,158.432 C207.896,157.232 206.936,156.8 206.84,156.896 C206.024,157.904 204.872,158.576 203.288,158.576 C200.744,158.576 199.88,156.992 199.88,153.632 L199.88,140.624 L205.976,140.624 C207.128,140.624 207.464,140.192 207.464,139.376 L207.464,139.088 C207.464,138.272 207.128,137.84 205.976,137.84 L199.88,137.84 L199.88,133.856 C199.88,132.704 199.352,132.368 198.536,132.368 L198.2,132.368 C197.384,132.368 196.808,132.704 196.808,133.856 L196.808,137.84 L194.696,137.84 C193.544,137.84 193.208,138.272 193.208,139.088 L193.208,139.376 C193.208,140.192 193.544,140.624 194.696,140.624 Z M217.544,170.144 C218.36,170.144 219.128,169.76 219.752,168.08 L230.792,138.464 C230.84,138.32 230.072,137.648 229.208,137.648 C228.2,137.648 227.48,138.224 226.904,139.904 L220.616,157.712 L213.368,139.808 C212.696,138.128 212.12,137.648 211.016,137.648 C209.912,137.648 209.432,138.368 209.48,138.56 L217.832,158.336 C218.264,159.296 218.696,159.536 219.752,159.536 L215.912,169.328 C215.864,169.472 216.68,170.144 217.544,170.144 Z M236.024,170.144 L236.36,170.144 C237.176,170.144 237.752,169.808 237.752,168.656 L237.752,156.896 C239.048,159.104 241.976,161.264 246.056,161.264 C252.392,161.264 257.048,156.416 257.048,149.216 C257.048,141.968 252.296,137.264 246.248,137.264 C242.456,137.264 239.768,138.848 237.704,141.68 L237.704,140.672 C237.704,138.176 236.744,137.648 235.688,137.648 C235.112,137.648 234.632,137.888 234.632,137.984 L234.632,168.656 C234.632,169.808 235.208,170.144 236.024,170.144 Z M245.816,158.528 C241.496,158.528 237.704,155.168 237.704,150.8 L237.704,145.424 C239.144,142.112 241.928,140 245.912,140 C250.52,140 253.88,143.888 253.88,149.264 C253.88,154.784 250.664,158.528 245.816,158.528 Z M263.72,132.128 C265.112,132.128 265.832,131.456 265.832,130.064 C265.832,128.672 265.16,128 263.816,128 C262.424,128 261.704,128.672 261.704,130.064 C261.704,131.408 262.424,132.128 263.72,132.128 Z M263.576,160.88 L263.912,160.88 C264.728,160.88 265.304,160.544 265.304,159.392 L265.304,139.136 C265.304,137.984 264.728,137.648 263.912,137.648 L263.576,137.648 C262.76,137.648 262.184,137.984 262.184,139.136 L262.184,159.392 C262.184,160.544 262.76,160.88 263.576,160.88 Z M275.048,140.672 C275.048,138.176 274.088,137.648 273.032,137.648 C272.456,137.648 271.976,137.888 271.976,137.984 L271.976,159.392 C271.976,160.544 272.552,160.88 273.368,160.88 L273.704,160.88 C274.52,160.88 275.096,160.544 275.096,159.392 L275.096,145.04 C276.44,142.16 279.08,140.192 282.632,140.192 C286.52,140.192 288.776,142.976 288.776,147.536 L288.776,159.392 C288.776,160.544 289.352,160.88 290.168,160.88 L290.504,160.88 C291.32,160.88 291.896,160.544 291.896,159.392 L291.896,147.344 C291.896,141.296 288.872,137.264 282.824,137.264 C279.272,137.264 276.632,138.992 275.048,141.44 L275.048,140.672 Z M305.72,170.816 C313.064,170.816 317.384,168.272 317.384,164 C317.384,160.352 313.928,158.816 310.664,158 C306.488,156.944 304.328,156.8 304.328,155.216 C304.328,154.832 304.376,154.496 304.664,154.064 C305.048,154.112 305.48,154.112 305.912,154.112 C311.288,154.112 315.32,150.416 315.32,145.712 C315.32,143.84 314.6,142.064 313.448,140.672 L317.24,136.448 C317.336,136.352 316.76,135.056 315.464,135.056 C314.456,135.056 313.928,135.536 313.256,136.496 L311.672,139.04 C310.088,137.936 308.072,137.264 305.912,137.264 C300.584,137.264 296.648,141.152 296.648,145.904 C296.648,149.408 298.904,152.336 302.36,153.536 C301.784,154.16 301.352,154.976 301.352,155.792 C301.352,156.848 301.784,157.52 302.36,158 C298.184,158.816 294.968,161.12 294.968,164.576 C294.968,168.8 298.424,170.816 305.72,170.816 Z M305.96,151.664 C302.36,151.664 299.816,149.264 299.816,145.808 C299.816,142.256 302.312,139.856 305.864,139.856 C309.608,139.856 312.104,142.352 312.104,145.808 C312.104,149.264 309.608,151.664 305.96,151.664 Z M314.264,164.096 C314.264,166.784 311.048,168.272 305.816,168.272 C300.68,168.272 297.992,166.976 297.992,164.576 C297.992,161.696 301.928,160.064 306.296,159.824 C309.944,160.736 314.264,161.312 314.264,164.096 Z" id="Prototyping" fill="#FFFFFF" sketch:type="MSShapeGroup" mask="url(#mask-2)"></path>
        </g>
    </g>
</svg>