<?xml version="1.0" encoding="UTF-8" standalone="no"?>
<svg width="300px" height="200px" viewBox="0 0 300 200" version="1.1" xmlns="http://www.w3.org/2000/svg" xmlns:xlink="http://www.w3.org/1999/xlink" xmlns:sketch="http://www.bohemiancoding.com/sketch/ns">
    <!-- Generator: Sketch 3.0.3 (7891) - http://www.bohemiancoding.com/sketch -->
    <title>timely</title>
    <desc>Created with Sketch.</desc>
    <defs></defs>
    <g id="Logo-page" stroke="none" stroke-width="1" fill="none" fill-rule="evenodd" sketch:type="MSPage">
        <g id="Artboard-1" sketch:type="MSArtboardGroup" transform="translate(-570.000000, -32.000000)" fill="#FFFFFF">
            <g id="timely" sketch:type="MSLayerGroup" transform="translate(570.000000, 76.000000)">
                <path d="M50.1827586,11.2912593 L50.1827586,21.1047407 L61.7782759,21.1047407 L61.7782759,0.0487407407 L0,0.0487407407 L0,20.9626667 L11.5944828,20.9626667 L11.5944828,11.3866667 L23.9017241,11.3866667 L23.9017241,80.9884444 L37.8755172,80.9884444 L37.8755172,11.2912593 L50.1827586,11.2912593" id="Fill-1" sketch:type="MSShapeGroup"></path>
                <path d="M80.6451724,31.2044444 L63.632069,31.2044444 L64.2951724,41.7324444 L69.0010345,41.7324444 L69.0010345,69.6971852 C69.0010345,77.0342222 74.1341379,83.2253333 82.7358621,83.2253333 C95.0431034,83.2253333 100.175172,73.7468148 100.175172,71.1262222 C100.175172,70.6491852 99.842069,70.0788148 99.842069,70.0788148 L95.1382759,63.4075556 C92.9989655,70.0788148 89.1031034,71.6022222 86.2510345,71.6022222 C81.452069,71.6022222 80.6451724,67.1242963 80.6451724,64.5524444 L80.6451724,31.2044444 L80.6451724,31.2044444 Z M81.6889655,14.2934815 C81.6889655,10.5300741 78.3641379,7.336 74.4662069,7.336 C70.4265517,7.336 67.2424138,10.5300741 67.2424138,14.2934815 C67.2424138,18.198963 70.4265517,21.3442963 74.4662069,21.3442963 C78.3641379,21.3442963 81.6889655,18.198963 81.6889655,14.2934815 L81.6889655,14.2934815 Z" id="Fill-2" sketch:type="MSShapeGroup"></path>
                <path d="M154.635517,69.6017778 C154.635517,77.0342222 159.673448,83.2253333 168.32069,83.2253333 C180.627931,83.2253333 185.761034,73.7468148 185.761034,71.0795556 C185.761034,70.6025185 185.428966,69.9834074 185.428966,69.9834074 L180.723103,62.9325926 C178.585862,69.9834074 174.687931,71.6022222 171.838966,71.6022222 C167.181724,71.6022222 166.134828,67.2663704 166.134828,64.5524444 L166.23,44.686963 C166.23,33.4911111 159.007241,28.6782222 150.12,28.6782222 C138.098276,28.6782222 134.011034,34.9678519 133.677931,35.5402963 C133.677931,37.0637037 133.582759,37.3011852 133.487586,37.3011852 C133.25069,35.7777778 133.25069,35.6357037 133.25069,35.6357037 C130.637586,30.2503704 125.505517,28.6782222 120.038276,28.6782222 C111.057931,28.6782222 106.828966,34.6339259 106.828966,34.6339259 L106.828966,29.8231111 L90.4324138,29.8231111 L90.4324138,40.1136296 L95.2334483,40.1136296 L95.2334483,80.9884444 L106.828966,80.9884444 L106.828966,53.6428148 C106.828966,46.4011852 110.534483,40.1136296 116.854138,40.1136296 C118.518621,40.1136296 123.746897,41.0656296 123.746897,47.9245926 L123.746897,80.9884444 L135.341379,80.9884444 L135.341379,53.6428148 C135.341379,46.4011852 139.381034,40.1136296 146.651379,40.1136296 C148.458621,40.1136296 154.635517,41.0656296 154.635517,47.9245926 L154.635517,69.6017778" id="Fill-3" sketch:type="MSShapeGroup"></path>
                <path d="M208.52069,83.130963 C228.051724,83.130963 236.843793,72.2700741 236.843793,68.7928889 C236.843793,68.5533333 236.702069,68.3614815 236.367931,67.8875556 L231.805862,61.5979259 C227.149655,70.0300741 218.025517,73.8888889 209.472414,73.8888889 C193.171034,73.8888889 191.841724,64.4072593 191.841724,63.98 C191.841724,63.8845926 191.983448,63.7425185 192.078621,63.7425185 C192.935172,63.98 197.258276,64.314963 197.637931,64.314963 C221.113448,64.314963 221.542759,47.1157037 221.542759,45.2106667 C221.542759,29.3948148 206.43,29.204 204.624828,29.204 C182.242759,29.204 179.056552,49.5921481 179.056552,57.0245926 C179.056552,63.8845926 179.771379,83.130963 208.52069,83.130963 L208.52069,83.130963 Z M209.946207,44.9244444 C209.946207,46.2103704 209.70931,55.0708148 196.308621,55.0708148 C191.983448,55.0708148 190.654138,54.405037 190.654138,54.1665185 C190.654138,46.8782222 194.977241,38.4460741 202.961379,38.4460741 C204.385862,38.4460741 209.946207,38.6835556 209.946207,44.9244444 L209.946207,44.9244444 Z" id="Fill-4" sketch:type="MSShapeGroup"></path>
                <path d="M242.927586,0.190814815 L226.578621,0.190814815 L226.578621,10.5300741 L231.188276,10.5300741 L231.188276,69.7438519 C231.188276,77.0342222 236.463103,83.2253333 245.113448,83.2253333 C257.325517,83.2253333 262.458621,73.7468148 262.458621,71.1262222 C262.458621,70.6491852 262.124483,70.0788148 262.124483,70.0788148 L257.42069,63.5517037 C255.376552,70.0788148 251.385517,71.6022222 248.534483,71.6022222 C243.877241,71.6022222 242.927586,67.2197037 242.927586,64.6934815 L242.927586,0.190814815" id="Fill-5" sketch:type="MSShapeGroup"></path>
                <path d="M300,31.2044444 L288.310345,31.2044444 C288.310345,31.2044444 288.405517,49.4977778 288.405517,61.6466667 C288.405517,67.7434074 288.405517,72.3167407 288.310345,72.3167407 C286.931379,72.4608889 285.506897,72.5562963 284.269655,72.5562963 C273.625862,72.5562963 267.637241,67.5059259 267.637241,53.8336296 C267.637241,45.7333333 267.781034,41.3995556 267.781034,41.3995556 L273.625862,41.3995556 L273.625862,31.2044444 L255.33,31.2044444 L255.33,50.1645926 C255.33,67.2663704 258.559655,83.749037 283.793793,83.749037 C285.172759,83.749037 286.836207,83.608 288.499655,83.5115556 C288.405517,94.8028148 282.606207,101.804889 269.966897,101.804889 L268.017931,101.804889 L268.017931,93.2306667 L257.515862,93.2306667 L257.515862,110.667407 C257.515862,110.667407 261.126207,112 267.922759,112 C298.717241,112 300,88.6573333 300,78.7484444 L300,31.2044444" id="Fill-7" sketch:type="MSShapeGroup"></path>
            </g>
        </g>
    </g>
</svg>