<?xml version="1.0" encoding="UTF-8" standalone="no"?>
<svg width="1900px" height="1200px" viewBox="0 0 1900 1200" version="1.1" xmlns="http://www.w3.org/2000/svg" xmlns:xlink="http://www.w3.org/1999/xlink" xmlns:sketch="http://www.bohemiancoding.com/sketch/ns">
    <!-- Generator: Sketch 3.0.2 (7799) - http://www.bohemiancoding.com/sketch -->
    <title>topographic_dark_min</title>
    <description>Created with Sketch.</description>
    <defs></defs>
    <g id="Topographic-Dark-Min" stroke="none" stroke-width="1" fill="none" fill-rule="evenodd" sketch:type="MSPage">
        <g id="topographic_dark_min" sketch:type="MSArtboardGroup" stroke="#FFFFFF" stroke-width="2" opacity="0.25">
            <path d="M-16.2517158,186.35724 C-11.0778324,186.719192 -5.61176,187.738372 0.101366512,189.329056 C51.7261754,203.69283 125.286539,254.00652 181.436715,301.967523 C271.618595,378.994214 315.37568,370.981266 330.191801,234.265856 C334.396472,195.482237 346.841823,168.185828 316.192859,142.046712 C285.546271,115.909978 290.183287,80.121987 300.55956,52.2993187 C310.938208,24.4742691 332.716979,-3.94371475 314.214051,-24.4821018 C291.055103,-50.1878279 227.666717,22.8407232 183.931011,-7.96090419 C140.195305,-38.7601503 174.509697,-129.17906 183.931011,-151.74152" id="Path" sketch:type="MSShapeGroup"></path>
            <path d="M1229.62495,-156.505094 C1221.2228,-130.126956 1234.66671,-109.926384 1225.70252,-84.6697039 C1216.74071,-59.413024 1168.09022,-7.0504504 1176.96391,28.8195231 C1185.8376,64.6918827 1221.66816,61.5112351 1250.39691,92.1843216 C1267.63225,110.588174 1269.98523,130.573998 1294.15329,144.272496 C1327.37367,163.103456 1352.12283,154.44675 1408.73249,161.695668 C1465.34216,168.944586 1542.22604,180.101906 1548.05609,206.604121 C1554.48392,235.807381 1502.42066,251.264421 1508.58175,280.004781 C1514.74284,308.745141 1557.87764,308.664014 1588.6855,325.018221 C1671.45659,368.960311 1725.70613,408.421338 1707.80157,315.939179 C1703.31947,292.789409 1688.4633,277.315666 1697.36795,250.488944 C1733.88202,140.492942 1627.03336,167.610766 1672.14962,52.2699388 C1688.39186,10.7377923 1718.08038,-17.2700404 1727.60423,-56.5831305 C1737.12571,-95.8938345 1747.76889,-128.444768 1779.69846,-144.720234 L1229.62495,-156.505094 Z" id="Path" sketch:type="MSShapeGroup"></path>
            <path d="M-100.809052,530.899015 C-59.2301031,526.323444 -30.1984366,599.216286 -0.173562675,599.216286 C36.4512578,599.216286 38.6687064,529.786038 72.768827,540.65183 C101.931492,549.945662 84.4396093,596.079499 105.532762,608.631404 C126.521116,621.123855 137.270145,597.437426 176.826951,608.350782 C209.48847,617.361613 206.482648,657.697507 232.696654,682.156836 C258.908278,706.616165 274.378019,688.164057 304.891161,700.17612 C324.752927,707.997873 331.964994,730.212223 363.766685,726.780545 C395.565994,723.348867 398.216929,690.948877 432.271796,666.991339 C466.32428,643.033801 497.721067,626.71252 502.660904,581.499028 C507.600741,536.285537 450.68305,531.560142 439.829223,475.763859 C422.158705,384.920699 544.932954,343.336272 580.052482,314.334667 C601.457649,296.662593 621.012164,280.633826 613.19274,253.106676 C605.370934,225.579527 569.53925,224.685341 560.893344,204.133321 C552.247438,183.58368 582.000788,158.239677 572.121113,102.353024 C562.24382,46.4687491 479.381266,24.0474995 456.970982,-10.3620318 C440.91532,-35.0116131 439.681551,-88.8268928 456.558932,-130.354243 C473.436312,-171.881594 499.781317,-198.186371 499.781317,-198.186371" id="Path" sketch:type="MSShapeGroup"></path>
            <path d="M1028.12049,1296.38514 C1025.65535,1243.67711 963.555554,1219.38295 963.555554,1219.38295 C939.101589,1210.56214 898.003129,1223.49551 878.629364,1215.85415 C859.257978,1208.2104 847.515221,1177.64017 799.375865,1160.0057 C751.234129,1142.36885 711.313513,1126.86691 666.108062,1130.796 C620.902611,1134.72748 579.806529,1128.26079 570.414703,1107.09752 C561.022877,1085.93187 583.806443,1059.1168 582.433481,1031.26048 C578.286039,947.088708 492.784013,969.081163 478.635597,886.065004 C463.459243,797.018195 546.767384,749.447298 569.241617,686.353015 C586.264451,638.560526 589.790847,587.718162 583.918279,555.527688 C578.045711,523.337214 548.806602,463.962349 573.700772,431.040382 C598.594941,398.120797 706.999508,335.41728 739.68411,370.883986 C772.368713,406.350693 690.766663,451.519813 661.998692,490.956123 C633.233101,530.392432 626.7728,576.833922 634.406187,619.160464 C642.039574,661.487006 585.20558,715.572244 573.700772,773.772431 C562.195963,831.972618 587.254317,929.945076 637.542348,955.618826 C706.564062,990.856792 760.416561,930.614619 798.202779,930.145224 C833.124097,929.713953 882.829154,939.435428 909.158153,932.496963 C942.620847,923.678537 1070.75134,868.289953 1132.12063,861.168019 C1243.49956,848.23941 1280.95265,879.374342 1298.81306,924.84845 C1313.84664,963.121994 1254.0264,1031.41774 1281.36668,1075.93876 C1299.51739,1105.49872 1472.03479,1101.79598 1496.78381,1079.51998 C1528.77836,1050.7225 1510.94888,1009.67071 1560.22801,967.784967 C1646.38916,894.549851 1734.88457,912.134285 1779.84732,982.488698 C1796.57985,1008.6652 1827.59644,1070.53477 1892.64441,1065.28565 C1896.71809,1064.95683 1900.84174,1064.3826 1905.01773,1063.74165 C1927.71326,1060.25335 1951.74844,1052.46426 1974.29405,1031.21759 C2000.98949,1006.06089 2007.79006,954.174901 2051.23469,944.739351" id="Path" sketch:type="MSShapeGroup"></path>
            <path d="M-9.10602543,1046.29747 C64.6129214,1042.6367 54.1566872,970.879327 85.0048362,940.608359 C102.986516,922.963376 140.951275,916.538586 164.580605,914.247925 C258.370578,905.156644 317.435584,880.014091 365.133982,801.258669 C390.391528,759.553428 424.351113,713.552308 450.407317,695.483922 C476.46352,677.415536 530.945754,665.353295 529.367454,586.181606 C527.789155,507.009917 469.356419,501.003772 474.540562,440.159744 C479.724705,379.318094 635.895539,333.837903 650.378339,293.150734 C664.861138,252.461186 604.374712,214.742598 597.952174,189.036299 C588.477623,151.120282 614.638412,135.46149 596.47846,80.1526292 C578.318508,24.8437686 489.097047,0.835841122 474.540562,-58.4239922 C459.984077,-117.683826 517.523077,-172.207725 535.683029,-199.20802 C553.842981,-226.210695 577.802708,-234.980855 609.111987,-226.91716 C662.015921,-213.294511 687.282974,-236.208249 732.28828,-232.257277 C777.291208,-228.306304 804.930465,-202.231311 804.141315,-190.380772 C803.352166,-178.527854 750.222421,-187.221897 724.955367,-173.789541 C699.688313,-160.357185 676.165946,-131.668033 667.544723,-97.1440005 C661.226771,-71.8587266 639.658262,26.5897132 681.694748,63.3782406 C713.277377,91.0183988 772.328122,51.8726084 793.663688,71.6179573 C850.242398,123.974887 707.715297,203.286918 754.1444,282.534724 C776.563859,320.800407 819.142291,312.629671 827.038543,366.673079 C832.225063,402.167609 831.811473,463.891746 774.153625,499.828709 C716.495777,535.768051 703.864627,565.282602 699.127352,601.488355 C694.387699,637.696486 721.233052,667.934153 699.127352,695.483922 C677.019274,723.033691 605.163861,758.171421 629.641765,848.456261 C654.119669,938.74348 733.864202,873.701098 759.13601,853.406276 C803.150124,818.061602 828.607334,814.897969 851.62341,804.089288 C879.531263,790.985188 885.663812,746.044955 920.208129,730.143539 C959.689386,711.970492 994.930152,706.60421 1014.16924,664.561198 C1039.18434,609.894578 967.347942,523.413233 1007.39967,461.867497 C1035.77103,418.273591 1144.00339,503.722593 1198.24555,473.061523 C1280.14123,426.767826 1246.32664,249.973096 1290.60222,199.062398 C1313.42576,172.820898 1357.04055,197.014362 1400.07298,202.830213 C1440.52403,208.298778 1486.28759,192.340273 1493.4969,214.699782 C1500.70621,237.061669 1471.63365,252.625314 1468.27976,277.803548 C1464.92588,302.981781 1498.46949,328.714245 1556.05366,348.716491 C1613.63782,368.718736 1675.69541,425.502373 1722.65933,396.344622 C1769.62087,367.184493 1736.07725,275.562839 1736.63346,219.055129 C1737.19205,162.547418 1710.35858,154.719211 1696.94066,114.434037 C1683.52273,74.1488633 1711.47575,37.2271304 1728.80852,4.21831144 C1761.45365,-57.955394 1760.10354,-113.123913 1821.75467,-119.653365 C1879.38162,-125.749899 1884.11414,-84.8010761 1904.79604,-84.403838 C1906.62392,-84.368158 1908.57778,-84.6488412 1910.70278,-85.3077331" id="Path" sketch:type="MSShapeGroup"></path>
            <path d="M1965.48641,505.020644 C1925.65252,508.43753 1929.23117,557.871646 1898.79599,551.15455 C1868.36082,544.435072 1846.73188,500.12033 1801.58236,504.884921 C1740.68108,511.311523 1752.5425,573.67742 1723.13047,617.361169 C1697.71825,655.099299 1640.88578,638.736347 1613.75086,698.887816 C1574.18347,786.595812 1614.05781,856.293131 1602.48668,899.348268 C1594.34192,929.662113 1556.75183,924.021276 1533.87608,955.773309 C1511.0027,987.52296 1506.67453,1032.06867 1481.94521,1057.12265 C1457.21827,1082.17902 1339.13711,1075.37382 1311.31692,1057.12265 C1283.49673,1038.87149 1336.52213,989.639762 1326.77126,934.319554 C1318.21724,885.780733 1281.27673,832.201112 1192.90503,830.962938 C1104.53333,829.727145 992.286519,870.594046 953.042727,883.587735 C913.798934,896.579043 862.596171,910.963297 858.170448,895.588504 C853.744725,880.216091 881.990833,871.155987 904.523951,852.654803 C927.616233,833.698827 940.179576,802.384918 961.994109,788.03638 C978.942725,776.888048 1041.60954,766.282607 1089.99269,740.338089 C1131.00201,718.348586 1160.90895,684.074963 1152.79513,642.310385 C1144.14117,597.764676 1133.65031,550.756905 1166.46966,538.537075 C1199.2914,526.317246 1304.61647,631.573984 1387.5155,623.094869 C1462.69569,615.403901 1481.79055,546.218519 1520.81067,518.721521 C1559.83318,491.222142 1666.92141,473.549582 1743.75053,467.649204 C1791.46507,463.984684 1833.15252,505.525438 1842.15863,487.026635 C1851.16474,468.527832 1811.34989,455.72225 1836.94532,385.046297 C1844.21921,364.959297 1811.9614,346.146188 1783.52256,352.313249 C1755.08372,358.480311 1765.12487,413.979102 1715.93272,434.625662 C1653.83459,460.686854 1547.81472,471.332773 1516.86559,488.15766 C1485.91884,504.980165 1446.10399,582.03986 1390.31846,595.040692 C1334.53293,608.041525 1278.05975,564.629222 1243.31069,536.334553 C1208.564,508.039885 1165.56786,486.333734 1130.33339,513.41642 C1096.61462,539.334745 1107.05552,582.123199 1114.69584,613.668075 C1122.33616,645.210571 1123.87327,676.743542 1090.75172,708.047927 C1057.6278,739.354693 973.955459,733.966252 942.682727,757.92731 C911.407616,781.890749 910.429674,807.320948 884.529675,830.303372 C858.629676,853.285796 815.731093,856.805068 751.54145,904.048569 C728.996435,920.637726 663.659911,946.987032 637.369687,917.489906 C604.281457,880.361338 584.865381,805.173192 605.414061,762.460934 C625.965121,719.748676 657.58049,692.813618 666.277274,650.518053 C674.971679,608.222489 647.936696,543.020696 713.699137,491.424536 C781.124793,438.521149 800.940612,420.784299 790.787622,379.155444 C780.632252,337.52897 724.972834,310.886788 696.519716,315.634711 C668.066599,320.380253 518.960175,392.6825 520.842297,451.212438 C522.724419,509.742375 559.141459,532.291437 556.59072,612.179885 C554.037601,692.065951 502.66352,716.586569 476.580305,758.505919 C450.497091,800.42765 427.573748,885.849785 458.399149,932.517058 C489.224549,979.18195 550.087762,985.510927 551.670077,1036.13083 C553.250012,1086.75312 495.13979,1108.96407 488.434581,1147.65702 C482.723971,1180.62818 487.808794,1186.73095 482.723971,1207.07987 C477.639148,1227.42879 454.508795,1244.35845 437.948024,1283.7705 C421.384874,1323.18492 408.022045,1385.37224 425.415613,1422.61986" id="Path" sketch:type="MSShapeGroup"></path>
            <path d="M506.574628,-219.122238 C519.742701,-252.835418 502.046392,-267.636675 523.444807,-282.435553 C544.840842,-297.239188 592.57064,-265.16742 623.842133,-261.059131 C655.116007,-256.946085 708.604902,-272.158884 760.862936,-256.125379 C813.12097,-240.089495 852.622806,-209.663897 851.799058,-173.072298 C850.97769,-136.483078 797.405468,-164.732021 762.510433,-156.215708 C747.404409,-152.533235 733.348307,-144.052605 721.396812,-131.287651 C705.355143,-114.150356 693.620298,-89.191374 687.211249,-57.9545851 C679.39278,-19.8666841 679.911789,18.3544328 706.659808,33.9787744 C733.405446,49.6007372 766.443475,27.7295136 794.605675,35.2252962 C833.686114,45.6280437 850.330119,94.4422169 836.752553,134.535495 C823.174987,174.631153 787.889506,207.347592 786.242009,244.762276 C784.596892,282.179338 835.816908,290.959705 851.810962,332.884704 C876.025835,396.352645 872.785598,451.104448 834.931259,491.901869 C797.07454,532.69691 739.057408,557.080208 736.176669,605.325834 C733.29593,653.573839 792.722481,644.990918 785.551584,680.707098 C777.126017,722.677295 673.419413,716.173497 657.996746,795.415647 C649.354529,839.819417 687.515988,857.962969 712.204635,843.984798 C736.890902,830.006626 737.409911,812.68378 758.805946,797.061817 C780.20198,781.437475 816.411203,785.550521 841.09985,765.815513 C865.788498,746.080504 862.541119,718.668919 884.306174,705.375859 C899.962157,695.812848 965.478733,695.32994 980.589518,658.507592 C1005.20912,598.512784 903.86663,440.830159 983.32503,418.347569 C1029.81921,405.190103 1070.2924,433.615082 1115.14146,441.836416 C1245.2961,465.693986 1204.10153,345.002608 1233.45888,270.760818 C1284.34559,142.06934 1161.36273,87.8822024 1040.1195,107.873292 C960.670825,120.973122 1030.85484,-42.1423137 1026.6742,-131.287651 C1024.20772,-183.910377 962.074223,-208.165216 962.074223,-208.165216" id="Path" sketch:type="MSShapeGroup"></path>
            <path d="M353.832803,691.277756 C374.216242,689.296077 377.350411,673.062344 394.989751,658.807999 C412.626824,644.555945 457.70035,620.798704 460.052111,580.80773 C462.403871,540.816755 409.098048,530.917523 403.21978,497.261049 C395.187054,451.26089 437.051572,415.130181 424.93218,360.140301 C421.305887,343.693508 414.166694,329.173412 402.827442,332.151659 C383.228679,337.299443 395.291375,379.462246 384.013355,406.589488 C352.535592,482.310253 288.799925,432.630815 238.59879,472.319382 C211.554674,493.698609 178.630022,473.107472 154.330005,494.488989 C130.027721,515.870507 117.599901,554.262392 134.338904,574.076893 C147.392651,589.527118 174.445838,570.255574 204.447231,586.076935 C235.652852,602.526018 234.965693,633.025551 248.005833,647.72205 C261.583453,663.018781 275.442287,658.413954 300.136909,665.541127 C324.829264,672.668299 333.451631,693.257145 353.832803,691.277756 L353.832803,691.277756 Z" id="Path" sketch:type="MSShapeGroup"></path>
            <path d="M937.388655,-183.33808 C970.703152,-178.266165 1006.07971,-141.084817 991.480958,-92.0317123 C976.882204,-42.978608 956.375846,-8.14638182 959.240355,35.7943465 C960.157093,49.8391 967.85293,73.3374648 972.936659,95.7743214 C980.146743,127.595767 978.034674,155.466309 947.060836,165.379272 C928.368906,171.360371 907.612529,164.382026 889.387302,141.780945 C861.089862,106.689292 872.193107,45.4645437 836.728443,20.7571067 C801.263779,-3.95033025 754.355368,20.0264273 727.846163,-5.03801917 C701.339339,-30.1024656 721.381374,-109.577539 774.040233,-122.467962 C826.699091,-135.358384 839.181015,-125.914293 867.533221,-143.950413 C895.887807,-161.986532 906.5053,-188.038705 937.388655,-183.33808 L937.388655,-183.33808 Z" id="Path" sketch:type="MSShapeGroup"></path>
            <path d="M1599.95578,-149.359732 C1594.35226,-121.864674 1581.43224,-89.8745893 1546.42455,-69.6732133 C1511.41924,-49.4718373 1457.62356,-70.1837949 1432.40773,-56.1809751 C1407.1919,-42.1757693 1400.46624,13.9404896 1371.32652,33.0204947 C1342.18918,52.1004999 1286.79726,80.098982 1299.12643,110.554936 C1311.45321,141.013276 1354.51597,109.340516 1394.30285,118.31864 C1434.08974,127.29915 1456.50143,149.748039 1513.66112,158.726164 C1570.81844,167.701902 1613.0783,136.556424 1624.61174,92.5056379 C1647.58807,4.76433601 1687.12003,2.22574334 1697.45985,-70.2338987 C1700.82387,-93.804159 1709.78902,-137.578181 1743.97001,-143.750492 L1599.95578,-149.359732 Z" id="Path" sketch:type="MSShapeGroup"></path>
            <path d="M435.975752,-144.596158 C419.385803,-105.181769 406.001354,-42.9945155 423.423064,-5.74692959 C445.837728,42.1799009 532.417195,59.8048214 540.794392,101.236004 C547.021879,132.037946 532.083537,149.962885 530.119722,189.091542 C526.4757,261.796125 515.522187,331.771964 473.631433,329.286093 C436.311794,327.071668 443.366276,270.953845 396.303824,291.624196 C350.418708,311.799277 380.826862,394.233044 334.31733,412.915174 C264.828299,440.83122 173.615753,355.64966 68.067832,341.979751 C47.4191724,339.305773 21.4701183,340.522516 -1.4068996,348.875423 C-13.1993243,353.185219 -24.1456878,359.140356 -33.0901037,367.359922 C-59.4109481,391.547161 -68.3791967,430.516284 -53.5838506,454.253494 C-11.859926,521.19819 46.9353684,450.215145 101.981778,419.317959 C141.880117,396.92369 240.511785,413.048516 241.407895,433.202167 C242.304005,453.3582 208.235147,452.346231 183.575442,451.508083 C116.004944,449.215081 118.509762,500.251632 59.3927257,505.316237 C19.4943867,508.733119 23.0788262,558.167187 -7.40797586,551.450097 C-37.8923946,544.730626 -56.7202352,504.537616 -102,508.733119" id="Path" sketch:type="MSShapeGroup"></path>
            <path d="M53.6273366,-149.359732 C46.6952627,-121.625892 43.9809537,-81.3488565 64.2799883,-34.1884479 C87.5288415,19.8243277 207.446108,42.7212033 223.108693,61.7613864 C233.247506,74.0875378 238.599999,110.667682 250.829852,136.469599 C273.826544,184.991894 288.387705,250.214598 259.400979,272.009562 C230.411874,293.80214 172.219563,215.924142 120.602494,177.278509 C95.7693027,158.686723 42.2752924,160.42307 22.494855,149.055725 C13.226715,143.729816 5.21700575,138.294193 0.249891704,132.309999 C-3.41835056,127.890425 -5.53318025,124.663397 -5.53318025,124.663397" id="Path" sketch:type="MSShapeGroup"></path>
            <path d="M457.219002,1416.66539 C441.150472,1391.99603 439.915714,1338.13755 456.806621,1296.57687 C473.697529,1255.01619 496.526236,1236.71826 507.479343,1208.69776 C520.663595,1174.96749 508.613985,1155.96744 524.37025,1145.35235 C545.968967,1130.80064 593.581016,1162.62924 624.890932,1166.73961 C656.203232,1170.85474 709.757849,1155.63423 762.080091,1171.67586 C814.402334,1187.71988 853.952706,1218.1609 853.127945,1254.77104 C852.305568,1291.37881 798.667522,1263.11555 763.729613,1271.6338 C748.605028,1275.32052 734.531656,1283.80545 722.565476,1296.57687 C706.504096,1313.72285 694.754833,1338.69449 688.337909,1369.94711" id="Path" sketch:type="MSShapeGroup"></path>
            <path d="M-6.50598729,623.418268 C27.1640545,627.094202 37.6984579,582.461936 59.255962,589.813805 C80.8134661,597.165673 61.8901589,634.446071 89.7721192,648.098182 C117.65408,661.750293 137.538094,632.559329 162.793009,638.333758 C188.047924,644.110566 199.190219,688.838003 228.664617,710.056114 C252.985048,727.567361 332.504418,734.871645 341.0149,774.057818 C352.17865,825.482831 283.434457,809.132656 241.289691,830.826616 C205.514676,849.237218 194.205508,877.709649 156.852359,892.411007 C119.499209,907.114744 67.1752398,900.136417 50.3259155,930.59076 C33.4789752,961.045102 51.3676748,1022.4796 -13.869819,1022.4796" id="Path" sketch:type="MSShapeGroup"></path>
            <path d="M1931.308,-141.023477 C1923.75007,-80.4944054 1943.55722,-55.3007606 1926.31695,-40.3418106 C1921.29975,-35.9868241 1914.29135,-33.5258279 1905.29416,-34.5907507 C1865.21596,-39.3364472 1889.28143,-77.4139909 1847.86864,-85.9953156 C1785.86602,-98.8387141 1768.97546,-20.4298974 1759.38353,2.58863652 C1747.01774,32.2611515 1726.38747,67.9515526 1731.73773,104.814084 C1737.08323,141.676615 1765.28571,169.984027 1774.10686,215.127703 C1782.92564,260.268997 1779.10504,314.594357 1809.66743,333.722468 C1840.22745,352.850579 1895.34062,329.677191 1895.34062,329.677191 C1898.68543,328.688504 1901.99931,327.740317 1905.29654,326.839779 C1947.12565,315.425807 1985.85974,311.728357 2040.51616,329.677191 L1931.308,-141.023477 Z" id="Path" sketch:type="MSShapeGroup"></path>
            <path d="M1697.17693,1360.1335 C1699.71203,1342.36954 1705.43685,1313.11476 1722.77556,1297.18294 C1733.40397,1287.41467 1760.64269,1277.09842 1799.62383,1272.00939 C1819.44052,1269.42198 1867.84083,1268.6167 1878.25501,1267.86859 C1886.11265,1267.30632 1893.34901,1266.96562 1904.77247,1262.801 C1914.09405,1259.40355 1926.20305,1253.44728 1943.70601,1242.7141 C1982.66573,1218.82233 1999.20701,1173.53566 1968.83808,1141.91982 C1947.37418,1119.5743 1923.856,1113.43458 1904.77247,1119.91261 C1887.33379,1125.83076 1874.71062,1149.0721 1863.16814,1147.18039 C1854.15839,1145.70323 1852.35645,1113.8396 1833.13486,1101.81748 C1810.32841,1087.55104 1777.87666,1075.36214 1761.65911,1055.5254 C1745.43918,1035.68627 1739.43586,982.780354 1663.15174,986.990242 C1586.86762,991.197747 1594.29441,1069.80137 1607.5103,1107.67606 C1631.75449,1177.16422 1611.72357,1245.70891 1595.66313,1297.18294 C1588.44105,1320.31707 1574.58961,1344.3637 1546.27257,1360.69339 L1697.17693,1360.1335 Z" id="Path" sketch:type="MSShapeGroup"></path>
            <path d="M1726.5763,1373.79322 C1734.28,1342.01841 1742.71716,1314.66571 1762.56341,1296.76512 C1790.46105,1271.6032 1863.91411,1292.30725 1905.69031,1275.96333 C1986.43034,1244.35539 2053.22035,1234.45035 2049.92693,1170.42872 C2046.5454,1104.68593 1962.00234,1073.67873 1905.69031,1088.71151 C1865.91207,1099.33172 1853.46232,1087.7222 1834.92581,1075.74795 C1816.38692,1063.7713 1787.42482,1048.72422 1774.42735,1024.18927 C1760.62499,998.138171 1735.6469,961.347667 1674.56024,956.131726 C1644.798,953.58812 1616.83369,965.498012 1594.43461,982.80502 C1527.48981,1034.52341 1566.96086,1065.00377 1524.67742,1099.88002 C1483.31081,1133.99819 1431.44478,1117.43257 1336.45232,1122.13836 C1301.34868,1123.87859 1256.0052,1152.76413 1242.37906,1182.2814 C1228.7553,1211.79867 1240.62161,1223.86828 1236.09227,1251.31872 C1232.89172,1270.72117 1225.66667,1293.07009 1225.79526,1296.76512 C1226.36917,1313.15433 1230.93424,1328.22764 1224.71651,1345.73251" id="Path" sketch:type="MSShapeGroup"></path>
            <path d="M1521.86907,553.388889 C1556.56955,502.621678 1745.96742,475.324424 1753.49133,495.805124 C1761.01525,516.283437 1730.99102,523.099991 1721.48613,567.401623 C1715.39557,595.782841 1708.96929,613.3101 1671.48305,623.010856 C1633.99444,632.711612 1603.15353,649.747028 1581.658,712.330395 C1560.16008,774.911375 1586.76482,842.654664 1548.65447,874.808792 C1510.54412,906.96292 1486.72515,976.034751 1462.90619,1012.95245 C1439.08722,1049.87015 1347.38419,1048.67926 1362.86652,996.279939 C1378.34885,943.880617 1343.81135,856.945393 1290.8873,831.461316 C1246.3233,810.002785 1186.27632,798.48161 1129.18029,808.146552 C1067.45801,818.594623 1024.55979,834.615315 1015.243,823.837758 C1005.9262,813.057814 1012.05724,795.055426 1058.27455,780.684554 C1104.49185,766.313683 1152.65205,751.264737 1170.81896,703.560797 C1186.14061,663.325222 1157.96164,598.676594 1193.26451,585.024385 C1228.56738,571.374564 1287.18248,658.454549 1394.73874,651.833777 C1461.26347,647.739069 1500.01401,585.363422 1521.86907,553.388889 Z" id="Path" sketch:type="MSShapeGroup"></path>
            <path d="M183.966387,1421.42897 C148.409419,1396.49877 164.276597,1332.46321 176.602377,1297.08241 C183.759051,1276.54032 211.139346,1242.14178 283.156506,1213.23255 C347.981244,1187.21068 399.002634,1211.25136 416.342614,1198.74345 C433.680211,1186.23554 430.317551,1164.91573 437.89843,1135.13363 C448.567904,1093.20751 477.966748,1079.51517 472.573624,1047.56874 C468.953581,1026.12287 412.558132,981.404537 389.219701,944.803618 C365.88127,908.2027 333.815653,925.189103 311.868996,935.487497 C255.854855,961.770995 177.834478,960.774453 149.160119,975.415771 C120.48576,990.05709 98.4485421,1023.35919 105.15003,1053.94281 C114.484925,1096.53487 166.12594,1099.83606 168.580611,1176.36763 C169.686404,1210.6425 150.75208,1237.1234 127.363602,1249.46007 C95.4743399,1266.27523 53.7783134,1265.72106 49.6673368,1297.08241 C46.2403314,1323.24461 47.1745359,1356.84876 63.6851711,1395.02893" id="Path" sketch:type="MSShapeGroup"></path>
            <path d="M885.302073,225.766729 C897.261382,209.422417 930.445846,209.461849 963.74459,211.660921 C1008.0607,214.58651 1097.28086,142.40321 1150.87183,188.85069 C1204.46281,235.298169 1197.13089,379.326169 1134.49838,397.285752 C1071.86587,415.245336 1043.78602,385.188445 1010.74788,375.580883 C937.433772,354.25838 910.399699,346.598516 891.369264,296.239252 C882.702489,273.302939 873.746769,241.558905 885.302073,225.766729 Z" id="Path" sketch:type="MSShapeGroup"></path>
            <path d="M1190.16222,1099.68839 C1189.18818,1124.22381 1166.16128,1129.6918 1128.08556,1149.09157 C1090.00509,1168.49134 1085.57308,1173.8876 1049.76934,1176.01311 C1001.87939,1178.8535 882.5296,1114.92321 828.016648,1099.95139 C773.503696,1084.98196 746.93786,1072.21455 747.147434,1049.95765 C747.357007,1027.69836 772.360567,1015.35654 800.776843,1008.509 C829.193118,1001.66146 850.500562,1012.0284 905.061144,1011.16768 C959.619346,1010.30456 1085.22538,926.2118 1126.14701,950.747224 C1167.06625,975.282648 1124.44184,1016.68827 1136.94481,1047.05271 C1149.44778,1077.41715 1191.13626,1075.15296 1190.16222,1099.68839 L1190.16222,1099.68839 Z" id="Path" sketch:type="MSShapeGroup"></path>
            <path d="M1232.84015,1055.11145 C1211.65309,1033.86284 1179.12893,1016.75119 1185.06798,977.78906 C1189.18384,950.788196 1210.77367,928.48572 1200.94516,909.116466 C1176.52166,860.976423 981.619767,950.788196 919.290724,964.288628 C856.961681,977.78906 828.150616,951.175962 798.162227,956.85209 C768.173837,962.528219 731.126272,987.766296 704.078809,993.049901 C677.033729,998.331127 635.305468,984.245478 618.536947,997.158314 C608.927697,1004.55441 612.493034,1022.59384 611.820958,1039.65078 C610.777096,1066.20202 597.099645,1081.85301 606.082101,1096.13849 C626.439792,1128.52287 680.877906,1090.92863 786.400906,1128.04471 C848.141286,1149.76196 863.429812,1184.16606 889.890997,1189.3331 C916.349798,1194.50252 935.587363,1190.13004 966.395589,1197.87822 C997.201431,1205.6264 1014.41562,1225.85206 1036.75855,1229.37288 C1057.21873,1232.59871 1069.47576,1210.68876 1111.08963,1204.42741 C1148.79497,1198.75129 1164.50533,1209.24713 1193.12335,1194.81416 C1219.64888,1181.43505 1225.23521,1155.79255 1249.52526,1130.42839 C1272.93827,1105.98488 1254.61587,1076.94289 1232.84015,1055.11145 L1232.84015,1055.11145 Z" id="Path" sketch:type="MSShapeGroup"></path>
            <path d="M1484.59166,455.249939 C1499.9237,448.393919 1535.29023,441.34007 1560.75414,433.828741 C1585.15859,426.628581 1594.2083,412.949514 1564.46323,398.456461 C1546.24611,389.580935 1522.3435,380.800202 1507.62896,374.793199 C1480.47779,363.708579 1427.40837,340.719173 1423.29449,302.544312 C1420.11409,273.038905 1435.5308,262.523045 1426.68761,255.28167 C1417.55943,247.813616 1394.63366,258.786957 1373.45711,254.558357 C1350.83079,250.043317 1340.79186,240.071487 1318.28945,255.522775 C1295.78704,270.974063 1301.93307,338.73882 1293.29228,378.727116 C1284.65355,418.717472 1257.9939,445.809775 1260.62703,474.134388 C1263.26016,502.459002 1327.48991,546.412125 1368.66998,540.88321 C1409.85005,535.352234 1433.18266,478.237284 1484.59166,455.249939 L1484.59166,455.249939 Z" id="Path" sketch:type="MSShapeGroup"></path>
            <path d="M-19.824561,1096.77074 C33.2255719,1065.37514 141.759855,1095.22228 145.600405,1169.79608 C149.007076,1235.92719 77.4574582,1244.27696 -6.99650339,1278.52173" id="Path" sketch:type="MSShapeGroup"></path>
            <path d="M858.970892,531.927549 C904.277497,506.721201 966.858176,554.433899 940.949017,611.092905 C898.17745,704.617626 666.969552,638.742113 858.970892,531.927549 L858.970892,531.927549 Z" id="Path" sketch:type="MSShapeGroup"></path>
            <path d="M1737.8931,1106.77407 C1721.49862,1091.95187 1713.34178,1067.02611 1702.73764,1059.97551 C1665.90233,1035.4852 1647.00828,1075.43305 1659.86963,1093.89358 C1677.21689,1118.8003 1679.62142,1139.58803 1679.62142,1165.26335 C1679.62142,1190.93867 1682.31819,1213.91082 1699.86029,1224.72111 C1717.40238,1235.53139 1767.47207,1260.02169 1795.66107,1223.3719 C1824.2041,1186.26048 1815.18714,1162.11997 1799.62426,1145.41554 C1782.36254,1126.88839 1753.513,1120.89906 1737.8931,1106.77407 L1737.8931,1106.77407 Z" id="Path" sketch:type="MSShapeGroup"></path>
            <path d="M301.183378,634.634366 C326.689027,645.085372 355.999006,639.28254 368.050141,631.958527 C400.562439,612.199348 408.7374,608.276762 410.695109,582.647254 C411.639251,570.286937 396.576774,528.608787 370.138466,512.318364 C341.75611,494.830083 295.108506,492.865596 269.731924,510.565768 C220.318981,545.031308 257.8783,616.889999 301.183378,634.634366 Z" id="Path" sketch:type="MSShapeGroup"></path>
            <path d="M947.225533,-88.6241572 C958.967236,-53.7424917 939.438386,-25.3683878 934.932225,4.75656516 C930.552256,34.0378868 954.154227,85.4300129 926.798805,94.7226024 C890.295609,107.122675 890.217225,23.1241022 862.815652,-0.233868892 C835.41408,-23.59184 798.111091,-6.19051997 780.408381,-23.5918413 C762.707261,-40.9931625 779.650362,-88.0923225 816.004635,-103.744379 C852.358909,-119.396435 935.48383,-123.505823 947.225533,-88.6241572 Z" id="Path" sketch:type="MSShapeGroup"></path>
            <path d="M1520.81155,103.393292 C1591.84467,86.9386017 1603.75186,23.3123902 1564.93827,-7.04896799 C1439.30168,-88.071032 1354.63482,137.112061 1520.81155,103.393292 Z" id="Path" sketch:type="MSShapeGroup"></path>
            <path d="M420.826345,241.253379 C446.071384,264.249732 462.509539,279.361975 478.719185,262.689464 C491.157617,249.895855 488.301601,186.075576 493.474196,168.992599 C503.951508,134.390299 497.923483,85.0678606 457.774422,70.7304579 C417.62043,56.3881686 369.999459,83.1119436 379.335099,165.159895 C383.332739,200.293882 401.920272,224.031353 420.826345,241.253379 Z" id="Path" sketch:type="MSShapeGroup"></path>
            <path d="M-11.7987698,904.581131 C-7.79236089,898.954036 -3.66692616,894.098071 0.55610975,889.89864 C43.2387669,847.445946 98.6500447,866.662105 142.182546,843.37066 C171.505746,827.678299 201.521676,805.539967 200.474249,778.758147 C199.429202,751.973941 173.283992,735.763515 147.483956,718.060966 C122.683737,701.0436 98.116809,719.206917 76.1708293,715.005098 C54.2224691,710.803279 35.8496443,686.647597 -13.869819,686.647597" id="Path" sketch:type="MSShapeGroup"></path>
            <path d="M-20.2673372,1133.54668 C-14.351129,1126.80928 -7.21268165,1121.9721 0.686692824,1119.29612 C33.6586153,1108.12247 88.8591207,1120.2498 98.1400534,1162.69307 C108.586156,1210.45748 44.3092168,1245.73159 0.686692824,1261.57635 C-10.7129463,1265.71368 -17.936998,1266.03869 -25.7793029,1266.61279 L-20.2673372,1133.54668 Z" id="Path" sketch:type="MSShapeGroup"></path>
            <path d="M1905.06341,189.8876 C1873.92956,181.235955 1860.40635,212.566192 1840.06197,223.548492 C1834.1052,226.764078 1827.56364,228.235232 1819.82404,226.447584 C1794.86395,220.682236 1798.70543,192.804861 1788.46308,168.307502 C1778.22311,143.807757 1760.30494,128.431907 1758.3842,90.6363213 C1756.46346,52.8431211 1777.58445,29.7817313 1785.90368,-2.89254637 C1809.85811,-96.9557284 1875.35152,-60.052257 1873.3855,1.59187779 C1871.95567,46.51245 1875.75426,97.0767177 1905.08009,132.327154 C1910.0559,138.309567 1917.87231,146.467402 1927.14,151.784307" id="Path" sketch:type="MSShapeGroup"></path>
            <path d="M1986.60552,281.085273 C1968.3041,307.143151 1902.04934,300.110336 1874.38341,312.734132 C1846.71985,325.357927 1827.37318,301.785724 1834.94413,281.085273 C1842.51271,260.382439 1877.86838,197.099021 1920.33176,228.318904 C1962.79514,259.54117 2003.42933,257.129375 1986.60552,281.085273 L1986.60552,281.085273 Z" id="Path" sketch:type="MSShapeGroup"></path>
            <path d="M1933.31241,575.165553 C1933.31241,575.165553 1929.44972,596.988685 1905.90488,596.988685 C1875.9238,596.988685 1846.92981,523.87678 1805.41059,528.466102 C1787.50757,530.441132 1772.30416,546.756601 1768.95046,565.264163 C1763.79862,593.67073 1747.66283,642.788878 1716.76603,657.852063 C1685.86685,672.915248 1666.68657,677.14916 1643.62219,703.981427 C1620.55543,730.816079 1611.88102,762.376016 1621.75182,822.197016 C1627.96686,859.853786 1653.47634,890.495381 1677.83463,893.157379 C1710.31314,896.709094 1732.55218,863.176512 1746.55682,834.144996 C1762.67834,800.726909 1766.60288,761.080797 1820.23107,739.29583 C1871.37848,718.51746 1903.51686,743.331761 1905.92153,744.562577 C1947.67621,765.915805 2005.88303,763.480411 2024.67085,769.66073 C2045.40192,776.480309 2042.9806,796.006395 2024.67085,804.16413 C2006.36111,812.319479 1972.02499,810.299128 1942.20327,814.25873 C1927.29241,816.236145 1914.61021,822.008577 1905.65751,827.287252 C1805.80543,886.137434 1784.00641,848.163419 1762.26924,873.314048 C1749.57991,887.99797 1750.29108,913.704374 1773.46487,935.24127 C1785.22421,946.170726 1797.75894,960.885656 1807.6678,981.468431 C1827.21199,1022.06389 1856.24166,1053.65722 1905.91677,1044.79821 C1966.21192,1034.03096 1958.70059,968.721375 1987.72313,940.183616 L1933.31241,575.165553 Z" id="Path" sketch:type="MSShapeGroup"></path>
            <path d="M666.375037,1331.59557 C675.004634,1297.15628 698.549848,1268.53755 723.841443,1255.13816 C749.133038,1241.73878 802.314386,1250.41148 803.104303,1238.58766 C803.894219,1226.7662 776.228117,1200.75521 731.181478,1196.81394 C686.13246,1192.87266 660.840865,1215.73016 607.885547,1202.14095 C576.545858,1194.09705 552.562859,1202.84568 534.385269,1229.78207 C516.207678,1256.7161 458.612792,1311.10616 473.183416,1370.22054" id="Path" sketch:type="MSShapeGroup"></path>
            <path d="M1383.18,1322.52872 C1439.03161,1292.62739 1492.1806,1328.71618 1510.86119,1296.56271 C1512.38958,1293.93126 1513.6874,1290.84464 1514.73802,1287.22699 C1522.65332,1259.92156 1517.11499,1208.77898 1467.30088,1190.35647 C1448.50145,1183.40328 1422.27161,1187.95497 1389.20324,1193.36011 C1352.61457,1199.34133 1330.94852,1189.87522 1314.75424,1198.66331 C1265.58429,1225.34526 1308.82608,1362.33709 1383.18,1322.52872 L1383.18,1322.52872 Z" id="Path" sketch:type="MSShapeGroup"></path>
            <path d="M304.113397,1150.24555 C336.465294,1150.01601 345.796595,1161.81416 361.278922,1154.66879 C382.458254,1144.89417 421.351793,1073.19511 411.689459,1040.43219 C406.855634,1024.04942 380.696114,1007.48212 356.269223,994.499796 C331.844989,981.520104 293.735107,984.807203 259.74952,991.014996 C221.974471,997.918695 185.456376,1009.26934 177.151977,1025.68111 C167.518874,1044.7157 192.421513,1071.7603 198.118995,1091.55143 C204.560551,1113.93639 205.814775,1144.13793 221.929295,1150.24555 C250.275968,1161.94243 281.483579,1150.40612 304.113397,1150.24555 Z" id="Path" sketch:type="MSShapeGroup"></path>
            <path d="M1075.84796,1117.75109 C1049.64709,1130.85092 860.286315,1099.88769 867.431994,1060.5882 C874.577673,1021.28871 938.888886,1057.01552 971.481937,1048.29132 C1004.07499,1039.56712 1062.74753,1003.4253 1083.80782,1017.6115 C1104.86811,1031.7977 1082.94148,1051.09452 1089.2938,1066.51273 C1095.64612,1081.93095 1102.04882,1104.65126 1075.84796,1117.75109 Z" id="Path" sketch:type="MSShapeGroup"></path>
            <path d="M1317.124,758.727937 C1293.96858,755.124826 1227.09841,765.246576 1204.47039,727.13798 C1181.84237,689.029384 1212.55942,635.543944 1242.19144,636.643579 C1255.8979,637.152253 1290.01646,661.760626 1328.19656,680.915709 C1372.54025,703.162735 1411.99023,711.633162 1412.87837,729.925493 C1413.76652,748.220319 1340.27688,762.328554 1317.124,758.727937 Z" id="Path" sketch:type="MSShapeGroup"></path>
            <path d="M1974.87469,337.715763 C1943.46508,338.446281 1900.06064,343.03165 1873.87845,367.179201 C1847.67254,391.350547 1838.74582,430.294064 1853.47657,454.015677 C1895.0183,520.916385 1953.5545,449.979981 2008.36055,419.103097 L1974.87469,337.715763 Z" id="Path" sketch:type="MSShapeGroup"></path>
            <path d="M123.102573,59.7905262 C95.3226316,38.852097 43.6305402,15.4894956 28.3095105,17.4848864 C-5.58073107,21.8996587 8.6798136,81.4523743 24.5394267,95.2620121 C34.2187421,103.690088 73.7287412,112.712589 107.606917,129.309377 C147.880535,149.039268 175.490976,188.85406 198.118995,163.845293 C220.747014,138.836525 150.880131,80.7289553 123.102573,59.7905262 Z" id="Path" sketch:type="MSShapeGroup"></path>
            <path d="M1004.69583,244.880206 C1036.61774,246.158964 1081.12739,230.092359 1108.00031,241.251444 C1129.9962,250.385319 1140.18913,283.468547 1142.21662,307.345741 C1146.11032,353.200683 1093.71119,384.164643 1034.0358,354.378456 C974.360407,324.59227 969.857234,328.188817 954.500056,300.554393 C943.270252,269.339614 946.64537,242.554766 1004.69583,244.880206 Z" id="Path" sketch:type="MSShapeGroup"></path>
            <path d="M1519.84379,843.437404 C1551.53005,824.967029 1552.28427,777.844989 1490.92231,770.950357 C1429.56035,764.055725 1368.8219,784.301375 1354.44079,813.417874 C1340.05968,842.534374 1360.02826,851.82668 1376.50888,876.344048 C1392.9895,900.861416 1384.22862,964.759865 1434.79171,956.771218 C1485.35317,948.784806 1488.15753,861.907779 1519.84379,843.437404 Z" id="Path" sketch:type="MSShapeGroup"></path>
            <path d="M1480.55968,431.716208 C1495.03754,427.439078 1500.40624,419.313267 1482.76009,410.703922 C1471.95284,405.43157 1457.7727,400.215528 1449.04335,396.647173 C1432.93601,390.062548 1411.8881,373.706011 1399.01222,353.728981 C1382.21227,327.663724 1382.45133,318.810234 1356.46401,315.220702 C1330.47668,311.631171 1325.47889,382.347893 1321.88886,398.984048 C1316.76396,422.739622 1306.56674,427.71857 1302.51031,455.659075 C1300.14973,471.918642 1308.98292,481.713632 1321.88886,489.955814 C1334.61331,498.082083 1351.95886,502.35637 1367.72686,497.847077 C1391.36504,491.087089 1404.87834,458.096329 1435.37655,444.441097 C1444.47223,440.368398 1465.4533,436.178182 1480.55968,431.716208 Z" id="Path" sketch:type="MSShapeGroup"></path>
            <path d="M893.014635,601.806201 C912.634342,595.441724 916.25359,562.456433 893.014635,553.711722 C854.653836,539.278509 809.871358,628.779325 893.014635,601.806201 L893.014635,601.806201 Z" id="Path" sketch:type="MSShapeGroup"></path>
            <path d="M1249.80589,29.6832506 C1261.30738,51.2213657 1283.70014,30.2544088 1296.73547,11.6028941 C1320.4935,-22.3964236 1350.39641,-28.0795662 1350.94964,-48.6981403 C1351.3153,-62.2376707 1338.09001,-72.8574213 1318.69372,-71.8904813 C1277.73333,-69.8475835 1236.78243,5.29408439 1249.80589,29.6832506 L1249.80589,29.6832506 Z" id="Path" sketch:type="MSShapeGroup"></path>
            <path d="M-45.0862078,1176.66673 C-24.4788163,1178.70339 -11.957599,1158.49395 -0.118147811,1147.82469 C14.9472212,1134.24692 47.3774354,1143.30829 52.1878063,1169.79923 C56.3591699,1192.78139 40.115557,1224.14366 -0.118147811,1241.23259 C-20.1720497,1249.74847 -21.5783408,1245.72516 -96.045258,1260.65833" id="Path" sketch:type="MSShapeGroup"></path>
            <path d="M1775.46389,1179.92911 C1772.05033,1160.19293 1688.39526,1123.81331 1705.8775,1179.4995 C1722.87585,1233.6405 1783.07434,1223.91838 1775.46389,1179.92911 L1775.46389,1179.92911 Z" id="Path" sketch:type="MSShapeGroup"></path>
            <path d="M349.075186,546.177197 C337.733403,541.529872 324.69992,544.110259 319.341054,547.367082 C304.883573,556.15354 301.248353,557.897825 300.377804,569.294686 C299.957966,574.791039 306.655908,593.324366 318.412423,600.568347 C331.033413,608.344989 351.776544,609.218552 363.060934,601.347687 C385.033749,586.021644 368.331972,554.067714 349.075186,546.177197 Z" id="Path" sketch:type="MSShapeGroup"></path>
            <path d="M1612.78797,596.453478 C1630.79206,595.722247 1652.46379,574.976311 1640.63109,560.63123 C1610.53297,524.152657 1548.37923,599.064828 1612.78797,596.453478 L1612.78797,596.453478 Z" id="Path" sketch:type="MSShapeGroup"></path>
            <path d="M1509.35833,30.9044446 C1459.33334,-10.0251776 1425.62136,100.031024 1491.7883,76.894982 C1520.07171,68.5738021 1524.81282,43.5490528 1509.35833,30.9044446 Z" id="Path" sketch:type="MSShapeGroup"></path>
            <path d="M701.523505,184.15588 C716.646976,167.753736 745.365622,145.666463 737.45752,130.729388 C729.549418,115.789946 689.101929,112.781703 669.334055,119.856163 C649.56618,126.930623 638.594344,146.478286 645.709731,170.063764 C652.825118,193.649242 675.428197,212.458453 701.523505,184.15588 L701.523505,184.15588 Z" id="Path" sketch:type="MSShapeGroup"></path>
            <path d="M79.8969621,281.085273 C61.59783,307.143151 -4.6572387,300.110336 -32.3233029,312.734132 C-59.9869915,325.357927 -79.3337566,301.785724 -71.7651424,281.085273 C-64.1941527,260.382439 -28.8383195,197.099021 13.6252643,228.318904 C56.0888481,259.54117 96.7208558,257.129375 79.8969621,281.085273 L79.8969621,281.085273 Z" id="Path" sketch:type="MSShapeGroup"></path>
            <path d="M443.814039,192.617634 C459.410033,187.677575 459.040465,158.704646 458.953153,141.091962 C458.86584,123.479278 456.1381,100.124789 435.530084,99.1164463 C414.919092,98.1065223 404.221827,132.009886 412.719737,154.22801 C421.215367,176.446832 430.136632,196.951193 443.814039,192.617634 L443.814039,192.617634 Z" id="Path" sketch:type="MSShapeGroup"></path>
            <path d="M77.1545067,85.852455 C26.3212957,103.93773 16.471562,43.373864 48.0863984,40.9331333 C68.9469615,39.3235066 98.9306488,78.1054689 77.1545067,85.852455 L77.1545067,85.852455 Z" id="Path" sketch:type="MSShapeGroup"></path>
            <path d="M1530.10382,698.446547 C1486.22478,729.842761 1460.06294,674.339991 1489.78032,663.27958 C1509.3891,655.982357 1548.90103,684.997348 1530.10382,698.446547 L1530.10382,698.446547 Z" id="Path" sketch:type="MSShapeGroup"></path>
            <path d="M-13.869819,839.081981 C-13.869819,839.081981 -8.5279704,834.224639 0.607641853,828.905373 C9.58557879,823.674205 22.2306613,817.9954 37.0784203,816.038177 C67.0319523,812.085633 103.079874,808.780736 121.47055,800.637544 C139.861225,792.496733 142.293248,773.005455 121.47055,766.198033 C102.594903,760.02635 42.5349418,767.783812 0.595696753,746.44484 C-3.72842934,744.242368 -7.880546,741.789886 -11.7913716,739.046916" id="Path" sketch:type="MSShapeGroup"></path>
            <path d="M1905.32364,889.498396 C1948.03177,847.228772 2000.80834,871.828366 2044.35728,848.622773 C2073.69798,832.989031 2101.99062,804.733159 2100.94257,778.044943 C2099.89452,751.359106 2076.31811,728.336684 2048.54949,716.825473 C2020.78088,705.311883 2002.9235,719.442198 1980.96204,715.255438 C1961.27057,711.501627 1944.4541,691.759627 1905.32364,687.720355 C1871.60495,684.237732 1828.742,705.385627 1804.76304,693.396269 C1793.02724,687.527669 1788.73023,671.215957 1789.27093,653.203374 C1789.80924,635.428675 1797.88639,596.1778 1815.68422,596.139739 C1848.06665,596.068374 1869.26827,661.660153 1905.32603,659.994964 C1936.73901,658.54625 1958.75286,667.079153 1982.00771,683.336151 C2008.20425,701.650847 2029.31774,660.86562 2058.13202,676.040246 C2086.94869,691.214872 2083.65209,713.685403 2108.27894,737.23117 C2125.69327,753.883056 2184.77245,751.359106 2182.1547,774.383907 C2179.53457,797.408708 2153.7906,794.789604 2129.19472,805.130425 C2104.60123,815.468868 2090.36677,848.77264 2068.76737,863.335904 C2034.62469,886.360705 1973.10165,872.756114 1942.19126,895.778536 C1916.21624,915.125648 1919.096,928.558963 1905.32603,948.503165 C1868.87049,1001.30392 1834.5444,964.817256 1834.5444,925.414135 C1834.5444,910.058717 1843.57432,897.424694 1858.94972,906.497593 C1880.87068,919.433729 1891.24402,903.433646 1905.32364,889.498396 L1905.32364,889.498396 Z" id="Path" sketch:type="MSShapeGroup"></path>
            <path d="M1564.0186,693.933104 C1573.79153,671.959141 1548.783,632.693928 1506.04467,635.088393 C1463.30536,637.480172 1431.86657,672.680916 1448.60205,708.971398 C1465.33752,745.261881 1547.26556,731.599511 1564.0186,693.933104 L1564.0186,693.933104 Z" id="Path" sketch:type="MSShapeGroup"></path>
            <path d="M1342.66632,411.655267 C1335.78203,421.792812 1335.24318,425.559068 1333.27796,439.078667 C1332.13432,446.9462 1336.41375,451.685711 1342.66632,455.673863 C1348.83096,459.605929 1357.2344,461.674133 1364.87355,459.492217 C1376.32559,456.221255 1391.44928,453.232445 1397.64794,433.650613 C1404.54972,397.260444 1358.10273,388.924189 1342.66632,411.655267 Z" id="Path" sketch:type="MSShapeGroup"></path>
            <path d="M279.310801,1121.71663 C307.926391,1114.41485 323.839033,1096.40204 326.629345,1069.75662 C329.417274,1043.11119 279.52764,1031.01694 251.133655,1039.39483 C222.739669,1047.77509 232.976373,1079.08442 234.525222,1098.40188 C236.074072,1117.71934 253.20673,1128.38037 279.310801,1121.71663 L279.310801,1121.71663 Z" id="Path" sketch:type="MSShapeGroup"></path>
            <path d="M1854.62827,829.080148 C1840.63673,834.907181 1807.96897,838.836858 1799.66692,824.201792 C1791.36487,809.566727 1808.54066,778.285789 1835.16186,771.971703 C1888.22867,759.384607 1898.55404,810.787293 1854.62827,829.080148 L1854.62827,829.080148 Z" id="Path" sketch:type="MSShapeGroup"></path>
            <path d="M1642.09965,608.015624 C1622.98444,616.000817 1578.35384,621.385931 1567.0116,601.33047 C1555.66936,581.275009 1579.13487,538.40854 1615.50469,529.755903 C1688.00441,512.50692 1702.11091,582.947638 1642.09965,608.015624 L1642.09965,608.015624 Z" id="Path" sketch:type="MSShapeGroup"></path>
            <path d="M1050.44225,1091.02903 C1033.52115,1099.56571 989.878959,1088.02316 992.603571,1072.77191 C995.328184,1057.52065 1041.63956,1044.4206 1053.47731,1052.16709 C1065.31506,1059.91358 1067.36335,1082.49236 1050.44225,1091.02903 Z" id="Path" sketch:type="MSShapeGroup"></path>
            <path d="M1696.39218,832.553991 C1731.45121,802.988949 1747.3331,719.299296 1707.26224,722.461633 C1691.3423,723.720018 1670.39628,735.20454 1662.02738,757.850801 C1646.38324,800.172785 1661.33314,862.119033 1696.39218,832.553991 L1696.39218,832.553991 Z" id="Path" sketch:type="MSShapeGroup"></path>
            <path d="M1353.90719,719.224151 C1346.9992,710.309959 1315.04848,694.663399 1291.69107,690.834035 C1268.33165,687.002639 1260.19633,701.873168 1271.32063,714.224646 C1303.37982,749.820468 1367.27925,736.481684 1353.90719,719.224151 L1353.90719,719.224151 Z" id="Path" sketch:type="MSShapeGroup"></path>
            <path d="M1654.15297,266.063687 C1646.31041,251.179617 1617.13602,235.262886 1605.89455,256.646856 C1582.67293,300.802301 1702.39612,357.638855 1654.15297,266.063687 L1654.15297,266.063687 Z" id="Path" sketch:type="MSShapeGroup"></path>
            <path d="M1047.48434,291.413113 C1065.06695,292.840251 1097.57471,295.893289 1102.23657,316.637712 C1106.90006,337.383333 1078.87028,341.399637 1059.27048,335.39959 C1039.66904,329.398345 1032.44009,327.239569 1027.585,313.70701 C1023.08554,301.164617 1029.90294,289.985649 1047.48434,291.413113 Z" id="Path" sketch:type="MSShapeGroup"></path>
            <path d="M1452.76064,873.68518 C1463.01131,856.656717 1486.19605,827.581765 1485.08449,812.908456 C1483.97521,798.236821 1428.10741,799.295448 1408.17969,812.237982 C1388.25,825.180829 1431.63278,908.779469 1452.76064,873.68518 L1452.76064,873.68518 Z" id="Path" sketch:type="MSShapeGroup"></path>
            <path d="M1565.84021,1238.99454 C1584.68788,1242.40426 1584.68788,1206.84486 1581.78839,1177.61954 C1578.8889,1148.3922 1578.40532,1120.62703 1559.55765,1120.13964 C1540.70798,1119.65225 1524.09437,1145.65314 1526.20853,1158.13397 C1528.3247,1170.6148 1531.99153,1167.93214 1544.57463,1198.07787 C1552.03816,1215.9482 1553.51688,1236.76503 1565.84021,1238.99454 L1565.84021,1238.99454 Z" id="Path" sketch:type="MSShapeGroup"></path>
            <path d="M1152.66598,-18.9227413 C1146.08265,9.43504308 1140.14246,34.9952092 1124.54798,48.2701822 C1108.9535,61.5427701 1054.38826,70.6272781 1039.34437,37.046319 C1024.30286,3.46297477 1075.24656,-57.7268753 1066.10963,-124.142285 C1056.97508,-190.56008 1097.07313,-205.168274 1126.03362,-205.32807 C1187.39104,-205.661972 1201.4002,-183.166545 1198.05632,-138.829185 C1192.0307,-58.9503861 1162.09244,-59.5180188 1152.66598,-18.9227413 L1152.66598,-18.9227413 Z" id="Path" sketch:type="MSShapeGroup"></path>
        </g>
    </g>
</svg>