<?xml version="1.0" encoding="UTF-8" standalone="no"?>
<svg width="300px" height="200px" viewBox="0 0 300 200" version="1.1" xmlns="http://www.w3.org/2000/svg" xmlns:xlink="http://www.w3.org/1999/xlink" xmlns:sketch="http://www.bohemiancoding.com/sketch/ns">
    <!-- Generator: Sketch 3.0.3 (7891) - http://www.bohemiancoding.com/sketch -->
    <title>twalkin</title>
    <desc>Created with Sketch.</desc>
    <defs></defs>
    <g id="Logo-page" stroke="none" stroke-width="1" fill="none" fill-rule="evenodd" sketch:type="MSPage">
        <g id="Artboard-1" sketch:type="MSArtboardGroup" transform="translate(-1285.000000, -399.000000)" fill="#FFFFFF">
            <g id="twalkin" sketch:type="MSLayerGroup" transform="translate(1285.000000, 449.000000)">
                <path d="M292.027778,-0.697183099 L7.97222222,-0.697183099 C3.95833333,-0.697183099 0.694444444,2.53774648 0.694444444,6.5256338 L0.694444444,72.6743662 C0.694444444,76.6622535 3.95833333,79.8971831 7.97222222,79.8971831 L12.9305556,79.8971831 L5.79166667,98.3028169 L36.9583333,79.8971831 L292.027778,79.8971831 C296.041667,79.8971831 299.305556,76.6622535 299.305556,72.6743662 L299.305556,6.5256338 C299.305556,2.53774648 296.041667,-0.697183099 292.027778,-0.697183099 L292.027778,-0.697183099 Z M39.1388889,35.5702817 C39.1388889,36.5323944 38.4166667,37.2435211 37.4444444,37.2435211 L32.2638889,37.2435211 C31.2916667,37.2435211 30.5694444,37.9685915 30.5694444,38.9307042 L30.5694444,46.0698592 C30.5694444,50.3226761 33.6388889,53.8504225 37.6805556,54.491831 C38.5,54.6452113 39.1388889,55.3702817 39.1388889,56.1650704 L39.1388889,62.8998592 C39.1388889,63.7922535 38.5833333,64.433662 37.6805556,64.5870423 C37.0416667,64.6707042 36.4722222,64.6707042 35.8194444,64.6707042 C27.0833333,64.6707042 20.0416667,57.6152113 20.0416667,49.0398592 L20.0416667,13.2046479 C20.0416667,12.3122535 20.7777778,11.6011268 21.75,11.6011268 L28.8611111,11.6011268 C29.8333333,11.6011268 30.5694444,12.3959155 30.5694444,13.2743662 L30.5694444,25.1404225 C30.5694444,26.1025352 31.2083333,26.8276056 32.1805556,26.8276056 L37.4444444,26.8276056 C38.4166667,26.8276056 39.1388889,27.5526761 39.1388889,28.5147887 L39.1388889,35.5702817 L39.1388889,35.5702817 Z M111.972222,45.665493 C111.972222,56.1650704 103.472222,64.6707042 92.875,64.6707042 C88.0138889,64.6707042 83.5694444,62.8998592 80.1666667,59.9438028 C79.8472222,59.6928169 79.5277778,59.5394366 79.0416667,59.5394366 L78.875,59.5394366 C78.4722222,59.5394366 78.0694444,59.6928169 77.7361111,59.9438028 C74.4305556,62.8998592 69.9722222,64.6707042 65.0416667,64.6707042 C54.5138889,64.6707042 45.9444444,56.1650704 45.9444444,45.665493 L45.9444444,28.5147887 C45.9444444,27.5526761 46.75,26.8276056 47.7222222,26.8276056 L54.7638889,26.8276056 C55.7361111,26.8276056 56.4583333,27.5526761 56.4583333,28.5147887 L56.4583333,45.665493 C56.4583333,50.3923944 60.3472222,54.2547887 65.0416667,54.2547887 C69.8194444,54.2547887 73.6944444,50.3923944 73.6944444,45.665493 L73.6944444,28.5147887 C73.6944444,27.5526761 74.4305556,26.8276056 75.3888889,26.8276056 L82.4305556,26.8276056 C83.4027778,26.8276056 84.1388889,27.5526761 84.2222222,28.5147887 L84.2222222,45.665493 C84.2222222,50.3923944 88.0972222,54.2547887 92.7916667,54.2547887 C97.5694444,54.2547887 101.458333,50.3923944 101.458333,45.665493 L101.458333,28.5147887 C101.458333,27.5526761 102.180556,26.8276056 103.152778,26.8276056 L110.194444,26.8276056 C111.166667,26.8276056 111.888889,27.5526761 111.972222,28.5147887 L111.972222,45.665493 L111.972222,45.665493 Z M148.972222,62.9835211 C148.972222,63.9456338 148.166667,64.6707042 147.263889,64.6707042 L140.069444,64.6707042 C138.527778,64.6707042 138.861111,63.2205634 137.555556,63.2205634 C136.513889,63.2205634 135.375,65.5491549 128.166667,65.7164789 L127.847222,65.7164789 C119.916667,65.7164789 114.986111,59.9438028 114.986111,54.408169 C114.986111,48.8028169 117.736111,46.0698592 121.541667,43.7412676 C124.930556,41.58 132.458333,41.1756338 134.486111,41.1756338 L135.138889,41.1756338 C136.833333,41.1756338 137.486111,40.2971831 136.666667,38.9307042 C135.458333,37.2435211 133.027778,36.3650704 129.472222,36.2953521 C126.472222,36.2953521 124.611111,36.8530986 123.402778,36.8530986 C122.666667,36.8530986 122.583333,36.2116901 122.583333,36.2116901 L121.458333,29.3095775 C121.375,28.751831 121.625,28.4311268 121.944444,28.2777465 C122.666667,27.8733803 128.013889,26.9949296 130.597222,26.9949296 C133.277778,26.9949296 138.527778,27.0646479 144.027778,31.1640845 C148.569444,34.524507 148.972222,40.5342254 148.972222,42.6257746 L148.972222,62.9835211 L148.972222,62.9835211 Z M174.041667,62.8998592 C174.041667,63.7922535 173.388889,64.5033803 172.583333,64.5870423 C171.930556,64.6707042 171.361111,64.6707042 170.722222,64.6707042 C161.972222,64.6707042 154.930556,57.6152113 154.930556,49.0398592 L154.930556,13.2046479 C154.930556,12.2425352 155.666667,11.5174648 156.638889,11.5174648 L163.763889,11.5174648 C164.722222,11.5174648 165.458333,12.2425352 165.458333,13.2046479 L165.458333,46.0698592 C165.458333,50.3226761 168.527778,53.8504225 172.583333,54.491831 C173.388889,54.6452113 174.041667,55.3702817 174.041667,56.1650704 L174.041667,62.8998592 L174.041667,62.8998592 Z M218.527778,62.9835211 C218.444444,63.9456338 217.722222,64.6707042 216.75,64.6707042 L209.708333,64.6707042 C208.736111,64.6707042 208.013889,63.9456338 208.013889,62.9835211 L208.013889,57.0574648 C208.013889,52.4002817 204.125,48.551831 199.347222,48.551831 C194.652778,48.551831 190.777778,52.4002817 190.777778,57.0574648 L190.777778,62.9835211 C190.777778,63.9456338 190.041667,64.6707042 189.069444,64.6707042 L181.958333,64.6707042 C181.069444,64.6707042 180.25,63.9456338 180.25,62.9835211 L180.25,13.2743662 C180.25,12.3959155 181.069444,11.6011268 181.958333,11.6011268 L189.069444,11.6011268 C190.041667,11.6011268 190.777778,12.3959155 190.777778,13.2743662 L190.777778,38.9307042 C190.777778,39.8928169 191.5,40.6178873 192.472222,40.6178873 C192.958333,40.6178873 193.277778,40.464507 193.680556,40.0601408 L206.708333,27.2319718 C206.958333,26.9949296 207.444444,26.8276056 207.847222,26.8276056 L214.652778,26.8276056 C215.611111,26.8276056 216.347222,27.5526761 216.347222,28.5147887 C216.347222,28.9191549 216.097222,29.3932394 215.861111,29.6302817 L207.680556,37.7315493 C207.361111,38.0522535 207.125,38.526338 207.125,39.0143662 C207.125,39.7394366 207.680556,40.2971831 208.416667,40.5342254 C214.236111,42.1377465 218.527778,47.436338 218.527778,53.7667606 L218.527778,62.9835211 L218.527778,62.9835211 Z M234.722222,62.9835211 C234.722222,63.9456338 233.986111,64.6707042 233.013889,64.6707042 L225.972222,64.6707042 C225.013889,64.6707042 224.277778,63.9456338 224.277778,62.9835211 L224.277778,28.5147887 C224.277778,27.5526761 225.013889,26.8276056 225.972222,26.8276056 L233.013889,26.8276056 C233.986111,26.8276056 234.722222,27.5526761 234.722222,28.5147887 L234.722222,62.9835211 L234.722222,62.9835211 Z M229.458333,22.0170423 C226.541667,22.0170423 224.277778,19.6884507 224.277778,16.8857746 C224.277778,13.9994366 226.541667,11.6011268 229.458333,11.6011268 C232.375,11.6011268 234.722222,13.9994366 234.722222,16.8857746 C234.722222,19.6884507 232.375,22.0170423 229.458333,22.0170423 L229.458333,22.0170423 Z M279.958333,62.9835211 C279.958333,63.9456338 279.222222,64.6707042 278.25,64.6707042 L271.125,64.6707042 C270.166667,64.6707042 269.430556,63.9456338 269.430556,62.9835211 L269.430556,45.7491549 C269.430556,41.0222535 265.625,37.2435211 260.861111,37.2435211 C256.083333,37.2435211 252.194444,41.0222535 252.194444,45.7491549 L252.194444,62.9835211 C252.194444,63.9456338 251.472222,64.6707042 250.5,64.6707042 L243.458333,64.6707042 C242.486111,64.6707042 241.763889,63.9456338 241.763889,62.9835211 L241.763889,45.7491549 C241.763889,35.2495775 250.25,26.8276056 260.861111,26.8276056 C271.458333,26.8276056 279.958333,35.2495775 279.958333,45.7491549 L279.958333,62.9835211 L279.958333,62.9835211 Z M135.375,47.7570423 C132.222222,47.7570423 125.902778,48.3147887 125.902778,52.7209859 C125.902778,56.5694366 129.222222,58.1032394 132.138889,58.1032394 C137.152778,58.1032394 138.527778,55.4539437 138.527778,50.9640845 C138.527778,50.2390141 138.527778,49.5976056 138.444444,49.0398592 C138.375,47.9104225 136.513889,47.7570423 135.375,47.7570423" id="Fill-1" sketch:type="MSShapeGroup"></path>
            </g>
        </g>
    </g>
</svg>