<?xml version="1.0" encoding="UTF-8" standalone="no"?>
<svg width="400px" height="300px" viewBox="0 0 400 300" version="1.1" xmlns="http://www.w3.org/2000/svg" xmlns:xlink="http://www.w3.org/1999/xlink" xmlns:sketch="http://www.bohemiancoding.com/sketch/ns">
    <!-- Generator: Sketch 3.0.3 (7891) - http://www.bohemiancoding.com/sketch -->
    <title>ui-design</title>
    <desc>Created with Sketch.</desc>
    <defs>
        <rect id="path-1" x="0" y="0" width="400" height="300"></rect>
        <rect id="path-3" x="0" y="0" width="400" height="300"></rect>
    </defs>
    <g id="work" stroke="none" stroke-width="1" fill="none" fill-rule="evenodd" sketch:type="MSPage">
        <g id="ui-design" sketch:type="MSArtboardGroup">
            <mask id="mask-2" sketch:name="Rectangle 2" fill="white">
                <use xlink:href="#path-1"></use>
            </mask>
            <use id="Rectangle-2" fill="#138C71" sketch:type="MSShapeGroup" xlink:href="#path-1"></use>
            <g id="screens_dark_min-+-Rectangle-1" sketch:type="MSLayerGroup" mask="url(#mask-2)">
                <mask id="mask-4" sketch:name="Rectangle 1" fill="white">
                    <use xlink:href="#path-3"></use>
                </mask>
                <use id="Rectangle-1" sketch:type="MSShapeGroup" xlink:href="#path-3"></use>
                <g id="screens_dark_min" mask="url(#mask-4)" fill="#FFFFFF" sketch:type="MSShapeGroup" opacity="0.149895056">
                    <g transform="translate(-250.000000, -181.000000)">
                        <path d="M403.185067,123.116187 C403.185067,117.711219 398.855636,113.329684 393.514587,113.329684 L312.938936,113.329684 C307.598176,113.329684 303.268456,117.711219 303.268456,123.116187 L303.268456,253.600054 C303.268456,259.004729 307.598176,263.386263 312.938936,263.386263 L393.514877,263.386263 C398.855636,263.386263 403.185067,259.004729 403.185067,253.599761 L403.185067,123.116187 L403.185067,123.116187 Z M353.226762,119.853922 C354.117612,119.853922 354.83846,120.583396 354.83846,121.484908 C354.83846,122.38642 354.117612,123.115894 353.226762,123.115894 C352.335911,123.115894 351.615063,122.38642 351.615063,121.484908 C351.615063,120.583396 352.335911,119.853922 353.226762,119.853922 L353.226762,119.853922 L353.226762,119.853922 Z M353.226762,260.123998 C350.557105,260.123998 348.391377,257.932352 348.391377,255.23104 C348.391377,252.529729 350.557105,250.338082 353.226762,250.338082 C355.896128,250.338082 358.061857,252.530022 358.061857,255.23104 C358.061857,257.932645 355.896128,260.123998 353.226762,260.123998 L353.226762,260.123998 L353.226762,260.123998 Z M396.813573,246.973825 L309.63995,246.973825 L309.63995,126.518251 L396.813573,126.518251 L396.813573,246.973825 L396.813573,246.973825 Z" id="Shape-14" transform="translate(353.120805, 188.522894) rotate(-0.000000) translate(-353.120805, -188.522894) "></path>
                        <path d="M684.968964,293.05882 C684.968964,287.653853 680.639533,283.272318 675.298484,283.272318 L594.722833,283.272318 C589.382073,283.272318 585.052353,287.653853 585.052353,293.05882 L585.052353,423.542688 C585.052353,428.947362 589.382073,433.328897 594.722833,433.328897 L675.298774,433.328897 C680.639533,433.328897 684.968964,428.947362 684.968964,423.542394 L684.968964,293.05882 L684.968964,293.05882 Z M635.010659,289.796555 C635.901509,289.796555 636.622357,290.526029 636.622357,291.427541 C636.622357,292.329052 635.901509,293.058527 635.010659,293.058527 C634.119808,293.058527 633.39896,292.329052 633.39896,291.427541 C633.39896,290.526029 634.119808,289.796555 635.010659,289.796555 L635.010659,289.796555 L635.010659,289.796555 Z M635.010659,430.066632 C632.341002,430.066632 630.175274,427.874985 630.175274,425.173673 C630.175274,422.472362 632.341002,420.280715 635.010659,420.280715 C637.680025,420.280715 639.845754,422.472655 639.845754,425.173673 C639.845754,427.875278 637.680025,430.066632 635.010659,430.066632 L635.010659,430.066632 L635.010659,430.066632 Z M678.59747,416.916458 L591.423847,416.916458 L591.423847,296.460884 L678.59747,296.460884 L678.59747,416.916458 L678.59747,416.916458 Z" id="Shape-36" transform="translate(634.904702, 358.465528) rotate(90.000000) translate(-634.904702, -358.465528) "></path>
                        <path d="M684.639119,402.732894 C684.639119,397.327927 680.309688,392.946392 674.968639,392.946392 L594.392989,392.946392 C589.052228,392.946392 584.722509,397.327927 584.722509,402.732894 L584.722509,533.216762 C584.722509,538.621436 589.052228,543.002971 594.392989,543.002971 L674.968929,543.002971 C680.309688,543.002971 684.639119,538.621436 684.639119,533.216468 L684.639119,402.732894 L684.639119,402.732894 Z M634.680814,399.470629 C635.571664,399.470629 636.292512,400.200103 636.292512,401.101615 C636.292512,402.003127 635.571664,402.732601 634.680814,402.732601 C633.789963,402.732601 633.069116,402.003127 633.069116,401.101615 C633.069116,400.200103 633.789963,399.470629 634.680814,399.470629 L634.680814,399.470629 L634.680814,399.470629 Z M634.680814,539.740706 C632.011157,539.740706 629.845429,537.549059 629.845429,534.847747 C629.845429,532.146436 632.011157,529.954789 634.680814,529.954789 C637.35018,529.954789 639.515909,532.146729 639.515909,534.847747 C639.515909,537.549352 637.35018,539.740706 634.680814,539.740706 L634.680814,539.740706 L634.680814,539.740706 Z M678.267625,526.590533 L591.094003,526.590533 L591.094003,406.134958 L678.267625,406.134958 L678.267625,526.590533 L678.267625,526.590533 Z" id="Shape-69" transform="translate(634.574858, 468.139602) rotate(90.000000) translate(-634.574858, -468.139602) "></path>
                        <path d="M298.162697,270.956535 C298.162697,265.551567 293.833267,261.170033 288.492217,261.170033 L207.916566,261.170033 C202.575806,261.170033 198.246086,265.551567 198.246086,270.956535 L198.246086,401.440402 C198.246086,406.845077 202.575806,411.226612 207.916566,411.226612 L288.492507,411.226612 C293.833267,411.226612 298.162697,406.845077 298.162697,401.440109 L298.162697,270.956535 L298.162697,270.956535 Z M248.204391,267.69427 C249.095242,267.69427 249.81609,268.423745 249.81609,269.325256 C249.81609,270.226768 249.095242,270.956242 248.204391,270.956242 C247.313541,270.956242 246.592693,270.226768 246.592693,269.325256 C246.592693,268.423745 247.313541,267.69427 248.204391,267.69427 L248.204391,267.69427 L248.204391,267.69427 Z M248.204391,407.964346 C245.534736,407.964346 243.369007,405.7727 243.369007,403.071388 C243.369007,400.370077 245.534736,398.17843 248.204391,398.17843 C250.873758,398.17843 253.039487,400.37037 253.039487,403.071388 C253.039487,405.772993 250.873758,407.964346 248.204391,407.964346 L248.204391,407.964346 L248.204391,407.964346 Z M291.791202,394.814173 L204.61758,394.814173 L204.61758,274.358599 L291.791202,274.358599 L291.791202,394.814173 L291.791202,394.814173 Z" id="Shape-83" transform="translate(248.098435, 336.363242) rotate(90.000000) translate(-248.098435, -336.363242) "></path>
                        <path d="M536.449602,482.845832 L339.507884,482.845832 L339.507884,356.139917 L536.451122,356.139917 L536.449602,482.845832 L536.449602,482.845832 Z M544.652277,486.805297 L544.652277,486.805297 L544.652277,352.183496 C544.652277,349.99529 542.814769,348.220988 540.553219,348.220988 L335.404267,348.220988 C333.138158,348.222509 331.300649,349.99529 331.300649,352.183496 L331.300649,486.80682 C331.300649,488.995024 333.138158,490.769327 335.404267,490.769327 L413.359319,490.769327 L413.359319,514.521551 L380.536459,514.521551 C378.27035,514.521551 376.432841,516.294332 376.432841,518.484059 C376.432841,520.670742 378.27035,522.443524 380.536459,522.443524 L380.537979,522.443524 L495.416468,522.443524 C497.681057,522.443524 499.518565,520.670742 499.518565,518.484059 C499.518565,516.295853 497.681057,514.521551 495.416468,514.521551 L462.595128,514.521551 L462.595128,490.764763 L540.55018,490.764763 C542.814769,490.764763 544.652277,488.995024 544.652277,486.805297 L544.652277,486.805297 L544.652277,486.805297 Z" id="Shape-67" transform="translate(438.067763, 435.461729) scale(1, -1) translate(-438.067763, -435.461729) "></path>
                        <path d="M802.079831,243.069297 L615.927358,243.069297 L615.927358,123.304832 L802.081267,123.304832 L802.079831,243.069297 L802.079831,243.069297 Z M809.833131,246.811847 L809.833131,246.811847 L809.833131,119.565159 C809.833131,117.496833 808.096289,115.819733 805.958636,115.819733 L612.048553,115.819733 C609.906591,115.821171 608.169748,117.496833 608.169748,119.565159 L608.169748,246.813285 C608.169748,248.881612 609.906591,250.558712 612.048553,250.558712 L685.73292,250.558712 L685.73292,273.009695 L654.708225,273.009695 C652.566263,273.009695 650.829421,274.685356 650.829421,276.755121 C650.829421,278.822009 652.566263,280.49767 654.708225,280.49767 L654.709662,280.49767 L763.294654,280.49767 C765.435179,280.49767 767.172022,278.822009 767.172022,276.755121 C767.172022,274.686794 765.435179,273.009695 763.294654,273.009695 L732.271397,273.009695 L732.271397,250.554397 L805.955763,250.554397 C808.096289,250.554397 809.833131,248.881612 809.833131,246.811847 L809.833131,246.811847 L809.833131,246.811847 Z" id="Shape-28" transform="translate(709.120755, 198.075289) rotate(90.000000) translate(-709.120755, -198.075289) "></path>
                        <path d="M608.591743,155.843741 L408.896061,155.843741 L408.896061,27.3660145 L608.593284,27.3660145 L608.591743,155.843741 L608.591743,155.843741 Z M616.909122,159.858573 L616.909122,159.858573 L616.909122,23.3542682 C616.909122,21.1354636 615.045918,19.3363494 612.752744,19.3363494 L404.73506,19.3363494 C402.437263,19.3378923 400.57406,21.1354636 400.57406,23.3542682 L400.57406,159.860116 C400.57406,162.078921 402.437263,163.878035 404.73506,163.878035 L483.780209,163.878035 L483.780209,187.962401 L450.498365,187.962401 C448.200568,187.962401 446.337364,189.759972 446.337364,191.98032 C446.337364,194.197581 448.200568,195.995152 450.498365,195.995152 L450.499906,195.995152 L566.984816,195.995152 C569.281072,195.995152 571.144276,194.197581 571.144276,191.98032 C571.144276,189.761515 569.281072,187.962401 566.984816,187.962401 L533.704514,187.962401 L533.704514,163.873406 L612.749662,163.873406 C615.045918,163.873406 616.909122,162.078921 616.909122,159.858573 L616.909122,159.858573 L616.909122,159.858573 Z" id="Shape-3" transform="translate(508.587483, 107.823386) rotate(90.000000) translate(-508.587483, -107.823386) "></path>
                        <path d="M537.666105,291.633333 L512.801684,291.633333 C509.058003,291.633333 506.082575,294.643422 506.082575,298.359059 L506.082575,365.613958 C506.082575,369.328019 509.058003,372.339527 512.801684,372.339527 L537.666105,372.339527 C541.408514,372.339527 544.384102,369.328177 544.384102,365.613958 L544.384102,298.359059 C544.384102,294.643422 541.408514,291.633333 537.666105,291.633333 L537.666105,291.633333 L537.666105,291.633333 Z M520.712744,298.411708 L529.753933,298.411708 C530.378674,298.411708 530.884061,298.895472 530.884061,299.515113 C530.884061,300.134123 530.377403,300.618518 529.753933,300.618518 L520.712744,300.618518 C520.088003,300.618518 519.582615,300.134123 519.582615,299.515113 C519.582615,298.895472 520.088161,298.411708 520.712744,298.411708 L520.712744,298.411708 L520.712744,298.411708 Z M525.233417,367.85592 C523.361577,367.85592 521.843031,366.349615 521.843031,364.493214 C521.843031,362.636656 523.361737,361.129248 525.233417,361.129248 C527.105099,361.129248 528.623804,362.636499 528.623804,364.493214 C528.623804,366.349615 527.105099,367.85592 525.233417,367.85592 L525.233417,367.85592 L525.233417,367.85592 Z M542.159126,358.939935 L508.30771,358.939935 L508.30771,305.032138 L542.159126,305.032138 L542.159126,358.939935 L542.159126,358.939935 Z M525.286181,367.304217 C526.846608,367.304217 528.111583,366.04957 528.111583,364.501884 C528.111583,362.954198 526.846608,361.69955 525.286181,361.69955 C523.725755,361.69955 522.46078,362.954198 522.46078,364.501884 C522.46078,366.04957 523.725755,367.304217 525.286181,367.304217 L525.286181,367.304217 Z" id="Shape-78" transform="translate(525.192642, 331.930247) scale(-1, 1) translate(-525.192642, -331.930247) "></path>
                        <path d="M363.182884,291.903329 L338.318462,291.903329 C334.574782,291.903329 331.599354,294.913418 331.599354,298.629055 L331.599354,365.883954 C331.599354,369.598015 334.574782,372.609523 338.318462,372.609523 L363.182884,372.609523 C366.925292,372.609523 369.90088,369.598173 369.90088,365.883954 L369.90088,298.629055 C369.90088,294.913418 366.925292,291.903329 363.182884,291.903329 L363.182884,291.903329 L363.182884,291.903329 Z M346.229522,298.681704 L355.270711,298.681704 C355.895453,298.681704 356.40084,299.165468 356.40084,299.785109 C356.40084,300.404119 355.894181,300.888514 355.270711,300.888514 L346.229522,300.888514 C345.604781,300.888514 345.099394,300.404119 345.099394,299.785109 C345.099394,299.165468 345.60494,298.681704 346.229522,298.681704 L346.229522,298.681704 L346.229522,298.681704 Z M350.750196,368.125916 C348.878356,368.125916 347.35981,366.619611 347.35981,364.76321 C347.35981,362.906652 348.878515,361.399244 350.750196,361.399244 C352.621877,361.399244 354.140583,362.906495 354.140583,364.76321 C354.140583,366.619611 352.621877,368.125916 350.750196,368.125916 L350.750196,368.125916 L350.750196,368.125916 Z M367.675904,359.209931 L333.824488,359.209931 L333.824488,305.302134 L367.675904,305.302134 L367.675904,359.209931 L367.675904,359.209931 Z M350.802959,367.574213 C352.363386,367.574213 353.628361,366.319566 353.628361,364.77188 C353.628361,363.224194 352.363386,361.969546 350.802959,361.969546 C349.242534,361.969546 347.977558,363.224194 347.977558,364.77188 C347.977558,366.319566 349.242534,367.574213 350.802959,367.574213 L350.802959,367.574213 Z" id="Shape-84" transform="translate(350.709421, 332.200243) scale(-1, -1) translate(-350.709421, -332.200243) "></path>
                        <path d="M250.994348,196.914815 L275.858768,196.914815 C279.602449,196.914815 282.577877,199.924904 282.577877,203.640541 L282.577877,270.89544 C282.577877,274.609501 279.602449,277.621009 275.858768,277.621009 L250.994348,277.621009 C247.251938,277.621009 244.276351,274.609659 244.276351,270.89544 L244.276351,203.640541 C244.276351,199.924904 247.251938,196.914815 250.994348,196.914815 L250.994348,196.914815 L250.994348,196.914815 Z M267.947708,203.693189 L258.90652,203.693189 C258.281778,203.693189 257.776391,204.176954 257.776391,204.796594 C257.776391,205.415605 258.28305,205.899999 258.90652,205.899999 L267.947708,205.899999 C268.57245,205.899999 269.077838,205.415605 269.077838,204.796594 C269.077838,204.176954 268.572291,203.693189 267.947708,203.693189 L267.947708,203.693189 L267.947708,203.693189 Z M263.427035,273.137401 C265.298875,273.137401 266.817421,271.631096 266.817421,269.774695 C266.817421,267.918138 265.298716,266.410729 263.427035,266.410729 C261.555353,266.410729 260.036649,267.917981 260.036649,269.774695 C260.036649,271.631096 261.555353,273.137401 263.427035,273.137401 L263.427035,273.137401 L263.427035,273.137401 Z M246.501327,264.221416 L280.352742,264.221416 L280.352742,210.313619 L246.501327,210.313619 L246.501327,264.221416 L246.501327,264.221416 Z M263.374271,272.585698 C261.813845,272.585698 260.54887,271.331051 260.54887,269.783366 C260.54887,268.235679 261.813845,266.981032 263.374271,266.981032 C264.934697,266.981032 266.199672,268.235679 266.199672,269.783366 C266.199672,271.331051 264.934697,272.585698 263.374271,272.585698 L263.374271,272.585698 Z" id="Shape-85"></path>
                        <path d="M463.542839,203.65611 L438.678417,203.65611 C434.934737,203.65611 431.959308,206.666199 431.959308,210.381837 L431.959308,277.636735 C431.959308,281.350796 434.934737,284.362304 438.678417,284.362304 L463.542839,284.362304 C467.285247,284.362304 470.260835,281.350954 470.260835,277.636735 L470.260835,210.381837 C470.260835,206.666199 467.285247,203.65611 463.542839,203.65611 L463.542839,203.65611 L463.542839,203.65611 Z M446.589477,210.434485 L455.630666,210.434485 C456.255407,210.434485 456.760795,210.918249 456.760795,211.53789 C456.760795,212.1569 456.254136,212.641295 455.630666,212.641295 L446.589477,212.641295 C445.964736,212.641295 445.459349,212.1569 445.459349,211.53789 C445.459349,210.918249 445.964895,210.434485 446.589477,210.434485 L446.589477,210.434485 L446.589477,210.434485 Z M451.11015,279.878697 C449.23831,279.878697 447.719765,278.372392 447.719765,276.515991 C447.719765,274.659433 449.23847,273.152025 451.11015,273.152025 C452.981832,273.152025 454.500537,274.659276 454.500537,276.515991 C454.500537,278.372392 452.981832,279.878697 451.11015,279.878697 L451.11015,279.878697 L451.11015,279.878697 Z M468.035859,270.962712 L434.184443,270.962712 L434.184443,217.054915 L468.035859,217.054915 L468.035859,270.962712 L468.035859,270.962712 Z M451.162914,279.326994 C452.723341,279.326994 453.988316,278.072347 453.988316,276.524661 C453.988316,274.976975 452.723341,273.722327 451.162914,273.722327 C449.602488,273.722327 448.337513,274.976975 448.337513,276.524661 C448.337513,278.072347 449.602488,279.326994 451.162914,279.326994 L451.162914,279.326994 Z" id="Shape-79" transform="translate(451.069375, 243.953024) rotate(90.000000) translate(-451.069375, -243.953024) "></path>
                        <path d="M590.070461,206.40775 C590.070461,199.712113 584.617485,194.284173 577.890965,194.284173 L541.251585,194.284173 C534.525065,194.284173 529.072089,199.712113 529.072089,206.40775 L529.072089,300.365295 C529.072089,307.060701 534.525065,312.48864 541.251585,312.48864 L577.891196,312.48864 C584.617485,312.48864 590.070461,307.060701 590.070461,300.365064 L590.070461,206.40775 L590.070461,206.40775 Z M573.157213,198.714994 C573.998666,198.714994 574.679389,199.392823 574.679389,200.230412 C574.679389,201.068002 573.998433,201.745599 573.157213,201.745599 C572.315992,201.745599 571.634805,201.067771 571.634805,200.230412 C571.634805,199.392823 572.31576,198.714994 573.157213,198.714994 L573.157213,198.714994 L573.157213,198.714994 Z M554.888085,200.286744 L564.022765,200.286744 C564.864218,200.286744 565.544941,200.949797 565.544941,201.787387 C565.544941,202.624976 564.863986,203.288029 564.022765,203.288029 L554.888085,203.288029 C554.046632,203.288029 553.365676,202.624976 553.365676,201.787387 C553.365676,200.949797 554.046632,200.286744 554.888085,200.286744 L554.888085,200.286744 L554.888085,200.286744 Z M564.022533,306.255202 L554.887853,306.255202 C554.0464,306.255202 553.365444,305.592148 553.365444,304.754559 C553.365444,303.916739 554.0464,303.253916 554.887853,303.253916 L564.022533,303.253916 C564.863986,303.253916 565.544709,303.916739 565.544709,304.754559 C565.544941,305.592148 564.863986,306.255202 564.022533,306.255202 L564.022533,306.255202 L564.022533,306.255202 Z M586.8234,297.251346 L532.087218,297.251346 L532.087218,206.289315 L586.8234,206.289315 L586.8234,297.251346 L586.8234,297.251346 Z" id="Shape-77" transform="translate(559.398934, 253.275531) rotate(270.000000) translate(-559.398934, -253.275531) "></path>
                        <path d="M466.186757,262.494019 C466.186757,256.102439 460.981406,250.920988 454.560345,250.920988 L419.5848,250.920988 C413.16374,250.920988 407.958389,256.102439 407.958389,262.494019 L407.958389,352.184848 C407.958389,358.576208 413.16374,363.75766 419.5848,363.75766 L454.560567,363.75766 C460.981406,363.75766 466.186757,358.576208 466.186757,352.184628 L466.186757,262.494019 L466.186757,262.494019 Z M450.041559,255.1506 C450.8448,255.1506 451.494611,255.797648 451.494611,256.597201 C451.494611,257.396755 450.844579,258.043582 450.041559,258.043582 C449.238538,258.043582 448.588285,257.396534 448.588285,256.597201 C448.588285,255.797648 449.238317,255.1506 450.041559,255.1506 L450.041559,255.1506 L450.041559,255.1506 Z M432.602051,256.650975 L441.321915,256.650975 C442.125157,256.650975 442.774968,257.283918 442.774968,258.083472 C442.774968,258.883025 442.124936,259.515969 441.321915,259.515969 L432.602051,259.515969 C431.798809,259.515969 431.148777,258.883025 431.148777,258.083472 C431.148777,257.283918 431.798809,256.650975 432.602051,256.650975 L432.602051,256.650975 L432.602051,256.650975 Z M441.321694,357.807288 L432.60183,357.807288 C431.798588,357.807288 431.148556,357.174345 431.148556,356.374791 C431.148556,355.575018 431.798588,354.942295 432.60183,354.942295 L441.321694,354.942295 C442.124936,354.942295 442.774746,355.575018 442.774746,356.374791 C442.774968,357.174345 442.124936,357.807288 441.321694,357.807288 L441.321694,357.807288 L441.321694,357.807288 Z M463.087148,349.212307 L410.836597,349.212307 L410.836597,262.380962 L463.087148,262.380962 L463.087148,349.212307 L463.087148,349.212307 Z" id="Shape-80" transform="translate(437.038926, 307.419753) rotate(-90.000000) translate(-437.038926, -307.419753) "></path>
                        <path d="M276.854057,377.232619 C276.854057,369.084203 270.217927,362.478541 262.031926,362.478541 L217.442752,362.478541 C209.256751,362.478541 202.620621,369.084203 202.620621,377.232619 L202.620621,491.576514 C202.620621,499.724649 209.256751,506.330311 217.442752,506.330311 L262.032208,506.330311 C270.217927,506.330311 276.854057,499.724649 276.854057,491.576233 L276.854057,377.232619 L276.854057,377.232619 Z M256.271073,367.870734 C257.295099,367.870734 258.123522,368.695634 258.123522,369.714959 C258.123522,370.734283 257.294817,371.558903 256.271073,371.558903 C255.247329,371.558903 254.418341,370.734003 254.418341,369.714959 C254.418341,368.695634 255.247047,367.870734 256.271073,367.870734 L256.271073,367.870734 L256.271073,367.870734 Z M234.038017,369.783513 L245.154686,369.783513 C246.178713,369.783513 247.007135,370.590432 247.007135,371.609757 C247.007135,372.629081 246.17843,373.436 245.154686,373.436 L234.038017,373.436 C233.013991,373.436 232.185286,372.629081 232.185286,371.609757 C232.185286,370.590432 233.013991,369.783513 234.038017,369.783513 L234.038017,369.783513 L234.038017,369.783513 Z M245.154404,498.744378 L234.037736,498.744378 C233.013709,498.744378 232.185005,497.937459 232.185005,496.918135 C232.185005,495.898529 233.013709,495.091891 234.037736,495.091891 L245.154404,495.091891 C246.17843,495.091891 247.006853,495.898529 247.006853,496.918135 C247.007135,497.937459 246.17843,498.744378 245.154404,498.744378 L245.154404,498.744378 L245.154404,498.744378 Z M272.902467,487.786919 L206.289954,487.786919 L206.289954,377.088486 L272.902467,377.088486 L272.902467,487.786919 L272.902467,487.786919 Z" id="Shape-68" transform="translate(239.594446, 434.348294) rotate(-90.000000) translate(-239.594446, -434.348294) "></path>
                        <path d="M289.943493,108.783894 C289.943493,103.606864 285.328581,99.4100098 279.635854,99.4100098 L248.627551,99.4100098 C242.934824,99.4100098 238.319911,103.606864 238.319911,108.783894 L238.319911,181.431366 C238.319911,186.608218 242.934824,190.805072 248.627551,190.805072 L279.63605,190.805072 C285.328581,190.805072 289.943493,186.608218 289.943493,181.431187 L289.943493,108.783894 L289.943493,108.783894 Z M275.629629,102.835897 C276.341759,102.835897 276.917862,103.35999 276.917862,104.00761 C276.917862,104.65523 276.341563,105.179145 275.629629,105.179145 C274.917694,105.179145 274.341198,104.655051 274.341198,104.00761 C274.341198,103.35999 274.917498,102.835897 275.629629,102.835897 L275.629629,102.835897 L275.629629,102.835897 Z M260.168267,104.051165 L267.899046,104.051165 C268.611176,104.051165 269.18728,104.563835 269.18728,105.211454 C269.18728,105.859074 268.61098,106.371743 267.899046,106.371743 L260.168267,106.371743 C259.456137,106.371743 258.879838,105.859074 258.879838,105.211454 C258.879838,104.563835 259.456137,104.051165 260.168267,104.051165 L260.168267,104.051165 L260.168267,104.051165 Z M267.89885,185.98541 L260.168071,185.98541 C259.45594,185.98541 258.879641,185.472741 258.879641,184.825121 C258.879641,184.177323 259.45594,183.664832 260.168071,183.664832 L267.89885,183.664832 C268.61098,183.664832 269.187084,184.177323 269.187084,184.825121 C269.18728,185.472741 268.61098,185.98541 267.89885,185.98541 L267.89885,185.98541 L267.89885,185.98541 Z M287.19547,179.023677 L240.871648,179.023677 L240.871648,108.692321 L287.19547,108.692321 L287.19547,179.023677 L287.19547,179.023677 Z" id="Shape-87"></path>
                    </g>
                </g>
            </g>
            <path d="M70.048,135.648 C77.92,135.648 82.24,131.088 82.24,122.688 L82.24,105.312 C82.24,104.304 81.856,103.824 80.944,103.824 L80.368,103.824 C79.408,103.824 79.024,104.304 79.024,105.312 L79.024,122.544 C79.024,129.36 76.144,132.72 70.144,132.72 C64.24,132.72 61.264,129.264 61.264,122.592 L61.264,105.312 C61.264,104.352 60.784,103.824 59.824,103.824 L59.392,103.824 C58.48,103.824 58,104.352 58,105.312 L58,122.832 C58,131.184 62.224,135.648 70.048,135.648 Z M96.352,135.648 C101.92,135.648 105.376,132.912 105.376,128.688 C105.376,123.984 100.672,122.976 96.976,122.16 C92.752,121.248 90.592,120.576 90.592,118.128 C90.592,115.872 92.608,114.288 96.352,114.288 C99.472,114.288 101.776,115.68 103.072,117.648 C103.168,117.792 104.8,117.216 104.8,116.016 C104.8,114.288 101.92,111.648 96.352,111.648 C91.072,111.648 87.616,114.48 87.616,118.56 C87.616,123.168 92.08,124.176 95.632,124.944 C99.952,125.856 102.352,126.432 102.352,129.168 C102.352,131.472 100.24,133.008 96.448,133.008 C92.656,133.008 90.16,131.424 88.624,129.312 C88.528,129.216 86.944,129.696 86.944,130.992 C86.944,132.72 90.256,135.648 96.352,135.648 Z M120.736,135.648 C126.928,135.648 130.384,132.144 130.384,130.56 C130.384,129.072 128.656,128.64 128.56,128.784 C127.216,130.944 125.2,132.864 120.736,132.864 C115.84,132.864 112.288,129.408 112.048,124.512 L129.808,124.512 C130.768,124.512 131.104,124.32 131.104,123.456 L131.104,123.168 C131.104,116.208 126.88,111.648 120.448,111.648 C113.824,111.648 108.928,116.784 108.928,123.744 C108.928,130.752 113.776,135.648 120.736,135.648 Z M120.448,114.384 C124.72,114.384 127.504,117.312 127.792,121.824 L112.144,121.824 C112.816,117.456 116.128,114.384 120.448,114.384 Z M139.024,115.056 C139.024,112.56 138.064,112.032 137.008,112.032 C136.432,112.032 135.952,112.272 135.952,112.368 L135.952,133.776 C135.952,134.928 136.528,135.264 137.344,135.264 L137.68,135.264 C138.496,135.264 139.072,134.928 139.072,133.776 L139.072,124.8 C139.072,118.944 140.656,114.672 144.736,114.672 C146.032,114.672 146.848,115.056 147.52,115.632 C147.616,115.728 148.384,115.152 148.384,114 C148.384,112.512 147.184,111.648 145.072,111.648 C142,111.648 139.984,113.28 139.024,116.4 L139.024,115.056 Z M162.688,135.264 L163.12,135.264 C164.08,135.264 164.56,134.784 164.56,133.776 L164.56,105.312 C164.56,104.352 164.08,103.824 163.12,103.824 L162.688,103.824 C161.776,103.824 161.296,104.352 161.296,105.312 L161.296,133.776 C161.296,134.784 161.776,135.264 162.688,135.264 Z M175.024,115.056 C175.024,112.56 174.064,112.032 173.008,112.032 C172.432,112.032 171.952,112.272 171.952,112.368 L171.952,133.776 C171.952,134.928 172.528,135.264 173.344,135.264 L173.68,135.264 C174.496,135.264 175.072,134.928 175.072,133.776 L175.072,119.424 C176.416,116.544 179.056,114.576 182.608,114.576 C186.496,114.576 188.752,117.36 188.752,121.92 L188.752,133.776 C188.752,134.928 189.328,135.264 190.144,135.264 L190.48,135.264 C191.296,135.264 191.872,134.928 191.872,133.776 L191.872,121.728 C191.872,115.68 188.848,111.648 182.8,111.648 C179.248,111.648 176.608,113.376 175.024,115.824 L175.024,115.056 Z M196.96,115.008 L199.072,115.008 L199.072,128.352 C199.072,133.104 200.992,135.648 205.456,135.648 C208.48,135.648 210.16,134.112 210.16,132.816 C210.16,131.616 209.2,131.184 209.104,131.28 C208.288,132.288 207.136,132.96 205.552,132.96 C203.008,132.96 202.144,131.376 202.144,128.016 L202.144,115.008 L208.24,115.008 C209.392,115.008 209.728,114.576 209.728,113.76 L209.728,113.472 C209.728,112.656 209.392,112.224 208.24,112.224 L202.144,112.224 L202.144,108.24 C202.144,107.088 201.616,106.752 200.8,106.752 L200.464,106.752 C199.648,106.752 199.072,107.088 199.072,108.24 L199.072,112.224 L196.96,112.224 C195.808,112.224 195.472,112.656 195.472,113.472 L195.472,113.76 C195.472,114.576 195.808,115.008 196.96,115.008 Z M224.272,135.648 C230.464,135.648 233.92,132.144 233.92,130.56 C233.92,129.072 232.192,128.64 232.096,128.784 C230.752,130.944 228.736,132.864 224.272,132.864 C219.376,132.864 215.824,129.408 215.584,124.512 L233.344,124.512 C234.304,124.512 234.64,124.32 234.64,123.456 L234.64,123.168 C234.64,116.208 230.416,111.648 223.984,111.648 C217.36,111.648 212.464,116.784 212.464,123.744 C212.464,130.752 217.312,135.648 224.272,135.648 Z M223.984,114.384 C228.256,114.384 231.04,117.312 231.328,121.824 L215.68,121.824 C216.352,117.456 219.664,114.384 223.984,114.384 Z M242.56,115.056 C242.56,112.56 241.6,112.032 240.544,112.032 C239.968,112.032 239.488,112.272 239.488,112.368 L239.488,133.776 C239.488,134.928 240.064,135.264 240.88,135.264 L241.216,135.264 C242.032,135.264 242.608,134.928 242.608,133.776 L242.608,124.8 C242.608,118.944 244.192,114.672 248.272,114.672 C249.568,114.672 250.384,115.056 251.056,115.632 C251.152,115.728 251.92,115.152 251.92,114 C251.92,112.512 250.72,111.648 248.608,111.648 C245.536,111.648 243.52,113.28 242.56,116.4 L242.56,115.056 Z M255.184,115.008 L258.544,115.008 L258.544,133.776 C258.544,134.928 259.12,135.264 259.936,135.264 L260.272,135.264 C261.088,135.264 261.616,134.928 261.616,133.776 L261.616,115.008 L266.176,115.008 C267.328,115.008 267.664,114.576 267.664,113.76 L267.664,113.472 C267.664,112.656 267.328,112.224 266.176,112.224 L261.568,112.224 L261.568,110.256 C261.568,106.464 262.672,104.784 265.264,104.784 C266.8,104.784 268.24,105.504 268.912,106.176 C269.008,106.272 269.824,105.792 269.824,104.688 C269.824,103.296 268.336,102 265.264,102 C260.848,102 258.544,104.88 258.544,110.112 L258.544,112.224 L255.184,112.224 C254.032,112.224 253.696,112.656 253.696,113.472 L253.696,113.76 C253.696,114.576 254.032,115.008 255.184,115.008 Z M277.744,135.6 C281.392,135.6 284.464,134.016 286.288,131.376 L286.288,132.24 C286.288,134.736 287.2,135.264 288.256,135.264 C288.832,135.264 289.312,135.024 289.312,134.928 L289.312,120.528 C289.312,115.008 285.856,111.648 280.048,111.648 C274,111.648 270.736,115.296 270.736,116.928 C270.736,118.608 272.512,118.8 272.512,118.752 C273.76,116.4 276.112,114.528 279.808,114.528 C283.936,114.528 286.24,116.688 286.24,120.624 L286.24,121.44 L285.76,121.44 C275.2,121.68 269.872,123.888 269.872,129.216 C269.872,133.056 272.752,135.6 277.744,135.6 Z M278.032,133.008 C274.912,133.008 273.04,131.52 273.04,129.216 C273.04,125.616 277.072,124.224 284.896,123.936 L286.24,123.888 L286.24,126 C286.24,130.08 282.736,133.008 278.032,133.008 Z M305.776,135.648 C312.448,135.648 315.616,131.376 315.616,129.312 C315.616,127.92 313.648,127.632 313.552,127.824 C312.352,130.656 310.144,132.864 305.776,132.864 C300.832,132.864 297.184,128.928 297.184,123.6 C297.184,118.272 300.88,114.432 305.776,114.432 C310.144,114.432 312.352,116.64 313.552,119.472 C313.648,119.664 315.616,119.376 315.616,117.984 C315.616,115.92 312.448,111.648 305.776,111.648 C299.056,111.648 294.016,116.688 294.016,123.6 C294.016,130.56 299.056,135.648 305.776,135.648 Z M330.688,135.648 C336.88,135.648 340.336,132.144 340.336,130.56 C340.336,129.072 338.608,128.64 338.512,128.784 C337.168,130.944 335.152,132.864 330.688,132.864 C325.792,132.864 322.24,129.408 322,124.512 L339.76,124.512 C340.72,124.512 341.056,124.32 341.056,123.456 L341.056,123.168 C341.056,116.208 336.832,111.648 330.4,111.648 C323.776,111.648 318.88,116.784 318.88,123.744 C318.88,130.752 323.728,135.648 330.688,135.648 Z M330.4,114.384 C334.672,114.384 337.456,117.312 337.744,121.824 L322.096,121.824 C322.768,117.456 326.08,114.384 330.4,114.384 Z M135.208,187.072 L142.312,187.072 C153.112,187.072 159.544,181.264 159.544,171.472 C159.544,161.728 153.256,156.016 142.552,156.016 L135.208,156.016 C134.2,156.016 133.384,156.832 133.384,157.84 L133.384,185.248 C133.384,186.256 134.2,187.072 135.208,187.072 Z M136.648,184.192 L136.648,158.896 L142.552,158.896 C151.096,158.896 156.184,163.648 156.184,171.568 C156.184,179.584 151.24,184.192 142.504,184.192 L136.648,184.192 Z M175.192,187.648 C181.384,187.648 184.84,184.144 184.84,182.56 C184.84,181.072 183.112,180.64 183.016,180.784 C181.672,182.944 179.656,184.864 175.192,184.864 C170.296,184.864 166.744,181.408 166.504,176.512 L184.264,176.512 C185.224,176.512 185.56,176.32 185.56,175.456 L185.56,175.168 C185.56,168.208 181.336,163.648 174.904,163.648 C168.28,163.648 163.384,168.784 163.384,175.744 C163.384,182.752 168.232,187.648 175.192,187.648 Z M174.904,166.384 C179.176,166.384 181.96,169.312 182.248,173.824 L166.6,173.824 C167.272,169.456 170.584,166.384 174.904,166.384 Z M198.088,187.648 C203.656,187.648 207.112,184.912 207.112,180.688 C207.112,175.984 202.408,174.976 198.712,174.16 C194.488,173.248 192.328,172.576 192.328,170.128 C192.328,167.872 194.344,166.288 198.088,166.288 C201.208,166.288 203.512,167.68 204.808,169.648 C204.904,169.792 206.536,169.216 206.536,168.016 C206.536,166.288 203.656,163.648 198.088,163.648 C192.808,163.648 189.352,166.48 189.352,170.56 C189.352,175.168 193.816,176.176 197.368,176.944 C201.688,177.856 204.088,178.432 204.088,181.168 C204.088,183.472 201.976,185.008 198.184,185.008 C194.392,185.008 191.896,183.424 190.36,181.312 C190.264,181.216 188.68,181.696 188.68,182.992 C188.68,184.72 191.992,187.648 198.088,187.648 Z M213.976,158.512 C215.368,158.512 216.088,157.84 216.088,156.448 C216.088,155.056 215.416,154.384 214.072,154.384 C212.68,154.384 211.96,155.056 211.96,156.448 C211.96,157.792 212.68,158.512 213.976,158.512 Z M213.832,187.264 L214.168,187.264 C214.984,187.264 215.56,186.928 215.56,185.776 L215.56,165.52 C215.56,164.368 214.984,164.032 214.168,164.032 L213.832,164.032 C213.016,164.032 212.44,164.368 212.44,165.52 L212.44,185.776 C212.44,186.928 213.016,187.264 213.832,187.264 Z M229.816,197.2 C237.16,197.2 241.48,194.656 241.48,190.384 C241.48,186.736 238.024,185.2 234.76,184.384 C230.584,183.328 228.424,183.184 228.424,181.6 C228.424,181.216 228.472,180.88 228.76,180.448 C229.144,180.496 229.576,180.496 230.008,180.496 C235.384,180.496 239.416,176.8 239.416,172.096 C239.416,170.224 238.696,168.448 237.544,167.056 L241.336,162.832 C241.432,162.736 240.856,161.44 239.56,161.44 C238.552,161.44 238.024,161.92 237.352,162.88 L235.768,165.424 C234.184,164.32 232.168,163.648 230.008,163.648 C224.68,163.648 220.744,167.536 220.744,172.288 C220.744,175.792 223,178.72 226.456,179.92 C225.88,180.544 225.448,181.36 225.448,182.176 C225.448,183.232 225.88,183.904 226.456,184.384 C222.28,185.2 219.064,187.504 219.064,190.96 C219.064,195.184 222.52,197.2 229.816,197.2 Z M230.056,178.048 C226.456,178.048 223.912,175.648 223.912,172.192 C223.912,168.64 226.408,166.24 229.96,166.24 C233.704,166.24 236.2,168.736 236.2,172.192 C236.2,175.648 233.704,178.048 230.056,178.048 Z M238.36,190.48 C238.36,193.168 235.144,194.656 229.912,194.656 C224.776,194.656 222.088,193.36 222.088,190.96 C222.088,188.08 226.024,186.448 230.392,186.208 C234.04,187.12 238.36,187.696 238.36,190.48 Z M247.912,167.056 C247.912,164.56 246.952,164.032 245.896,164.032 C245.32,164.032 244.84,164.272 244.84,164.368 L244.84,185.776 C244.84,186.928 245.416,187.264 246.232,187.264 L246.568,187.264 C247.384,187.264 247.96,186.928 247.96,185.776 L247.96,171.424 C249.304,168.544 251.944,166.576 255.496,166.576 C259.384,166.576 261.64,169.36 261.64,173.92 L261.64,185.776 C261.64,186.928 262.216,187.264 263.032,187.264 L263.368,187.264 C264.184,187.264 264.76,186.928 264.76,185.776 L264.76,173.728 C264.76,167.68 261.736,163.648 255.688,163.648 C252.136,163.648 249.496,165.376 247.912,167.824 L247.912,167.056 Z" id="User-Interface" fill="#FFFFFF" sketch:type="MSShapeGroup" mask="url(#mask-2)"></path>
        </g>
    </g>
</svg>