<?xml version="1.0" encoding="UTF-8" standalone="no"?>
<svg width="400px" height="300px" viewBox="0 0 400 300" version="1.1" xmlns="http://www.w3.org/2000/svg" xmlns:xlink="http://www.w3.org/1999/xlink" xmlns:sketch="http://www.bohemiancoding.com/sketch/ns">
    <!-- Generator: Sketch 3.0.3 (7891) - http://www.bohemiancoding.com/sketch -->
    <title>ux-design</title>
    <desc>Created with Sketch.</desc>
    <defs>
        <rect id="path-1" x="0" y="0" width="400" height="300"></rect>
    </defs>
    <g id="work" stroke="none" stroke-width="1" fill="none" fill-rule="evenodd" sketch:type="MSPage">
        <g id="ux-design" sketch:type="MSArtboardGroup">
            <rect id="Rectangle-6" fill="#000000" sketch:type="MSShapeGroup" x="0" y="0" width="400" height="300"></rect>
            <g id="Rectangle-1-+-topographic_dark_min" sketch:type="MSLayerGroup">
                <mask id="mask-2" sketch:name="Rectangle 1" fill="white">
                    <use xlink:href="#path-1"></use>
                </mask>
                <use id="Rectangle-1" sketch:type="MSShapeGroup" xlink:href="#path-1"></use>
                <path d="M279.034348,-156.29238 C275.488082,-145.148427 281.162307,-136.614306 277.378822,-125.944135 C273.596342,-115.273963 253.062597,-93.1523845 256.807885,-77.9984227 C260.553173,-62.8434527 275.676054,-64.1871786 287.801498,-51.2287418 C295.075958,-43.4536796 296.069073,-35.0102829 306.269602,-29.2230883 C320.290813,-21.2675862 330.736606,-24.9247785 354.62965,-21.8623334 C378.522698,-18.7998882 410.972812,-14.0862632 413.433481,-2.88989154 C416.146453,9.4475887 394.172293,15.9777133 396.772683,28.1196325 C399.373073,40.2615517 417.578829,40.227278 430.581796,47.1364281 C465.516704,65.7006112 488.413621,82.3716829 480.856705,43.3008117 C478.96496,33.5207451 472.694668,26.983564 476.453023,15.6500981 C491.86439,-30.8198337 446.767145,-19.3633862 465.809209,-68.0913424 C472.664515,-85.6373985 485.195047,-97.4698474 489.214745,-114.07842 C493.233443,-130.685985 497.725574,-144.437755 511.201977,-151.313639 L279.034348,-156.29238 L279.034348,-156.29238 Z" id="Path" stroke="#FFFFFF" stroke-width="2" opacity="0.208955224" sketch:type="MSShapeGroup" mask="url(#mask-2)"></path>
                <path d="M-282.497341,134.114739 C-264.948257,132.181701 -252.694962,162.976687 -240.022467,162.976687 C-224.564355,162.976687 -223.628444,133.64454 -209.235924,138.235004 C-196.927339,142.161362 -204.310077,161.651491 -195.407363,166.954285 C-186.548881,172.231962 -182.012075,162.225174 -165.316471,166.835731 C-151.531136,170.64253 -152.799793,187.683207 -141.735738,198.016522 C-130.672688,208.349837 -124.143428,200.554388 -111.264851,205.629116 C-102.881864,208.933566 -99.8378922,218.318446 -86.4154622,216.868668 C-72.9940376,215.418889 -71.8751666,201.730889 -57.5017463,191.609565 C-43.1293319,181.488241 -29.8777983,174.593001 -27.7928584,155.49169 C-25.7079184,136.390379 -49.7309719,134.394045 -54.3120092,110.821829 C-61.7701438,72.4433848 -9.95124008,54.8752419 4.87153794,42.6229547 C13.9059429,35.1570463 22.1592496,28.3853847 18.8589323,16.7560094 C15.5576096,5.12663458 0.434254378,4.74886846 -3.21489334,-3.93372864 C-6.86404105,-12.6153207 5.69385273,-23.3223834 1.52397239,-46.9327775 C-2.64490259,-70.5421669 -37.6184149,-80.014456 -47.0770461,-94.551426 C-53.853604,-104.965117 -54.3743366,-127.700419 -47.2509586,-145.244449 C-40.1275811,-162.788479 -29.0082357,-173.901439 -29.0082357,-173.901439" id="Path" stroke="#FFFFFF" stroke-width="2" opacity="0.208955224" sketch:type="MSShapeGroup" mask="url(#mask-2)"></path>
                <path d="M193.986056,457.509111 C192.945603,435.241588 166.735356,424.978051 166.735356,424.978051 C156.414156,421.25153 139.067871,426.715482 130.890852,423.487242 C122.714838,420.257992 117.758613,407.343009 97.4406015,399.892987 C77.1215851,392.44196 60.2724284,385.892867 41.1927197,387.552786 C22.1130109,389.213716 4.7677294,386.481738 0.803753806,377.540907 C-3.16022179,368.59907 6.4559593,357.270526 5.87647797,345.502087 C4.12598143,309.942099 -31.9615637,319.233236 -37.9331368,284.161459 C-44.3385682,246.541917 -9.17698854,226.444675 0.308633445,199.789278 C7.49340226,179.59842 8.98177605,158.119083 6.50316154,144.519597 C4.02454702,130.92011 -8.31630283,105.836054 2.19069361,91.9275341 C12.6976896,78.0200207 58.4516312,51.529711 72.2467084,66.5133048 C86.041786,81.496899 51.6002903,100.579465 39.4582921,117.240094 C27.3172983,133.900723 24.5906214,153.520826 27.8124187,171.40249 C31.034216,189.284154 7.04648823,212.133505 2.19069361,236.721296 C-2.66510143,261.309087 7.91119159,302.699441 29.1360873,313.545812 C58.267844,328.43277 80.9971825,302.982302 96.9454812,302.783998 C111.684601,302.601799 132.663443,306.708823 143.776033,303.777535 C157.899517,300.052021 211.979112,276.652046 237.881036,273.643247 C284.890357,268.181307 300.698054,281.33486 308.236335,300.546273 C314.581507,316.71567 289.333384,345.568524 300.872802,364.377288 C308.533609,376.865463 381.347433,375.301169 391.793167,365.890243 C405.296996,353.724193 397.771769,336.381072 418.570841,318.685633 C454.936581,287.746046 492.287533,295.174929 511.264806,324.897507 C518.327047,335.956275 531.418112,362.094268 558.872684,359.876676 C560.592048,359.73776 562.332503,359.495165 564.095049,359.224383 C573.674073,357.750684 583.818518,354.460033 593.334266,345.483967 C604.601519,334.856034 607.471812,312.935798 625.808337,308.949568" id="Path" stroke="#FFFFFF" stroke-width="2" opacity="0.208955224" sketch:type="MSShapeGroup" mask="url(#mask-2)"></path>
                <path d="M-243.792561,351.854753 C-212.678259,350.30819 -217.091486,319.992905 -204.071514,307.204351 C-196.482048,299.749887 -180.458394,297.035611 -170.485244,296.067877 C-130.899633,292.22709 -105.97027,281.605134 -85.8383719,248.333387 C-75.1780066,230.714204 -60.8448017,211.280144 -49.8473496,203.646806 C-38.8498979,196.013468 -15.8547693,190.917542 -16.520917,157.469935 C-17.1870642,124.022329 -41.8495675,121.484917 -39.6615141,95.7801844 C-37.4734608,70.0764563 28.4410243,50.8624728 34.5537298,33.6733938 C40.6664348,16.4833097 15.1371376,0.548364983 12.4263992,-10.3117567 C8.42750813,-26.3301091 19.4691021,-32.9454677 11.8043938,-56.3117623 C4.13968551,-79.6780568 -33.5177087,-89.8206686 -39.6615141,-114.856128 C-45.8053195,-139.891587 -21.5200323,-162.926259 -13.855324,-174.333055 C-6.19061573,-185.740855 3.92198359,-189.445979 17.136583,-186.039315 C39.4655639,-180.284164 50.1299417,-189.964515 69.125176,-188.29535 C88.1194065,-186.626186 99.7850124,-175.610302 99.4519386,-170.603814 C99.1188652,-165.59632 76.694577,-169.269286 66.0301987,-163.594528 C55.3658204,-157.91977 45.4378161,-145.799485 41.7990862,-131.214142 C39.13249,-120.53189 30.0291439,-78.9404488 47.7713385,-63.3984261 C61.1013097,-51.7213084 86.0246539,-68.2592023 95.0296827,-59.917399 C118.909664,-37.7982046 58.7537418,-4.2913079 78.3499131,29.1884557 C87.8124168,45.3545312 105.783349,41.9026463 109.116093,64.7343259 C111.305149,79.7296745 111.130587,105.806226 86.7951377,120.988489 C62.4596887,136.171757 57.1285028,148.640748 55.1290575,163.936567 C53.1286085,179.23339 64.459134,192.007875 55.1290575,203.646806 C45.7979773,215.285737 15.470211,230.130349 25.8015155,268.27292 C36.13282,306.416497 69.7903199,278.938088 80.4567047,270.364149 C99.03359,255.43211 109.778227,254.095573 119.492543,249.529237 C131.271514,243.993157 133.859858,225.007289 148.439858,218.28943 C165.103576,210.611875 179.977525,208.344786 188.0977,190.582905 C198.655737,167.487938 168.335997,130.952226 185.240491,104.951043 C197.215093,86.5339571 242.896352,122.633535 265.790153,109.680175 C300.35558,90.1225105 286.083573,15.4321681 304.770814,-6.07603783 C314.403867,-17.1622654 332.812211,-6.94127012 350.97476,-4.48425173 C368.047795,-2.17395101 387.363063,-8.91592914 390.405872,0.530276538 C393.448681,9.97748684 381.178125,16.5526487 379.762561,27.1896791 C378.347,37.8267091 392.504636,48.6978847 416.808988,57.1482191 C441.113336,65.5985532 467.305768,89.5878954 487.127668,77.2696414 C506.948563,64.9503826 492.790923,26.2430484 493.025681,2.37027685 C493.261443,-21.5024951 481.935933,-24.8096721 476.272678,-41.8289206 C470.609418,-58.8481689 482.407453,-74.4464669 489.723036,-88.3916788 C503.501453,-114.658159 502.931617,-137.965164 528.952496,-140.723657 C553.274904,-143.299255 555.272343,-125.999635 564.001481,-125.831815 C564.772968,-125.816741 565.597627,-125.935321 566.494518,-126.213682" id="Path" stroke="#FFFFFF" stroke-width="2" opacity="0.208955224" sketch:type="MSShapeGroup" mask="url(#mask-2)"></path>
                <path d="M589.616856,123.181922 C572.804304,124.625452 574.314732,145.509847 561.469061,142.67208 C548.623393,139.833307 539.494541,121.11169 520.438439,123.124583 C494.734046,125.839625 499.740355,152.187301 487.326521,170.642343 C476.600873,186.585544 452.613788,179.672699 441.161046,205.084847 C424.460974,242.138781 441.290599,271.583757 436.406812,289.77323 C432.969182,302.579898 417.103662,300.196818 407.448573,313.611076 C397.794485,327.024328 395.967709,345.843522 385.53029,356.428059 C375.093876,367.013606 325.255768,364.138618 313.513796,356.428059 C301.771825,348.717505 324.152072,327.918612 320.036556,304.547524 C316.426191,284.041363 300.834837,261.405619 263.536098,260.882529 C226.23736,260.360444 178.861736,277.625454 162.298244,283.114889 C145.734751,288.603317 124.123778,294.680223 122.255828,288.184845 C120.387879,281.690473 132.309616,277.862857 141.820091,270.046675 C151.566571,262.038358 156.869138,248.809193 166.076323,242.747376 C173.229767,238.037549 199.679333,233.557076 220.100242,222.596314 C237.408904,213.306424 250.031623,198.826871 246.607051,181.18262 C242.954504,162.363427 238.526663,142.504087 252.378613,137.341585 C266.231572,132.179082 310.685761,176.646821 345.674668,173.064655 C377.405712,169.815457 385.465013,140.586759 401.934101,128.970122 C418.404197,117.352479 463.602557,109.886365 496.029558,107.393637 C516.168269,105.84549 533.763148,123.395182 537.564325,115.580006 C541.365503,107.76483 524.560987,102.354865 535.363962,72.4964461 C538.434027,64.0103057 524.819085,56.0623451 512.816002,58.6677389 C500.812919,61.2731331 505.050952,84.7196674 484.288591,93.4422048 C458.079048,104.452258 413.331607,108.949832 400.269014,116.057829 C387.207426,123.164821 370.40291,155.720175 346.857704,161.212627 C323.312498,166.70508 299.477057,148.364715 284.810641,136.411087 C270.145226,124.457459 251.997993,115.287277 237.126702,126.72888 C222.895137,137.678576 227.301892,155.755383 230.526615,169.082124 C233.751339,182.40786 234.400102,195.729571 220.420603,208.954712 C206.440105,222.180859 171.124808,219.904408 157.925634,230.027219 C144.725456,240.151036 144.3127,250.894514 133.381176,260.603882 C122.449653,270.31325 104.343596,271.800035 77.251295,291.758962 C67.7357983,298.767372 40.159437,309.899144 29.0632129,297.437514 C15.0977778,281.751835 6.90290161,249.987153 15.5758121,231.942536 C24.2497271,213.897919 37.5935168,202.518685 41.2641384,184.650108 C44.9337559,166.781531 33.5231939,139.235777 61.2793205,117.437984 C89.7374345,95.0879284 98.1010289,87.5946541 93.8157914,70.0077417 C89.5295494,52.4218352 66.0375709,41.1663317 54.0284616,43.1721833 C42.0193526,45.1770291 -20.9134813,75.7225073 -20.1191006,100.449608 C-19.3247198,125.176708 -3.9543054,134.702994 -5.03088701,168.45341 C-6.10847313,202.202818 -27.7917543,212.562026 -38.8006068,230.271664 C-49.809459,247.982307 -59.4846353,284.070535 -46.4742646,303.786025 C-33.4638944,323.500508 -7.77556805,326.174306 -7.10772582,347.55966 C-6.44088811,368.946023 -30.967269,378.329467 -33.7973134,394.676049 C-36.2075709,408.605352 -34.0614372,411.183584 -36.2075709,419.780378 C-38.3537046,428.377172 -48.1162529,435.529433 -55.1060004,452.179813 C-62.096752,468.831195 -67.7367551,495.103427 -60.3955119,510.839403" id="Path" stroke="#FFFFFF" stroke-width="2" opacity="0.208955224" sketch:type="MSShapeGroup" mask="url(#mask-2)"></path>
                <path d="M-26.1410064,-182.7462 C-20.5832033,-196.988983 -28.0522233,-203.242059 -19.0206681,-209.494131 C-9.99011747,-215.748212 10.1550337,-202.198875 23.3536849,-200.463249 C36.553341,-198.725613 59.1292143,-205.152554 81.1855824,-198.37889 C103.241951,-191.604222 119.914354,-178.750342 119.566678,-163.291515 C119.220006,-147.833694 96.6089629,-159.768004 81.8809358,-156.170124 C75.5051884,-154.614392 69.5725779,-151.031586 64.5282516,-145.638785 C57.7575998,-138.398805 52.8047142,-127.854401 50.099669,-114.657818 C46.7997548,-98.5668496 47.0188111,-82.4196018 58.3082552,-75.8187975 C69.5966944,-69.2189981 83.5409413,-78.4589182 95.4272639,-75.2921803 C111.92181,-70.8973391 118.946688,-50.2748504 113.216051,-33.3366721 C107.485415,-16.3974883 92.5925936,-2.57579788 91.8972402,13.2307567 C91.2028914,29.038316 112.821147,32.7477513 119.571702,50.4597755 C129.79199,77.2730308 128.424394,100.403986 112.447344,117.639643 C96.4692892,134.874294 71.9821985,145.175489 70.7663349,165.557784 C69.5504713,185.941084 94.6324307,182.315063 91.6058349,197.404052 C88.0496849,215.135171 44.2785964,212.387516 37.7692045,245.86489 C34.1216138,264.624119 50.2282892,272.289212 60.6485412,266.383864 C71.0677888,260.478516 71.2868451,253.160146 80.3173958,246.560346 C89.347946,239.959542 104.630648,241.697177 115.0509,233.359743 C125.471152,225.022308 124.100542,213.441755 133.286844,207.825846 C139.894711,203.785767 167.547066,203.581753 173.924823,188.025443 C184.315933,162.679479 141.542658,96.0634142 175.079391,86.5652105 C194.703029,81.0065854 211.785409,93.0152658 230.714697,96.4885268 C285.648617,106.567617 268.261767,55.5792177 280.652522,24.2143421 C302.1301,-30.153854 250.223149,-53.046255 199.050437,-44.6006338 C165.517809,-39.0663581 195.140134,-107.977619 193.375626,-145.638785 C192.334607,-167.87027 166.110136,-178.117195 166.110136,-178.117195" id="Path" stroke="#FFFFFF" stroke-width="2" opacity="0.208955224" sketch:type="MSShapeGroup" mask="url(#mask-2)"></path>
                <path d="M402.380816,143.61602 C417.026728,122.168433 496.965233,110.636181 500.140824,119.288648 C503.316419,127.940106 490.644196,130.819891 486.6325,149.535969 C484.061878,161.526162 481.34956,168.930891 465.527872,173.029162 C449.705184,177.127434 436.688267,184.324373 427.615723,210.763923 C418.54217,237.202465 429.771141,265.821924 413.686037,279.406055 C397.600933,292.990186 387.547743,322.170913 377.494557,337.767507 C367.441366,353.364101 328.736585,352.860986 335.271158,330.723883 C341.805732,308.586779 327.228608,271.859318 304.891137,261.093078 C286.082163,252.027508 260.738342,247.160165 236.640017,251.243306 C210.589108,255.657295 192.483204,262.425546 188.550898,257.872359 C184.618589,253.318164 187.206296,245.712708 206.713076,239.641456 C226.219853,233.570204 246.546662,227.212487 254.214307,207.059038 C260.681063,190.060743 248.787662,162.748684 263.687823,156.981045 C278.587984,151.214415 303.327457,188.003034 348.723356,185.205961 C376.801219,183.476072 393.156526,157.124278 402.380816,143.61602 L402.380816,143.61602 Z" id="Path" stroke="#FFFFFF" stroke-width="2" opacity="0.208955224" sketch:type="MSShapeGroup" mask="url(#mask-2)"></path>
                <path d="M133.70718,5.20572167 C138.754804,-1.69924806 152.760856,-1.68258925 166.815142,-0.753548881 C185.51949,0.482422598 223.176335,-30.0128042 245.795291,-10.3901708 C268.414251,9.23246227 265.319693,70.0798678 238.884605,77.6672399 C212.449518,85.2546124 200.597952,72.5564993 186.653659,68.4975995 C155.710226,59.489497 144.300048,56.2534398 136.267938,34.9781977 C132.609982,25.2883101 128.830072,11.8774309 133.70718,5.20572167 L133.70718,5.20572167 Z" id="Path" stroke="#FFFFFF" stroke-width="2" opacity="0.208955224" sketch:type="MSShapeGroup" mask="url(#mask-2)"></path>
                <path d="M280.391377,355.578389 C271.449027,346.601504 257.721667,339.372358 260.228342,322.912055 C261.965509,311.505019 271.077854,302.082908 266.929568,293.899993 C256.621226,273.562304 174.359656,311.505019 148.052652,317.208537 C121.745648,322.912055 109.585461,311.668838 96.9283655,314.066828 C84.2712692,316.464818 68.6347313,327.12713 57.2189019,329.359291 C45.8040783,331.590447 28.1919751,325.639693 21.1145433,331.094969 C17.0588003,334.219593 18.5636098,341.840698 18.279949,349.046731 C17.8393698,360.263814 12.0665752,366.875877 15.8577694,372.911053 C24.4500698,386.592459 47.4265768,370.710047 91.9643053,386.390451 C118.022855,395.565322 124.47563,410.099997 135.644011,412.282913 C146.811386,414.466834 154.930919,412.619596 167.93404,415.892964 C180.936156,419.166332 188.201689,427.711052 197.631892,429.19849 C206.26745,430.561304 211.440732,421.305023 229.004555,418.659795 C244.918718,416.261809 251.549535,420.695979 263.628244,414.598492 C274.823783,408.946229 277.181586,398.113061 287.433604,387.397482 C297.315452,377.07085 289.58218,364.801502 280.391377,355.578389 L280.391377,355.578389 L280.391377,355.578389 Z" id="Path" stroke="#FFFFFF" stroke-width="2" opacity="0.208955224" sketch:type="MSShapeGroup" mask="url(#mask-2)"></path>
                <path d="M386.647268,102.155328 C393.118409,99.2588704 408.045439,96.2788359 418.792903,93.1055301 C429.093205,90.0636837 432.912785,84.2846981 420.358386,78.1618285 C412.669549,74.4121914 402.581057,70.7026014 396.370542,68.1648272 C384.910941,63.4819158 362.512114,53.769598 360.775783,37.6418919 C359.433443,25.1767638 365.94032,20.734136 362.207905,17.6748776 C358.355206,14.5198542 348.679005,19.1557536 339.741092,17.3693 C330.191279,15.4618343 325.954183,11.2490425 316.456668,17.776737 C306.959153,24.3044315 309.553187,52.9329596 305.906199,69.8267863 C302.26008,86.7214832 291.007933,98.1671489 292.119289,110.133428 C293.230645,122.099707 320.339874,140.668551 337.720605,138.332755 C355.101335,135.996087 364.949249,111.866775 386.647268,102.155328 L386.647268,102.155328 L386.647268,102.155328 Z" id="Path" stroke="#FFFFFF" stroke-width="2" opacity="0.208955224" sketch:type="MSShapeGroup" mask="url(#mask-2)"></path>
                <path d="M122.593669,134.549263 C141.716071,123.900355 168.129283,144.057504 157.193893,167.994194 C139.141446,207.505515 41.5563258,179.675135 122.593669,134.549263 L122.593669,134.549263 L122.593669,134.549263 Z" id="Path" stroke="#FFFFFF" stroke-width="2" opacity="0.208955224" sketch:type="MSShapeGroup" mask="url(#mask-2)"></path>
                <path d="M315.964771,230.36546 C306.191642,228.843256 277.96798,233.119384 268.41745,217.019673 C258.86692,200.919962 271.831559,178.324007 284.338244,178.788569 C290.123282,179.003468 304.523585,189.39975 320.638128,197.492184 C339.354116,206.890869 356.004633,210.469364 356.379487,218.197312 C356.754346,225.926314 325.736827,231.88661 315.964771,230.36546 L315.964771,230.36546 Z" id="Path" stroke="#FFFFFF" stroke-width="2" opacity="0.208955224" sketch:type="MSShapeGroup" mask="url(#mask-2)"></path>
                <path d="M184.099291,13.2805785 C197.572461,13.8208145 216.358496,7.03316747 227.700656,11.7475381 C236.984386,15.6063197 241.28648,29.5829672 242.142216,39.6703482 C243.785617,59.0426525 221.669697,72.1239744 196.482711,59.5402254 C171.295723,46.9564769 169.395085,48.4759075 162.913334,36.8012123 C158.173609,23.613927 159.598133,12.2981516 184.099291,13.2805785 L184.099291,13.2805785 Z" id="Path" stroke="#FFFFFF" stroke-width="2" opacity="0.208955224" sketch:type="MSShapeGroup" mask="url(#mask-2)"></path>
                <path d="M401.526013,266.152607 C414.899723,258.349441 415.218054,238.441827 389.319224,235.529057 C363.420393,232.616286 337.784725,241.169452 331.714939,253.470278 C325.645154,265.771105 334.073224,269.696819 341.029142,280.054653 C347.98506,290.412488 344.287386,317.40762 365.628375,314.032662 C386.968676,310.658648 388.152303,273.955773 401.526013,266.152607 L401.526013,266.152607 Z" id="Path" stroke="#FFFFFF" stroke-width="2" opacity="0.208955224" sketch:type="MSShapeGroup" mask="url(#mask-2)"></path>
                <path d="M384.945504,92.2130498 C391.056125,90.4060938 393.322073,86.9731883 385.874224,83.3360045 C381.312845,81.1085977 375.327882,78.9049802 371.643515,77.3974599 C364.845146,74.6156581 355.961527,67.7055237 350.527049,59.2658422 C343.436352,48.2540718 343.537251,44.5137443 332.568873,42.9972773 C321.60049,41.4808107 319.49109,71.3564533 317.975859,78.3847178 C315.81281,88.420718 311.508904,90.5241706 309.796821,102.328176 C308.800499,109.197343 312.528693,113.335426 317.975859,116.817494 C323.346423,120.250593 330.6674,122.056348 337.322545,120.15131 C347.29943,117.295423 353.002942,103.357841 365.875216,97.5889245 C369.714199,95.8683343 378.569606,94.0980968 384.945504,92.2130498 L384.945504,92.2130498 Z" id="Path" stroke="#FFFFFF" stroke-width="2" opacity="0.208955224" sketch:type="MSShapeGroup" mask="url(#mask-2)"></path>
                <path d="M136.962394,164.070847 C145.243216,161.382051 146.77078,147.446779 136.962394,143.752407 C120.771584,137.654818 101.870398,175.466163 136.962394,164.070847 L136.962394,164.070847 L136.962394,164.070847 Z" id="Path" stroke="#FFFFFF" stroke-width="2" opacity="0.208955224" sketch:type="MSShapeGroup" mask="url(#mask-2)"></path>
                <path d="M405.856428,204.898424 C387.336553,218.16236 376.294516,194.714145 388.837228,190.041461 C397.113438,186.958608 413.790102,199.216551 405.856428,204.898424 L405.856428,204.898424 L405.856428,204.898424 Z" id="Path" stroke="#FFFFFF" stroke-width="2" opacity="0.208955224" sketch:type="MSShapeGroup" mask="url(#mask-2)"></path>
                <path d="M420.170723,202.991633 C424.295549,193.708309 413.740285,177.119963 395.701866,178.13155 C377.663033,179.142004 364.393771,194.013237 371.457258,209.34485 C378.52074,224.676465 413.099825,218.904533 420.170723,202.991633 L420.170723,202.991633 L420.170723,202.991633 Z" id="Path" stroke="#FFFFFF" stroke-width="2" opacity="0.208955224" sketch:type="MSShapeGroup" mask="url(#mask-2)"></path>
                <path d="M326.745329,83.7379185 C323.839701,88.0207199 323.61227,89.6118473 322.782817,95.3234626 C322.300125,98.6472536 324.106329,100.649551 326.745329,102.334423 C329.347218,103.9956 332.894029,104.869353 336.118258,103.94756 C340.951781,102.565679 347.334985,101.302999 349.951232,93.0302765 C352.864243,77.656548 333.260522,74.1347364 326.745329,83.7379185 L326.745329,83.7379185 Z" id="Path" stroke="#FFFFFF" stroke-width="2" opacity="0.208955224" sketch:type="MSShapeGroup" mask="url(#mask-2)"></path>
                <path d="M331.489725,213.676324 C328.574093,209.910351 315.088763,203.30016 305.230382,201.682372 C295.371152,200.063725 291.937505,206.346066 296.6327,211.564186 C310.163812,226.602328 337.133624,220.967101 331.489725,213.676324 L331.489725,213.676324 L331.489725,213.676324 Z" id="Path" stroke="#FFFFFF" stroke-width="2" opacity="0.208955224" sketch:type="MSShapeGroup" mask="url(#mask-2)"></path>
                <path d="M202.15889,32.9393023 C209.579921,33.5422242 223.300359,34.832039 225.267974,43.5959205 C227.236278,52.360308 215.405845,54.0570731 207.133425,51.5222376 C198.860313,48.9868959 195.809215,48.0748794 193.760044,42.3577889 C191.860972,37.0590132 194.738369,32.3362426 202.15889,32.9393023 L202.15889,32.9393023 Z" id="Path" stroke="#FFFFFF" stroke-width="2" opacity="0.208955224" sketch:type="MSShapeGroup" mask="url(#mask-2)"></path>
                <path d="M373.212459,278.931363 C377.538924,271.737361 387.324427,259.454087 386.855275,253.255065 C386.387085,247.056749 362.807156,247.503987 354.396332,252.97181 C345.984676,258.439765 364.295096,293.757622 373.212459,278.931363 L373.212459,278.931363 L373.212459,278.931363 Z" id="Path" stroke="#FFFFFF" stroke-width="2" opacity="0.208955224" sketch:type="MSShapeGroup" mask="url(#mask-2)"></path>
            </g>
            <path d="M48.084,132.975895 C55.956,132.975895 60.276,128.415895 60.276,120.015895 L60.276,102.639895 C60.276,101.631895 59.892,101.151895 58.98,101.151895 L58.404,101.151895 C57.444,101.151895 57.06,101.631895 57.06,102.639895 L57.06,119.871895 C57.06,126.687895 54.18,130.047895 48.18,130.047895 C42.276,130.047895 39.3,126.591895 39.3,119.919895 L39.3,102.639895 C39.3,101.679895 38.82,101.151895 37.86,101.151895 L37.428,101.151895 C36.516,101.151895 36.036,101.679895 36.036,102.639895 L36.036,120.159895 C36.036,128.511895 40.26,132.975895 48.084,132.975895 Z M74.388,132.975895 C79.956,132.975895 83.412,130.239895 83.412,126.015895 C83.412,121.311895 78.708,120.303895 75.012,119.487895 C70.788,118.575895 68.628,117.903895 68.628,115.455895 C68.628,113.199895 70.644,111.615895 74.388,111.615895 C77.508,111.615895 79.812,113.007895 81.108,114.975895 C81.204,115.119895 82.836,114.543895 82.836,113.343895 C82.836,111.615895 79.956,108.975895 74.388,108.975895 C69.108,108.975895 65.652,111.807895 65.652,115.887895 C65.652,120.495895 70.116,121.503895 73.668,122.271895 C77.988,123.183895 80.388,123.759895 80.388,126.495895 C80.388,128.799895 78.276,130.335895 74.484,130.335895 C70.692,130.335895 68.196,128.751895 66.66,126.639895 C66.564,126.543895 64.98,127.023895 64.98,128.319895 C64.98,130.047895 68.292,132.975895 74.388,132.975895 Z M98.772,132.975895 C104.964,132.975895 108.42,129.471895 108.42,127.887895 C108.42,126.399895 106.692,125.967895 106.596,126.111895 C105.252,128.271895 103.236,130.191895 98.772,130.191895 C93.876,130.191895 90.324,126.735895 90.084,121.839895 L107.844,121.839895 C108.804,121.839895 109.14,121.647895 109.14,120.783895 L109.14,120.495895 C109.14,113.535895 104.916,108.975895 98.484,108.975895 C91.86,108.975895 86.964,114.111895 86.964,121.071895 C86.964,128.079895 91.812,132.975895 98.772,132.975895 Z M98.484,111.711895 C102.756,111.711895 105.54,114.639895 105.828,119.151895 L90.18,119.151895 C90.852,114.783895 94.164,111.711895 98.484,111.711895 Z M117.06,112.383895 C117.06,109.887895 116.1,109.359895 115.044,109.359895 C114.468,109.359895 113.988,109.599895 113.988,109.695895 L113.988,131.103895 C113.988,132.255895 114.564,132.591895 115.38,132.591895 L115.716,132.591895 C116.532,132.591895 117.108,132.255895 117.108,131.103895 L117.108,122.127895 C117.108,116.271895 118.692,111.999895 122.772,111.999895 C124.068,111.999895 124.884,112.383895 125.556,112.959895 C125.652,113.055895 126.42,112.479895 126.42,111.327895 C126.42,109.839895 125.22,108.975895 123.108,108.975895 C120.036,108.975895 118.02,110.607895 117.06,113.727895 L117.06,112.383895 Z M140.676,132.399895 L159.54,132.399895 C160.5,132.399895 161.028,131.919895 161.028,131.007895 L161.028,130.719895 C161.028,129.855895 160.5,129.423895 159.54,129.423895 L142.116,129.423895 L142.116,117.903895 L155.844,117.903895 C156.804,117.903895 157.332,117.471895 157.332,116.559895 L157.332,116.367895 C157.332,115.503895 156.804,115.023895 155.844,115.023895 L142.116,115.023895 L142.116,104.319895 L159.252,104.319895 C160.212,104.319895 160.74,103.887895 160.74,102.975895 L160.74,102.687895 C160.74,101.823895 160.212,101.343895 159.252,101.343895 L140.676,101.343895 C139.668,101.343895 138.852,102.159895 138.852,103.167895 L138.852,130.575895 C138.852,131.583895 139.668,132.399895 140.676,132.399895 Z M175.86,121.023895 L183.924,110.703895 C184.02,110.607895 183.54,109.359895 182.292,109.359895 C181.62,109.359895 180.852,109.791895 179.988,110.991895 L174.084,119.103895 L168.036,110.943895 C167.316,109.983895 166.788,109.359895 165.684,109.359895 C164.436,109.359895 164.004,110.559895 164.1,110.703895 L172.068,121.023895 L163.956,131.247895 C163.86,131.343895 164.34,132.591895 165.588,132.591895 C166.5,132.591895 167.172,132.015895 167.94,130.959895 L173.796,122.895895 L179.844,131.007895 C180.564,131.967895 181.092,132.591895 182.196,132.591895 C183.444,132.591895 183.876,131.391895 183.78,131.247895 L175.86,121.023895 Z M189.732,141.855895 L190.068,141.855895 C190.884,141.855895 191.46,141.519895 191.46,140.367895 L191.46,128.607895 C192.756,130.815895 195.684,132.975895 199.764,132.975895 C206.1,132.975895 210.756,128.127895 210.756,120.927895 C210.756,113.679895 206.004,108.975895 199.956,108.975895 C196.164,108.975895 193.476,110.559895 191.412,113.391895 L191.412,112.383895 C191.412,109.887895 190.452,109.359895 189.396,109.359895 C188.82,109.359895 188.34,109.599895 188.34,109.695895 L188.34,140.367895 C188.34,141.519895 188.916,141.855895 189.732,141.855895 Z M199.524,130.239895 C195.204,130.239895 191.412,126.879895 191.412,122.511895 L191.412,117.135895 C192.852,113.823895 195.636,111.711895 199.62,111.711895 C204.228,111.711895 207.588,115.599895 207.588,120.975895 C207.588,126.495895 204.372,130.239895 199.524,130.239895 Z M225.924,132.975895 C232.116,132.975895 235.572,129.471895 235.572,127.887895 C235.572,126.399895 233.844,125.967895 233.748,126.111895 C232.404,128.271895 230.388,130.191895 225.924,130.191895 C221.028,130.191895 217.476,126.735895 217.236,121.839895 L234.996,121.839895 C235.956,121.839895 236.292,121.647895 236.292,120.783895 L236.292,120.495895 C236.292,113.535895 232.068,108.975895 225.636,108.975895 C219.012,108.975895 214.116,114.111895 214.116,121.071895 C214.116,128.079895 218.964,132.975895 225.924,132.975895 Z M225.636,111.711895 C229.908,111.711895 232.692,114.639895 232.98,119.151895 L217.332,119.151895 C218.004,114.783895 221.316,111.711895 225.636,111.711895 Z M244.212,112.383895 C244.212,109.887895 243.252,109.359895 242.196,109.359895 C241.62,109.359895 241.14,109.599895 241.14,109.695895 L241.14,131.103895 C241.14,132.255895 241.716,132.591895 242.532,132.591895 L242.868,132.591895 C243.684,132.591895 244.26,132.255895 244.26,131.103895 L244.26,122.127895 C244.26,116.271895 245.844,111.999895 249.924,111.999895 C251.22,111.999895 252.036,112.383895 252.708,112.959895 C252.804,113.055895 253.572,112.479895 253.572,111.327895 C253.572,109.839895 252.372,108.975895 250.26,108.975895 C247.188,108.975895 245.172,110.607895 244.212,113.727895 L244.212,112.383895 Z M259.14,103.839895 C260.532,103.839895 261.252,103.167895 261.252,101.775895 C261.252,100.383895 260.58,99.7118954 259.236,99.7118954 C257.844,99.7118954 257.124,100.383895 257.124,101.775895 C257.124,103.119895 257.844,103.839895 259.14,103.839895 Z M258.996,132.591895 L259.332,132.591895 C260.148,132.591895 260.724,132.255895 260.724,131.103895 L260.724,110.847895 C260.724,109.695895 260.148,109.359895 259.332,109.359895 L258.996,109.359895 C258.18,109.359895 257.604,109.695895 257.604,110.847895 L257.604,131.103895 C257.604,132.255895 258.18,132.591895 258.996,132.591895 Z M277.668,132.975895 C283.86,132.975895 287.316,129.471895 287.316,127.887895 C287.316,126.399895 285.588,125.967895 285.492,126.111895 C284.148,128.271895 282.132,130.191895 277.668,130.191895 C272.772,130.191895 269.22,126.735895 268.98,121.839895 L286.74,121.839895 C287.7,121.839895 288.036,121.647895 288.036,120.783895 L288.036,120.495895 C288.036,113.535895 283.812,108.975895 277.38,108.975895 C270.756,108.975895 265.86,114.111895 265.86,121.071895 C265.86,128.079895 270.708,132.975895 277.668,132.975895 Z M277.38,111.711895 C281.652,111.711895 284.436,114.639895 284.724,119.151895 L269.076,119.151895 C269.748,114.783895 273.06,111.711895 277.38,111.711895 Z M295.956,112.383895 C295.956,109.887895 294.996,109.359895 293.94,109.359895 C293.364,109.359895 292.884,109.599895 292.884,109.695895 L292.884,131.103895 C292.884,132.255895 293.46,132.591895 294.276,132.591895 L294.612,132.591895 C295.428,132.591895 296.004,132.255895 296.004,131.103895 L296.004,116.751895 C297.348,113.871895 299.988,111.903895 303.54,111.903895 C307.428,111.903895 309.684,114.687895 309.684,119.247895 L309.684,131.103895 C309.684,132.255895 310.26,132.591895 311.076,132.591895 L311.412,132.591895 C312.228,132.591895 312.804,132.255895 312.804,131.103895 L312.804,119.055895 C312.804,113.007895 309.78,108.975895 303.732,108.975895 C300.18,108.975895 297.54,110.703895 295.956,113.151895 L295.956,112.383895 Z M329.268,132.975895 C335.94,132.975895 339.108,128.703895 339.108,126.639895 C339.108,125.247895 337.14,124.959895 337.044,125.151895 C335.844,127.983895 333.636,130.191895 329.268,130.191895 C324.324,130.191895 320.676,126.255895 320.676,120.927895 C320.676,115.599895 324.372,111.759895 329.268,111.759895 C333.636,111.759895 335.844,113.967895 337.044,116.799895 C337.14,116.991895 339.108,116.703895 339.108,115.311895 C339.108,113.247895 335.94,108.975895 329.268,108.975895 C322.548,108.975895 317.508,114.015895 317.508,120.927895 C317.508,127.887895 322.548,132.975895 329.268,132.975895 Z M354.18,132.975895 C360.372,132.975895 363.828,129.471895 363.828,127.887895 C363.828,126.399895 362.1,125.967895 362.004,126.111895 C360.66,128.271895 358.644,130.191895 354.18,130.191895 C349.284,130.191895 345.732,126.735895 345.492,121.839895 L363.252,121.839895 C364.212,121.839895 364.548,121.647895 364.548,120.783895 L364.548,120.495895 C364.548,113.535895 360.324,108.975895 353.892,108.975895 C347.268,108.975895 342.372,114.111895 342.372,121.071895 C342.372,128.079895 347.22,132.975895 354.18,132.975895 Z M353.892,111.711895 C358.164,111.711895 360.948,114.639895 361.236,119.151895 L345.588,119.151895 C346.26,114.783895 349.572,111.711895 353.892,111.711895 Z M135.972,184.399895 L143.076,184.399895 C153.876,184.399895 160.308,178.591895 160.308,168.799895 C160.308,159.055895 154.02,153.343895 143.316,153.343895 L135.972,153.343895 C134.964,153.343895 134.148,154.159895 134.148,155.167895 L134.148,182.575895 C134.148,183.583895 134.964,184.399895 135.972,184.399895 Z M137.412,181.519895 L137.412,156.223895 L143.316,156.223895 C151.86,156.223895 156.948,160.975895 156.948,168.895895 C156.948,176.911895 152.004,181.519895 143.268,181.519895 L137.412,181.519895 Z M175.956,184.975895 C182.148,184.975895 185.604,181.471895 185.604,179.887895 C185.604,178.399895 183.876,177.967895 183.78,178.111895 C182.436,180.271895 180.42,182.191895 175.956,182.191895 C171.06,182.191895 167.508,178.735895 167.268,173.839895 L185.028,173.839895 C185.988,173.839895 186.324,173.647895 186.324,172.783895 L186.324,172.495895 C186.324,165.535895 182.1,160.975895 175.668,160.975895 C169.044,160.975895 164.148,166.111895 164.148,173.071895 C164.148,180.079895 168.996,184.975895 175.956,184.975895 Z M175.668,163.711895 C179.94,163.711895 182.724,166.639895 183.012,171.151895 L167.364,171.151895 C168.036,166.783895 171.348,163.711895 175.668,163.711895 Z M198.852,184.975895 C204.42,184.975895 207.876,182.239895 207.876,178.015895 C207.876,173.311895 203.172,172.303895 199.476,171.487895 C195.252,170.575895 193.092,169.903895 193.092,167.455895 C193.092,165.199895 195.108,163.615895 198.852,163.615895 C201.972,163.615895 204.276,165.007895 205.572,166.975895 C205.668,167.119895 207.3,166.543895 207.3,165.343895 C207.3,163.615895 204.42,160.975895 198.852,160.975895 C193.572,160.975895 190.116,163.807895 190.116,167.887895 C190.116,172.495895 194.58,173.503895 198.132,174.271895 C202.452,175.183895 204.852,175.759895 204.852,178.495895 C204.852,180.799895 202.74,182.335895 198.948,182.335895 C195.156,182.335895 192.66,180.751895 191.124,178.639895 C191.028,178.543895 189.444,179.023895 189.444,180.319895 C189.444,182.047895 192.756,184.975895 198.852,184.975895 Z M214.74,155.839895 C216.132,155.839895 216.852,155.167895 216.852,153.775895 C216.852,152.383895 216.18,151.711895 214.836,151.711895 C213.444,151.711895 212.724,152.383895 212.724,153.775895 C212.724,155.119895 213.444,155.839895 214.74,155.839895 Z M214.596,184.591895 L214.932,184.591895 C215.748,184.591895 216.324,184.255895 216.324,183.103895 L216.324,162.847895 C216.324,161.695895 215.748,161.359895 214.932,161.359895 L214.596,161.359895 C213.78,161.359895 213.204,161.695895 213.204,162.847895 L213.204,183.103895 C213.204,184.255895 213.78,184.591895 214.596,184.591895 Z M230.58,194.527895 C237.924,194.527895 242.244,191.983895 242.244,187.711895 C242.244,184.063895 238.788,182.527895 235.524,181.711895 C231.348,180.655895 229.188,180.511895 229.188,178.927895 C229.188,178.543895 229.236,178.207895 229.524,177.775895 C229.908,177.823895 230.34,177.823895 230.772,177.823895 C236.148,177.823895 240.18,174.127895 240.18,169.423895 C240.18,167.551895 239.46,165.775895 238.308,164.383895 L242.1,160.159895 C242.196,160.063895 241.62,158.767895 240.324,158.767895 C239.316,158.767895 238.788,159.247895 238.116,160.207895 L236.532,162.751895 C234.948,161.647895 232.932,160.975895 230.772,160.975895 C225.444,160.975895 221.508,164.863895 221.508,169.615895 C221.508,173.119895 223.764,176.047895 227.22,177.247895 C226.644,177.871895 226.212,178.687895 226.212,179.503895 C226.212,180.559895 226.644,181.231895 227.22,181.711895 C223.044,182.527895 219.828,184.831895 219.828,188.287895 C219.828,192.511895 223.284,194.527895 230.58,194.527895 Z M230.82,175.375895 C227.22,175.375895 224.676,172.975895 224.676,169.519895 C224.676,165.967895 227.172,163.567895 230.724,163.567895 C234.468,163.567895 236.964,166.063895 236.964,169.519895 C236.964,172.975895 234.468,175.375895 230.82,175.375895 Z M239.124,187.807895 C239.124,190.495895 235.908,191.983895 230.676,191.983895 C225.54,191.983895 222.852,190.687895 222.852,188.287895 C222.852,185.407895 226.788,183.775895 231.156,183.535895 C234.804,184.447895 239.124,185.023895 239.124,187.807895 Z M248.676,164.383895 C248.676,161.887895 247.716,161.359895 246.66,161.359895 C246.084,161.359895 245.604,161.599895 245.604,161.695895 L245.604,183.103895 C245.604,184.255895 246.18,184.591895 246.996,184.591895 L247.332,184.591895 C248.148,184.591895 248.724,184.255895 248.724,183.103895 L248.724,168.751895 C250.068,165.871895 252.708,163.903895 256.26,163.903895 C260.148,163.903895 262.404,166.687895 262.404,171.247895 L262.404,183.103895 C262.404,184.255895 262.98,184.591895 263.796,184.591895 L264.132,184.591895 C264.948,184.591895 265.524,184.255895 265.524,183.103895 L265.524,171.055895 C265.524,165.007895 262.5,160.975895 256.452,160.975895 C252.9,160.975895 250.26,162.703895 248.676,165.151895 L248.676,164.383895 Z" id="User-Experience" fill="#FFFFFF" sketch:type="MSShapeGroup"></path>
        </g>
    </g>
</svg>